%TF.GenerationSoftware,KiCad,Pcbnew,7.0.1*%
%TF.CreationDate,2023-07-16T19:11:46-05:00*%
%TF.ProjectId,Knockoff Inverter,4b6e6f63-6b6f-4666-9620-496e76657274,rev?*%
%TF.SameCoordinates,Original*%
%TF.FileFunction,Copper,L4,Bot*%
%TF.FilePolarity,Positive*%
%FSLAX46Y46*%
G04 Gerber Fmt 4.6, Leading zero omitted, Abs format (unit mm)*
G04 Created by KiCad (PCBNEW 7.0.1) date 2023-07-16 19:11:46*
%MOMM*%
%LPD*%
G01*
G04 APERTURE LIST*
G04 Aperture macros list*
%AMFreePoly0*
4,1,13,2.850000,-5.050000,1.450000,-5.050000,1.450000,-4.350000,-1.450000,-4.350000,-1.450000,-4.850000,-5.150000,-4.850000,-5.150000,4.850000,-1.450000,4.850000,-1.450000,4.350000,1.450000,4.350000,1.450000,5.050000,2.850000,5.050000,2.850000,-5.050000,2.850000,-5.050000,$1*%
%AMFreePoly1*
4,1,5,4.000000,-1.500000,-4.000000,-1.500000,-4.000000,1.500000,4.000000,1.500000,4.000000,-1.500000,4.000000,-1.500000,$1*%
G04 Aperture macros list end*
%TA.AperFunction,ComponentPad*%
%ADD10C,8.000000*%
%TD*%
%TA.AperFunction,ComponentPad*%
%ADD11R,2.400000X2.400000*%
%TD*%
%TA.AperFunction,ComponentPad*%
%ADD12C,2.400000*%
%TD*%
%TA.AperFunction,ComponentPad*%
%ADD13C,0.600000*%
%TD*%
%TA.AperFunction,SMDPad,CuDef*%
%ADD14FreePoly0,180.000000*%
%TD*%
%TA.AperFunction,SMDPad,CuDef*%
%ADD15FreePoly1,90.000000*%
%TD*%
%TA.AperFunction,SMDPad,CuDef*%
%ADD16FreePoly0,90.000000*%
%TD*%
%TA.AperFunction,ComponentPad*%
%ADD17O,1.000000X2.100000*%
%TD*%
%TA.AperFunction,ComponentPad*%
%ADD18O,1.000000X1.600000*%
%TD*%
%TA.AperFunction,ComponentPad*%
%ADD19O,1.400000X2.800000*%
%TD*%
%TA.AperFunction,ComponentPad*%
%ADD20O,1.200000X2.400000*%
%TD*%
%TA.AperFunction,ViaPad*%
%ADD21C,0.800000*%
%TD*%
%TA.AperFunction,Conductor*%
%ADD22C,0.200000*%
%TD*%
G04 APERTURE END LIST*
D10*
%TO.P,J7,1,Pin_1*%
%TO.N,GND*%
X208788000Y-85598000D03*
%TD*%
D11*
%TO.P,C20,1*%
%TO.N,VBUS*%
X122555000Y-36532755D03*
D12*
%TO.P,C20,2*%
%TO.N,GND*%
X122555000Y-29032755D03*
%TD*%
D10*
%TO.P,J8,1,Pin_1*%
%TO.N,Net-(J8-Pin_1)*%
X100965000Y-85725000D03*
%TD*%
D13*
%TO.P,Q7,3,D*%
%TO.N,Net-(J8-Pin_1)*%
X110192000Y-86820000D03*
X112592000Y-79620000D03*
X110192000Y-83220000D03*
X113792000Y-86820000D03*
X111392000Y-83220000D03*
X112592000Y-82020000D03*
X112592000Y-86820000D03*
X108992000Y-82020000D03*
X108992000Y-83220000D03*
X113792000Y-82020000D03*
X107792000Y-79620000D03*
X110192000Y-82020000D03*
X111392000Y-80820000D03*
X107792000Y-86820000D03*
X112592000Y-85620000D03*
X110192000Y-79620000D03*
D14*
X109322000Y-83220000D03*
D13*
X112592000Y-84420000D03*
X113792000Y-79620000D03*
X107792000Y-82020000D03*
X113792000Y-83220000D03*
X108992000Y-84420000D03*
X111392000Y-86820000D03*
X110192000Y-85620000D03*
X107792000Y-85620000D03*
X111392000Y-84420000D03*
X111392000Y-85620000D03*
X113792000Y-80820000D03*
X113792000Y-84420000D03*
X107792000Y-80820000D03*
X113792000Y-85620000D03*
X108992000Y-86820000D03*
X110192000Y-80820000D03*
X107792000Y-83220000D03*
X111392000Y-82020000D03*
X111392000Y-79620000D03*
X108992000Y-85620000D03*
X112592000Y-80820000D03*
X112592000Y-83220000D03*
X110192000Y-84420000D03*
X108992000Y-80820000D03*
X108992000Y-79620000D03*
X107792000Y-84420000D03*
%TD*%
D11*
%TO.P,C24,1*%
%TO.N,VBUS*%
X201930000Y-36532755D03*
D12*
%TO.P,C24,2*%
%TO.N,GND*%
X201930000Y-29032755D03*
%TD*%
D11*
%TO.P,C23,1*%
%TO.N,VBUS*%
X184380000Y-36532755D03*
D12*
%TO.P,C23,2*%
%TO.N,GND*%
X184380000Y-29032755D03*
%TD*%
D11*
%TO.P,C21,1*%
%TO.N,VBUS*%
X144780000Y-36532755D03*
D12*
%TO.P,C21,2*%
%TO.N,GND*%
X144780000Y-29032755D03*
%TD*%
D11*
%TO.P,C19,1*%
%TO.N,VBUS*%
X105005000Y-36532755D03*
D12*
%TO.P,C19,2*%
%TO.N,GND*%
X105005000Y-29032755D03*
%TD*%
D11*
%TO.P,C22,1*%
%TO.N,VBUS*%
X162330000Y-36532755D03*
D12*
%TO.P,C22,2*%
%TO.N,GND*%
X162330000Y-29032755D03*
%TD*%
D13*
%TO.P,Q13,3,D*%
%TO.N,Net-(Q10-D)*%
X193862250Y-62528000D03*
X194624250Y-62528000D03*
X195386250Y-62528000D03*
X201482250Y-62528000D03*
X202244250Y-62528000D03*
X203006250Y-62528000D03*
X193862250Y-61328000D03*
X194624250Y-61328000D03*
X195386250Y-61328000D03*
X201482250Y-61328000D03*
X202244250Y-61328000D03*
X203006250Y-61328000D03*
X193862250Y-60128000D03*
X194624250Y-60128000D03*
X195386250Y-60128000D03*
X201482250Y-60128000D03*
X202244250Y-60128000D03*
X203006250Y-60128000D03*
D15*
X194834250Y-59228000D03*
X202034250Y-59228000D03*
D13*
X193862250Y-58928000D03*
X194624250Y-58928000D03*
X195386250Y-58928000D03*
X201482250Y-58928000D03*
X202244250Y-58928000D03*
X203006250Y-58928000D03*
X193862250Y-57728000D03*
X194624250Y-57728000D03*
X195386250Y-57728000D03*
X201482250Y-57728000D03*
X202244250Y-57728000D03*
X203006250Y-57728000D03*
X193862250Y-56528000D03*
X194624250Y-56528000D03*
X195386250Y-56528000D03*
X201482250Y-56528000D03*
X202244250Y-56528000D03*
X203006250Y-56528000D03*
%TD*%
%TO.P,Q12,3,D*%
%TO.N,Net-(Q12-D)*%
X154276350Y-62578800D03*
X155038350Y-62578800D03*
X155800350Y-62578800D03*
X161896350Y-62578800D03*
X162658350Y-62578800D03*
X163420350Y-62578800D03*
X154276350Y-61378800D03*
X155038350Y-61378800D03*
X155800350Y-61378800D03*
X161896350Y-61378800D03*
X162658350Y-61378800D03*
X163420350Y-61378800D03*
X154276350Y-60178800D03*
X155038350Y-60178800D03*
X155800350Y-60178800D03*
X161896350Y-60178800D03*
X162658350Y-60178800D03*
X163420350Y-60178800D03*
D15*
X155248350Y-59278800D03*
X162448350Y-59278800D03*
D13*
X154276350Y-58978800D03*
X155038350Y-58978800D03*
X155800350Y-58978800D03*
X161896350Y-58978800D03*
X162658350Y-58978800D03*
X163420350Y-58978800D03*
X154276350Y-57778800D03*
X155038350Y-57778800D03*
X155800350Y-57778800D03*
X161896350Y-57778800D03*
X162658350Y-57778800D03*
X163420350Y-57778800D03*
X154276350Y-56578800D03*
X155038350Y-56578800D03*
X155800350Y-56578800D03*
X161896350Y-56578800D03*
X162658350Y-56578800D03*
X163420350Y-56578800D03*
%TD*%
%TO.P,Q11,3,D*%
%TO.N,Net-(Q1-S)*%
X114614250Y-62528000D03*
X115376250Y-62528000D03*
X116138250Y-62528000D03*
X122234250Y-62528000D03*
X122996250Y-62528000D03*
X123758250Y-62528000D03*
X114614250Y-61328000D03*
X115376250Y-61328000D03*
X116138250Y-61328000D03*
X122234250Y-61328000D03*
X122996250Y-61328000D03*
X123758250Y-61328000D03*
X114614250Y-60128000D03*
X115376250Y-60128000D03*
X116138250Y-60128000D03*
X122234250Y-60128000D03*
X122996250Y-60128000D03*
X123758250Y-60128000D03*
D15*
X115586250Y-59228000D03*
X122786250Y-59228000D03*
D13*
X114614250Y-58928000D03*
X115376250Y-58928000D03*
X116138250Y-58928000D03*
X122234250Y-58928000D03*
X122996250Y-58928000D03*
X123758250Y-58928000D03*
X114614250Y-57728000D03*
X115376250Y-57728000D03*
X116138250Y-57728000D03*
X122234250Y-57728000D03*
X122996250Y-57728000D03*
X123758250Y-57728000D03*
X114614250Y-56528000D03*
X115376250Y-56528000D03*
X116138250Y-56528000D03*
X122234250Y-56528000D03*
X122996250Y-56528000D03*
X123758250Y-56528000D03*
%TD*%
%TO.P,Q10,3,D*%
%TO.N,Net-(Q10-D)*%
X183104250Y-62528000D03*
X183866250Y-62528000D03*
X184628250Y-62528000D03*
X190724250Y-62528000D03*
X191486250Y-62528000D03*
X192248250Y-62528000D03*
X183104250Y-61328000D03*
X183866250Y-61328000D03*
X184628250Y-61328000D03*
X190724250Y-61328000D03*
X191486250Y-61328000D03*
X192248250Y-61328000D03*
X183104250Y-60128000D03*
X183866250Y-60128000D03*
X184628250Y-60128000D03*
X190724250Y-60128000D03*
X191486250Y-60128000D03*
X192248250Y-60128000D03*
D15*
X184076250Y-59228000D03*
X191276250Y-59228000D03*
D13*
X183104250Y-58928000D03*
X183866250Y-58928000D03*
X184628250Y-58928000D03*
X190724250Y-58928000D03*
X191486250Y-58928000D03*
X192248250Y-58928000D03*
X183104250Y-57728000D03*
X183866250Y-57728000D03*
X184628250Y-57728000D03*
X190724250Y-57728000D03*
X191486250Y-57728000D03*
X192248250Y-57728000D03*
X183104250Y-56528000D03*
X183866250Y-56528000D03*
X184628250Y-56528000D03*
X190724250Y-56528000D03*
X191486250Y-56528000D03*
X192248250Y-56528000D03*
%TD*%
%TO.P,Q9,3,D*%
%TO.N,Net-(Q12-D)*%
X143518350Y-62578800D03*
X144280350Y-62578800D03*
X145042350Y-62578800D03*
X151138350Y-62578800D03*
X151900350Y-62578800D03*
X152662350Y-62578800D03*
X143518350Y-61378800D03*
X144280350Y-61378800D03*
X145042350Y-61378800D03*
X151138350Y-61378800D03*
X151900350Y-61378800D03*
X152662350Y-61378800D03*
X143518350Y-60178800D03*
X144280350Y-60178800D03*
X145042350Y-60178800D03*
X151138350Y-60178800D03*
X151900350Y-60178800D03*
X152662350Y-60178800D03*
D15*
X144490350Y-59278800D03*
X151690350Y-59278800D03*
D13*
X143518350Y-58978800D03*
X144280350Y-58978800D03*
X145042350Y-58978800D03*
X151138350Y-58978800D03*
X151900350Y-58978800D03*
X152662350Y-58978800D03*
X143518350Y-57778800D03*
X144280350Y-57778800D03*
X145042350Y-57778800D03*
X151138350Y-57778800D03*
X151900350Y-57778800D03*
X152662350Y-57778800D03*
X143518350Y-56578800D03*
X144280350Y-56578800D03*
X145042350Y-56578800D03*
X151138350Y-56578800D03*
X151900350Y-56578800D03*
X152662350Y-56578800D03*
%TD*%
%TO.P,Q8,3,D*%
%TO.N,Net-(Q1-S)*%
X103856250Y-62528000D03*
X104618250Y-62528000D03*
X105380250Y-62528000D03*
X111476250Y-62528000D03*
X112238250Y-62528000D03*
X113000250Y-62528000D03*
X103856250Y-61328000D03*
X104618250Y-61328000D03*
X105380250Y-61328000D03*
X111476250Y-61328000D03*
X112238250Y-61328000D03*
X113000250Y-61328000D03*
X103856250Y-60128000D03*
X104618250Y-60128000D03*
X105380250Y-60128000D03*
X111476250Y-60128000D03*
X112238250Y-60128000D03*
X113000250Y-60128000D03*
D15*
X104828250Y-59228000D03*
X112028250Y-59228000D03*
D13*
X103856250Y-58928000D03*
X104618250Y-58928000D03*
X105380250Y-58928000D03*
X111476250Y-58928000D03*
X112238250Y-58928000D03*
X113000250Y-58928000D03*
X103856250Y-57728000D03*
X104618250Y-57728000D03*
X105380250Y-57728000D03*
X111476250Y-57728000D03*
X112238250Y-57728000D03*
X113000250Y-57728000D03*
X103856250Y-56528000D03*
X104618250Y-56528000D03*
X105380250Y-56528000D03*
X111476250Y-56528000D03*
X112238250Y-56528000D03*
X113000250Y-56528000D03*
%TD*%
%TO.P,Q6,3,D*%
%TO.N,VBUS*%
X194821250Y-45033000D03*
X202021250Y-47433000D03*
X198421250Y-45033000D03*
X194821250Y-48633000D03*
X198421250Y-46233000D03*
X199621250Y-47433000D03*
X194821250Y-47433000D03*
X199621250Y-43833000D03*
X198421250Y-43833000D03*
X199621250Y-48633000D03*
X202021250Y-42633000D03*
X199621250Y-45033000D03*
X200821250Y-46233000D03*
X194821250Y-42633000D03*
X196021250Y-47433000D03*
X202021250Y-45033000D03*
D16*
X198421250Y-44163000D03*
D13*
X197221250Y-47433000D03*
X202021250Y-48633000D03*
X199621250Y-42633000D03*
X198421250Y-48633000D03*
X197221250Y-43833000D03*
X194821250Y-46233000D03*
X196021250Y-45033000D03*
X196021250Y-42633000D03*
X197221250Y-46233000D03*
X196021250Y-46233000D03*
X200821250Y-48633000D03*
X197221250Y-48633000D03*
X200821250Y-42633000D03*
X196021250Y-48633000D03*
X194821250Y-43833000D03*
X200821250Y-45033000D03*
X198421250Y-42633000D03*
X199621250Y-46233000D03*
X202021250Y-46233000D03*
X196021250Y-43833000D03*
X200821250Y-47433000D03*
X198421250Y-47433000D03*
X197221250Y-45033000D03*
X200821250Y-43833000D03*
X202021250Y-43833000D03*
X197221250Y-42633000D03*
%TD*%
%TO.P,Q5,3,D*%
%TO.N,VBUS*%
X155235350Y-45083800D03*
X162435350Y-47483800D03*
X158835350Y-45083800D03*
X155235350Y-48683800D03*
X158835350Y-46283800D03*
X160035350Y-47483800D03*
X155235350Y-47483800D03*
X160035350Y-43883800D03*
X158835350Y-43883800D03*
X160035350Y-48683800D03*
X162435350Y-42683800D03*
X160035350Y-45083800D03*
X161235350Y-46283800D03*
X155235350Y-42683800D03*
X156435350Y-47483800D03*
X162435350Y-45083800D03*
D16*
X158835350Y-44213800D03*
D13*
X157635350Y-47483800D03*
X162435350Y-48683800D03*
X160035350Y-42683800D03*
X158835350Y-48683800D03*
X157635350Y-43883800D03*
X155235350Y-46283800D03*
X156435350Y-45083800D03*
X156435350Y-42683800D03*
X157635350Y-46283800D03*
X156435350Y-46283800D03*
X161235350Y-48683800D03*
X157635350Y-48683800D03*
X161235350Y-42683800D03*
X156435350Y-48683800D03*
X155235350Y-43883800D03*
X161235350Y-45083800D03*
X158835350Y-42683800D03*
X160035350Y-46283800D03*
X162435350Y-46283800D03*
X156435350Y-43883800D03*
X161235350Y-47483800D03*
X158835350Y-47483800D03*
X157635350Y-45083800D03*
X161235350Y-43883800D03*
X162435350Y-43883800D03*
X157635350Y-42683800D03*
%TD*%
%TO.P,Q4,3,D*%
%TO.N,VBUS*%
X115573250Y-45033000D03*
X122773250Y-47433000D03*
X119173250Y-45033000D03*
X115573250Y-48633000D03*
X119173250Y-46233000D03*
X120373250Y-47433000D03*
X115573250Y-47433000D03*
X120373250Y-43833000D03*
X119173250Y-43833000D03*
X120373250Y-48633000D03*
X122773250Y-42633000D03*
X120373250Y-45033000D03*
X121573250Y-46233000D03*
X115573250Y-42633000D03*
X116773250Y-47433000D03*
X122773250Y-45033000D03*
D16*
X119173250Y-44163000D03*
D13*
X117973250Y-47433000D03*
X122773250Y-48633000D03*
X120373250Y-42633000D03*
X119173250Y-48633000D03*
X117973250Y-43833000D03*
X115573250Y-46233000D03*
X116773250Y-45033000D03*
X116773250Y-42633000D03*
X117973250Y-46233000D03*
X116773250Y-46233000D03*
X121573250Y-48633000D03*
X117973250Y-48633000D03*
X121573250Y-42633000D03*
X116773250Y-48633000D03*
X115573250Y-43833000D03*
X121573250Y-45033000D03*
X119173250Y-42633000D03*
X120373250Y-46233000D03*
X122773250Y-46233000D03*
X116773250Y-43833000D03*
X121573250Y-47433000D03*
X119173250Y-47433000D03*
X117973250Y-45033000D03*
X121573250Y-43833000D03*
X122773250Y-43833000D03*
X117973250Y-42633000D03*
%TD*%
%TO.P,Q3,3,D*%
%TO.N,VBUS*%
X184076250Y-45033000D03*
X191276250Y-47433000D03*
X187676250Y-45033000D03*
X184076250Y-48633000D03*
X187676250Y-46233000D03*
X188876250Y-47433000D03*
X184076250Y-47433000D03*
X188876250Y-43833000D03*
X187676250Y-43833000D03*
X188876250Y-48633000D03*
X191276250Y-42633000D03*
X188876250Y-45033000D03*
X190076250Y-46233000D03*
X184076250Y-42633000D03*
X185276250Y-47433000D03*
X191276250Y-45033000D03*
D16*
X187676250Y-44163000D03*
D13*
X186476250Y-47433000D03*
X191276250Y-48633000D03*
X188876250Y-42633000D03*
X187676250Y-48633000D03*
X186476250Y-43833000D03*
X184076250Y-46233000D03*
X185276250Y-45033000D03*
X185276250Y-42633000D03*
X186476250Y-46233000D03*
X185276250Y-46233000D03*
X190076250Y-48633000D03*
X186476250Y-48633000D03*
X190076250Y-42633000D03*
X185276250Y-48633000D03*
X184076250Y-43833000D03*
X190076250Y-45033000D03*
X187676250Y-42633000D03*
X188876250Y-46233000D03*
X191276250Y-46233000D03*
X185276250Y-43833000D03*
X190076250Y-47433000D03*
X187676250Y-47433000D03*
X186476250Y-45033000D03*
X190076250Y-43833000D03*
X191276250Y-43833000D03*
X186476250Y-42633000D03*
%TD*%
%TO.P,Q2,3,D*%
%TO.N,VBUS*%
X144490350Y-45083800D03*
X151690350Y-47483800D03*
X148090350Y-45083800D03*
X144490350Y-48683800D03*
X148090350Y-46283800D03*
X149290350Y-47483800D03*
X144490350Y-47483800D03*
X149290350Y-43883800D03*
X148090350Y-43883800D03*
X149290350Y-48683800D03*
X151690350Y-42683800D03*
X149290350Y-45083800D03*
X150490350Y-46283800D03*
X144490350Y-42683800D03*
X145690350Y-47483800D03*
X151690350Y-45083800D03*
D16*
X148090350Y-44213800D03*
D13*
X146890350Y-47483800D03*
X151690350Y-48683800D03*
X149290350Y-42683800D03*
X148090350Y-48683800D03*
X146890350Y-43883800D03*
X144490350Y-46283800D03*
X145690350Y-45083800D03*
X145690350Y-42683800D03*
X146890350Y-46283800D03*
X145690350Y-46283800D03*
X150490350Y-48683800D03*
X146890350Y-48683800D03*
X150490350Y-42683800D03*
X145690350Y-48683800D03*
X144490350Y-43883800D03*
X150490350Y-45083800D03*
X148090350Y-42683800D03*
X149290350Y-46283800D03*
X151690350Y-46283800D03*
X145690350Y-43883800D03*
X150490350Y-47483800D03*
X148090350Y-47483800D03*
X146890350Y-45083800D03*
X150490350Y-43883800D03*
X151690350Y-43883800D03*
X146890350Y-42683800D03*
%TD*%
%TO.P,Q1,3,D*%
%TO.N,VBUS*%
X104828250Y-45033000D03*
X112028250Y-47433000D03*
X108428250Y-45033000D03*
X104828250Y-48633000D03*
X108428250Y-46233000D03*
X109628250Y-47433000D03*
X104828250Y-47433000D03*
X109628250Y-43833000D03*
X108428250Y-43833000D03*
X109628250Y-48633000D03*
X112028250Y-42633000D03*
X109628250Y-45033000D03*
X110828250Y-46233000D03*
X104828250Y-42633000D03*
X106028250Y-47433000D03*
X112028250Y-45033000D03*
D16*
X108428250Y-44163000D03*
D13*
X107228250Y-47433000D03*
X112028250Y-48633000D03*
X109628250Y-42633000D03*
X108428250Y-48633000D03*
X107228250Y-43833000D03*
X104828250Y-46233000D03*
X106028250Y-45033000D03*
X106028250Y-42633000D03*
X107228250Y-46233000D03*
X106028250Y-46233000D03*
X110828250Y-48633000D03*
X107228250Y-48633000D03*
X110828250Y-42633000D03*
X106028250Y-48633000D03*
X104828250Y-43833000D03*
X110828250Y-45033000D03*
X108428250Y-42633000D03*
X109628250Y-46233000D03*
X112028250Y-46233000D03*
X106028250Y-43833000D03*
X110828250Y-47433000D03*
X108428250Y-47433000D03*
X107228250Y-45033000D03*
X110828250Y-43833000D03*
X112028250Y-43833000D03*
X107228250Y-42633000D03*
%TD*%
D10*
%TO.P,J5,1,Pin_1*%
%TO.N,Net-(J5-Pin_1)*%
X208883250Y-62992000D03*
%TD*%
%TO.P,J4,1,Pin_1*%
%TO.N,Net-(J4-Pin_1)*%
X169297350Y-63042799D03*
%TD*%
%TO.P,J3,1,Pin_1*%
%TO.N,Net-(J3-Pin_1)*%
X129635250Y-62991999D03*
%TD*%
D17*
%TO.P,J2,S1,SHIELD*%
%TO.N,GND1*%
X203577000Y-105040000D03*
D18*
X203577000Y-109220000D03*
D17*
X212217000Y-105040000D03*
D18*
X212217000Y-109220000D03*
%TD*%
D19*
%TO.P,J1,S1,SHIELD*%
%TO.N,GND*%
X128534000Y-100584000D03*
%TO.P,J1,S2,SHIELD*%
X145034000Y-100584000D03*
D20*
%TO.P,J1,S3,SHIELD*%
X128534000Y-107364000D03*
%TO.P,J1,S4,SHIELD*%
X145034000Y-107364000D03*
%TD*%
D21*
%TO.N,+12V*%
X169418000Y-92111500D03*
X95885000Y-91059000D03*
%TO.N,+3.3V*%
X191135000Y-107950000D03*
%TO.N,GND*%
X100584000Y-72644000D03*
X98679000Y-72644000D03*
X99568000Y-72644000D03*
X97790000Y-72644000D03*
X96774000Y-72644000D03*
%TO.N,+12V*%
X177546000Y-47752000D03*
X137668000Y-47752000D03*
%TO.N,VBUS*%
X150114000Y-86477000D03*
%TO.N,GND*%
X133604000Y-82296000D03*
X133604000Y-83312000D03*
X133604000Y-84328000D03*
X134620000Y-84328000D03*
X134620000Y-83312000D03*
X134620000Y-82296000D03*
X135890000Y-82296000D03*
X135890000Y-83312000D03*
X135890000Y-84328000D03*
X136906000Y-84328000D03*
X136906000Y-83312000D03*
X136906000Y-82296000D03*
X137922000Y-82296000D03*
X137922000Y-83312000D03*
X137922000Y-84328000D03*
X139954000Y-84328000D03*
X139954000Y-83312000D03*
X139954000Y-82296000D03*
X140970000Y-82296000D03*
X140970000Y-83312000D03*
X140970000Y-84328000D03*
X169672000Y-99402500D03*
%TO.N,Net-(U17-OVP)*%
X136144000Y-92202000D03*
%TO.N,+12V*%
X136652000Y-76708000D03*
X136398000Y-64516000D03*
%TO.N,+5V*%
X210312000Y-90170000D03*
X209042000Y-43688000D03*
%TO.N,/MCU/ADC1_IN2*%
X175514000Y-44958000D03*
%TO.N,/MCU/ADC1_IN1*%
X133858000Y-44912300D03*
%TO.N,+5V*%
X169164000Y-43434000D03*
X129635250Y-43434000D03*
%TO.N,Net-(Q10-D)*%
X189230000Y-92964000D03*
%TO.N,GND1*%
X212344000Y-99822000D03*
X210820000Y-99822000D03*
%TO.N,Net-(U7-VBUS1)*%
X204724000Y-106934000D03*
X210058000Y-106426000D03*
%TO.N,GND*%
X185928000Y-108204000D03*
%TO.N,VREF_OUT*%
X185170533Y-96012000D03*
%TO.N,+5V*%
X193040000Y-90342500D03*
X160528000Y-90424000D03*
%TO.N,VBUS*%
X172212000Y-83820000D03*
X173228000Y-92328497D03*
%TO.N,Net-(U2-VDDA)*%
X163068000Y-93980000D03*
X174969632Y-93860676D03*
%TO.N,GND*%
X179324000Y-100584000D03*
X175260000Y-100584000D03*
X175260000Y-102616000D03*
X179324000Y-102616000D03*
X176276000Y-100584000D03*
X178308000Y-100584000D03*
X177292000Y-100584000D03*
X178308000Y-102616000D03*
X176276000Y-102616000D03*
X177292000Y-102616000D03*
%TO.N,+3.3V*%
X156972000Y-88138000D03*
%TO.N,GND*%
X151892000Y-99395500D03*
X152654000Y-90678000D03*
X156972000Y-93726000D03*
%TO.N,/DC INPUT/nPGD*%
X127508000Y-91440000D03*
%TO.N,/DC INPUT/EN*%
X171958000Y-98044000D03*
%TO.N,NSRST*%
X202946000Y-86614000D03*
X203962000Y-101600000D03*
X182118000Y-101600000D03*
%TO.N,GND*%
X189148500Y-100584000D03*
%TO.N,/MCU/SPI1_MISO*%
X150622000Y-95563500D03*
X149352000Y-103632000D03*
%TO.N,/MCU/SPI1_NSS*%
X154432000Y-108458000D03*
X154432000Y-100076000D03*
%TO.N,/MCU/ADC1_IN1*%
X180086000Y-91522000D03*
X135382000Y-91186000D03*
%TO.N,VREF_OUT*%
X135890000Y-45466000D03*
%TO.N,/MCU/ADC1_IN3*%
X183401533Y-91521500D03*
%TO.N,VREF_OUT*%
X180848000Y-90932000D03*
X212388997Y-89408000D03*
%TO.N,+3.3V*%
X213106000Y-98044000D03*
%TO.N,/MCU/ADC1_IN3*%
X213278500Y-89408000D03*
%TO.N,VREF_OUT*%
X173736000Y-45720000D03*
%TO.N,/MCU/ADC1_IN3*%
X213868000Y-45212000D03*
%TO.N,VREF_OUT*%
X213106000Y-45720000D03*
%TO.N,Net-(Q1-S)*%
X128524000Y-87203500D03*
X169418000Y-87884000D03*
%TO.N,Net-(Q12-D)*%
X163830000Y-86360000D03*
X183896000Y-86614000D03*
X185674000Y-102362000D03*
%TO.N,+3.3V*%
X198628000Y-86106000D03*
%TO.N,GND*%
X209550000Y-74930000D03*
%TO.N,CAN_RX*%
X213614000Y-69342000D03*
%TO.N,Net-(D4-K)*%
X190581500Y-95250000D03*
%TO.N,Net-(D3-K)*%
X190246000Y-94234000D03*
X173786410Y-108072090D03*
%TO.N,Net-(D4-K)*%
X172897840Y-108280160D03*
%TO.N,JTRST*%
X172466000Y-105918000D03*
X176784000Y-107950000D03*
%TO.N,/MCU/USB_DP*%
X183143254Y-103009877D03*
%TO.N,/MCU/USB_DM*%
X183120901Y-103899099D03*
%TO.N,/MCU/USB_DP*%
X164846000Y-101161500D03*
%TO.N,/MCU/USB_DM*%
X165831154Y-101161500D03*
%TO.N,/MCU/TIM_CH3*%
X176530000Y-65532000D03*
X166720657Y-101161500D03*
%TO.N,/MCU/TIM_CH2*%
X141003595Y-89264202D03*
X167640000Y-89408000D03*
X167610160Y-101161500D03*
%TO.N,/MCU/TIM_CH1*%
X160020000Y-102108000D03*
X105692500Y-101539471D03*
%TO.N,Net-(D2-K)*%
X207010000Y-91948000D03*
X207990160Y-100111840D03*
X171196000Y-100871500D03*
%TO.N,+3.3V*%
X118618000Y-106680000D03*
%TO.N,GND*%
X140208000Y-89662000D03*
X139192000Y-92456000D03*
X141986000Y-100076000D03*
X140208000Y-95676500D03*
X138684000Y-95676500D03*
X137160000Y-95676500D03*
X118618000Y-110490000D03*
X116840000Y-110490000D03*
%TO.N,+5V*%
X100330000Y-96266000D03*
%TO.N,+12V*%
X177196750Y-78232000D03*
%TO.N,/MCU/TIM_CH3N*%
X179070000Y-65532000D03*
%TO.N,/MCU/TIM_CH2*%
X138556497Y-65532000D03*
%TO.N,/MCU/TIM_CH2N*%
X139446000Y-65532000D03*
X140462000Y-76962000D03*
X178944000Y-80264000D03*
%TO.N,/MCU/TIM_CH3N*%
X177594500Y-95531713D03*
%TO.N,/MCU/TIM_CH2N*%
X177884500Y-94646498D03*
%TO.N,GND*%
X126238000Y-106934000D03*
%TO.N,+3.3V*%
X134620000Y-95504000D03*
%TO.N,SPI_MISO_+*%
X157226000Y-102108000D03*
%TO.N,SPI_MISO_-*%
X157226000Y-100584000D03*
X146816128Y-99478109D03*
%TO.N,SPI_MISO_+*%
X146775325Y-100366675D03*
%TO.N,+12V*%
X172720000Y-81280000D03*
X143510000Y-81280000D03*
%TO.N,GND*%
X185420000Y-80010000D03*
X185420000Y-84836000D03*
X185420000Y-89662000D03*
%TO.N,+12V*%
X187706000Y-88900000D03*
X169418000Y-89662000D03*
X179578000Y-89154000D03*
%TO.N,GND*%
X171704000Y-109138500D03*
%TO.N,+3.3V*%
X161798000Y-107777500D03*
%TO.N,/MCU/SPI1_MOSI*%
X148082000Y-106774500D03*
X178308000Y-106598500D03*
%TO.N,GND1*%
X207010000Y-97282000D03*
X203454000Y-96266000D03*
%TO.N,Net-(J2-D--PadA7)*%
X208026000Y-106172000D03*
X208534000Y-103378000D03*
%TO.N,GND1*%
X199136000Y-109220000D03*
%TO.N,Net-(JP4-A)*%
X202946000Y-107442000D03*
X203200000Y-102870000D03*
%TO.N,Net-(JP4-C)*%
X203200000Y-100838000D03*
X195326000Y-100838000D03*
%TO.N,+3.3V*%
X198628000Y-94742000D03*
%TO.N,GND*%
X193802000Y-94996000D03*
X189230000Y-96012000D03*
X190246000Y-104648000D03*
%TO.N,+3.3V*%
X193802000Y-100838000D03*
%TO.N,5V_ISO*%
X104648000Y-99060000D03*
X104394000Y-110490000D03*
%TO.N,+5V*%
X100076000Y-110490000D03*
%TO.N,GND*%
X110998000Y-110490000D03*
%TO.N,+12V*%
X98044000Y-47752000D03*
X97536000Y-64516000D03*
%TO.N,/MCU/TIM_CH1*%
X98552000Y-67564000D03*
%TO.N,/MCU/TIM_CH1N*%
X99448650Y-67564000D03*
X108204000Y-103632000D03*
X183215500Y-105156000D03*
%TO.N,+3.3V*%
X182626000Y-105918000D03*
%TO.N,GND*%
X182626000Y-109982000D03*
X180594000Y-109982000D03*
%TO.N,/CAN/CAN_TX*%
X123698000Y-109728000D03*
%TO.N,CAN_RX*%
X121158000Y-110490000D03*
X178562000Y-110490000D03*
%TO.N,/CAN/CAN_TX*%
X179070000Y-109728000D03*
%TO.N,/MCU/SPI1_SCK*%
X184150000Y-107188000D03*
X146812000Y-107953500D03*
%TO.N,SPI_MOSI_+*%
X149352000Y-106680000D03*
%TO.N,SPI_MOSI_-*%
X150622000Y-106680000D03*
X140194500Y-104394000D03*
%TO.N,SPI_MOSI_+*%
X140970000Y-105156000D03*
%TO.N,SPI_nSS_-*%
X134492497Y-107950000D03*
%TO.N,SPI_nSS_+*%
X135382000Y-107950000D03*
%TO.N,SPI_SCK_-*%
X138556497Y-107950000D03*
%TO.N,SPI_SCK_+*%
X139446000Y-107950000D03*
X148082000Y-108204000D03*
%TO.N,SPI_SCK_-*%
X149352000Y-108712000D03*
%TO.N,SPI_nSS_-*%
X151892000Y-108712000D03*
%TO.N,SPI_nSS_+*%
X152908000Y-107777500D03*
%TO.N,GND*%
X160020000Y-108458000D03*
%TO.N,+3.3V*%
X155956000Y-108458000D03*
%TO.N,Net-(U2-VDDA)*%
X162814000Y-100330000D03*
%TO.N,+3.3V*%
X161290000Y-104394000D03*
%TO.N,GND*%
X157226000Y-104394000D03*
X155702000Y-103378000D03*
%TO.N,+3.3V*%
X146812000Y-95504000D03*
X150622000Y-100330000D03*
X157480000Y-99395500D03*
%TO.N,GND*%
X157480000Y-94996000D03*
%TO.N,+5V*%
X160492160Y-95793840D03*
%TO.N,GND*%
X162052000Y-95758000D03*
%TO.N,+3.3V*%
X163576000Y-95758000D03*
%TO.N,GND*%
X165100000Y-95504000D03*
X170434000Y-89743500D03*
X176784000Y-87376000D03*
X196342000Y-82804000D03*
X187960000Y-79248000D03*
X190246000Y-79248000D03*
X192532000Y-82550000D03*
%TO.N,VBUS*%
X199898000Y-76708000D03*
X200914000Y-76708000D03*
X201930000Y-76708000D03*
X203962000Y-76708000D03*
X202946000Y-76708000D03*
X194056000Y-76708000D03*
X195072000Y-76708000D03*
X196088000Y-76708000D03*
X198120000Y-76708000D03*
X197104000Y-76708000D03*
X187960000Y-76708000D03*
X188976000Y-76708000D03*
X189992000Y-76708000D03*
X192024000Y-76708000D03*
X191008000Y-76708000D03*
X182118000Y-76708000D03*
X183134000Y-76708000D03*
X184150000Y-76708000D03*
X186182000Y-76708000D03*
X185166000Y-76708000D03*
X160274000Y-76708000D03*
X161290000Y-76708000D03*
X162306000Y-76708000D03*
X164338000Y-76708000D03*
X163322000Y-76708000D03*
X154432000Y-76708000D03*
X155448000Y-76708000D03*
X156464000Y-76708000D03*
X158496000Y-76708000D03*
X157480000Y-76708000D03*
X148336000Y-76708000D03*
X149352000Y-76708000D03*
X150368000Y-76708000D03*
X152400000Y-76708000D03*
X151384000Y-76708000D03*
X142494000Y-76708000D03*
X143510000Y-76708000D03*
X144526000Y-76708000D03*
X146558000Y-76708000D03*
X145542000Y-76708000D03*
X120650000Y-76708000D03*
X121666000Y-76708000D03*
X122682000Y-76708000D03*
X124714000Y-76708000D03*
X123698000Y-76708000D03*
X114808000Y-76708000D03*
X115824000Y-76708000D03*
X116840000Y-76708000D03*
X118872000Y-76708000D03*
X117856000Y-76708000D03*
X108712000Y-76708000D03*
X109728000Y-76708000D03*
X110744000Y-76708000D03*
X112776000Y-76708000D03*
X111760000Y-76708000D03*
X106680000Y-76708000D03*
X105664000Y-76708000D03*
X103632000Y-76708000D03*
X102616000Y-76708000D03*
X104648000Y-76708000D03*
X126492000Y-78486000D03*
X125476000Y-78486000D03*
X127508000Y-78486000D03*
X124460000Y-78486000D03*
X123444000Y-78486000D03*
X121412000Y-78486000D03*
X120396000Y-78486000D03*
X122428000Y-78486000D03*
X126492000Y-79502000D03*
X125476000Y-79502000D03*
X127508000Y-79502000D03*
X124460000Y-79502000D03*
X123444000Y-79502000D03*
X121412000Y-79502000D03*
X120396000Y-79502000D03*
X122428000Y-79502000D03*
X126492000Y-80518000D03*
X125476000Y-80518000D03*
X127508000Y-80518000D03*
X124460000Y-80518000D03*
X123444000Y-80518000D03*
X121412000Y-80518000D03*
X120396000Y-80518000D03*
X122428000Y-80518000D03*
X126492000Y-81534000D03*
X125476000Y-81534000D03*
X127508000Y-81534000D03*
X124460000Y-81534000D03*
X123444000Y-81534000D03*
X121412000Y-81534000D03*
X120396000Y-81534000D03*
X122428000Y-81534000D03*
X126492000Y-82550000D03*
X125476000Y-82550000D03*
X127508000Y-82550000D03*
X124460000Y-82550000D03*
X123444000Y-82550000D03*
X121412000Y-82550000D03*
X120396000Y-82550000D03*
X122428000Y-82550000D03*
X126492000Y-83566000D03*
X125476000Y-83566000D03*
X127508000Y-83566000D03*
X124460000Y-83566000D03*
X123444000Y-83566000D03*
X121412000Y-83566000D03*
X120396000Y-83566000D03*
X122428000Y-83566000D03*
X127508000Y-84582000D03*
X126492000Y-84582000D03*
X125476000Y-84582000D03*
X124460000Y-84582000D03*
X123444000Y-84582000D03*
X122428000Y-84582000D03*
X121412000Y-84582000D03*
X120396000Y-84582000D03*
%TO.N,Net-(J8-Pin_1)*%
X116586000Y-88900000D03*
X125984000Y-89326500D03*
%TO.N,/DC INPUT/nPGD*%
X124968000Y-88900000D03*
%TO.N,GND*%
X122001500Y-87639633D03*
%TO.N,Net-(U17-OVP)*%
X129252471Y-89005500D03*
%TO.N,/DC INPUT/EN*%
X131572000Y-87884000D03*
X131572000Y-98806000D03*
%TO.N,+3.3V*%
X175384500Y-96938820D03*
X179563500Y-95504000D03*
%TO.N,/MCU/ADC2_IN12*%
X177152946Y-93846693D03*
X186690000Y-93472000D03*
%TO.N,VREF_OUT*%
X175935315Y-93226531D03*
X176563500Y-96520000D03*
%TO.N,GND*%
X172720000Y-94742000D03*
%TO.N,/MCU/SPI1_MISO*%
X180848000Y-96438500D03*
%TO.N,/MCU/SPI1_SCK*%
X181610000Y-97028000D03*
%TO.N,/MCU/SPI1_NSS*%
X181548957Y-98981669D03*
%TO.N,GND*%
X182118000Y-98298000D03*
X182626000Y-92964000D03*
%TO.N,/MCU/ADC1_IN3*%
X183388000Y-99314000D03*
%TO.N,/MCU/ADC1_IN2*%
X184581033Y-99491033D03*
%TO.N,/MCU/ADC1_IN1*%
X182525500Y-100692500D03*
%TO.N,GND*%
X213360000Y-43053000D03*
X173736000Y-43053000D03*
X134112000Y-42926000D03*
X179070000Y-68580000D03*
X179070000Y-69850000D03*
X179070000Y-71120000D03*
X176530000Y-67310000D03*
X176530000Y-68580000D03*
X176530000Y-69850000D03*
X176530000Y-71120000D03*
X173990000Y-67310000D03*
X173990000Y-68580000D03*
X173990000Y-69850000D03*
X173990000Y-71120000D03*
X171450000Y-68580000D03*
X171450000Y-69850000D03*
X171450000Y-71120000D03*
X168910000Y-68580000D03*
X168910000Y-69850000D03*
X168910000Y-71120000D03*
X166370000Y-68580000D03*
X166370000Y-69850000D03*
X166370000Y-71120000D03*
X139700000Y-68580000D03*
X139700000Y-69850000D03*
X139700000Y-71120000D03*
X137160000Y-67310000D03*
X137160000Y-68580000D03*
X137160000Y-69850000D03*
X137160000Y-71120000D03*
X134620000Y-67310000D03*
X134620000Y-68580000D03*
X134620000Y-69850000D03*
X134620000Y-71120000D03*
X132080000Y-68580000D03*
X132080000Y-69850000D03*
X132080000Y-71120000D03*
X129540000Y-68580000D03*
X129540000Y-69850000D03*
X129540000Y-71120000D03*
X127000000Y-68580000D03*
X127000000Y-69850000D03*
X127000000Y-71120000D03*
X135896350Y-62026800D03*
X141865350Y-60502800D03*
X142754350Y-68503800D03*
X145040350Y-65328800D03*
X155962350Y-65328800D03*
%TO.N,Net-(Q12-D)*%
X140722350Y-55549800D03*
%TO.N,GND*%
X144468850Y-71678800D03*
X143421100Y-71678800D03*
X142373350Y-71678800D03*
X145516600Y-71678800D03*
X146564350Y-71678800D03*
X151485600Y-71678800D03*
X149390100Y-71678800D03*
X152533350Y-71678800D03*
X148342350Y-71678800D03*
X150437850Y-71678800D03*
X157581600Y-71678800D03*
X155486100Y-71678800D03*
X158629350Y-71678800D03*
X154438350Y-71678800D03*
X156533850Y-71678800D03*
X163550600Y-71678800D03*
X161455100Y-71678800D03*
X164598350Y-71678800D03*
X160407350Y-71678800D03*
X162502850Y-71678800D03*
X165487350Y-43611800D03*
X96234250Y-61976000D03*
X102203250Y-60452000D03*
X103092250Y-68453000D03*
X105378250Y-65278000D03*
X116300250Y-65278000D03*
%TO.N,Net-(Q1-S)*%
X101060250Y-55499000D03*
%TO.N,GND*%
X104806750Y-71628000D03*
X103759000Y-71628000D03*
X102711250Y-71628000D03*
X105854500Y-71628000D03*
X106902250Y-71628000D03*
X111823500Y-71628000D03*
X109728000Y-71628000D03*
X112871250Y-71628000D03*
X108680250Y-71628000D03*
X110775750Y-71628000D03*
X117919500Y-71628000D03*
X115824000Y-71628000D03*
X118967250Y-71628000D03*
X114776250Y-71628000D03*
X116871750Y-71628000D03*
X123888500Y-71628000D03*
X121793000Y-71628000D03*
X124936250Y-71628000D03*
X120745250Y-71628000D03*
X122840750Y-71628000D03*
X125825250Y-43561000D03*
%TO.N,+12V*%
X177196750Y-63817500D03*
%TO.N,GND*%
X205073250Y-43561000D03*
X202088750Y-71628000D03*
X199993250Y-71628000D03*
X204184250Y-71628000D03*
X201041000Y-71628000D03*
X203136500Y-71628000D03*
X196119750Y-71628000D03*
X194024250Y-71628000D03*
X198215250Y-71628000D03*
X195072000Y-71628000D03*
X197167500Y-71628000D03*
X190023750Y-71628000D03*
X187928250Y-71628000D03*
X192119250Y-71628000D03*
X188976000Y-71628000D03*
X191071500Y-71628000D03*
X186150250Y-71628000D03*
X185102500Y-71628000D03*
X181959250Y-71628000D03*
X183007000Y-71628000D03*
X184054750Y-71628000D03*
%TO.N,Net-(Q10-D)*%
X180308250Y-55499000D03*
%TO.N,GND*%
X195548250Y-65278000D03*
X184626250Y-65278000D03*
X182340250Y-68453000D03*
X181451250Y-60452000D03*
X175482250Y-61976000D03*
%TD*%
D22*
%TO.N,+12V*%
X95377000Y-90551000D02*
X95885000Y-91059000D01*
X95377000Y-69088000D02*
X95377000Y-90551000D01*
X95377000Y-66675000D02*
X95377000Y-69088000D01*
X97536000Y-64516000D02*
X95377000Y-66675000D01*
%TO.N,/MCU/TIM_CH1N*%
X99448650Y-68968650D02*
X99448650Y-67564000D01*
X101817806Y-71337806D02*
X99448650Y-68968650D01*
X105664000Y-89916000D02*
X105664000Y-81280000D01*
X101817806Y-77433806D02*
X101817806Y-71337806D01*
X106282000Y-90534000D02*
X105664000Y-89916000D01*
X106282000Y-101710000D02*
X106282000Y-90534000D01*
X105664000Y-81280000D02*
X101817806Y-77433806D01*
X108204000Y-103632000D02*
X106282000Y-101710000D01*
%TO.N,/MCU/TIM_CH1*%
X98552000Y-68834000D02*
X98552000Y-67564000D01*
X101328000Y-77452000D02*
X101328000Y-71610000D01*
X101328000Y-71610000D02*
X98552000Y-68834000D01*
X105374000Y-81498000D02*
X101328000Y-77452000D01*
X105374000Y-101220971D02*
X105374000Y-81498000D01*
X105692500Y-101539471D02*
X105374000Y-101220971D01*
%TO.N,+12V*%
X177546000Y-63468250D02*
X177196750Y-63817500D01*
X177546000Y-47752000D02*
X177546000Y-63468250D01*
X137668000Y-47752000D02*
X137668000Y-63246000D01*
X137668000Y-63246000D02*
X136398000Y-64516000D01*
%TO.N,VBUS*%
X150114000Y-80264000D02*
X150114000Y-86477000D01*
X146558000Y-76708000D02*
X150114000Y-80264000D01*
%TO.N,+12V*%
X136570000Y-64688000D02*
X136398000Y-64516000D01*
X136652000Y-76708000D02*
X136570000Y-76626000D01*
X136570000Y-76626000D02*
X136570000Y-64688000D01*
%TO.N,+5V*%
X210820000Y-89662000D02*
X210312000Y-90170000D01*
X213624000Y-86858000D02*
X210820000Y-89662000D01*
X213624000Y-86106000D02*
X213624000Y-86858000D01*
X212734000Y-70096122D02*
X213558939Y-70921061D01*
X213624000Y-70986122D02*
X213624000Y-86106000D01*
X213578000Y-68133491D02*
X212734000Y-68977491D01*
X212734000Y-68977491D02*
X212734000Y-70096122D01*
X213578000Y-50038000D02*
X213578000Y-68133491D01*
X213558939Y-70921061D02*
X213624000Y-70986122D01*
X213578000Y-48224000D02*
X213578000Y-50038000D01*
X209042000Y-43688000D02*
X213578000Y-48224000D01*
X204760000Y-39406000D02*
X209042000Y-43688000D01*
X178627509Y-39406000D02*
X204760000Y-39406000D01*
X174752000Y-43281509D02*
X178627509Y-39406000D01*
X174752000Y-45720000D02*
X174752000Y-43281509D01*
X174162000Y-46310000D02*
X174752000Y-45720000D01*
X170770000Y-46310000D02*
X174162000Y-46310000D01*
X169164000Y-44704000D02*
X170770000Y-46310000D01*
X169164000Y-43434000D02*
X169164000Y-44704000D01*
%TO.N,/MCU/ADC1_IN2*%
X175514000Y-44958000D02*
X178308000Y-44958000D01*
%TO.N,+5V*%
X169164000Y-40386000D02*
X169164000Y-43434000D01*
X168184000Y-39406000D02*
X169164000Y-40386000D01*
X139156000Y-39406000D02*
X168184000Y-39406000D01*
X136906000Y-41656000D02*
X139156000Y-39406000D01*
X136906000Y-45284387D02*
X136906000Y-41656000D01*
X136134387Y-46056000D02*
X136906000Y-45284387D01*
X135645613Y-46056000D02*
X136134387Y-46056000D01*
X134874000Y-45284387D02*
X135645613Y-46056000D01*
X134874000Y-45093913D02*
X134874000Y-45284387D01*
X133214087Y-43434000D02*
X134874000Y-45093913D01*
X129635250Y-43434000D02*
X133214087Y-43434000D01*
%TO.N,/MCU/ADC1_IN1*%
X135210000Y-46736000D02*
X135210000Y-91014000D01*
X133858000Y-44912300D02*
X133858000Y-45384000D01*
X133858000Y-45384000D02*
X135210000Y-46736000D01*
%TO.N,Net-(Q10-D)*%
X186944000Y-62095750D02*
X184076250Y-59228000D01*
X186944000Y-90678000D02*
X186944000Y-62095750D01*
X189230000Y-92964000D02*
X186944000Y-90678000D01*
%TO.N,+5V*%
X160492160Y-90459840D02*
X160528000Y-90424000D01*
X160492160Y-95793840D02*
X160492160Y-90459840D01*
%TO.N,VBUS*%
X172720000Y-84328000D02*
X172212000Y-83820000D01*
X173228000Y-84836000D02*
X172720000Y-84328000D01*
X173228000Y-92328497D02*
X173228000Y-84836000D01*
%TO.N,Net-(U2-VDDA)*%
X162814000Y-94234000D02*
X163068000Y-93980000D01*
X162814000Y-100330000D02*
X162814000Y-94234000D01*
%TO.N,/DC INPUT/nPGD*%
X127263113Y-91440000D02*
X124968000Y-89144887D01*
X127508000Y-91440000D02*
X127263113Y-91440000D01*
X124968000Y-89144887D02*
X124968000Y-88900000D01*
%TO.N,NSRST*%
X204044000Y-87712000D02*
X202946000Y-86614000D01*
X204044000Y-101518000D02*
X204044000Y-87712000D01*
X203962000Y-101600000D02*
X204044000Y-101518000D01*
%TO.N,/MCU/SPI1_MISO*%
X149352000Y-96833500D02*
X150622000Y-95563500D01*
X149352000Y-103632000D02*
X149352000Y-96833500D01*
%TO.N,/MCU/SPI1_NSS*%
X154432000Y-100076000D02*
X154432000Y-108458000D01*
%TO.N,/MCU/ADC1_IN1*%
X180136057Y-96316057D02*
X180153500Y-96298614D01*
X180136057Y-96316057D02*
X180086000Y-96366113D01*
X180153500Y-96298614D02*
X180153500Y-91589500D01*
X180153500Y-91589500D02*
X180086000Y-91522000D01*
X180086000Y-96366113D02*
X180086000Y-98353099D01*
X180086000Y-98353099D02*
X182425401Y-100692500D01*
X182425401Y-100692500D02*
X182525500Y-100692500D01*
X135210000Y-91014000D02*
X135382000Y-91186000D01*
%TO.N,VREF_OUT*%
X173736000Y-45720000D02*
X173736000Y-43887387D01*
X175768000Y-41855387D02*
X175768000Y-39116000D01*
X175768000Y-39116000D02*
X138430000Y-39116000D01*
X173736000Y-43887387D02*
X175768000Y-41855387D01*
X179505613Y-39116000D02*
X175768000Y-39116000D01*
X136398000Y-41148000D02*
X135890000Y-41656000D01*
X135890000Y-41656000D02*
X135890000Y-45466000D01*
X138430000Y-39116000D02*
X136398000Y-41148000D01*
X179505613Y-39116000D02*
X206502000Y-39116000D01*
X206502000Y-39116000D02*
X213106000Y-45720000D01*
%TO.N,/MCU/ADC1_IN2*%
X179324000Y-55372000D02*
X179324000Y-45974000D01*
X179950000Y-55998000D02*
X179324000Y-55372000D01*
X179950000Y-75374387D02*
X179950000Y-55998000D01*
X184581033Y-80005420D02*
X179950000Y-75374387D01*
X184581033Y-99491033D02*
X184581033Y-80005420D01*
X179324000Y-45974000D02*
X178308000Y-44958000D01*
%TO.N,/MCU/ADC1_IN3*%
X183401533Y-99300467D02*
X183388000Y-99314000D01*
X183401533Y-91521500D02*
X183401533Y-99300467D01*
%TO.N,VREF_OUT*%
X213914000Y-87882997D02*
X212388997Y-89408000D01*
X213024000Y-69976000D02*
X213914000Y-70866000D01*
X213914000Y-70866000D02*
X213914000Y-87882997D01*
X213024000Y-69097613D02*
X213024000Y-69976000D01*
X213868000Y-68253613D02*
X213024000Y-69097613D01*
X213868000Y-46482000D02*
X213868000Y-47244000D01*
X213868000Y-47244000D02*
X213868000Y-68253613D01*
X213106000Y-45720000D02*
X213868000Y-46482000D01*
%TO.N,/MCU/ADC1_IN3*%
X214204000Y-88482500D02*
X213278500Y-89408000D01*
X214204000Y-45548000D02*
X214204000Y-88482500D01*
X213868000Y-45212000D02*
X214204000Y-45548000D01*
%TO.N,Net-(Q1-S)*%
X123758250Y-66608250D02*
X123758250Y-62528000D01*
X126238000Y-75365613D02*
X126238000Y-69088000D01*
X126238000Y-69088000D02*
X123758250Y-66608250D01*
X128524000Y-77651613D02*
X126238000Y-75365613D01*
X128524000Y-87203500D02*
X128524000Y-77651613D01*
%TO.N,Net-(Q12-D)*%
X165188350Y-70602000D02*
X163420350Y-68834000D01*
X163830000Y-86360000D02*
X165188350Y-85001650D01*
X163420350Y-68834000D02*
X163420350Y-62578800D01*
X165188350Y-85001650D02*
X165188350Y-70602000D01*
X183991033Y-86709033D02*
X183896000Y-86614000D01*
X185674000Y-102362000D02*
X185674000Y-101418387D01*
X183991033Y-99735420D02*
X183991033Y-86709033D01*
X185674000Y-101418387D02*
X183991033Y-99735420D01*
%TO.N,Net-(D4-K)*%
X190581500Y-102001009D02*
X190581500Y-95250000D01*
X176022000Y-108830000D02*
X183752509Y-108830000D01*
X173447680Y-108830000D02*
X176022000Y-108830000D01*
X183752509Y-108830000D02*
X190581500Y-102001009D01*
X172897840Y-108280160D02*
X173447680Y-108830000D01*
%TO.N,Net-(D3-K)*%
X189992000Y-94488000D02*
X190246000Y-94234000D01*
X189992000Y-97536000D02*
X189992000Y-94488000D01*
X189992000Y-102180387D02*
X189992000Y-97536000D01*
X183632387Y-108540000D02*
X189992000Y-102180387D01*
X174254320Y-108540000D02*
X183632387Y-108540000D01*
X173786410Y-108072090D02*
X174254320Y-108540000D01*
%TO.N,JTRST*%
X176784000Y-107950000D02*
X174498000Y-107950000D01*
X174498000Y-107950000D02*
X172466000Y-105918000D01*
%TO.N,/MCU/TIM_CH3*%
X175940000Y-66122000D02*
X176530000Y-65532000D01*
X175940000Y-72218000D02*
X175940000Y-66122000D01*
X166720657Y-81437343D02*
X175768000Y-72390000D01*
X166720657Y-101161500D02*
X166720657Y-81437343D01*
X175768000Y-72390000D02*
X175940000Y-72218000D01*
%TO.N,/MCU/TIM_CH2*%
X141003595Y-89264202D02*
X138556497Y-86817104D01*
X138556497Y-86817104D02*
X138556497Y-65532000D01*
X167610160Y-89437840D02*
X167640000Y-89408000D01*
X167610160Y-101161500D02*
X167610160Y-89437840D01*
%TO.N,Net-(D2-K)*%
X208026000Y-92964000D02*
X207010000Y-91948000D01*
X208026000Y-94742000D02*
X208026000Y-92964000D01*
X208026000Y-100076000D02*
X208026000Y-94742000D01*
X207990160Y-100111840D02*
X208026000Y-100076000D01*
%TO.N,+5V*%
X100076000Y-96520000D02*
X100330000Y-96266000D01*
X100076000Y-110490000D02*
X100076000Y-96520000D01*
%TO.N,+12V*%
X177196750Y-78232000D02*
X177196750Y-63817500D01*
%TO.N,/MCU/TIM_CH3N*%
X179660000Y-66122000D02*
X179070000Y-65532000D01*
X179660000Y-88237613D02*
X179660000Y-66122000D01*
X178562000Y-89335613D02*
X179660000Y-88237613D01*
X178562000Y-93726000D02*
X178562000Y-89335613D01*
X177594500Y-95531713D02*
X177833672Y-95531713D01*
X177833672Y-95531713D02*
X178562000Y-94803385D01*
X178562000Y-94803385D02*
X178562000Y-93726000D01*
%TO.N,/MCU/TIM_CH2N*%
X140462000Y-66548000D02*
X139446000Y-65532000D01*
X140462000Y-76962000D02*
X140462000Y-66548000D01*
X177884500Y-81323500D02*
X178944000Y-80264000D01*
X177884500Y-94646498D02*
X177884500Y-81323500D01*
%TO.N,Net-(J2-D--PadA7)*%
X208026000Y-106172000D02*
X208026000Y-103886000D01*
X208026000Y-103886000D02*
X208534000Y-103378000D01*
%TO.N,Net-(JP4-A)*%
X202887000Y-107383000D02*
X202946000Y-107442000D01*
X203200000Y-102870000D02*
X202887000Y-103183000D01*
X202887000Y-103183000D02*
X202887000Y-107383000D01*
%TO.N,5V_ISO*%
X104394000Y-99314000D02*
X104648000Y-99060000D01*
X104394000Y-110490000D02*
X104394000Y-99314000D01*
%TO.N,+12V*%
X97536000Y-48260000D02*
X98044000Y-47752000D01*
X97536000Y-64516000D02*
X97536000Y-48260000D01*
%TO.N,/MCU/SPI1_SCK*%
X181682387Y-97028000D02*
X181610000Y-97028000D01*
X182708000Y-98053613D02*
X181682387Y-97028000D01*
X184150000Y-100910387D02*
X182708000Y-99468387D01*
X182708000Y-99468387D02*
X182708000Y-98053613D01*
X184150000Y-107188000D02*
X184150000Y-100910387D01*
%TO.N,/DC INPUT/EN*%
X131572000Y-98806000D02*
X131572000Y-87884000D01*
%TO.N,VREF_OUT*%
X176563500Y-93854716D02*
X175935315Y-93226531D01*
X176563500Y-96520000D02*
X176563500Y-93854716D01*
%TD*%
%TA.AperFunction,Conductor*%
%TO.N,Net-(Q10-D)*%
G36*
X202174311Y-51562597D02*
G01*
X202351191Y-51580018D01*
X202375019Y-51584757D01*
X202539251Y-51634576D01*
X202561703Y-51643877D01*
X202711783Y-51724096D01*
X202713048Y-51724772D01*
X202733258Y-51738276D01*
X202855934Y-51838953D01*
X202865916Y-51847145D01*
X202883104Y-51864333D01*
X202991972Y-51996989D01*
X203005477Y-52017201D01*
X203086371Y-52168543D01*
X203095674Y-52191001D01*
X203145490Y-52355224D01*
X203150232Y-52379065D01*
X203167653Y-52555939D01*
X203168250Y-52568093D01*
X203168250Y-61985907D01*
X203167653Y-61998061D01*
X203150232Y-62174934D01*
X203145490Y-62198775D01*
X203095674Y-62362998D01*
X203086371Y-62385456D01*
X203005477Y-62536798D01*
X202991972Y-62557010D01*
X202883104Y-62689666D01*
X202865916Y-62706854D01*
X202733260Y-62815722D01*
X202713048Y-62829227D01*
X202561706Y-62910121D01*
X202539248Y-62919424D01*
X202375025Y-62969240D01*
X202351184Y-62973982D01*
X202174311Y-62991403D01*
X202162157Y-62992000D01*
X180264500Y-62992000D01*
X180202500Y-62975387D01*
X180157113Y-62930000D01*
X180140500Y-62868000D01*
X180140500Y-60452000D01*
X180955706Y-60452000D01*
X180975778Y-60591611D01*
X181034371Y-60719910D01*
X181126737Y-60826507D01*
X181245393Y-60902762D01*
X181245394Y-60902763D01*
X181380727Y-60942500D01*
X181521773Y-60942500D01*
X181657106Y-60902763D01*
X181775762Y-60826507D01*
X181868128Y-60719911D01*
X181926721Y-60591611D01*
X181946794Y-60452000D01*
X181926721Y-60312389D01*
X181868128Y-60184089D01*
X181868127Y-60184088D01*
X181775762Y-60077492D01*
X181657105Y-60001236D01*
X181521773Y-59961500D01*
X181380727Y-59961500D01*
X181245394Y-60001236D01*
X181126737Y-60077492D01*
X181034371Y-60184089D01*
X180975778Y-60312388D01*
X180955706Y-60452000D01*
X180140500Y-60452000D01*
X180140500Y-56051434D01*
X180144844Y-56025864D01*
X180141280Y-55994229D01*
X180140500Y-55980345D01*
X180140500Y-55976537D01*
X180139653Y-55972826D01*
X180137323Y-55959113D01*
X180133759Y-55927482D01*
X180129802Y-55917928D01*
X180126048Y-55913220D01*
X180109945Y-55893027D01*
X180101913Y-55881707D01*
X180099881Y-55878473D01*
X180097190Y-55875782D01*
X180087925Y-55865414D01*
X180068076Y-55840524D01*
X180046920Y-55825512D01*
X179820132Y-55598724D01*
X179550818Y-55329411D01*
X179523939Y-55289184D01*
X179514500Y-55241731D01*
X179514500Y-51787844D01*
X179532141Y-51724096D01*
X179580044Y-51678487D01*
X179644803Y-51643873D01*
X179667244Y-51634577D01*
X179831482Y-51584757D01*
X179855306Y-51580018D01*
X180032188Y-51562597D01*
X180044343Y-51562000D01*
X202162157Y-51562000D01*
X202174311Y-51562597D01*
G37*
%TD.AperFunction*%
%TD*%
%TA.AperFunction,Conductor*%
%TO.N,Net-(Q1-S)*%
G36*
X122926311Y-51562597D02*
G01*
X123103191Y-51580018D01*
X123127019Y-51584757D01*
X123291251Y-51634576D01*
X123313703Y-51643877D01*
X123465048Y-51724772D01*
X123485260Y-51738277D01*
X123617916Y-51847145D01*
X123635104Y-51864333D01*
X123743972Y-51996989D01*
X123757477Y-52017201D01*
X123838371Y-52168543D01*
X123847674Y-52191001D01*
X123897490Y-52355224D01*
X123902232Y-52379065D01*
X123919653Y-52555939D01*
X123920250Y-52568093D01*
X123920250Y-61985907D01*
X123919653Y-61998061D01*
X123902232Y-62174934D01*
X123897490Y-62198775D01*
X123847674Y-62362998D01*
X123838371Y-62385456D01*
X123757477Y-62536798D01*
X123743972Y-62557010D01*
X123635104Y-62689666D01*
X123617916Y-62706854D01*
X123485260Y-62815722D01*
X123465048Y-62829227D01*
X123313706Y-62910121D01*
X123291248Y-62919424D01*
X123127025Y-62969240D01*
X123103184Y-62973982D01*
X122926311Y-62991403D01*
X122914157Y-62992000D01*
X100796343Y-62992000D01*
X100784189Y-62991403D01*
X100607315Y-62973982D01*
X100583474Y-62969240D01*
X100419251Y-62919424D01*
X100396793Y-62910121D01*
X100245451Y-62829227D01*
X100225239Y-62815722D01*
X100092583Y-62706854D01*
X100075395Y-62689666D01*
X99966527Y-62557010D01*
X99953022Y-62536798D01*
X99872128Y-62385456D01*
X99862825Y-62362998D01*
X99813007Y-62198769D01*
X99808268Y-62174941D01*
X99790847Y-61998061D01*
X99790250Y-61985907D01*
X99790250Y-60452000D01*
X101707706Y-60452000D01*
X101727778Y-60591611D01*
X101786371Y-60719910D01*
X101878737Y-60826507D01*
X101997393Y-60902762D01*
X101997394Y-60902763D01*
X102132727Y-60942500D01*
X102273773Y-60942500D01*
X102409106Y-60902763D01*
X102527762Y-60826507D01*
X102620128Y-60719911D01*
X102678721Y-60591611D01*
X102698794Y-60452000D01*
X102678721Y-60312389D01*
X102620128Y-60184089D01*
X102527762Y-60077492D01*
X102409105Y-60001236D01*
X102273773Y-59961500D01*
X102132727Y-59961500D01*
X101997394Y-60001236D01*
X101878737Y-60077492D01*
X101786371Y-60184089D01*
X101727778Y-60312388D01*
X101707706Y-60452000D01*
X99790250Y-60452000D01*
X99790250Y-52568093D01*
X99790847Y-52555939D01*
X99791540Y-52548895D01*
X99808268Y-52379056D01*
X99813007Y-52355232D01*
X99862827Y-52190994D01*
X99872125Y-52168549D01*
X99953025Y-52017195D01*
X99966522Y-51996995D01*
X100075399Y-51864328D01*
X100092578Y-51847149D01*
X100225245Y-51738272D01*
X100245445Y-51724775D01*
X100396799Y-51643875D01*
X100419244Y-51634577D01*
X100583482Y-51584757D01*
X100607306Y-51580018D01*
X100784188Y-51562597D01*
X100796343Y-51562000D01*
X122914157Y-51562000D01*
X122926311Y-51562597D01*
G37*
%TD.AperFunction*%
%TD*%
%TA.AperFunction,Conductor*%
%TO.N,Net-(Q12-D)*%
G36*
X162588411Y-51613397D02*
G01*
X162765291Y-51630818D01*
X162789119Y-51635557D01*
X162953351Y-51685376D01*
X162975803Y-51694677D01*
X163127148Y-51775572D01*
X163147360Y-51789077D01*
X163280016Y-51897945D01*
X163297204Y-51915133D01*
X163406072Y-52047789D01*
X163419577Y-52068001D01*
X163500471Y-52219343D01*
X163509774Y-52241801D01*
X163559590Y-52406024D01*
X163564332Y-52429865D01*
X163581753Y-52606739D01*
X163582350Y-52618893D01*
X163582350Y-62036707D01*
X163581753Y-62048861D01*
X163564332Y-62225734D01*
X163559590Y-62249575D01*
X163509774Y-62413798D01*
X163500471Y-62436256D01*
X163419577Y-62587598D01*
X163406072Y-62607810D01*
X163297204Y-62740466D01*
X163280016Y-62757654D01*
X163147360Y-62866522D01*
X163127148Y-62880027D01*
X162975806Y-62960921D01*
X162953348Y-62970224D01*
X162789125Y-63020040D01*
X162765284Y-63024782D01*
X162588411Y-63042203D01*
X162576257Y-63042800D01*
X140458443Y-63042800D01*
X140446289Y-63042203D01*
X140269415Y-63024782D01*
X140245574Y-63020040D01*
X140081351Y-62970224D01*
X140058893Y-62960921D01*
X139907551Y-62880027D01*
X139887339Y-62866522D01*
X139754683Y-62757654D01*
X139737495Y-62740466D01*
X139628627Y-62607810D01*
X139615122Y-62587598D01*
X139534228Y-62436256D01*
X139524925Y-62413798D01*
X139475107Y-62249569D01*
X139470368Y-62225741D01*
X139452947Y-62048861D01*
X139452350Y-62036707D01*
X139452350Y-60502800D01*
X141369806Y-60502800D01*
X141389878Y-60642411D01*
X141448471Y-60770710D01*
X141540837Y-60877307D01*
X141659493Y-60953562D01*
X141659494Y-60953563D01*
X141794827Y-60993300D01*
X141935873Y-60993300D01*
X142071206Y-60953563D01*
X142189862Y-60877307D01*
X142282228Y-60770711D01*
X142340821Y-60642411D01*
X142360894Y-60502800D01*
X142340821Y-60363189D01*
X142282228Y-60234889D01*
X142189862Y-60128292D01*
X142071205Y-60052036D01*
X141935873Y-60012300D01*
X141794827Y-60012300D01*
X141659494Y-60052036D01*
X141540837Y-60128292D01*
X141448471Y-60234889D01*
X141389878Y-60363188D01*
X141369806Y-60502800D01*
X139452350Y-60502800D01*
X139452350Y-52618893D01*
X139452947Y-52606739D01*
X139453640Y-52599695D01*
X139470368Y-52429856D01*
X139475107Y-52406032D01*
X139524927Y-52241794D01*
X139534225Y-52219349D01*
X139615125Y-52067995D01*
X139628622Y-52047795D01*
X139737499Y-51915128D01*
X139754678Y-51897949D01*
X139887345Y-51789072D01*
X139907545Y-51775575D01*
X140058899Y-51694675D01*
X140081344Y-51685377D01*
X140245582Y-51635557D01*
X140269406Y-51630818D01*
X140446288Y-51613397D01*
X140458443Y-51612800D01*
X162576257Y-51612800D01*
X162588411Y-51613397D01*
G37*
%TD.AperFunction*%
%TD*%
%TA.AperFunction,Conductor*%
%TO.N,GND1*%
G36*
X203791500Y-95266613D02*
G01*
X203836887Y-95312000D01*
X203853500Y-95374000D01*
X203853500Y-100518200D01*
X203835687Y-100582233D01*
X203787367Y-100627870D01*
X203722421Y-100641998D01*
X203659510Y-100620559D01*
X203621989Y-100575988D01*
X203524512Y-100463492D01*
X203405855Y-100387236D01*
X203270523Y-100347500D01*
X203129477Y-100347500D01*
X202994144Y-100387236D01*
X202875487Y-100463492D01*
X202783121Y-100570089D01*
X202724528Y-100698388D01*
X202704456Y-100838000D01*
X202724528Y-100977611D01*
X202783121Y-101105910D01*
X202875487Y-101212507D01*
X202895694Y-101225493D01*
X202994144Y-101288763D01*
X203129477Y-101328500D01*
X203270521Y-101328500D01*
X203270523Y-101328500D01*
X203330719Y-101310824D01*
X203392008Y-101308636D01*
X203446853Y-101336089D01*
X203481833Y-101386468D01*
X203488389Y-101447448D01*
X203466456Y-101599999D01*
X203486528Y-101739611D01*
X203545121Y-101867910D01*
X203637487Y-101974507D01*
X203728462Y-102032973D01*
X203756144Y-102050763D01*
X203891477Y-102090500D01*
X204032523Y-102090500D01*
X204167856Y-102050763D01*
X204286512Y-101974507D01*
X204378878Y-101867911D01*
X204437471Y-101739611D01*
X204457544Y-101600000D01*
X204437471Y-101460389D01*
X204378878Y-101332089D01*
X204286512Y-101225493D01*
X204274837Y-101212019D01*
X204275456Y-101211482D01*
X204249667Y-101183783D01*
X204234500Y-101124357D01*
X204234500Y-95374000D01*
X204251113Y-95312000D01*
X204296500Y-95266613D01*
X204358500Y-95250000D01*
X207711500Y-95250000D01*
X207773500Y-95266613D01*
X207818887Y-95312000D01*
X207835500Y-95374000D01*
X207835500Y-99560466D01*
X207820332Y-99619893D01*
X207778540Y-99664781D01*
X207665648Y-99737331D01*
X207573281Y-99843929D01*
X207514688Y-99972228D01*
X207494616Y-100111839D01*
X207514688Y-100251451D01*
X207573281Y-100379750D01*
X207665647Y-100486347D01*
X207784303Y-100562602D01*
X207784304Y-100562603D01*
X207919637Y-100602340D01*
X208060683Y-100602340D01*
X208196016Y-100562603D01*
X208314672Y-100486347D01*
X208407038Y-100379751D01*
X208465631Y-100251451D01*
X208485704Y-100111840D01*
X208465631Y-99972229D01*
X208407038Y-99843929D01*
X208314672Y-99737333D01*
X208314671Y-99737332D01*
X208314670Y-99737331D01*
X208273461Y-99710848D01*
X208231668Y-99665960D01*
X208216500Y-99606533D01*
X208216500Y-98043999D01*
X212610456Y-98043999D01*
X212630528Y-98183611D01*
X212689121Y-98311910D01*
X212781487Y-98418507D01*
X212900144Y-98494763D01*
X213035477Y-98534500D01*
X213176523Y-98534500D01*
X213311856Y-98494763D01*
X213430512Y-98418507D01*
X213522878Y-98311911D01*
X213581471Y-98183611D01*
X213601544Y-98044000D01*
X213581471Y-97904389D01*
X213522878Y-97776089D01*
X213430512Y-97669492D01*
X213311855Y-97593236D01*
X213176523Y-97553500D01*
X213035477Y-97553500D01*
X212900144Y-97593236D01*
X212781487Y-97669492D01*
X212689121Y-97776089D01*
X212630528Y-97904388D01*
X212610456Y-98043999D01*
X208216500Y-98043999D01*
X208216500Y-95374000D01*
X208233113Y-95312000D01*
X208278500Y-95266613D01*
X208340500Y-95250000D01*
X213623907Y-95250000D01*
X213636061Y-95250597D01*
X213812941Y-95268018D01*
X213836769Y-95272757D01*
X214001001Y-95322576D01*
X214023453Y-95331877D01*
X214174798Y-95412772D01*
X214195010Y-95426277D01*
X214284165Y-95499445D01*
X214317595Y-95542281D01*
X214329500Y-95595298D01*
X214329500Y-109071189D01*
X214329274Y-109078678D01*
X214313619Y-109337400D01*
X214311813Y-109352265D01*
X214265767Y-109603501D01*
X214262184Y-109618039D01*
X214186188Y-109861907D01*
X214180878Y-109875907D01*
X214076042Y-110108836D01*
X214069083Y-110122096D01*
X213936937Y-110340684D01*
X213928431Y-110353006D01*
X213770898Y-110554078D01*
X213760968Y-110565286D01*
X213580350Y-110745900D01*
X213569142Y-110755829D01*
X213368072Y-110913355D01*
X213355749Y-110921861D01*
X213137156Y-111054003D01*
X213123898Y-111060962D01*
X212890965Y-111165795D01*
X212876964Y-111171104D01*
X212633105Y-111247093D01*
X212618566Y-111250677D01*
X212367318Y-111296719D01*
X212352454Y-111298524D01*
X212192987Y-111308170D01*
X212092918Y-111314223D01*
X212085447Y-111314449D01*
X190845298Y-111314449D01*
X190792281Y-111302544D01*
X190749445Y-111269114D01*
X190676277Y-111179959D01*
X190662772Y-111159747D01*
X190645815Y-111128023D01*
X190581877Y-111008402D01*
X190572575Y-110985947D01*
X190569193Y-110974798D01*
X190522757Y-110821718D01*
X190518018Y-110797890D01*
X190500597Y-110621010D01*
X190500000Y-110608856D01*
X190500000Y-108298642D01*
X190514330Y-108240775D01*
X190554009Y-108196283D01*
X190609865Y-108175450D01*
X190668988Y-108183091D01*
X190717713Y-108217439D01*
X190810487Y-108324507D01*
X190929143Y-108400762D01*
X190929144Y-108400763D01*
X191064477Y-108440500D01*
X191205523Y-108440500D01*
X191340856Y-108400763D01*
X191459512Y-108324507D01*
X191551878Y-108217911D01*
X191610471Y-108089611D01*
X191630544Y-107950000D01*
X191610471Y-107810389D01*
X191551878Y-107682089D01*
X191542871Y-107671694D01*
X191459512Y-107575492D01*
X191340855Y-107499236D01*
X191205523Y-107459500D01*
X191064477Y-107459500D01*
X190929144Y-107499236D01*
X190810487Y-107575492D01*
X190727129Y-107671694D01*
X190676127Y-107706903D01*
X190614456Y-107713033D01*
X190557521Y-107688552D01*
X190519544Y-107639575D01*
X190510013Y-107578338D01*
X190510293Y-107575492D01*
X190518018Y-107497058D01*
X190522757Y-107473232D01*
X190532231Y-107441999D01*
X202450456Y-107441999D01*
X202470528Y-107581611D01*
X202529121Y-107709910D01*
X202621487Y-107816507D01*
X202740144Y-107892763D01*
X202875477Y-107932500D01*
X203016523Y-107932500D01*
X203151856Y-107892763D01*
X203270512Y-107816507D01*
X203362878Y-107709911D01*
X203421471Y-107581611D01*
X203441544Y-107442000D01*
X203421471Y-107302389D01*
X203362878Y-107174089D01*
X203311673Y-107114995D01*
X203270512Y-107067492D01*
X203182614Y-107011004D01*
X203151856Y-106991237D01*
X203151854Y-106991236D01*
X203136858Y-106981599D01*
X203137935Y-106979922D01*
X203120293Y-106970288D01*
X203093129Y-106933999D01*
X204228456Y-106933999D01*
X204248528Y-107073611D01*
X204307121Y-107201910D01*
X204399487Y-107308507D01*
X204518143Y-107384762D01*
X204518144Y-107384763D01*
X204653477Y-107424500D01*
X204794523Y-107424500D01*
X204929856Y-107384763D01*
X205048512Y-107308507D01*
X205140878Y-107201911D01*
X205199471Y-107073611D01*
X205219544Y-106934000D01*
X205199471Y-106794389D01*
X205192514Y-106779156D01*
X205140878Y-106666089D01*
X205048512Y-106559492D01*
X204929855Y-106483236D01*
X204794523Y-106443500D01*
X204653477Y-106443500D01*
X204518144Y-106483236D01*
X204399487Y-106559492D01*
X204307121Y-106666089D01*
X204248528Y-106794388D01*
X204228456Y-106933999D01*
X203093129Y-106933999D01*
X203088704Y-106928088D01*
X203077500Y-106876579D01*
X203077500Y-106171999D01*
X207530456Y-106171999D01*
X207550528Y-106311611D01*
X207609121Y-106439910D01*
X207701487Y-106546507D01*
X207820144Y-106622763D01*
X207955477Y-106662500D01*
X208096523Y-106662500D01*
X208231856Y-106622763D01*
X208350512Y-106546507D01*
X208442878Y-106439911D01*
X208449231Y-106425999D01*
X209562456Y-106425999D01*
X209582528Y-106565611D01*
X209641121Y-106693910D01*
X209733487Y-106800507D01*
X209851858Y-106876579D01*
X209852144Y-106876763D01*
X209987477Y-106916500D01*
X210128523Y-106916500D01*
X210263856Y-106876763D01*
X210382512Y-106800507D01*
X210474878Y-106693911D01*
X210533471Y-106565611D01*
X210553544Y-106426000D01*
X210533471Y-106286389D01*
X210531607Y-106282308D01*
X210521072Y-106217911D01*
X210544693Y-106157079D01*
X210595927Y-106116663D01*
X210660584Y-106107857D01*
X210749020Y-106119500D01*
X210824980Y-106119500D01*
X210824981Y-106119500D01*
X210846529Y-106116663D01*
X210938280Y-106104584D01*
X211079250Y-106046192D01*
X211200304Y-105953304D01*
X211293192Y-105832250D01*
X211351584Y-105691280D01*
X211371500Y-105540000D01*
X211351584Y-105388720D01*
X211293192Y-105247750D01*
X211209362Y-105138500D01*
X211200304Y-105126695D01*
X211079249Y-105033807D01*
X210938280Y-104975416D01*
X210824981Y-104960500D01*
X210824980Y-104960500D01*
X210749020Y-104960500D01*
X210749019Y-104960500D01*
X210635719Y-104975416D01*
X210494750Y-105033807D01*
X210373695Y-105126695D01*
X210280807Y-105247750D01*
X210222416Y-105388719D01*
X210202499Y-105540000D01*
X210222416Y-105691280D01*
X210252557Y-105764048D01*
X210261399Y-105823655D01*
X210241098Y-105880391D01*
X210196449Y-105920858D01*
X210137996Y-105935500D01*
X209987477Y-105935500D01*
X209852144Y-105975236D01*
X209733487Y-106051492D01*
X209641121Y-106158089D01*
X209582528Y-106286388D01*
X209562456Y-106425999D01*
X208449231Y-106425999D01*
X208501471Y-106311611D01*
X208521544Y-106172000D01*
X208501471Y-106032389D01*
X208475370Y-105975237D01*
X208442878Y-105904089D01*
X208350511Y-105797491D01*
X208273460Y-105747974D01*
X208231668Y-105703086D01*
X208216500Y-105643659D01*
X208216500Y-104016269D01*
X208225939Y-103968817D01*
X208252818Y-103928589D01*
X208273529Y-103907878D01*
X208295060Y-103886346D01*
X208352074Y-103853880D01*
X208417673Y-103855050D01*
X208463477Y-103868500D01*
X208604523Y-103868500D01*
X208739856Y-103828763D01*
X208858512Y-103752507D01*
X208950878Y-103645911D01*
X209009471Y-103517611D01*
X209029544Y-103378000D01*
X209009471Y-103238389D01*
X209008578Y-103236434D01*
X208950878Y-103110089D01*
X208858512Y-103003492D01*
X208739855Y-102927236D01*
X208604523Y-102887500D01*
X208463477Y-102887500D01*
X208328144Y-102927236D01*
X208209487Y-103003492D01*
X208117121Y-103110089D01*
X208058528Y-103238388D01*
X208038456Y-103378000D01*
X208058048Y-103514271D01*
X208052964Y-103571076D01*
X208022992Y-103619598D01*
X207929078Y-103713513D01*
X207907926Y-103728521D01*
X207888066Y-103753424D01*
X207878814Y-103763778D01*
X207876118Y-103766474D01*
X207874089Y-103769703D01*
X207866056Y-103781024D01*
X207846203Y-103805921D01*
X207842240Y-103815487D01*
X207838675Y-103847122D01*
X207836350Y-103860810D01*
X207835500Y-103864536D01*
X207835500Y-103868345D01*
X207834720Y-103882229D01*
X207831155Y-103913864D01*
X207835500Y-103939434D01*
X207835500Y-105643659D01*
X207820332Y-105703086D01*
X207778540Y-105747974D01*
X207701488Y-105797491D01*
X207609121Y-105904089D01*
X207550528Y-106032388D01*
X207530456Y-106171999D01*
X203077500Y-106171999D01*
X203077500Y-105540000D01*
X204422499Y-105540000D01*
X204442416Y-105691280D01*
X204500807Y-105832249D01*
X204593695Y-105953304D01*
X204714750Y-106046192D01*
X204855720Y-106104584D01*
X204947471Y-106116663D01*
X204969019Y-106119500D01*
X204969020Y-106119500D01*
X205044980Y-106119500D01*
X205044981Y-106119500D01*
X205066529Y-106116663D01*
X205158280Y-106104584D01*
X205299250Y-106046192D01*
X205420304Y-105953304D01*
X205513192Y-105832250D01*
X205571584Y-105691280D01*
X205591500Y-105540000D01*
X205571584Y-105388720D01*
X205513192Y-105247750D01*
X205429362Y-105138500D01*
X205420304Y-105126695D01*
X205299249Y-105033807D01*
X205158280Y-104975416D01*
X205044981Y-104960500D01*
X205044980Y-104960500D01*
X204969020Y-104960500D01*
X204969019Y-104960500D01*
X204855719Y-104975416D01*
X204714750Y-105033807D01*
X204593695Y-105126695D01*
X204500807Y-105247750D01*
X204442416Y-105388719D01*
X204422499Y-105540000D01*
X203077500Y-105540000D01*
X203077500Y-103484500D01*
X203094113Y-103422500D01*
X203139500Y-103377113D01*
X203201500Y-103360500D01*
X203270523Y-103360500D01*
X203405856Y-103320763D01*
X203524512Y-103244507D01*
X203616878Y-103137911D01*
X203675471Y-103009611D01*
X203695544Y-102870000D01*
X203675471Y-102730389D01*
X203616878Y-102602089D01*
X203616877Y-102602088D01*
X203524512Y-102495492D01*
X203405855Y-102419236D01*
X203270523Y-102379500D01*
X203129477Y-102379500D01*
X202994144Y-102419236D01*
X202875487Y-102495492D01*
X202783121Y-102602089D01*
X202724528Y-102730388D01*
X202704456Y-102870000D01*
X202725621Y-103017208D01*
X202722549Y-103067353D01*
X202714270Y-103083683D01*
X202713163Y-103088533D01*
X202703240Y-103112487D01*
X202699675Y-103144122D01*
X202697350Y-103157810D01*
X202696500Y-103161536D01*
X202696500Y-103165345D01*
X202695720Y-103179229D01*
X202692155Y-103210864D01*
X202696500Y-103236434D01*
X202696500Y-106951577D01*
X202681332Y-107011004D01*
X202639541Y-107055890D01*
X202633619Y-107059696D01*
X202621488Y-107067492D01*
X202529121Y-107174090D01*
X202470528Y-107302388D01*
X202450456Y-107441999D01*
X190532231Y-107441999D01*
X190572577Y-107308994D01*
X190581875Y-107286549D01*
X190662775Y-107135195D01*
X190676272Y-107114995D01*
X190785149Y-106982328D01*
X190802328Y-106965149D01*
X190934995Y-106856272D01*
X190955195Y-106842775D01*
X191106549Y-106761875D01*
X191128994Y-106752577D01*
X191293232Y-106702757D01*
X191317056Y-106698018D01*
X191493938Y-106680597D01*
X191506093Y-106680000D01*
X195849999Y-106680000D01*
X195850000Y-106680000D01*
X196850000Y-106680000D01*
X196850000Y-96256093D01*
X196850597Y-96243939D01*
X196851290Y-96236895D01*
X196868018Y-96067056D01*
X196872757Y-96043232D01*
X196922577Y-95878994D01*
X196931875Y-95856549D01*
X197012775Y-95705195D01*
X197026272Y-95684995D01*
X197135149Y-95552328D01*
X197152328Y-95535149D01*
X197284995Y-95426272D01*
X197305195Y-95412775D01*
X197456549Y-95331875D01*
X197478994Y-95322577D01*
X197643232Y-95272757D01*
X197667056Y-95268018D01*
X197843938Y-95250597D01*
X197856093Y-95250000D01*
X203729500Y-95250000D01*
X203791500Y-95266613D01*
G37*
%TD.AperFunction*%
%TD*%
%TA.AperFunction,Conductor*%
%TO.N,+3.3V*%
G36*
X95124500Y-85106613D02*
G01*
X95169887Y-85152000D01*
X95186500Y-85214000D01*
X95186500Y-90497566D01*
X95182155Y-90523135D01*
X95185720Y-90554771D01*
X95186500Y-90568655D01*
X95186500Y-90572464D01*
X95187348Y-90576181D01*
X95189675Y-90589877D01*
X95193240Y-90621517D01*
X95197200Y-90631076D01*
X95217057Y-90655977D01*
X95225098Y-90667309D01*
X95227120Y-90670527D01*
X95229804Y-90673211D01*
X95239069Y-90683578D01*
X95258928Y-90708480D01*
X95280081Y-90723488D01*
X95373992Y-90817400D01*
X95403964Y-90865922D01*
X95409048Y-90922727D01*
X95389456Y-91058999D01*
X95409528Y-91198611D01*
X95468121Y-91326910D01*
X95560487Y-91433507D01*
X95607288Y-91463584D01*
X95679144Y-91509763D01*
X95814477Y-91549500D01*
X95955523Y-91549500D01*
X96090856Y-91509763D01*
X96209512Y-91433507D01*
X96301878Y-91326911D01*
X96360471Y-91198611D01*
X96380544Y-91059000D01*
X96360471Y-90919389D01*
X96359877Y-90918089D01*
X96301878Y-90791089D01*
X96209512Y-90684492D01*
X96090855Y-90608236D01*
X95955523Y-90568500D01*
X95814477Y-90568500D01*
X95814476Y-90568500D01*
X95768673Y-90581948D01*
X95703074Y-90583118D01*
X95646061Y-90550652D01*
X95603820Y-90508412D01*
X95576939Y-90468183D01*
X95567500Y-90420730D01*
X95567500Y-85214000D01*
X95584113Y-85152000D01*
X95629500Y-85106613D01*
X95691500Y-85090000D01*
X96780185Y-85090000D01*
X96831822Y-85101263D01*
X96874079Y-85133007D01*
X96899278Y-85179463D01*
X96902843Y-85232194D01*
X96889288Y-85323573D01*
X96869566Y-85725000D01*
X96889288Y-86126425D01*
X96948260Y-86523980D01*
X97045916Y-86913846D01*
X97181309Y-87292245D01*
X97181312Y-87292251D01*
X97181313Y-87292254D01*
X97205367Y-87343111D01*
X97353153Y-87655579D01*
X97559768Y-88000296D01*
X97577060Y-88023611D01*
X97799187Y-88323115D01*
X98069092Y-88620908D01*
X98366885Y-88890813D01*
X98620587Y-89078971D01*
X98689703Y-89130231D01*
X99034420Y-89336846D01*
X99034424Y-89336848D01*
X99034426Y-89336849D01*
X99397746Y-89508687D01*
X99397752Y-89508689D01*
X99397754Y-89508690D01*
X99679821Y-89609615D01*
X99776159Y-89644085D01*
X100166021Y-89741740D01*
X100563577Y-89800712D01*
X100965000Y-89820433D01*
X101366423Y-89800712D01*
X101763979Y-89741740D01*
X102153841Y-89644085D01*
X102532254Y-89508687D01*
X102895574Y-89336849D01*
X103240301Y-89130228D01*
X103563115Y-88890813D01*
X103860908Y-88620908D01*
X104130813Y-88323115D01*
X104370228Y-88000301D01*
X104576849Y-87655574D01*
X104748687Y-87292254D01*
X104884085Y-86913841D01*
X104939215Y-86693745D01*
X104966944Y-86641355D01*
X105015821Y-86607822D01*
X105074679Y-86600807D01*
X105130068Y-86621913D01*
X105169333Y-86666317D01*
X105183500Y-86723874D01*
X105183500Y-98596529D01*
X105169169Y-98654396D01*
X105129490Y-98698888D01*
X105073632Y-98719721D01*
X105014509Y-98712079D01*
X104988433Y-98693696D01*
X104987511Y-98695132D01*
X104853855Y-98609236D01*
X104718523Y-98569500D01*
X104577477Y-98569500D01*
X104442144Y-98609236D01*
X104323487Y-98685492D01*
X104231121Y-98792089D01*
X104172528Y-98920388D01*
X104152456Y-99060000D01*
X104172528Y-99199610D01*
X104192295Y-99242893D01*
X104203500Y-99294404D01*
X104203500Y-99296345D01*
X104202720Y-99310229D01*
X104199155Y-99341864D01*
X104203500Y-99367434D01*
X104203500Y-109961659D01*
X104188332Y-110021086D01*
X104146540Y-110065974D01*
X104069488Y-110115491D01*
X103977121Y-110222089D01*
X103918528Y-110350388D01*
X103898456Y-110489999D01*
X103918528Y-110629611D01*
X103977121Y-110757910D01*
X104069487Y-110864507D01*
X104158799Y-110921904D01*
X104188144Y-110940763D01*
X104323477Y-110980500D01*
X104464523Y-110980500D01*
X104599856Y-110940763D01*
X104718512Y-110864507D01*
X104810878Y-110757911D01*
X104869471Y-110629611D01*
X104889544Y-110490000D01*
X104889544Y-110489999D01*
X110502456Y-110489999D01*
X110522528Y-110629611D01*
X110581121Y-110757910D01*
X110673487Y-110864507D01*
X110762799Y-110921904D01*
X110792144Y-110940763D01*
X110927477Y-110980500D01*
X111068523Y-110980500D01*
X111203856Y-110940763D01*
X111322512Y-110864507D01*
X111414878Y-110757911D01*
X111473471Y-110629611D01*
X111493544Y-110490000D01*
X111493544Y-110489999D01*
X116344456Y-110489999D01*
X116364528Y-110629611D01*
X116423121Y-110757910D01*
X116515487Y-110864507D01*
X116604799Y-110921904D01*
X116634144Y-110940763D01*
X116769477Y-110980500D01*
X116910523Y-110980500D01*
X117045856Y-110940763D01*
X117164512Y-110864507D01*
X117256878Y-110757911D01*
X117315471Y-110629611D01*
X117335544Y-110490000D01*
X117335544Y-110489999D01*
X118122456Y-110489999D01*
X118142528Y-110629611D01*
X118201121Y-110757910D01*
X118293487Y-110864507D01*
X118382799Y-110921904D01*
X118412144Y-110940763D01*
X118547477Y-110980500D01*
X118688523Y-110980500D01*
X118823856Y-110940763D01*
X118942512Y-110864507D01*
X119034878Y-110757911D01*
X119093471Y-110629611D01*
X119113544Y-110490000D01*
X119113544Y-110489999D01*
X120662456Y-110489999D01*
X120682528Y-110629611D01*
X120741121Y-110757910D01*
X120833487Y-110864507D01*
X120922799Y-110921904D01*
X120952144Y-110940763D01*
X121087477Y-110980500D01*
X121228523Y-110980500D01*
X121363856Y-110940763D01*
X121482512Y-110864507D01*
X121574878Y-110757911D01*
X121633471Y-110629611D01*
X121653544Y-110490000D01*
X121633471Y-110350389D01*
X121631983Y-110347131D01*
X121574878Y-110222089D01*
X121482512Y-110115492D01*
X121363855Y-110039236D01*
X121228523Y-109999500D01*
X121087477Y-109999500D01*
X120952144Y-110039236D01*
X120833487Y-110115492D01*
X120741121Y-110222089D01*
X120682528Y-110350388D01*
X120662456Y-110489999D01*
X119113544Y-110489999D01*
X119093471Y-110350389D01*
X119091983Y-110347131D01*
X119034878Y-110222089D01*
X118942512Y-110115492D01*
X118823855Y-110039236D01*
X118688523Y-109999500D01*
X118547477Y-109999500D01*
X118412144Y-110039236D01*
X118293487Y-110115492D01*
X118201121Y-110222089D01*
X118142528Y-110350388D01*
X118122456Y-110489999D01*
X117335544Y-110489999D01*
X117315471Y-110350389D01*
X117313983Y-110347131D01*
X117256878Y-110222089D01*
X117164512Y-110115492D01*
X117045855Y-110039236D01*
X116910523Y-109999500D01*
X116769477Y-109999500D01*
X116634144Y-110039236D01*
X116515487Y-110115492D01*
X116423121Y-110222089D01*
X116364528Y-110350388D01*
X116344456Y-110489999D01*
X111493544Y-110489999D01*
X111473471Y-110350389D01*
X111471983Y-110347131D01*
X111414878Y-110222089D01*
X111322512Y-110115492D01*
X111203855Y-110039236D01*
X111068523Y-109999500D01*
X110927477Y-109999500D01*
X110792144Y-110039236D01*
X110673487Y-110115492D01*
X110581121Y-110222089D01*
X110522528Y-110350388D01*
X110502456Y-110489999D01*
X104889544Y-110489999D01*
X104869471Y-110350389D01*
X104867983Y-110347131D01*
X104810878Y-110222089D01*
X104718511Y-110115491D01*
X104641460Y-110065974D01*
X104599668Y-110021086D01*
X104584500Y-109961659D01*
X104584500Y-109728000D01*
X123202456Y-109728000D01*
X123222528Y-109867611D01*
X123281121Y-109995910D01*
X123373487Y-110102507D01*
X123492143Y-110178762D01*
X123492144Y-110178763D01*
X123627477Y-110218500D01*
X123768523Y-110218500D01*
X123903856Y-110178763D01*
X124022512Y-110102507D01*
X124114878Y-109995911D01*
X124173471Y-109867611D01*
X124193544Y-109728000D01*
X124173471Y-109588389D01*
X124147370Y-109531237D01*
X124114878Y-109460089D01*
X124022512Y-109353492D01*
X123903855Y-109277236D01*
X123768523Y-109237500D01*
X123627477Y-109237500D01*
X123492144Y-109277236D01*
X123373487Y-109353492D01*
X123281121Y-109460089D01*
X123222528Y-109588388D01*
X123202456Y-109728000D01*
X104584500Y-109728000D01*
X104584500Y-108005763D01*
X127843500Y-108005763D01*
X127851522Y-108071829D01*
X127858641Y-108130461D01*
X127918101Y-108287248D01*
X128013358Y-108425250D01*
X128138869Y-108536443D01*
X128138871Y-108536444D01*
X128287347Y-108614370D01*
X128450158Y-108654500D01*
X128617841Y-108654500D01*
X128617842Y-108654500D01*
X128780653Y-108614370D01*
X128929129Y-108536444D01*
X129054642Y-108425249D01*
X129149898Y-108287248D01*
X129209359Y-108130461D01*
X129224500Y-108005763D01*
X129224500Y-107950000D01*
X133996953Y-107950000D01*
X134017025Y-108089611D01*
X134075618Y-108217910D01*
X134167984Y-108324507D01*
X134264027Y-108386230D01*
X134286641Y-108400763D01*
X134421974Y-108440500D01*
X134563020Y-108440500D01*
X134698353Y-108400763D01*
X134817009Y-108324507D01*
X134843535Y-108293894D01*
X134885735Y-108262302D01*
X134937247Y-108251096D01*
X134988759Y-108262302D01*
X135030961Y-108293894D01*
X135057486Y-108324506D01*
X135105080Y-108355093D01*
X135176144Y-108400763D01*
X135311477Y-108440500D01*
X135452523Y-108440500D01*
X135587856Y-108400763D01*
X135656092Y-108356909D01*
X135714001Y-108337562D01*
X135774123Y-108348194D01*
X135821883Y-108386230D01*
X135845702Y-108442447D01*
X135855205Y-108504482D01*
X135922626Y-108686523D01*
X136025311Y-108851268D01*
X136153011Y-108985607D01*
X136159059Y-108991969D01*
X136318391Y-109102867D01*
X136496784Y-109179422D01*
X136686937Y-109218500D01*
X136832400Y-109218500D01*
X136832403Y-109218500D01*
X136977130Y-109203783D01*
X137162354Y-109145668D01*
X137295081Y-109071999D01*
X137332084Y-109051461D01*
X137332085Y-109051460D01*
X137332087Y-109051459D01*
X137479382Y-108925010D01*
X137598208Y-108771500D01*
X137627394Y-108712000D01*
X148856456Y-108712000D01*
X148876528Y-108851611D01*
X148935121Y-108979910D01*
X149027487Y-109086507D01*
X149108390Y-109138500D01*
X149146144Y-109162763D01*
X149281477Y-109202500D01*
X149422523Y-109202500D01*
X149557856Y-109162763D01*
X149676512Y-109086507D01*
X149768878Y-108979911D01*
X149827471Y-108851611D01*
X149847544Y-108712000D01*
X151396456Y-108712000D01*
X151416528Y-108851611D01*
X151475121Y-108979910D01*
X151567487Y-109086507D01*
X151648390Y-109138500D01*
X151686144Y-109162763D01*
X151821477Y-109202500D01*
X151962523Y-109202500D01*
X152097856Y-109162763D01*
X152135610Y-109138500D01*
X171208456Y-109138500D01*
X171209487Y-109145668D01*
X171228528Y-109278111D01*
X171287121Y-109406410D01*
X171379487Y-109513007D01*
X171407854Y-109531237D01*
X171498144Y-109589263D01*
X171633477Y-109629000D01*
X171774523Y-109629000D01*
X171909856Y-109589263D01*
X172028512Y-109513007D01*
X172120878Y-109406411D01*
X172179471Y-109278111D01*
X172199544Y-109138500D01*
X172181609Y-109013756D01*
X172179471Y-108998888D01*
X172120878Y-108870589D01*
X172028512Y-108763992D01*
X171909855Y-108687736D01*
X171774523Y-108648000D01*
X171633477Y-108648000D01*
X171498144Y-108687736D01*
X171379487Y-108763992D01*
X171287121Y-108870589D01*
X171228528Y-108998888D01*
X171208456Y-109138499D01*
X171208456Y-109138500D01*
X152135610Y-109138500D01*
X152216512Y-109086507D01*
X152308878Y-108979911D01*
X152367471Y-108851611D01*
X152387544Y-108712000D01*
X152367471Y-108572389D01*
X152356365Y-108548071D01*
X152315230Y-108457999D01*
X153936456Y-108457999D01*
X153956528Y-108597611D01*
X154015121Y-108725910D01*
X154107487Y-108832507D01*
X154166744Y-108870589D01*
X154226144Y-108908763D01*
X154361477Y-108948500D01*
X154502523Y-108948500D01*
X154637856Y-108908763D01*
X154756512Y-108832507D01*
X154848878Y-108725911D01*
X154907471Y-108597611D01*
X154927544Y-108458000D01*
X154927544Y-108457999D01*
X159524456Y-108457999D01*
X159544528Y-108597611D01*
X159603121Y-108725910D01*
X159695487Y-108832507D01*
X159754744Y-108870589D01*
X159814144Y-108908763D01*
X159949477Y-108948500D01*
X160090523Y-108948500D01*
X160225856Y-108908763D01*
X160344512Y-108832507D01*
X160436878Y-108725911D01*
X160495471Y-108597611D01*
X160515544Y-108458000D01*
X160496351Y-108324507D01*
X160495471Y-108318388D01*
X160436878Y-108190089D01*
X160344512Y-108083492D01*
X160225855Y-108007236D01*
X160090523Y-107967500D01*
X159949477Y-107967500D01*
X159814144Y-108007236D01*
X159695487Y-108083492D01*
X159603121Y-108190089D01*
X159544528Y-108318388D01*
X159524456Y-108457999D01*
X154927544Y-108457999D01*
X154908351Y-108324507D01*
X154907471Y-108318388D01*
X154848878Y-108190089D01*
X154756511Y-108083491D01*
X154679460Y-108033974D01*
X154637668Y-107989086D01*
X154622500Y-107929659D01*
X154622500Y-105155999D01*
X182719956Y-105155999D01*
X182740028Y-105295611D01*
X182798621Y-105423910D01*
X182890987Y-105530507D01*
X182911194Y-105543493D01*
X183009644Y-105606763D01*
X183144977Y-105646500D01*
X183286023Y-105646500D01*
X183421356Y-105606763D01*
X183540012Y-105530507D01*
X183632378Y-105423911D01*
X183690971Y-105295611D01*
X183711044Y-105156000D01*
X183690971Y-105016389D01*
X183655322Y-104938330D01*
X183632378Y-104888089D01*
X183540012Y-104781492D01*
X183421355Y-104705236D01*
X183286023Y-104665500D01*
X183144977Y-104665500D01*
X183009644Y-104705236D01*
X182890987Y-104781492D01*
X182798621Y-104888089D01*
X182740028Y-105016388D01*
X182719956Y-105155999D01*
X154622500Y-105155999D01*
X154622500Y-104393999D01*
X156730456Y-104393999D01*
X156750528Y-104533611D01*
X156809121Y-104661910D01*
X156901487Y-104768507D01*
X157020144Y-104844763D01*
X157155477Y-104884500D01*
X157296523Y-104884500D01*
X157431856Y-104844763D01*
X157550512Y-104768507D01*
X157642878Y-104661911D01*
X157701471Y-104533611D01*
X157721544Y-104394000D01*
X157701471Y-104254389D01*
X157675370Y-104197237D01*
X157642878Y-104126089D01*
X157550512Y-104019492D01*
X157431855Y-103943236D01*
X157296523Y-103903500D01*
X157155477Y-103903500D01*
X157020144Y-103943236D01*
X156901487Y-104019492D01*
X156809121Y-104126089D01*
X156750528Y-104254388D01*
X156730456Y-104393999D01*
X154622500Y-104393999D01*
X154622500Y-103899099D01*
X182625357Y-103899099D01*
X182645429Y-104038710D01*
X182704022Y-104167009D01*
X182796388Y-104273606D01*
X182915044Y-104349861D01*
X182915045Y-104349862D01*
X183050378Y-104389599D01*
X183191424Y-104389599D01*
X183326757Y-104349862D01*
X183445413Y-104273606D01*
X183537779Y-104167010D01*
X183596372Y-104038710D01*
X183616445Y-103899099D01*
X183596372Y-103759488D01*
X183537779Y-103631188D01*
X183466205Y-103548587D01*
X183439414Y-103496620D01*
X183439414Y-103438152D01*
X183466206Y-103386183D01*
X183467763Y-103384385D01*
X183467766Y-103384384D01*
X183560132Y-103277788D01*
X183618725Y-103149488D01*
X183638798Y-103009877D01*
X183618725Y-102870266D01*
X183611894Y-102855309D01*
X183560132Y-102741966D01*
X183467766Y-102635369D01*
X183349109Y-102559113D01*
X183213777Y-102519377D01*
X183072731Y-102519377D01*
X182937398Y-102559113D01*
X182818741Y-102635369D01*
X182726375Y-102741966D01*
X182667782Y-102870265D01*
X182647710Y-103009877D01*
X182667782Y-103149488D01*
X182726376Y-103277789D01*
X182797947Y-103360387D01*
X182824739Y-103412355D01*
X182824739Y-103470823D01*
X182797948Y-103522791D01*
X182704022Y-103631188D01*
X182645429Y-103759487D01*
X182625357Y-103899099D01*
X154622500Y-103899099D01*
X154622500Y-103377999D01*
X155206456Y-103377999D01*
X155226528Y-103517611D01*
X155285121Y-103645910D01*
X155377487Y-103752507D01*
X155496144Y-103828763D01*
X155631477Y-103868500D01*
X155772523Y-103868500D01*
X155907856Y-103828763D01*
X156026512Y-103752507D01*
X156118878Y-103645911D01*
X156177471Y-103517611D01*
X156197544Y-103378000D01*
X156177471Y-103238389D01*
X156151370Y-103181237D01*
X156118878Y-103110089D01*
X156026512Y-103003492D01*
X155907855Y-102927236D01*
X155772523Y-102887500D01*
X155631477Y-102887500D01*
X155496144Y-102927236D01*
X155377487Y-103003492D01*
X155285121Y-103110089D01*
X155226528Y-103238388D01*
X155206456Y-103377999D01*
X154622500Y-103377999D01*
X154622500Y-102616000D01*
X174764456Y-102616000D01*
X174784528Y-102755611D01*
X174843121Y-102883910D01*
X174935487Y-102990507D01*
X175054144Y-103066763D01*
X175189477Y-103106500D01*
X175330523Y-103106500D01*
X175465856Y-103066763D01*
X175584512Y-102990507D01*
X175674287Y-102886900D01*
X175716488Y-102855309D01*
X175768000Y-102844103D01*
X175819512Y-102855309D01*
X175861713Y-102886901D01*
X175951486Y-102990506D01*
X175951488Y-102990507D01*
X176070144Y-103066763D01*
X176205477Y-103106500D01*
X176346523Y-103106500D01*
X176481856Y-103066763D01*
X176600512Y-102990507D01*
X176690287Y-102886900D01*
X176732488Y-102855309D01*
X176784000Y-102844103D01*
X176835512Y-102855309D01*
X176877713Y-102886901D01*
X176967486Y-102990506D01*
X176967488Y-102990507D01*
X177086144Y-103066763D01*
X177221477Y-103106500D01*
X177362523Y-103106500D01*
X177497856Y-103066763D01*
X177616512Y-102990507D01*
X177706287Y-102886900D01*
X177748488Y-102855309D01*
X177800000Y-102844103D01*
X177851512Y-102855309D01*
X177893713Y-102886901D01*
X177983486Y-102990506D01*
X177983488Y-102990507D01*
X178102144Y-103066763D01*
X178237477Y-103106500D01*
X178378523Y-103106500D01*
X178513856Y-103066763D01*
X178632512Y-102990507D01*
X178722287Y-102886900D01*
X178764488Y-102855309D01*
X178816000Y-102844103D01*
X178867512Y-102855309D01*
X178909713Y-102886901D01*
X178999486Y-102990506D01*
X178999488Y-102990507D01*
X179118144Y-103066763D01*
X179253477Y-103106500D01*
X179394523Y-103106500D01*
X179529856Y-103066763D01*
X179648512Y-102990507D01*
X179740878Y-102883911D01*
X179799471Y-102755611D01*
X179819544Y-102616000D01*
X179799471Y-102476389D01*
X179740878Y-102348089D01*
X179738287Y-102345099D01*
X179648512Y-102241492D01*
X179529855Y-102165236D01*
X179394523Y-102125500D01*
X179253477Y-102125500D01*
X179118144Y-102165236D01*
X178999487Y-102241492D01*
X178909713Y-102345099D01*
X178867512Y-102376690D01*
X178816000Y-102387896D01*
X178764488Y-102376690D01*
X178722287Y-102345099D01*
X178632512Y-102241492D01*
X178513855Y-102165236D01*
X178378523Y-102125500D01*
X178237477Y-102125500D01*
X178102144Y-102165236D01*
X177983487Y-102241492D01*
X177893713Y-102345099D01*
X177851512Y-102376690D01*
X177800000Y-102387896D01*
X177748488Y-102376690D01*
X177706287Y-102345099D01*
X177616512Y-102241492D01*
X177497855Y-102165236D01*
X177362523Y-102125500D01*
X177221477Y-102125500D01*
X177086144Y-102165236D01*
X176967487Y-102241492D01*
X176877713Y-102345099D01*
X176835512Y-102376690D01*
X176784000Y-102387896D01*
X176732488Y-102376690D01*
X176690287Y-102345099D01*
X176600512Y-102241492D01*
X176481855Y-102165236D01*
X176346523Y-102125500D01*
X176205477Y-102125500D01*
X176070144Y-102165236D01*
X175951487Y-102241492D01*
X175861713Y-102345099D01*
X175819512Y-102376690D01*
X175768000Y-102387896D01*
X175716488Y-102376690D01*
X175674287Y-102345099D01*
X175584512Y-102241492D01*
X175465855Y-102165236D01*
X175330523Y-102125500D01*
X175189477Y-102125500D01*
X175054144Y-102165236D01*
X174935487Y-102241492D01*
X174843121Y-102348089D01*
X174784528Y-102476388D01*
X174764456Y-102616000D01*
X154622500Y-102616000D01*
X154622500Y-102107999D01*
X156730456Y-102107999D01*
X156750528Y-102247611D01*
X156809121Y-102375910D01*
X156901487Y-102482507D01*
X157020144Y-102558763D01*
X157155477Y-102598500D01*
X157296523Y-102598500D01*
X157431856Y-102558763D01*
X157550512Y-102482507D01*
X157642878Y-102375911D01*
X157701471Y-102247611D01*
X157721544Y-102108000D01*
X157721544Y-102107999D01*
X159524456Y-102107999D01*
X159544528Y-102247611D01*
X159603121Y-102375910D01*
X159695487Y-102482507D01*
X159814144Y-102558763D01*
X159949477Y-102598500D01*
X160090523Y-102598500D01*
X160225856Y-102558763D01*
X160344512Y-102482507D01*
X160436878Y-102375911D01*
X160495471Y-102247611D01*
X160515544Y-102108000D01*
X160498217Y-101987491D01*
X160495471Y-101968388D01*
X160436878Y-101840089D01*
X160344512Y-101733492D01*
X160225855Y-101657236D01*
X160090523Y-101617500D01*
X159949477Y-101617500D01*
X159814144Y-101657236D01*
X159695487Y-101733492D01*
X159603121Y-101840089D01*
X159544528Y-101968388D01*
X159524456Y-102107999D01*
X157721544Y-102107999D01*
X157704217Y-101987491D01*
X157701471Y-101968388D01*
X157642878Y-101840089D01*
X157550512Y-101733492D01*
X157431855Y-101657236D01*
X157296523Y-101617500D01*
X157155477Y-101617500D01*
X157020144Y-101657236D01*
X156901487Y-101733492D01*
X156809121Y-101840089D01*
X156750528Y-101968388D01*
X156730456Y-102107999D01*
X154622500Y-102107999D01*
X154622500Y-100604341D01*
X154627692Y-100584000D01*
X156730456Y-100584000D01*
X156750528Y-100723611D01*
X156809121Y-100851910D01*
X156901487Y-100958507D01*
X156955477Y-100993204D01*
X157020144Y-101034763D01*
X157155477Y-101074500D01*
X157296523Y-101074500D01*
X157431856Y-101034763D01*
X157550512Y-100958507D01*
X157642878Y-100851911D01*
X157701471Y-100723611D01*
X157721544Y-100584000D01*
X157701471Y-100444389D01*
X157690669Y-100420737D01*
X157642878Y-100316089D01*
X157550512Y-100209492D01*
X157431855Y-100133236D01*
X157296523Y-100093500D01*
X157155477Y-100093500D01*
X157020144Y-100133236D01*
X156901487Y-100209492D01*
X156809121Y-100316089D01*
X156750528Y-100444388D01*
X156730456Y-100584000D01*
X154627692Y-100584000D01*
X154637668Y-100544914D01*
X154679460Y-100500026D01*
X154756511Y-100450508D01*
X154782308Y-100420737D01*
X154848878Y-100343911D01*
X154907471Y-100215611D01*
X154927544Y-100076000D01*
X154910217Y-99955491D01*
X154907471Y-99936388D01*
X154848878Y-99808089D01*
X154756512Y-99701492D01*
X154637855Y-99625236D01*
X154502523Y-99585500D01*
X154361477Y-99585500D01*
X154226144Y-99625236D01*
X154107487Y-99701492D01*
X154015121Y-99808089D01*
X153956528Y-99936388D01*
X153936456Y-100075999D01*
X153956528Y-100215611D01*
X154015121Y-100343910D01*
X154107488Y-100450508D01*
X154184540Y-100500026D01*
X154226332Y-100544914D01*
X154241500Y-100604341D01*
X154241500Y-107929659D01*
X154226332Y-107989086D01*
X154184540Y-108033974D01*
X154107488Y-108083491D01*
X154015121Y-108190089D01*
X153956528Y-108318388D01*
X153936456Y-108457999D01*
X152315230Y-108457999D01*
X152308878Y-108444089D01*
X152216512Y-108337492D01*
X152097855Y-108261236D01*
X151962523Y-108221500D01*
X151821477Y-108221500D01*
X151686144Y-108261236D01*
X151567487Y-108337492D01*
X151475121Y-108444089D01*
X151416528Y-108572388D01*
X151396456Y-108712000D01*
X149847544Y-108712000D01*
X149827471Y-108572389D01*
X149816365Y-108548071D01*
X149768878Y-108444089D01*
X149676512Y-108337492D01*
X149557855Y-108261236D01*
X149422523Y-108221500D01*
X149281477Y-108221500D01*
X149146144Y-108261236D01*
X149027487Y-108337492D01*
X148935121Y-108444089D01*
X148876528Y-108572388D01*
X148856456Y-108712000D01*
X137627394Y-108712000D01*
X137683700Y-108597212D01*
X137732358Y-108409283D01*
X137742191Y-108215406D01*
X137741623Y-108211701D01*
X137712794Y-108023517D01*
X137685566Y-107950000D01*
X138060953Y-107950000D01*
X138081025Y-108089611D01*
X138139618Y-108217910D01*
X138231984Y-108324507D01*
X138328027Y-108386230D01*
X138350641Y-108400763D01*
X138485974Y-108440500D01*
X138627020Y-108440500D01*
X138762353Y-108400763D01*
X138881009Y-108324507D01*
X138907535Y-108293894D01*
X138949735Y-108262302D01*
X139001247Y-108251096D01*
X139052759Y-108262302D01*
X139094961Y-108293894D01*
X139121486Y-108324506D01*
X139169080Y-108355093D01*
X139240144Y-108400763D01*
X139375477Y-108440500D01*
X139516523Y-108440500D01*
X139651856Y-108400763D01*
X139770512Y-108324507D01*
X139862878Y-108217911D01*
X139921471Y-108089611D01*
X139933527Y-108005763D01*
X144343500Y-108005763D01*
X144351522Y-108071829D01*
X144358641Y-108130461D01*
X144418101Y-108287248D01*
X144513358Y-108425250D01*
X144638869Y-108536443D01*
X144638871Y-108536444D01*
X144787347Y-108614370D01*
X144950158Y-108654500D01*
X145117841Y-108654500D01*
X145117842Y-108654500D01*
X145280653Y-108614370D01*
X145429129Y-108536444D01*
X145554642Y-108425249D01*
X145649898Y-108287248D01*
X145709359Y-108130461D01*
X145724500Y-108005763D01*
X145724500Y-107953500D01*
X146316456Y-107953500D01*
X146336528Y-108093111D01*
X146395121Y-108221410D01*
X146487487Y-108328007D01*
X146578084Y-108386230D01*
X146606144Y-108404263D01*
X146741477Y-108444000D01*
X146882523Y-108444000D01*
X147017856Y-108404263D01*
X147136512Y-108328007D01*
X147228878Y-108221411D01*
X147236830Y-108203999D01*
X147586456Y-108203999D01*
X147606528Y-108343611D01*
X147665121Y-108471910D01*
X147757487Y-108578507D01*
X147852394Y-108639500D01*
X147876144Y-108654763D01*
X148011477Y-108694500D01*
X148152523Y-108694500D01*
X148287856Y-108654763D01*
X148406512Y-108578507D01*
X148498878Y-108471911D01*
X148557471Y-108343611D01*
X148577544Y-108204000D01*
X148559822Y-108080738D01*
X148557471Y-108064388D01*
X148498878Y-107936089D01*
X148406512Y-107829492D01*
X148325611Y-107777500D01*
X152412456Y-107777500D01*
X152432528Y-107917111D01*
X152491121Y-108045410D01*
X152583487Y-108152007D01*
X152691482Y-108221411D01*
X152702144Y-108228263D01*
X152837477Y-108268000D01*
X152978523Y-108268000D01*
X153113856Y-108228263D01*
X153232512Y-108152007D01*
X153324878Y-108045411D01*
X153383471Y-107917111D01*
X153403544Y-107777500D01*
X153385825Y-107654261D01*
X153383471Y-107637888D01*
X153324878Y-107509589D01*
X153232512Y-107402992D01*
X153113855Y-107326736D01*
X152978523Y-107287000D01*
X152837477Y-107287000D01*
X152702144Y-107326736D01*
X152583487Y-107402992D01*
X152491121Y-107509589D01*
X152432528Y-107637888D01*
X152412456Y-107777500D01*
X148325611Y-107777500D01*
X148287855Y-107753236D01*
X148152523Y-107713500D01*
X148011477Y-107713500D01*
X147876144Y-107753236D01*
X147757487Y-107829492D01*
X147665121Y-107936089D01*
X147606528Y-108064388D01*
X147586456Y-108203999D01*
X147236830Y-108203999D01*
X147287471Y-108093111D01*
X147307544Y-107953500D01*
X147287471Y-107813889D01*
X147285872Y-107810388D01*
X147228878Y-107685589D01*
X147136512Y-107578992D01*
X147017855Y-107502736D01*
X146882523Y-107463000D01*
X146741477Y-107463000D01*
X146606144Y-107502736D01*
X146487487Y-107578992D01*
X146395121Y-107685589D01*
X146336528Y-107813888D01*
X146316456Y-107953500D01*
X145724500Y-107953500D01*
X145724500Y-106774500D01*
X147586456Y-106774500D01*
X147606528Y-106914111D01*
X147665121Y-107042410D01*
X147757487Y-107149007D01*
X147876144Y-107225263D01*
X148011477Y-107265000D01*
X148152523Y-107265000D01*
X148287856Y-107225263D01*
X148406512Y-107149007D01*
X148498878Y-107042411D01*
X148557471Y-106914111D01*
X148577544Y-106774500D01*
X148563957Y-106680000D01*
X148856456Y-106680000D01*
X148876528Y-106819611D01*
X148935121Y-106947910D01*
X149027487Y-107054507D01*
X149082971Y-107090164D01*
X149146144Y-107130763D01*
X149281477Y-107170500D01*
X149422523Y-107170500D01*
X149557856Y-107130763D01*
X149676512Y-107054507D01*
X149768878Y-106947911D01*
X149827471Y-106819611D01*
X149847544Y-106680000D01*
X150126456Y-106680000D01*
X150146528Y-106819611D01*
X150205121Y-106947910D01*
X150297487Y-107054507D01*
X150352971Y-107090164D01*
X150416144Y-107130763D01*
X150551477Y-107170500D01*
X150692523Y-107170500D01*
X150827856Y-107130763D01*
X150946512Y-107054507D01*
X151038878Y-106947911D01*
X151097471Y-106819611D01*
X151117544Y-106680000D01*
X151097471Y-106540389D01*
X151089301Y-106522500D01*
X151038878Y-106412089D01*
X150946512Y-106305492D01*
X150827855Y-106229236D01*
X150692523Y-106189500D01*
X150551477Y-106189500D01*
X150416144Y-106229236D01*
X150297487Y-106305492D01*
X150205121Y-106412089D01*
X150146528Y-106540388D01*
X150126456Y-106680000D01*
X149847544Y-106680000D01*
X149827471Y-106540389D01*
X149819301Y-106522500D01*
X149768878Y-106412089D01*
X149676512Y-106305492D01*
X149557855Y-106229236D01*
X149422523Y-106189500D01*
X149281477Y-106189500D01*
X149146144Y-106229236D01*
X149027487Y-106305492D01*
X148935121Y-106412089D01*
X148876528Y-106540388D01*
X148856456Y-106680000D01*
X148563957Y-106680000D01*
X148557471Y-106634889D01*
X148545690Y-106609093D01*
X148498878Y-106506589D01*
X148406512Y-106399992D01*
X148287855Y-106323736D01*
X148152523Y-106284000D01*
X148011477Y-106284000D01*
X147876144Y-106323736D01*
X147757487Y-106399992D01*
X147665121Y-106506589D01*
X147606528Y-106634888D01*
X147586456Y-106774500D01*
X145724500Y-106774500D01*
X145724500Y-106722237D01*
X145709359Y-106597539D01*
X145666010Y-106483236D01*
X145649898Y-106440751D01*
X145554641Y-106302749D01*
X145429130Y-106191556D01*
X145345637Y-106147736D01*
X145280653Y-106113630D01*
X145117842Y-106073500D01*
X144950158Y-106073500D01*
X144787347Y-106113630D01*
X144787345Y-106113630D01*
X144787345Y-106113631D01*
X144638869Y-106191556D01*
X144513358Y-106302749D01*
X144418101Y-106440751D01*
X144358641Y-106597538D01*
X144357814Y-106604351D01*
X144343500Y-106722237D01*
X144343500Y-108005763D01*
X139933527Y-108005763D01*
X139941544Y-107950000D01*
X139921471Y-107810389D01*
X139920409Y-107808064D01*
X139862878Y-107682089D01*
X139770512Y-107575492D01*
X139651855Y-107499236D01*
X139516523Y-107459500D01*
X139375477Y-107459500D01*
X139240144Y-107499236D01*
X139121487Y-107575493D01*
X139094961Y-107606106D01*
X139052759Y-107637698D01*
X139001247Y-107648903D01*
X138949736Y-107637697D01*
X138907534Y-107606105D01*
X138904838Y-107602994D01*
X138881009Y-107575493D01*
X138881008Y-107575492D01*
X138762352Y-107499236D01*
X138627020Y-107459500D01*
X138485974Y-107459500D01*
X138350641Y-107499236D01*
X138231984Y-107575492D01*
X138139618Y-107682089D01*
X138081025Y-107810388D01*
X138060953Y-107950000D01*
X137685566Y-107950000D01*
X137645373Y-107841476D01*
X137542688Y-107676731D01*
X137408942Y-107536032D01*
X137370950Y-107509589D01*
X137249609Y-107425133D01*
X137071216Y-107348578D01*
X136881063Y-107309500D01*
X136735597Y-107309500D01*
X136627051Y-107320537D01*
X136590869Y-107324217D01*
X136405645Y-107382332D01*
X136235915Y-107476538D01*
X136166614Y-107536032D01*
X136088618Y-107602990D01*
X136088616Y-107602991D01*
X136088614Y-107602994D01*
X136009275Y-107705490D01*
X135959330Y-107743875D01*
X135896970Y-107752766D01*
X135838287Y-107729871D01*
X135805179Y-107689361D01*
X135706512Y-107575492D01*
X135587855Y-107499236D01*
X135452523Y-107459500D01*
X135311477Y-107459500D01*
X135176144Y-107499236D01*
X135057487Y-107575493D01*
X135030961Y-107606106D01*
X134988759Y-107637698D01*
X134937247Y-107648903D01*
X134885736Y-107637697D01*
X134843534Y-107606105D01*
X134840838Y-107602994D01*
X134817009Y-107575493D01*
X134817008Y-107575492D01*
X134698352Y-107499236D01*
X134563020Y-107459500D01*
X134421974Y-107459500D01*
X134286641Y-107499236D01*
X134167984Y-107575492D01*
X134075618Y-107682089D01*
X134017025Y-107810388D01*
X133996953Y-107950000D01*
X129224500Y-107950000D01*
X129224500Y-106722237D01*
X129209359Y-106597539D01*
X129166010Y-106483236D01*
X129149898Y-106440751D01*
X129054641Y-106302749D01*
X128929130Y-106191556D01*
X128845637Y-106147736D01*
X128780653Y-106113630D01*
X128617842Y-106073500D01*
X128450158Y-106073500D01*
X128287347Y-106113630D01*
X128287345Y-106113630D01*
X128287345Y-106113631D01*
X128138869Y-106191556D01*
X128013358Y-106302749D01*
X127918101Y-106440751D01*
X127858641Y-106597538D01*
X127857814Y-106604351D01*
X127843500Y-106722237D01*
X127843500Y-108005763D01*
X104584500Y-108005763D01*
X104584500Y-106934000D01*
X125742456Y-106934000D01*
X125762528Y-107073611D01*
X125821121Y-107201910D01*
X125913487Y-107308507D01*
X126028361Y-107382332D01*
X126032144Y-107384763D01*
X126167477Y-107424500D01*
X126308523Y-107424500D01*
X126443856Y-107384763D01*
X126562512Y-107308507D01*
X126654878Y-107201911D01*
X126713471Y-107073611D01*
X126733544Y-106934000D01*
X126713471Y-106794389D01*
X126706514Y-106779156D01*
X126654878Y-106666089D01*
X126562512Y-106559492D01*
X126443855Y-106483236D01*
X126308523Y-106443500D01*
X126167477Y-106443500D01*
X126032144Y-106483236D01*
X125913487Y-106559492D01*
X125821121Y-106666089D01*
X125762528Y-106794388D01*
X125742456Y-106934000D01*
X104584500Y-106934000D01*
X104584500Y-104393999D01*
X139698956Y-104393999D01*
X139719028Y-104533611D01*
X139777621Y-104661910D01*
X139869987Y-104768507D01*
X139988644Y-104844763D01*
X140123977Y-104884500D01*
X140265023Y-104884500D01*
X140339312Y-104862686D01*
X140400604Y-104860498D01*
X140455449Y-104887951D01*
X140490428Y-104938330D01*
X140496984Y-104999311D01*
X140474456Y-105155999D01*
X140494528Y-105295611D01*
X140553121Y-105423910D01*
X140645487Y-105530507D01*
X140665694Y-105543493D01*
X140764144Y-105606763D01*
X140899477Y-105646500D01*
X141040523Y-105646500D01*
X141175856Y-105606763D01*
X141294512Y-105530507D01*
X141386878Y-105423911D01*
X141445471Y-105295611D01*
X141465544Y-105156000D01*
X141445471Y-105016389D01*
X141409822Y-104938330D01*
X141386878Y-104888089D01*
X141294512Y-104781492D01*
X141175855Y-104705236D01*
X141040523Y-104665500D01*
X140899477Y-104665500D01*
X140875373Y-104672577D01*
X140825186Y-104687313D01*
X140763894Y-104689501D01*
X140709050Y-104662047D01*
X140674071Y-104611668D01*
X140667515Y-104550688D01*
X140669969Y-104533613D01*
X140669971Y-104533611D01*
X140690044Y-104394000D01*
X140669971Y-104254389D01*
X140643870Y-104197237D01*
X140611378Y-104126089D01*
X140519012Y-104019492D01*
X140400355Y-103943236D01*
X140265023Y-103903500D01*
X140123977Y-103903500D01*
X139988644Y-103943236D01*
X139869987Y-104019492D01*
X139777621Y-104126089D01*
X139719028Y-104254388D01*
X139698956Y-104393999D01*
X104584500Y-104393999D01*
X104584500Y-99674500D01*
X104601113Y-99612500D01*
X104646500Y-99567113D01*
X104708500Y-99550500D01*
X104718523Y-99550500D01*
X104853856Y-99510763D01*
X104972512Y-99434507D01*
X104972511Y-99434507D01*
X104987511Y-99424868D01*
X104988433Y-99426303D01*
X105014509Y-99407921D01*
X105073632Y-99400279D01*
X105129490Y-99421112D01*
X105169169Y-99465604D01*
X105183500Y-99523471D01*
X105183500Y-101167537D01*
X105179155Y-101193106D01*
X105182720Y-101224742D01*
X105183500Y-101238626D01*
X105183500Y-101242435D01*
X105184348Y-101246152D01*
X105186675Y-101259848D01*
X105190240Y-101291488D01*
X105197518Y-101309057D01*
X105214878Y-101343301D01*
X105217950Y-101393446D01*
X105196956Y-101539470D01*
X105217028Y-101679082D01*
X105275621Y-101807381D01*
X105367987Y-101913978D01*
X105462172Y-101974507D01*
X105486644Y-101990234D01*
X105621977Y-102029971D01*
X105763023Y-102029971D01*
X105898356Y-101990234D01*
X106017012Y-101913978D01*
X106022435Y-101907719D01*
X106078391Y-101870808D01*
X106145383Y-101868414D01*
X106203831Y-101901238D01*
X107692991Y-103390399D01*
X107722964Y-103438920D01*
X107728048Y-103495726D01*
X107708456Y-103631999D01*
X107728528Y-103771611D01*
X107787121Y-103899910D01*
X107879487Y-104006507D01*
X107998144Y-104082763D01*
X108133477Y-104122500D01*
X108274523Y-104122500D01*
X108409856Y-104082763D01*
X108528512Y-104006507D01*
X108620878Y-103899911D01*
X108679471Y-103771611D01*
X108699544Y-103632000D01*
X148856456Y-103632000D01*
X148876528Y-103771611D01*
X148935121Y-103899910D01*
X149027487Y-104006507D01*
X149146144Y-104082763D01*
X149281477Y-104122500D01*
X149422523Y-104122500D01*
X149557856Y-104082763D01*
X149676512Y-104006507D01*
X149768878Y-103899911D01*
X149827471Y-103771611D01*
X149847544Y-103632000D01*
X149827471Y-103492389D01*
X149806637Y-103446770D01*
X149768878Y-103364089D01*
X149676511Y-103257491D01*
X149599460Y-103207974D01*
X149557668Y-103163086D01*
X149542500Y-103103659D01*
X149542500Y-99395500D01*
X151396456Y-99395500D01*
X151398242Y-99407921D01*
X151416528Y-99535111D01*
X151475121Y-99663410D01*
X151567487Y-99770007D01*
X151677016Y-99840397D01*
X151686144Y-99846263D01*
X151821477Y-99886000D01*
X151962523Y-99886000D01*
X152097856Y-99846263D01*
X152216512Y-99770007D01*
X152308878Y-99663411D01*
X152367471Y-99535111D01*
X152387544Y-99395500D01*
X152369782Y-99271963D01*
X152367471Y-99255888D01*
X152308878Y-99127589D01*
X152216512Y-99020992D01*
X152097855Y-98944736D01*
X151962523Y-98905000D01*
X151821477Y-98905000D01*
X151686144Y-98944736D01*
X151567487Y-99020992D01*
X151475121Y-99127589D01*
X151416528Y-99255888D01*
X151396514Y-99395095D01*
X151396456Y-99395500D01*
X149542500Y-99395500D01*
X149542500Y-96963769D01*
X149551939Y-96916316D01*
X149578819Y-96876088D01*
X149778999Y-96675908D01*
X150383060Y-96071845D01*
X150440073Y-96039380D01*
X150505674Y-96040551D01*
X150551476Y-96054000D01*
X150551477Y-96054000D01*
X150692523Y-96054000D01*
X150827856Y-96014263D01*
X150946512Y-95938007D01*
X151038878Y-95831411D01*
X151056036Y-95793840D01*
X159996616Y-95793840D01*
X159997448Y-95799624D01*
X160016688Y-95933451D01*
X160075281Y-96061750D01*
X160167647Y-96168347D01*
X160286304Y-96244603D01*
X160421637Y-96284340D01*
X160562683Y-96284340D01*
X160698016Y-96244603D01*
X160816672Y-96168347D01*
X160909038Y-96061751D01*
X160967631Y-95933451D01*
X160987704Y-95793840D01*
X160982551Y-95758000D01*
X161556456Y-95758000D01*
X161576528Y-95897611D01*
X161635121Y-96025910D01*
X161727487Y-96132507D01*
X161786744Y-96170589D01*
X161846144Y-96208763D01*
X161981477Y-96248500D01*
X162122523Y-96248500D01*
X162257856Y-96208763D01*
X162376512Y-96132507D01*
X162405786Y-96098722D01*
X162454512Y-96064374D01*
X162513635Y-96056733D01*
X162569491Y-96077566D01*
X162609170Y-96122058D01*
X162623500Y-96179925D01*
X162623500Y-99801659D01*
X162608332Y-99861086D01*
X162566540Y-99905974D01*
X162489488Y-99955491D01*
X162397121Y-100062089D01*
X162338528Y-100190388D01*
X162318456Y-100330000D01*
X162338528Y-100469611D01*
X162397121Y-100597910D01*
X162489487Y-100704507D01*
X162572130Y-100757618D01*
X162608144Y-100780763D01*
X162743477Y-100820500D01*
X162884523Y-100820500D01*
X163019856Y-100780763D01*
X163138512Y-100704507D01*
X163230878Y-100597911D01*
X163289471Y-100469611D01*
X163309544Y-100330000D01*
X163289471Y-100190389D01*
X163276608Y-100162224D01*
X163230878Y-100062089D01*
X163138511Y-99955491D01*
X163061460Y-99905974D01*
X163019668Y-99861086D01*
X163004500Y-99801659D01*
X163004500Y-95504000D01*
X164604456Y-95504000D01*
X164624528Y-95643611D01*
X164683121Y-95771910D01*
X164775487Y-95878507D01*
X164878036Y-95944411D01*
X164894144Y-95954763D01*
X165029477Y-95994500D01*
X165170523Y-95994500D01*
X165305856Y-95954763D01*
X165424512Y-95878507D01*
X165516878Y-95771911D01*
X165575471Y-95643611D01*
X165595544Y-95504000D01*
X165575471Y-95364389D01*
X165567468Y-95346866D01*
X165516878Y-95236089D01*
X165424512Y-95129492D01*
X165305855Y-95053236D01*
X165170523Y-95013500D01*
X165029477Y-95013500D01*
X164894144Y-95053236D01*
X164775487Y-95129492D01*
X164683121Y-95236089D01*
X164624528Y-95364388D01*
X164604456Y-95504000D01*
X163004500Y-95504000D01*
X163004500Y-94594500D01*
X163021113Y-94532500D01*
X163066500Y-94487113D01*
X163128500Y-94470500D01*
X163138523Y-94470500D01*
X163273856Y-94430763D01*
X163392512Y-94354507D01*
X163484878Y-94247911D01*
X163543471Y-94119611D01*
X163563544Y-93980000D01*
X163543471Y-93840389D01*
X163517370Y-93783237D01*
X163484878Y-93712089D01*
X163392512Y-93605492D01*
X163273855Y-93529236D01*
X163138523Y-93489500D01*
X162997477Y-93489500D01*
X162862144Y-93529236D01*
X162743487Y-93605492D01*
X162651121Y-93712089D01*
X162592528Y-93840388D01*
X162572456Y-93979999D01*
X162592528Y-94119610D01*
X162612295Y-94162893D01*
X162623500Y-94214404D01*
X162623500Y-94216345D01*
X162622720Y-94230229D01*
X162619155Y-94261864D01*
X162623500Y-94287434D01*
X162623500Y-95336075D01*
X162609170Y-95393942D01*
X162569491Y-95438434D01*
X162513635Y-95459267D01*
X162454512Y-95451626D01*
X162405787Y-95417278D01*
X162376512Y-95383492D01*
X162257855Y-95307236D01*
X162122523Y-95267500D01*
X161981477Y-95267500D01*
X161846144Y-95307236D01*
X161727487Y-95383492D01*
X161635121Y-95490089D01*
X161576528Y-95618388D01*
X161556456Y-95758000D01*
X160982551Y-95758000D01*
X160967631Y-95654229D01*
X160959987Y-95637492D01*
X160909038Y-95525929D01*
X160816671Y-95419331D01*
X160739620Y-95369814D01*
X160697828Y-95324926D01*
X160682660Y-95265499D01*
X160682660Y-90975374D01*
X160697828Y-90915947D01*
X160739620Y-90871059D01*
X160852511Y-90798508D01*
X160853361Y-90797527D01*
X160944878Y-90691911D01*
X161003471Y-90563611D01*
X161023544Y-90424000D01*
X161003471Y-90284389D01*
X160977370Y-90227237D01*
X160944878Y-90156089D01*
X160852512Y-90049492D01*
X160733855Y-89973236D01*
X160598523Y-89933500D01*
X160457477Y-89933500D01*
X160322144Y-89973236D01*
X160203487Y-90049492D01*
X160111121Y-90156089D01*
X160052528Y-90284388D01*
X160032456Y-90424000D01*
X160052528Y-90563611D01*
X160104769Y-90678000D01*
X160111122Y-90691911D01*
X160202639Y-90797527D01*
X160203489Y-90798508D01*
X160244699Y-90824992D01*
X160286492Y-90869880D01*
X160301660Y-90929307D01*
X160301660Y-95265499D01*
X160286492Y-95324926D01*
X160244700Y-95369814D01*
X160167648Y-95419331D01*
X160075281Y-95525929D01*
X160016688Y-95654228D01*
X160001973Y-95756579D01*
X159996616Y-95793840D01*
X151056036Y-95793840D01*
X151097471Y-95703111D01*
X151117544Y-95563500D01*
X151097471Y-95423889D01*
X151095390Y-95419333D01*
X151038878Y-95295589D01*
X150946512Y-95188992D01*
X150827855Y-95112736D01*
X150692523Y-95073000D01*
X150551477Y-95073000D01*
X150416144Y-95112736D01*
X150297487Y-95188992D01*
X150205121Y-95295589D01*
X150146528Y-95423888D01*
X150126456Y-95563500D01*
X150146048Y-95699773D01*
X150140964Y-95756579D01*
X150110991Y-95805100D01*
X149255079Y-96661012D01*
X149233922Y-96676025D01*
X149214066Y-96700923D01*
X149204814Y-96711278D01*
X149202118Y-96713974D01*
X149200089Y-96717203D01*
X149192056Y-96728524D01*
X149172203Y-96753421D01*
X149168240Y-96762987D01*
X149164675Y-96794622D01*
X149162350Y-96808310D01*
X149161500Y-96812036D01*
X149161500Y-96815845D01*
X149160720Y-96829729D01*
X149157155Y-96861364D01*
X149161500Y-96886934D01*
X149161500Y-103103659D01*
X149146332Y-103163086D01*
X149104540Y-103207974D01*
X149027488Y-103257491D01*
X148935121Y-103364089D01*
X148876528Y-103492388D01*
X148856456Y-103632000D01*
X108699544Y-103632000D01*
X108679471Y-103492389D01*
X108658637Y-103446770D01*
X108620878Y-103364089D01*
X108528512Y-103257492D01*
X108409855Y-103181236D01*
X108274523Y-103141500D01*
X108133477Y-103141500D01*
X108133476Y-103141500D01*
X108087672Y-103154948D01*
X108022072Y-103156118D01*
X107965059Y-103123651D01*
X106508819Y-101667412D01*
X106481939Y-101627184D01*
X106472500Y-101579731D01*
X106472500Y-101328397D01*
X127743500Y-101328397D01*
X127758442Y-101461013D01*
X127758442Y-101461015D01*
X127758443Y-101461016D01*
X127772505Y-101501204D01*
X127817277Y-101629155D01*
X127912052Y-101779989D01*
X128038010Y-101905947D01*
X128038012Y-101905948D01*
X128038013Y-101905949D01*
X128188845Y-102000723D01*
X128356984Y-102059557D01*
X128463256Y-102071531D01*
X128533999Y-102079502D01*
X128533999Y-102079501D01*
X128534000Y-102079502D01*
X128711016Y-102059557D01*
X128879155Y-102000723D01*
X129029987Y-101905949D01*
X129155949Y-101779987D01*
X129250723Y-101629155D01*
X129309557Y-101461016D01*
X129319995Y-101368376D01*
X129324500Y-101328397D01*
X144243500Y-101328397D01*
X144258442Y-101461013D01*
X144258442Y-101461015D01*
X144258443Y-101461016D01*
X144272505Y-101501204D01*
X144317277Y-101629155D01*
X144412052Y-101779989D01*
X144538010Y-101905947D01*
X144538012Y-101905948D01*
X144538013Y-101905949D01*
X144688845Y-102000723D01*
X144856984Y-102059557D01*
X144963256Y-102071531D01*
X145033999Y-102079502D01*
X145033999Y-102079501D01*
X145034000Y-102079502D01*
X145211016Y-102059557D01*
X145379155Y-102000723D01*
X145529987Y-101905949D01*
X145655949Y-101779987D01*
X145750723Y-101629155D01*
X145809557Y-101461016D01*
X145819995Y-101368376D01*
X145824500Y-101328397D01*
X145824500Y-100366675D01*
X146279781Y-100366675D01*
X146299853Y-100506286D01*
X146358446Y-100634585D01*
X146450812Y-100741182D01*
X146561168Y-100812103D01*
X146569469Y-100817438D01*
X146704802Y-100857175D01*
X146845848Y-100857175D01*
X146981181Y-100817438D01*
X147099837Y-100741182D01*
X147192203Y-100634586D01*
X147250796Y-100506286D01*
X147270869Y-100366675D01*
X147250796Y-100227064D01*
X147221184Y-100162224D01*
X147192202Y-100098762D01*
X147130140Y-100027138D01*
X147103348Y-99975170D01*
X147103348Y-99916702D01*
X147130140Y-99864733D01*
X147140638Y-99852616D01*
X147140640Y-99852616D01*
X147233006Y-99746020D01*
X147291599Y-99617720D01*
X147311672Y-99478109D01*
X147291599Y-99338498D01*
X147290402Y-99335878D01*
X147233006Y-99210198D01*
X147140640Y-99103601D01*
X147021983Y-99027345D01*
X146886651Y-98987609D01*
X146745605Y-98987609D01*
X146610272Y-99027345D01*
X146491615Y-99103601D01*
X146399249Y-99210198D01*
X146340656Y-99338497D01*
X146320584Y-99478109D01*
X146340656Y-99617720D01*
X146399250Y-99746021D01*
X146461312Y-99817645D01*
X146488104Y-99869613D01*
X146488104Y-99928081D01*
X146461312Y-99980049D01*
X146358447Y-100098762D01*
X146299853Y-100227063D01*
X146279781Y-100366675D01*
X145824500Y-100366675D01*
X145824500Y-99839603D01*
X145809557Y-99706986D01*
X145809557Y-99706984D01*
X145750723Y-99538845D01*
X145655949Y-99388013D01*
X145655948Y-99388012D01*
X145655947Y-99388010D01*
X145529989Y-99262052D01*
X145379155Y-99167277D01*
X145211013Y-99108442D01*
X145034000Y-99088497D01*
X144856986Y-99108442D01*
X144688844Y-99167277D01*
X144538010Y-99262052D01*
X144412052Y-99388010D01*
X144317277Y-99538844D01*
X144258442Y-99706986D01*
X144243500Y-99839603D01*
X144243500Y-101328397D01*
X129324500Y-101328397D01*
X129324500Y-100075999D01*
X141490456Y-100075999D01*
X141510528Y-100215611D01*
X141569121Y-100343910D01*
X141661487Y-100450507D01*
X141748281Y-100506286D01*
X141780144Y-100526763D01*
X141915477Y-100566500D01*
X142056523Y-100566500D01*
X142191856Y-100526763D01*
X142310512Y-100450507D01*
X142402878Y-100343911D01*
X142461471Y-100215611D01*
X142481544Y-100076000D01*
X142463994Y-99953937D01*
X142461471Y-99936388D01*
X142402878Y-99808089D01*
X142310512Y-99701492D01*
X142191855Y-99625236D01*
X142056523Y-99585500D01*
X141915477Y-99585500D01*
X141780144Y-99625236D01*
X141661487Y-99701492D01*
X141569121Y-99808089D01*
X141510528Y-99936388D01*
X141490456Y-100075999D01*
X129324500Y-100075999D01*
X129324500Y-99839603D01*
X129309557Y-99706986D01*
X129309557Y-99706984D01*
X129250723Y-99538845D01*
X129155949Y-99388013D01*
X129155948Y-99388012D01*
X129155947Y-99388010D01*
X129029989Y-99262052D01*
X128879155Y-99167277D01*
X128711013Y-99108442D01*
X128534000Y-99088497D01*
X128356986Y-99108442D01*
X128188844Y-99167277D01*
X128038010Y-99262052D01*
X127912052Y-99388010D01*
X127817277Y-99538844D01*
X127758442Y-99706986D01*
X127743500Y-99839603D01*
X127743500Y-101328397D01*
X106472500Y-101328397D01*
X106472500Y-98806000D01*
X131076456Y-98806000D01*
X131096528Y-98945611D01*
X131155121Y-99073910D01*
X131247487Y-99180507D01*
X131354967Y-99249580D01*
X131366144Y-99256763D01*
X131501477Y-99296500D01*
X131642523Y-99296500D01*
X131777856Y-99256763D01*
X131896512Y-99180507D01*
X131988878Y-99073911D01*
X132047471Y-98945611D01*
X132067544Y-98806000D01*
X132047471Y-98666389D01*
X132021370Y-98609237D01*
X131988878Y-98538089D01*
X131896511Y-98431491D01*
X131819460Y-98381974D01*
X131777668Y-98337086D01*
X131762500Y-98277659D01*
X131762500Y-95676499D01*
X136664456Y-95676499D01*
X136684528Y-95816111D01*
X136743121Y-95944410D01*
X136835487Y-96051007D01*
X136946045Y-96122058D01*
X136954144Y-96127263D01*
X137089477Y-96167000D01*
X137230523Y-96167000D01*
X137365856Y-96127263D01*
X137484512Y-96051007D01*
X137576878Y-95944411D01*
X137635471Y-95816111D01*
X137655544Y-95676500D01*
X137655544Y-95676499D01*
X138188456Y-95676499D01*
X138208528Y-95816111D01*
X138267121Y-95944410D01*
X138359487Y-96051007D01*
X138470045Y-96122058D01*
X138478144Y-96127263D01*
X138613477Y-96167000D01*
X138754523Y-96167000D01*
X138889856Y-96127263D01*
X139008512Y-96051007D01*
X139100878Y-95944411D01*
X139159471Y-95816111D01*
X139179544Y-95676500D01*
X139179544Y-95676499D01*
X139712456Y-95676499D01*
X139732528Y-95816111D01*
X139791121Y-95944410D01*
X139883487Y-96051007D01*
X139994045Y-96122058D01*
X140002144Y-96127263D01*
X140137477Y-96167000D01*
X140278523Y-96167000D01*
X140413856Y-96127263D01*
X140532512Y-96051007D01*
X140624878Y-95944411D01*
X140683471Y-95816111D01*
X140703544Y-95676500D01*
X140683471Y-95536889D01*
X140681107Y-95531713D01*
X140624878Y-95408589D01*
X140532512Y-95301992D01*
X140413855Y-95225736D01*
X140278523Y-95186000D01*
X140137477Y-95186000D01*
X140002144Y-95225736D01*
X139883487Y-95301992D01*
X139791121Y-95408589D01*
X139732528Y-95536888D01*
X139712456Y-95676499D01*
X139179544Y-95676499D01*
X139159471Y-95536889D01*
X139157107Y-95531713D01*
X139100878Y-95408589D01*
X139008512Y-95301992D01*
X138889855Y-95225736D01*
X138754523Y-95186000D01*
X138613477Y-95186000D01*
X138478144Y-95225736D01*
X138359487Y-95301992D01*
X138267121Y-95408589D01*
X138208528Y-95536888D01*
X138188456Y-95676499D01*
X137655544Y-95676499D01*
X137635471Y-95536889D01*
X137633107Y-95531713D01*
X137576878Y-95408589D01*
X137484512Y-95301992D01*
X137365855Y-95225736D01*
X137230523Y-95186000D01*
X137089477Y-95186000D01*
X136954144Y-95225736D01*
X136835487Y-95301992D01*
X136743121Y-95408589D01*
X136684528Y-95536888D01*
X136664456Y-95676499D01*
X131762500Y-95676499D01*
X131762500Y-94995999D01*
X156984456Y-94995999D01*
X157004528Y-95135611D01*
X157063121Y-95263910D01*
X157155487Y-95370507D01*
X157261184Y-95438434D01*
X157274144Y-95446763D01*
X157409477Y-95486500D01*
X157550523Y-95486500D01*
X157685856Y-95446763D01*
X157804512Y-95370507D01*
X157896878Y-95263911D01*
X157955471Y-95135611D01*
X157975544Y-94996000D01*
X157955471Y-94856389D01*
X157949026Y-94842277D01*
X157896878Y-94728089D01*
X157804512Y-94621492D01*
X157685855Y-94545236D01*
X157550523Y-94505500D01*
X157409477Y-94505500D01*
X157274144Y-94545236D01*
X157155487Y-94621492D01*
X157063121Y-94728089D01*
X157004528Y-94856388D01*
X156984456Y-94995999D01*
X131762500Y-94995999D01*
X131762500Y-93726000D01*
X156476456Y-93726000D01*
X156496528Y-93865611D01*
X156555121Y-93993910D01*
X156647487Y-94100507D01*
X156701625Y-94135299D01*
X156766144Y-94176763D01*
X156901477Y-94216500D01*
X157042523Y-94216500D01*
X157177856Y-94176763D01*
X157296512Y-94100507D01*
X157388878Y-93993911D01*
X157447471Y-93865611D01*
X157467544Y-93726000D01*
X157447471Y-93586389D01*
X157441849Y-93574079D01*
X157388878Y-93458089D01*
X157296512Y-93351492D01*
X157177855Y-93275236D01*
X157042523Y-93235500D01*
X156901477Y-93235500D01*
X156766144Y-93275236D01*
X156647487Y-93351492D01*
X156555121Y-93458089D01*
X156496528Y-93586388D01*
X156476456Y-93726000D01*
X131762500Y-93726000D01*
X131762500Y-92202000D01*
X135648456Y-92202000D01*
X135668528Y-92341611D01*
X135727121Y-92469910D01*
X135819487Y-92576507D01*
X135938143Y-92652762D01*
X135938144Y-92652763D01*
X136073477Y-92692500D01*
X136214523Y-92692500D01*
X136349856Y-92652763D01*
X136468512Y-92576507D01*
X136560878Y-92469911D01*
X136567231Y-92456000D01*
X138696456Y-92456000D01*
X138716528Y-92595611D01*
X138775121Y-92723910D01*
X138867487Y-92830507D01*
X138943286Y-92879220D01*
X138986144Y-92906763D01*
X139121477Y-92946500D01*
X139262523Y-92946500D01*
X139397856Y-92906763D01*
X139516512Y-92830507D01*
X139608878Y-92723911D01*
X139667471Y-92595611D01*
X139687544Y-92456000D01*
X139667471Y-92316389D01*
X139637659Y-92251111D01*
X139608878Y-92188089D01*
X139516512Y-92081492D01*
X139397855Y-92005236D01*
X139262523Y-91965500D01*
X139121477Y-91965500D01*
X138986144Y-92005236D01*
X138867487Y-92081492D01*
X138775121Y-92188089D01*
X138716528Y-92316388D01*
X138696456Y-92456000D01*
X136567231Y-92456000D01*
X136619471Y-92341611D01*
X136639544Y-92202000D01*
X136619471Y-92062389D01*
X136613740Y-92049841D01*
X136560878Y-91934089D01*
X136468512Y-91827492D01*
X136349855Y-91751236D01*
X136214523Y-91711500D01*
X136073477Y-91711500D01*
X135938144Y-91751236D01*
X135819487Y-91827492D01*
X135727121Y-91934089D01*
X135668528Y-92062388D01*
X135648456Y-92202000D01*
X131762500Y-92202000D01*
X131762500Y-88412341D01*
X131777668Y-88352914D01*
X131819460Y-88308026D01*
X131896511Y-88258508D01*
X131896512Y-88258507D01*
X131988878Y-88151911D01*
X132047471Y-88023611D01*
X132067544Y-87884000D01*
X132047471Y-87744389D01*
X132047460Y-87744366D01*
X131988878Y-87616089D01*
X131896512Y-87509492D01*
X131777855Y-87433236D01*
X131642523Y-87393500D01*
X131501477Y-87393500D01*
X131366144Y-87433236D01*
X131247487Y-87509492D01*
X131155121Y-87616089D01*
X131096528Y-87744388D01*
X131076456Y-87883999D01*
X131096528Y-88023611D01*
X131155121Y-88151910D01*
X131247488Y-88258508D01*
X131324540Y-88308026D01*
X131366332Y-88352914D01*
X131381500Y-88412341D01*
X131381500Y-98277659D01*
X131366332Y-98337086D01*
X131324540Y-98381974D01*
X131247488Y-98431491D01*
X131155121Y-98538089D01*
X131096528Y-98666388D01*
X131076456Y-98806000D01*
X106472500Y-98806000D01*
X106472500Y-90587434D01*
X106476844Y-90561864D01*
X106473280Y-90530229D01*
X106472500Y-90516345D01*
X106472500Y-90512539D01*
X106472500Y-90512537D01*
X106471650Y-90508814D01*
X106469323Y-90495114D01*
X106467858Y-90482111D01*
X106466433Y-90469464D01*
X106466432Y-90469463D01*
X106465758Y-90463477D01*
X106461804Y-90453930D01*
X106458048Y-90449220D01*
X106441939Y-90429019D01*
X106433906Y-90417697D01*
X106431880Y-90414473D01*
X106429188Y-90411781D01*
X106419927Y-90401418D01*
X106407049Y-90385269D01*
X106403829Y-90381231D01*
X106403828Y-90381230D01*
X106400074Y-90376523D01*
X106378918Y-90361511D01*
X105890819Y-89873412D01*
X105863939Y-89833184D01*
X105854500Y-89785731D01*
X105854500Y-88899999D01*
X116090456Y-88899999D01*
X116110528Y-89039611D01*
X116169121Y-89167910D01*
X116261487Y-89274507D01*
X116380144Y-89350763D01*
X116515477Y-89390500D01*
X116656523Y-89390500D01*
X116791856Y-89350763D01*
X116910512Y-89274507D01*
X117002878Y-89167911D01*
X117061471Y-89039611D01*
X117081544Y-88900000D01*
X117081544Y-88899999D01*
X124472456Y-88899999D01*
X124492528Y-89039611D01*
X124551121Y-89167910D01*
X124643487Y-89274507D01*
X124762144Y-89350763D01*
X124907207Y-89393357D01*
X124940297Y-89399939D01*
X124980524Y-89426818D01*
X125991615Y-90437910D01*
X126986420Y-91432715D01*
X127009622Y-91464891D01*
X127021477Y-91502747D01*
X127024376Y-91522911D01*
X127032529Y-91579611D01*
X127032530Y-91579613D01*
X127091120Y-91707909D01*
X127183487Y-91814507D01*
X127302143Y-91890762D01*
X127302144Y-91890763D01*
X127437477Y-91930500D01*
X127578523Y-91930500D01*
X127713856Y-91890763D01*
X127832512Y-91814507D01*
X127924878Y-91707911D01*
X127983471Y-91579611D01*
X128003544Y-91440000D01*
X127983471Y-91300389D01*
X127962326Y-91254089D01*
X127924878Y-91172089D01*
X127832512Y-91065492D01*
X127713855Y-90989236D01*
X127578523Y-90949500D01*
X127437477Y-90949500D01*
X127302142Y-90989237D01*
X127252040Y-91021436D01*
X127199722Y-91040243D01*
X127144445Y-91034300D01*
X127097321Y-91004801D01*
X126090211Y-89997691D01*
X126058310Y-89942815D01*
X126057744Y-89879344D01*
X126088660Y-89823907D01*
X126142956Y-89791033D01*
X126189856Y-89777263D01*
X126308512Y-89701007D01*
X126400878Y-89594411D01*
X126459471Y-89466111D01*
X126479544Y-89326500D01*
X126459471Y-89186889D01*
X126455421Y-89178021D01*
X126400878Y-89058589D01*
X126354876Y-89005499D01*
X128756927Y-89005499D01*
X128776999Y-89145111D01*
X128835592Y-89273410D01*
X128927958Y-89380007D01*
X129019363Y-89438749D01*
X129046615Y-89456263D01*
X129181948Y-89496000D01*
X129322994Y-89496000D01*
X129458327Y-89456263D01*
X129576983Y-89380007D01*
X129669349Y-89273411D01*
X129727942Y-89145111D01*
X129748015Y-89005500D01*
X129728804Y-88871883D01*
X129727942Y-88865888D01*
X129669349Y-88737589D01*
X129576983Y-88630992D01*
X129458326Y-88554736D01*
X129322994Y-88515000D01*
X129181948Y-88515000D01*
X129046615Y-88554736D01*
X128927958Y-88630992D01*
X128835592Y-88737589D01*
X128776999Y-88865888D01*
X128756927Y-89005499D01*
X126354876Y-89005499D01*
X126308512Y-88951992D01*
X126189855Y-88875736D01*
X126054523Y-88836000D01*
X125913477Y-88836000D01*
X125778144Y-88875737D01*
X125649278Y-88958553D01*
X125591084Y-88977921D01*
X125530727Y-88967031D01*
X125482971Y-88928547D01*
X125459501Y-88871883D01*
X125458639Y-88865889D01*
X125443471Y-88760389D01*
X125417370Y-88703237D01*
X125384878Y-88632089D01*
X125292512Y-88525492D01*
X125173855Y-88449236D01*
X125038523Y-88409500D01*
X124897477Y-88409500D01*
X124762144Y-88449236D01*
X124643487Y-88525492D01*
X124551121Y-88632089D01*
X124492528Y-88760388D01*
X124472456Y-88899999D01*
X117081544Y-88899999D01*
X117061471Y-88760389D01*
X117035370Y-88703237D01*
X117002878Y-88632089D01*
X116910512Y-88525492D01*
X116791855Y-88449236D01*
X116656523Y-88409500D01*
X116515477Y-88409500D01*
X116380144Y-88449236D01*
X116261487Y-88525492D01*
X116169121Y-88632089D01*
X116110528Y-88760388D01*
X116090456Y-88899999D01*
X105854500Y-88899999D01*
X105854500Y-85214000D01*
X105871113Y-85152000D01*
X105916500Y-85106613D01*
X105978500Y-85090000D01*
X106255727Y-85090000D01*
X106317727Y-85106613D01*
X106363114Y-85152000D01*
X106379727Y-85214000D01*
X106379727Y-88270001D01*
X106386122Y-88302150D01*
X106386751Y-88305311D01*
X106406753Y-88335247D01*
X106436689Y-88355249D01*
X106464974Y-88360875D01*
X106471999Y-88362273D01*
X106472000Y-88362273D01*
X107872000Y-88362273D01*
X107872001Y-88362273D01*
X107877859Y-88361107D01*
X107907311Y-88355249D01*
X107937247Y-88335247D01*
X107957249Y-88305311D01*
X107964273Y-88270000D01*
X107964273Y-87786273D01*
X107980886Y-87724273D01*
X108026273Y-87678886D01*
X108088273Y-87662273D01*
X110555727Y-87662273D01*
X110617727Y-87678886D01*
X110663114Y-87724273D01*
X110679727Y-87786273D01*
X110679727Y-88070000D01*
X110686751Y-88105311D01*
X110706753Y-88135247D01*
X110736689Y-88155249D01*
X110764975Y-88160875D01*
X110771999Y-88162273D01*
X110772000Y-88162273D01*
X114472000Y-88162273D01*
X114472001Y-88162273D01*
X114477859Y-88161107D01*
X114507311Y-88155249D01*
X114537247Y-88135247D01*
X114557249Y-88105311D01*
X114564273Y-88070000D01*
X114564273Y-87639633D01*
X121505956Y-87639633D01*
X121526028Y-87779244D01*
X121584621Y-87907543D01*
X121676987Y-88014140D01*
X121737307Y-88052905D01*
X121795644Y-88090396D01*
X121930977Y-88130133D01*
X122072023Y-88130133D01*
X122207356Y-88090396D01*
X122326012Y-88014140D01*
X122418378Y-87907544D01*
X122476971Y-87779244D01*
X122497044Y-87639633D01*
X122476971Y-87500022D01*
X122463904Y-87471410D01*
X122418378Y-87371722D01*
X122326012Y-87265125D01*
X122207355Y-87188869D01*
X122072023Y-87149133D01*
X121930977Y-87149133D01*
X121795644Y-87188869D01*
X121676987Y-87265125D01*
X121584621Y-87371722D01*
X121526028Y-87500021D01*
X121505956Y-87639633D01*
X114564273Y-87639633D01*
X114564273Y-85214000D01*
X114580886Y-85152000D01*
X114626273Y-85106613D01*
X114688273Y-85090000D01*
X128209500Y-85090000D01*
X128271500Y-85106613D01*
X128316887Y-85152000D01*
X128333500Y-85214000D01*
X128333500Y-86675159D01*
X128318332Y-86734586D01*
X128276540Y-86779474D01*
X128199488Y-86828991D01*
X128107121Y-86935589D01*
X128048528Y-87063888D01*
X128028456Y-87203500D01*
X128048528Y-87343111D01*
X128107121Y-87471410D01*
X128199487Y-87578007D01*
X128302036Y-87643911D01*
X128318144Y-87654263D01*
X128453477Y-87694000D01*
X128594523Y-87694000D01*
X128729856Y-87654263D01*
X128848512Y-87578007D01*
X128940878Y-87471411D01*
X128999471Y-87343111D01*
X129019544Y-87203500D01*
X128999471Y-87063889D01*
X128940878Y-86935589D01*
X128922033Y-86913841D01*
X128848511Y-86828991D01*
X128771460Y-86779474D01*
X128729668Y-86734586D01*
X128714500Y-86675159D01*
X128714500Y-85214000D01*
X128731113Y-85152000D01*
X128776500Y-85106613D01*
X128838500Y-85090000D01*
X134895500Y-85090000D01*
X134957500Y-85106613D01*
X135002887Y-85152000D01*
X135019500Y-85214000D01*
X135019500Y-90809084D01*
X135011682Y-90852418D01*
X134989214Y-90890284D01*
X134969507Y-90913028D01*
X134965121Y-90918090D01*
X134906528Y-91046388D01*
X134886456Y-91186000D01*
X134906528Y-91325611D01*
X134965121Y-91453910D01*
X135057487Y-91560507D01*
X135087217Y-91579613D01*
X135176144Y-91636763D01*
X135311477Y-91676500D01*
X135452523Y-91676500D01*
X135587856Y-91636763D01*
X135706512Y-91560507D01*
X135798878Y-91453911D01*
X135857471Y-91325611D01*
X135877544Y-91186000D01*
X135857471Y-91046389D01*
X135854664Y-91040243D01*
X135798878Y-90918089D01*
X135706512Y-90811492D01*
X135587854Y-90735236D01*
X135501783Y-90709964D01*
X135489564Y-90706376D01*
X135443298Y-90681113D01*
X135440967Y-90677999D01*
X152158456Y-90677999D01*
X152178528Y-90817611D01*
X152237121Y-90945910D01*
X152329487Y-91052507D01*
X152390465Y-91091695D01*
X152448144Y-91128763D01*
X152583477Y-91168500D01*
X152724523Y-91168500D01*
X152859856Y-91128763D01*
X152978512Y-91052507D01*
X153070878Y-90945911D01*
X153129471Y-90817611D01*
X153149544Y-90678000D01*
X153129471Y-90538389D01*
X153125744Y-90530229D01*
X153070878Y-90410089D01*
X152978512Y-90303492D01*
X152859855Y-90227236D01*
X152724523Y-90187500D01*
X152583477Y-90187500D01*
X152448144Y-90227236D01*
X152329487Y-90303492D01*
X152237121Y-90410089D01*
X152178528Y-90538388D01*
X152158456Y-90677999D01*
X135440967Y-90677999D01*
X135411706Y-90638912D01*
X135400500Y-90587400D01*
X135400500Y-85214000D01*
X135417113Y-85152000D01*
X135462500Y-85106613D01*
X135524500Y-85090000D01*
X138241997Y-85090000D01*
X138303997Y-85106613D01*
X138349384Y-85152000D01*
X138365997Y-85214000D01*
X138365997Y-86763670D01*
X138361652Y-86789239D01*
X138365217Y-86820875D01*
X138365997Y-86834759D01*
X138365997Y-86838568D01*
X138366845Y-86842285D01*
X138369172Y-86855981D01*
X138372737Y-86887621D01*
X138376697Y-86897180D01*
X138396554Y-86922081D01*
X138404595Y-86933413D01*
X138406617Y-86936631D01*
X138409301Y-86939315D01*
X138418567Y-86949683D01*
X138438423Y-86974582D01*
X138459579Y-86989593D01*
X140448831Y-88978845D01*
X140481076Y-89035003D01*
X140480614Y-89099758D01*
X140447571Y-89155450D01*
X140390958Y-89186890D01*
X140326216Y-89185503D01*
X140278524Y-89171500D01*
X140278523Y-89171500D01*
X140137477Y-89171500D01*
X140002144Y-89211236D01*
X139883487Y-89287492D01*
X139791121Y-89394089D01*
X139732528Y-89522388D01*
X139712456Y-89662000D01*
X139732528Y-89801611D01*
X139791121Y-89929910D01*
X139883487Y-90036507D01*
X139903694Y-90049493D01*
X140002144Y-90112763D01*
X140137477Y-90152500D01*
X140278523Y-90152500D01*
X140413856Y-90112763D01*
X140532512Y-90036507D01*
X140624878Y-89929911D01*
X140683471Y-89801611D01*
X140683470Y-89801611D01*
X140687239Y-89793361D01*
X140723382Y-89747402D01*
X140776566Y-89723114D01*
X140834966Y-89725895D01*
X140933072Y-89754702D01*
X141074118Y-89754702D01*
X141209451Y-89714965D01*
X141328107Y-89638709D01*
X141420473Y-89532113D01*
X141479066Y-89403813D01*
X141499139Y-89264202D01*
X141479877Y-89130231D01*
X141479066Y-89124590D01*
X141420473Y-88996291D01*
X141328107Y-88889694D01*
X141209450Y-88813438D01*
X141074118Y-88773702D01*
X140933072Y-88773702D01*
X140887268Y-88787151D01*
X140821668Y-88788321D01*
X140764654Y-88755854D01*
X138783316Y-86774516D01*
X138756436Y-86734288D01*
X138746997Y-86686835D01*
X138746997Y-85214000D01*
X138763610Y-85152000D01*
X138808997Y-85106613D01*
X138870997Y-85090000D01*
X149799500Y-85090000D01*
X149861500Y-85106613D01*
X149906887Y-85152000D01*
X149923500Y-85214000D01*
X149923500Y-85948659D01*
X149908332Y-86008086D01*
X149866540Y-86052974D01*
X149789488Y-86102491D01*
X149697121Y-86209089D01*
X149638528Y-86337388D01*
X149618456Y-86476999D01*
X149638528Y-86616611D01*
X149697121Y-86744910D01*
X149789487Y-86851507D01*
X149886481Y-86913841D01*
X149908144Y-86927763D01*
X150043477Y-86967500D01*
X150184523Y-86967500D01*
X150319856Y-86927763D01*
X150438512Y-86851507D01*
X150530878Y-86744911D01*
X150589471Y-86616611D01*
X150609544Y-86477000D01*
X150589471Y-86337389D01*
X150530878Y-86209089D01*
X150438511Y-86102491D01*
X150361460Y-86052974D01*
X150319668Y-86008086D01*
X150304500Y-85948659D01*
X150304500Y-85214000D01*
X150321113Y-85152000D01*
X150366500Y-85106613D01*
X150428500Y-85090000D01*
X164531231Y-85090000D01*
X164587526Y-85103515D01*
X164631549Y-85141115D01*
X164653704Y-85194602D01*
X164649162Y-85252318D01*
X164618912Y-85301681D01*
X164068939Y-85851652D01*
X164011924Y-85884119D01*
X163946323Y-85882948D01*
X163900523Y-85869500D01*
X163759477Y-85869500D01*
X163624144Y-85909236D01*
X163505487Y-85985492D01*
X163413121Y-86092089D01*
X163354528Y-86220388D01*
X163334456Y-86360000D01*
X163354528Y-86499611D01*
X163413121Y-86627910D01*
X163505487Y-86734507D01*
X163590652Y-86789239D01*
X163624144Y-86810763D01*
X163759477Y-86850500D01*
X163900523Y-86850500D01*
X164035856Y-86810763D01*
X164154512Y-86734507D01*
X164246878Y-86627911D01*
X164305471Y-86499611D01*
X164325544Y-86360000D01*
X164305950Y-86223722D01*
X164311034Y-86166920D01*
X164341005Y-86118400D01*
X165285267Y-85174138D01*
X165306422Y-85159129D01*
X165310177Y-85154419D01*
X165310179Y-85154419D01*
X165324317Y-85136688D01*
X165367463Y-85102281D01*
X165421266Y-85090000D01*
X166406157Y-85090000D01*
X166468157Y-85106613D01*
X166513544Y-85152000D01*
X166530157Y-85214000D01*
X166530157Y-100633159D01*
X166514989Y-100692586D01*
X166473197Y-100737474D01*
X166396145Y-100786992D01*
X166369618Y-100817606D01*
X166327416Y-100849198D01*
X166275904Y-100860403D01*
X166224393Y-100849197D01*
X166182191Y-100817605D01*
X166182046Y-100817438D01*
X166155666Y-100786993D01*
X166155665Y-100786992D01*
X166037009Y-100710736D01*
X165901677Y-100671000D01*
X165760631Y-100671000D01*
X165625298Y-100710736D01*
X165506641Y-100786992D01*
X165432290Y-100872799D01*
X165373512Y-100910573D01*
X165303642Y-100910573D01*
X165244864Y-100872799D01*
X165170512Y-100786992D01*
X165051855Y-100710736D01*
X164916523Y-100671000D01*
X164775477Y-100671000D01*
X164640144Y-100710736D01*
X164521487Y-100786992D01*
X164429121Y-100893589D01*
X164370528Y-101021888D01*
X164350456Y-101161500D01*
X164370528Y-101301111D01*
X164429121Y-101429410D01*
X164521487Y-101536007D01*
X164640143Y-101612262D01*
X164640144Y-101612263D01*
X164775477Y-101652000D01*
X164916523Y-101652000D01*
X165051856Y-101612263D01*
X165170512Y-101536007D01*
X165170514Y-101536005D01*
X165244864Y-101450201D01*
X165287065Y-101418609D01*
X165338577Y-101407403D01*
X165390089Y-101418609D01*
X165432290Y-101450201D01*
X165506639Y-101536005D01*
X165506641Y-101536006D01*
X165506642Y-101536007D01*
X165625298Y-101612263D01*
X165760631Y-101652000D01*
X165901677Y-101652000D01*
X166037010Y-101612263D01*
X166155666Y-101536007D01*
X166182192Y-101505394D01*
X166224392Y-101473802D01*
X166275904Y-101462596D01*
X166327416Y-101473802D01*
X166369618Y-101505394D01*
X166396143Y-101536006D01*
X166514800Y-101612262D01*
X166514801Y-101612263D01*
X166650134Y-101652000D01*
X166791180Y-101652000D01*
X166926513Y-101612263D01*
X167045169Y-101536007D01*
X167071695Y-101505394D01*
X167113895Y-101473802D01*
X167165407Y-101462596D01*
X167216919Y-101473802D01*
X167259121Y-101505394D01*
X167285646Y-101536006D01*
X167404303Y-101612262D01*
X167404304Y-101612263D01*
X167539637Y-101652000D01*
X167680683Y-101652000D01*
X167816016Y-101612263D01*
X167934672Y-101536007D01*
X168027038Y-101429411D01*
X168085631Y-101301111D01*
X168105704Y-101161500D01*
X168085631Y-101021889D01*
X168082497Y-101015027D01*
X168027038Y-100893589D01*
X168007897Y-100871499D01*
X170700456Y-100871499D01*
X170720528Y-101011111D01*
X170779121Y-101139410D01*
X170871487Y-101246007D01*
X170953728Y-101298860D01*
X170990144Y-101322263D01*
X171125477Y-101362000D01*
X171266523Y-101362000D01*
X171401856Y-101322263D01*
X171520512Y-101246007D01*
X171612878Y-101139411D01*
X171671471Y-101011111D01*
X171691544Y-100871500D01*
X171671964Y-100735316D01*
X171671471Y-100731888D01*
X171612878Y-100603589D01*
X171595904Y-100584000D01*
X174764456Y-100584000D01*
X174784528Y-100723611D01*
X174843121Y-100851910D01*
X174935487Y-100958507D01*
X174989477Y-100993204D01*
X175054144Y-101034763D01*
X175189477Y-101074500D01*
X175330523Y-101074500D01*
X175465856Y-101034763D01*
X175584512Y-100958507D01*
X175674287Y-100854900D01*
X175716488Y-100823309D01*
X175768000Y-100812103D01*
X175819512Y-100823309D01*
X175861713Y-100854901D01*
X175951486Y-100958506D01*
X175999395Y-100989295D01*
X176070144Y-101034763D01*
X176205477Y-101074500D01*
X176346523Y-101074500D01*
X176481856Y-101034763D01*
X176600512Y-100958507D01*
X176690287Y-100854900D01*
X176732488Y-100823309D01*
X176784000Y-100812103D01*
X176835512Y-100823309D01*
X176877713Y-100854901D01*
X176967486Y-100958506D01*
X177015395Y-100989295D01*
X177086144Y-101034763D01*
X177221477Y-101074500D01*
X177362523Y-101074500D01*
X177497856Y-101034763D01*
X177616512Y-100958507D01*
X177706287Y-100854900D01*
X177748488Y-100823309D01*
X177800000Y-100812103D01*
X177851512Y-100823309D01*
X177893713Y-100854901D01*
X177983486Y-100958506D01*
X178031395Y-100989295D01*
X178102144Y-101034763D01*
X178237477Y-101074500D01*
X178378523Y-101074500D01*
X178513856Y-101034763D01*
X178632512Y-100958507D01*
X178722287Y-100854900D01*
X178764488Y-100823309D01*
X178816000Y-100812103D01*
X178867512Y-100823309D01*
X178909713Y-100854901D01*
X178999486Y-100958506D01*
X179047395Y-100989295D01*
X179118144Y-101034763D01*
X179253477Y-101074500D01*
X179394523Y-101074500D01*
X179529856Y-101034763D01*
X179648512Y-100958507D01*
X179740878Y-100851911D01*
X179799471Y-100723611D01*
X179819544Y-100584000D01*
X179799471Y-100444389D01*
X179788669Y-100420737D01*
X179740878Y-100316089D01*
X179648512Y-100209492D01*
X179529855Y-100133236D01*
X179394523Y-100093500D01*
X179253477Y-100093500D01*
X179118144Y-100133236D01*
X178999487Y-100209492D01*
X178909713Y-100313099D01*
X178867512Y-100344690D01*
X178816000Y-100355896D01*
X178764488Y-100344690D01*
X178722287Y-100313099D01*
X178632512Y-100209492D01*
X178513855Y-100133236D01*
X178378523Y-100093500D01*
X178237477Y-100093500D01*
X178102144Y-100133236D01*
X177983487Y-100209492D01*
X177893713Y-100313099D01*
X177851512Y-100344690D01*
X177800000Y-100355896D01*
X177748488Y-100344690D01*
X177706287Y-100313099D01*
X177616512Y-100209492D01*
X177497855Y-100133236D01*
X177362523Y-100093500D01*
X177221477Y-100093500D01*
X177086144Y-100133236D01*
X176967487Y-100209492D01*
X176877713Y-100313099D01*
X176835512Y-100344690D01*
X176784000Y-100355896D01*
X176732488Y-100344690D01*
X176690287Y-100313099D01*
X176600512Y-100209492D01*
X176481855Y-100133236D01*
X176346523Y-100093500D01*
X176205477Y-100093500D01*
X176070144Y-100133236D01*
X175951487Y-100209492D01*
X175861713Y-100313099D01*
X175819512Y-100344690D01*
X175768000Y-100355896D01*
X175716488Y-100344690D01*
X175674287Y-100313099D01*
X175584512Y-100209492D01*
X175465855Y-100133236D01*
X175330523Y-100093500D01*
X175189477Y-100093500D01*
X175054144Y-100133236D01*
X174935487Y-100209492D01*
X174843121Y-100316089D01*
X174784528Y-100444388D01*
X174764456Y-100584000D01*
X171595904Y-100584000D01*
X171520512Y-100496992D01*
X171401855Y-100420736D01*
X171266523Y-100381000D01*
X171125477Y-100381000D01*
X170990144Y-100420736D01*
X170871487Y-100496992D01*
X170779121Y-100603589D01*
X170720528Y-100731888D01*
X170700456Y-100871499D01*
X168007897Y-100871499D01*
X167934671Y-100786991D01*
X167857620Y-100737474D01*
X167815828Y-100692586D01*
X167800660Y-100633159D01*
X167800660Y-99402500D01*
X169176456Y-99402500D01*
X169196528Y-99542111D01*
X169255121Y-99670410D01*
X169347487Y-99777007D01*
X169414697Y-99820200D01*
X169466144Y-99853263D01*
X169601477Y-99893000D01*
X169742523Y-99893000D01*
X169877856Y-99853263D01*
X169996512Y-99777007D01*
X170088878Y-99670411D01*
X170147471Y-99542111D01*
X170167544Y-99402500D01*
X170147471Y-99262889D01*
X170147088Y-99262051D01*
X170088878Y-99134589D01*
X169996512Y-99027992D01*
X169877855Y-98951736D01*
X169742523Y-98912000D01*
X169601477Y-98912000D01*
X169466144Y-98951736D01*
X169347487Y-99027992D01*
X169255121Y-99134589D01*
X169196528Y-99262888D01*
X169176456Y-99402500D01*
X167800660Y-99402500D01*
X167800660Y-98043999D01*
X171462456Y-98043999D01*
X171482528Y-98183611D01*
X171541121Y-98311910D01*
X171633487Y-98418507D01*
X171746552Y-98491169D01*
X171752144Y-98494763D01*
X171887477Y-98534500D01*
X172028523Y-98534500D01*
X172163856Y-98494763D01*
X172282512Y-98418507D01*
X172374878Y-98311911D01*
X172433471Y-98183611D01*
X172453544Y-98044000D01*
X172433471Y-97904389D01*
X172429702Y-97896137D01*
X172374878Y-97776089D01*
X172282512Y-97669492D01*
X172163855Y-97593236D01*
X172028523Y-97553500D01*
X171887477Y-97553500D01*
X171752144Y-97593236D01*
X171633487Y-97669492D01*
X171541121Y-97776089D01*
X171482528Y-97904388D01*
X171462456Y-98043999D01*
X167800660Y-98043999D01*
X167800660Y-94742000D01*
X172224456Y-94742000D01*
X172244528Y-94881611D01*
X172303121Y-95009910D01*
X172395487Y-95116507D01*
X172492873Y-95179093D01*
X172514144Y-95192763D01*
X172649477Y-95232500D01*
X172790523Y-95232500D01*
X172925856Y-95192763D01*
X173044512Y-95116507D01*
X173136878Y-95009911D01*
X173195471Y-94881611D01*
X173215544Y-94742000D01*
X173195471Y-94602389D01*
X173191868Y-94594500D01*
X173136878Y-94474089D01*
X173044512Y-94367492D01*
X172925855Y-94291236D01*
X172790523Y-94251500D01*
X172649477Y-94251500D01*
X172514144Y-94291236D01*
X172395487Y-94367492D01*
X172303121Y-94474089D01*
X172244528Y-94602388D01*
X172224456Y-94742000D01*
X167800660Y-94742000D01*
X167800660Y-92111500D01*
X168922456Y-92111500D01*
X168942528Y-92251111D01*
X169001121Y-92379410D01*
X169093487Y-92486007D01*
X169135858Y-92513237D01*
X169212144Y-92562263D01*
X169347477Y-92602000D01*
X169488523Y-92602000D01*
X169623856Y-92562263D01*
X169742512Y-92486007D01*
X169834878Y-92379411D01*
X169893471Y-92251111D01*
X169913544Y-92111500D01*
X169893471Y-91971889D01*
X169890553Y-91965500D01*
X169834878Y-91843589D01*
X169742512Y-91736992D01*
X169623855Y-91660736D01*
X169488523Y-91621000D01*
X169347477Y-91621000D01*
X169212144Y-91660736D01*
X169093487Y-91736992D01*
X169001121Y-91843589D01*
X168942528Y-91971888D01*
X168922456Y-92111500D01*
X167800660Y-92111500D01*
X167800660Y-89955518D01*
X167815828Y-89896091D01*
X167857621Y-89851203D01*
X167964510Y-89782509D01*
X167969056Y-89777263D01*
X168056878Y-89675911D01*
X168063231Y-89662000D01*
X168922456Y-89662000D01*
X168942528Y-89801611D01*
X169001121Y-89929910D01*
X169093487Y-90036507D01*
X169113694Y-90049493D01*
X169212144Y-90112763D01*
X169347477Y-90152500D01*
X169488523Y-90152500D01*
X169623856Y-90112763D01*
X169742512Y-90036507D01*
X169803495Y-89966128D01*
X169853872Y-89931151D01*
X169914852Y-89924594D01*
X169971516Y-89948064D01*
X170010000Y-89995818D01*
X170017120Y-90011409D01*
X170109487Y-90118007D01*
X170168744Y-90156089D01*
X170228144Y-90194263D01*
X170363477Y-90234000D01*
X170504523Y-90234000D01*
X170639856Y-90194263D01*
X170758512Y-90118007D01*
X170850878Y-90011411D01*
X170909471Y-89883111D01*
X170929544Y-89743500D01*
X170909471Y-89603889D01*
X170889242Y-89559595D01*
X170850878Y-89475589D01*
X170758512Y-89368992D01*
X170639855Y-89292736D01*
X170504523Y-89253000D01*
X170363477Y-89253000D01*
X170228144Y-89292736D01*
X170109487Y-89368993D01*
X170048505Y-89439370D01*
X169998125Y-89474349D01*
X169937145Y-89480905D01*
X169880482Y-89457434D01*
X169841998Y-89409679D01*
X169834878Y-89394089D01*
X169742512Y-89287492D01*
X169623855Y-89211236D01*
X169488523Y-89171500D01*
X169347477Y-89171500D01*
X169212144Y-89211236D01*
X169093487Y-89287492D01*
X169001121Y-89394089D01*
X168942528Y-89522388D01*
X168922456Y-89662000D01*
X168063231Y-89662000D01*
X168115471Y-89547611D01*
X168135544Y-89408000D01*
X168115951Y-89271726D01*
X168115471Y-89268388D01*
X168056878Y-89140089D01*
X167964512Y-89033492D01*
X167845855Y-88957236D01*
X167710523Y-88917500D01*
X167569477Y-88917500D01*
X167434144Y-88957236D01*
X167315487Y-89033492D01*
X167223121Y-89140089D01*
X167164528Y-89268388D01*
X167157895Y-89314529D01*
X167134424Y-89371192D01*
X167088748Y-89408000D01*
X167134424Y-89444808D01*
X167157895Y-89501471D01*
X167164528Y-89547611D01*
X167208587Y-89644085D01*
X167223122Y-89675911D01*
X167315488Y-89782507D01*
X167362701Y-89812849D01*
X167404493Y-89857738D01*
X167419660Y-89917164D01*
X167419660Y-100633159D01*
X167404492Y-100692586D01*
X167362700Y-100737474D01*
X167285648Y-100786992D01*
X167259121Y-100817606D01*
X167216919Y-100849198D01*
X167165407Y-100860403D01*
X167113896Y-100849197D01*
X167071694Y-100817605D01*
X167071549Y-100817438D01*
X167045169Y-100786993D01*
X167045168Y-100786992D01*
X167045167Y-100786991D01*
X166968117Y-100737474D01*
X166926325Y-100692586D01*
X166911157Y-100633159D01*
X166911157Y-89519118D01*
X166926325Y-89459691D01*
X166968118Y-89414802D01*
X166988555Y-89408000D01*
X166968118Y-89401198D01*
X166926325Y-89356309D01*
X166911157Y-89296882D01*
X166911157Y-87883999D01*
X168922456Y-87883999D01*
X168942528Y-88023611D01*
X169001121Y-88151910D01*
X169093487Y-88258507D01*
X169170729Y-88308147D01*
X169212144Y-88334763D01*
X169347477Y-88374500D01*
X169488523Y-88374500D01*
X169623856Y-88334763D01*
X169742512Y-88258507D01*
X169834878Y-88151911D01*
X169893471Y-88023611D01*
X169913544Y-87884000D01*
X169893471Y-87744389D01*
X169893460Y-87744366D01*
X169834878Y-87616089D01*
X169742512Y-87509492D01*
X169623855Y-87433236D01*
X169488523Y-87393500D01*
X169347477Y-87393500D01*
X169212144Y-87433236D01*
X169093487Y-87509492D01*
X169001121Y-87616089D01*
X168942528Y-87744388D01*
X168922456Y-87883999D01*
X166911157Y-87883999D01*
X166911157Y-85214000D01*
X166927770Y-85152000D01*
X166973157Y-85106613D01*
X167035157Y-85090000D01*
X172913500Y-85090000D01*
X172975500Y-85106613D01*
X173020887Y-85152000D01*
X173037500Y-85214000D01*
X173037500Y-91800156D01*
X173022332Y-91859583D01*
X172980540Y-91904471D01*
X172903488Y-91953988D01*
X172811121Y-92060586D01*
X172752528Y-92188885D01*
X172732456Y-92328497D01*
X172752528Y-92468108D01*
X172811121Y-92596407D01*
X172903487Y-92703004D01*
X173009168Y-92770921D01*
X173022144Y-92779260D01*
X173157477Y-92818997D01*
X173298523Y-92818997D01*
X173433856Y-92779260D01*
X173552512Y-92703004D01*
X173644878Y-92596408D01*
X173703471Y-92468108D01*
X173723544Y-92328497D01*
X173703471Y-92188886D01*
X173644878Y-92060586D01*
X173596917Y-92005236D01*
X173552511Y-91953988D01*
X173475460Y-91904471D01*
X173433668Y-91859583D01*
X173418500Y-91800156D01*
X173418500Y-87376000D01*
X176288456Y-87376000D01*
X176308528Y-87515611D01*
X176367121Y-87643910D01*
X176459487Y-87750507D01*
X176578144Y-87826763D01*
X176713477Y-87866500D01*
X176854523Y-87866500D01*
X176989856Y-87826763D01*
X177108512Y-87750507D01*
X177200878Y-87643911D01*
X177259471Y-87515611D01*
X177279544Y-87376000D01*
X177259471Y-87236389D01*
X177255161Y-87226952D01*
X177200878Y-87108089D01*
X177108512Y-87001492D01*
X176989855Y-86925236D01*
X176854523Y-86885500D01*
X176713477Y-86885500D01*
X176578144Y-86925236D01*
X176459487Y-87001492D01*
X176367121Y-87108089D01*
X176308528Y-87236388D01*
X176288456Y-87376000D01*
X173418500Y-87376000D01*
X173418500Y-85214000D01*
X173435113Y-85152000D01*
X173480500Y-85106613D01*
X173542500Y-85090000D01*
X177570000Y-85090000D01*
X177632000Y-85106613D01*
X177677387Y-85152000D01*
X177694000Y-85214000D01*
X177694000Y-93389631D01*
X177679670Y-93447498D01*
X177639991Y-93491989D01*
X177584136Y-93512823D01*
X177525013Y-93505183D01*
X177485904Y-93477613D01*
X177358801Y-93395929D01*
X177223469Y-93356193D01*
X177082423Y-93356193D01*
X176947090Y-93395929D01*
X176828433Y-93472185D01*
X176740143Y-93574079D01*
X176684186Y-93610988D01*
X176617196Y-93613381D01*
X176558749Y-93580557D01*
X176446322Y-93468130D01*
X176416348Y-93419608D01*
X176411265Y-93362806D01*
X176430859Y-93226531D01*
X176410786Y-93086920D01*
X176380789Y-93021237D01*
X176352193Y-92958620D01*
X176259827Y-92852023D01*
X176141170Y-92775767D01*
X176005838Y-92736031D01*
X175864792Y-92736031D01*
X175729459Y-92775767D01*
X175610802Y-92852023D01*
X175518436Y-92958620D01*
X175459843Y-93086919D01*
X175439771Y-93226531D01*
X175457085Y-93346960D01*
X175447141Y-93416118D01*
X175401386Y-93468922D01*
X175334347Y-93488606D01*
X175267308Y-93468922D01*
X175229235Y-93444454D01*
X175175488Y-93409913D01*
X175040155Y-93370176D01*
X174899109Y-93370176D01*
X174763776Y-93409912D01*
X174645119Y-93486168D01*
X174552753Y-93592765D01*
X174494160Y-93721064D01*
X174474088Y-93860676D01*
X174494160Y-94000287D01*
X174552753Y-94128586D01*
X174645119Y-94235183D01*
X174732341Y-94291237D01*
X174763776Y-94311439D01*
X174899109Y-94351176D01*
X175040155Y-94351176D01*
X175175488Y-94311439D01*
X175294144Y-94235183D01*
X175386510Y-94128587D01*
X175445103Y-94000287D01*
X175465176Y-93860676D01*
X175447860Y-93740247D01*
X175457805Y-93671088D01*
X175503560Y-93618285D01*
X175570599Y-93598600D01*
X175637638Y-93618284D01*
X175729459Y-93677294D01*
X175864792Y-93717031D01*
X176005836Y-93717031D01*
X176005838Y-93717031D01*
X176051641Y-93703581D01*
X176117238Y-93702411D01*
X176174254Y-93734878D01*
X176336681Y-93897305D01*
X176363561Y-93937533D01*
X176373000Y-93984986D01*
X176373000Y-95991659D01*
X176357832Y-96051086D01*
X176316040Y-96095974D01*
X176238988Y-96145491D01*
X176146621Y-96252089D01*
X176088028Y-96380388D01*
X176067956Y-96520000D01*
X176088028Y-96659611D01*
X176146621Y-96787910D01*
X176238987Y-96894507D01*
X176346761Y-96963769D01*
X176357644Y-96970763D01*
X176492977Y-97010500D01*
X176634023Y-97010500D01*
X176769356Y-96970763D01*
X176888012Y-96894507D01*
X176980378Y-96787911D01*
X177038971Y-96659611D01*
X177059044Y-96520000D01*
X177038971Y-96380389D01*
X177036993Y-96376058D01*
X176980378Y-96252089D01*
X176888011Y-96145491D01*
X176810960Y-96095974D01*
X176769168Y-96051086D01*
X176754000Y-95991659D01*
X176754000Y-94400453D01*
X176771358Y-94337179D01*
X176818574Y-94291620D01*
X176882427Y-94276532D01*
X176945037Y-94296136D01*
X176947090Y-94297456D01*
X177082423Y-94337193D01*
X177223466Y-94337193D01*
X177223469Y-94337193D01*
X177266742Y-94324486D01*
X177336606Y-94324486D01*
X177395384Y-94362259D01*
X177424410Y-94425814D01*
X177414469Y-94494972D01*
X177409029Y-94506884D01*
X177388956Y-94646498D01*
X177409029Y-94786111D01*
X177465899Y-94910639D01*
X177475843Y-94979796D01*
X177446820Y-95043351D01*
X177403546Y-95071162D01*
X177403642Y-95071312D01*
X177388645Y-95080949D01*
X177388644Y-95080950D01*
X177370672Y-95092500D01*
X177269987Y-95157205D01*
X177177621Y-95263802D01*
X177119028Y-95392101D01*
X177098956Y-95531712D01*
X177119028Y-95671324D01*
X177177621Y-95799623D01*
X177269987Y-95906220D01*
X177341616Y-95952253D01*
X177388644Y-95982476D01*
X177523977Y-96022213D01*
X177665023Y-96022213D01*
X177800356Y-95982476D01*
X177919012Y-95906220D01*
X178011378Y-95799624D01*
X178069971Y-95671324D01*
X178081982Y-95587783D01*
X178093835Y-95549929D01*
X178117035Y-95517755D01*
X178658917Y-94975873D01*
X178680073Y-94960863D01*
X178683827Y-94956154D01*
X178683829Y-94956154D01*
X178699930Y-94935962D01*
X178709187Y-94925604D01*
X178711880Y-94922912D01*
X178713903Y-94919691D01*
X178721945Y-94908356D01*
X178738048Y-94888165D01*
X178738048Y-94888162D01*
X178741805Y-94883452D01*
X178745756Y-94873914D01*
X178746430Y-94867924D01*
X178746433Y-94867921D01*
X178749325Y-94842252D01*
X178751652Y-94828562D01*
X178752500Y-94824847D01*
X178752500Y-94821040D01*
X178753280Y-94807156D01*
X178756844Y-94775520D01*
X178752500Y-94749951D01*
X178752500Y-89465882D01*
X178761939Y-89418430D01*
X178788816Y-89378203D01*
X178904414Y-89262604D01*
X178955040Y-89231954D01*
X179014109Y-89228258D01*
X179068163Y-89252363D01*
X179104887Y-89298776D01*
X179157875Y-89414802D01*
X179161122Y-89421911D01*
X179189774Y-89454977D01*
X179253487Y-89528507D01*
X179356036Y-89594411D01*
X179372144Y-89604763D01*
X179507477Y-89644500D01*
X179648523Y-89644500D01*
X179783856Y-89604763D01*
X179902512Y-89528507D01*
X179994878Y-89421911D01*
X180053471Y-89293611D01*
X180073544Y-89154000D01*
X180053471Y-89014389D01*
X180048375Y-89003231D01*
X179994878Y-88886089D01*
X179902512Y-88779492D01*
X179830277Y-88733070D01*
X179783856Y-88703237D01*
X179736956Y-88689466D01*
X179682659Y-88656591D01*
X179651744Y-88601155D01*
X179652310Y-88537683D01*
X179684209Y-88482810D01*
X179756919Y-88410100D01*
X179778071Y-88395093D01*
X179781826Y-88390382D01*
X179781829Y-88390382D01*
X179797926Y-88370195D01*
X179807183Y-88359837D01*
X179809880Y-88357141D01*
X179811907Y-88353914D01*
X179819948Y-88342581D01*
X179836048Y-88322393D01*
X179836048Y-88322391D01*
X179839809Y-88317676D01*
X179843756Y-88308147D01*
X179844431Y-88302152D01*
X179844433Y-88302150D01*
X179847325Y-88276475D01*
X179849649Y-88262801D01*
X179850500Y-88259076D01*
X179850500Y-88255268D01*
X179851280Y-88241384D01*
X179854844Y-88209748D01*
X179850500Y-88184179D01*
X179850500Y-85214000D01*
X179867113Y-85152000D01*
X179912500Y-85106613D01*
X179974500Y-85090000D01*
X184266533Y-85090000D01*
X184328533Y-85106613D01*
X184373920Y-85152000D01*
X184390533Y-85214000D01*
X184390533Y-86121669D01*
X184373175Y-86184942D01*
X184325960Y-86230501D01*
X184262108Y-86245590D01*
X184199494Y-86225985D01*
X184135629Y-86184942D01*
X184101856Y-86163237D01*
X183966523Y-86123500D01*
X183825477Y-86123500D01*
X183690144Y-86163236D01*
X183571487Y-86239492D01*
X183479121Y-86346089D01*
X183420528Y-86474388D01*
X183402353Y-86600807D01*
X183400456Y-86614000D01*
X183401467Y-86621032D01*
X183420528Y-86753611D01*
X183479121Y-86881910D01*
X183571487Y-86988507D01*
X183688782Y-87063888D01*
X183690144Y-87064763D01*
X183711469Y-87071024D01*
X183757736Y-87096288D01*
X183789327Y-87138489D01*
X183800533Y-87190001D01*
X183800533Y-90967774D01*
X183783175Y-91031047D01*
X183735961Y-91076606D01*
X183672109Y-91091695D01*
X183609496Y-91072091D01*
X183607389Y-91070737D01*
X183607388Y-91070736D01*
X183607387Y-91070736D01*
X183472056Y-91031000D01*
X183331010Y-91031000D01*
X183195677Y-91070736D01*
X183077020Y-91146992D01*
X182984654Y-91253589D01*
X182926061Y-91381888D01*
X182905989Y-91521500D01*
X182926061Y-91661111D01*
X182984654Y-91789410D01*
X183077021Y-91896008D01*
X183154073Y-91945526D01*
X183195865Y-91990414D01*
X183211033Y-92049841D01*
X183211033Y-92557693D01*
X183196703Y-92615560D01*
X183157024Y-92660052D01*
X183101168Y-92680885D01*
X183042045Y-92673244D01*
X182993320Y-92638896D01*
X182950512Y-92589492D01*
X182831855Y-92513236D01*
X182696523Y-92473500D01*
X182555477Y-92473500D01*
X182420144Y-92513236D01*
X182301487Y-92589492D01*
X182209121Y-92696089D01*
X182150528Y-92824388D01*
X182130456Y-92963999D01*
X182150528Y-93103611D01*
X182209121Y-93231910D01*
X182301487Y-93338507D01*
X182350969Y-93370307D01*
X182420144Y-93414763D01*
X182555477Y-93454500D01*
X182696523Y-93454500D01*
X182831856Y-93414763D01*
X182950512Y-93338507D01*
X182993319Y-93289104D01*
X183042045Y-93254756D01*
X183101168Y-93247115D01*
X183157024Y-93267948D01*
X183196703Y-93312440D01*
X183211033Y-93370307D01*
X183211033Y-98776962D01*
X183195865Y-98836389D01*
X183154073Y-98881277D01*
X183089540Y-98922750D01*
X183026926Y-98942356D01*
X182963073Y-98927267D01*
X182915858Y-98881709D01*
X182898500Y-98818435D01*
X182898500Y-98107047D01*
X182902844Y-98081477D01*
X182899280Y-98049842D01*
X182898500Y-98035958D01*
X182898500Y-98032150D01*
X182897653Y-98028439D01*
X182895323Y-98014726D01*
X182891759Y-97983095D01*
X182887802Y-97973541D01*
X182884048Y-97968833D01*
X182867945Y-97948640D01*
X182859913Y-97937320D01*
X182857881Y-97934086D01*
X182855190Y-97931395D01*
X182845925Y-97921027D01*
X182826076Y-97896137D01*
X182804920Y-97881125D01*
X182130106Y-97206312D01*
X182100132Y-97157789D01*
X182095049Y-97100987D01*
X182105544Y-97028000D01*
X182085471Y-96888389D01*
X182081868Y-96880500D01*
X182026878Y-96760089D01*
X181934512Y-96653492D01*
X181815855Y-96577236D01*
X181680523Y-96537500D01*
X181539477Y-96537500D01*
X181502443Y-96548373D01*
X181432574Y-96548373D01*
X181373797Y-96510598D01*
X181344772Y-96447043D01*
X181340818Y-96419544D01*
X181323471Y-96298889D01*
X181321966Y-96295594D01*
X181264878Y-96170589D01*
X181172512Y-96063992D01*
X181053855Y-95987736D01*
X180918523Y-95948000D01*
X180777477Y-95948000D01*
X180642144Y-95987737D01*
X180535039Y-96056569D01*
X180472425Y-96076174D01*
X180408573Y-96061085D01*
X180361358Y-96015526D01*
X180344000Y-95952253D01*
X180344000Y-92006961D01*
X180359167Y-91947535D01*
X180400959Y-91902647D01*
X180404753Y-91900207D01*
X180410512Y-91896507D01*
X180502878Y-91789911D01*
X180561471Y-91661611D01*
X180581544Y-91522000D01*
X180581543Y-91521998D01*
X180582841Y-91512976D01*
X180601264Y-91463584D01*
X180638540Y-91426307D01*
X180687933Y-91407885D01*
X180740510Y-91411645D01*
X180777477Y-91422500D01*
X180918523Y-91422500D01*
X181053856Y-91382763D01*
X181172512Y-91306507D01*
X181264878Y-91199911D01*
X181323471Y-91071611D01*
X181343544Y-90932000D01*
X181323471Y-90792389D01*
X181322877Y-90791089D01*
X181264878Y-90664089D01*
X181172512Y-90557492D01*
X181053855Y-90481236D01*
X180918523Y-90441500D01*
X180777477Y-90441500D01*
X180642144Y-90481236D01*
X180523487Y-90557492D01*
X180431121Y-90664089D01*
X180372528Y-90792388D01*
X180351158Y-90941023D01*
X180322133Y-91004579D01*
X180263355Y-91042353D01*
X180193485Y-91042353D01*
X180156523Y-91031500D01*
X180015477Y-91031500D01*
X179880144Y-91071236D01*
X179761487Y-91147492D01*
X179669121Y-91254089D01*
X179610528Y-91382388D01*
X179590456Y-91522000D01*
X179610528Y-91661611D01*
X179669121Y-91789910D01*
X179761487Y-91896507D01*
X179814382Y-91930500D01*
X179880144Y-91972763D01*
X179880145Y-91972763D01*
X179895142Y-91982401D01*
X179895085Y-91982488D01*
X179920205Y-91996206D01*
X179951795Y-92038407D01*
X179963000Y-92089917D01*
X179963000Y-96168344D01*
X179953561Y-96215797D01*
X179941672Y-96233589D01*
X179943547Y-96234768D01*
X179934087Y-96249819D01*
X179926053Y-96261141D01*
X179906198Y-96286039D01*
X179902241Y-96295594D01*
X179898675Y-96327237D01*
X179896347Y-96340937D01*
X179895500Y-96344649D01*
X179895500Y-96348456D01*
X179894720Y-96362340D01*
X179891155Y-96393973D01*
X179895500Y-96419544D01*
X179895500Y-98299665D01*
X179891155Y-98325234D01*
X179894720Y-98356870D01*
X179895500Y-98370754D01*
X179895500Y-98374563D01*
X179896348Y-98378280D01*
X179898675Y-98391976D01*
X179902240Y-98423616D01*
X179906200Y-98433175D01*
X179926057Y-98458076D01*
X179934098Y-98469408D01*
X179936120Y-98472626D01*
X179938804Y-98475310D01*
X179948070Y-98485678D01*
X179967926Y-98510577D01*
X179989082Y-98525588D01*
X182001908Y-100538415D01*
X182031881Y-100586936D01*
X182036965Y-100643740D01*
X182029955Y-100692497D01*
X182050028Y-100832111D01*
X182101980Y-100945868D01*
X182111924Y-101015027D01*
X182082899Y-101078582D01*
X182024122Y-101116357D01*
X181912144Y-101149237D01*
X181793487Y-101225492D01*
X181701121Y-101332089D01*
X181642528Y-101460388D01*
X181622456Y-101600000D01*
X181642528Y-101739611D01*
X181701121Y-101867910D01*
X181793487Y-101974507D01*
X181879791Y-102029971D01*
X181912144Y-102050763D01*
X182047477Y-102090500D01*
X182188523Y-102090500D01*
X182323856Y-102050763D01*
X182442512Y-101974507D01*
X182534878Y-101867911D01*
X182593471Y-101739611D01*
X182613544Y-101600000D01*
X182595994Y-101477937D01*
X182593471Y-101460388D01*
X182542194Y-101348109D01*
X182541518Y-101346630D01*
X182530313Y-101295119D01*
X182541519Y-101243608D01*
X182573110Y-101201406D01*
X182619379Y-101176142D01*
X182731356Y-101143263D01*
X182850012Y-101067007D01*
X182942378Y-100960411D01*
X183000971Y-100832111D01*
X183021044Y-100692500D01*
X183000971Y-100552889D01*
X182954214Y-100450507D01*
X182942378Y-100424589D01*
X182850012Y-100317992D01*
X182731355Y-100241736D01*
X182596023Y-100202000D01*
X182454977Y-100202000D01*
X182454976Y-100202000D01*
X182331796Y-100238168D01*
X182266196Y-100239339D01*
X182209181Y-100206872D01*
X181932624Y-99930315D01*
X181655167Y-99652859D01*
X181623267Y-99597984D01*
X181622701Y-99534513D01*
X181653617Y-99479076D01*
X181707913Y-99446202D01*
X181754813Y-99432432D01*
X181873469Y-99356176D01*
X181965835Y-99249580D01*
X182024428Y-99121280D01*
X182044501Y-98981669D01*
X182037093Y-98930146D01*
X182047037Y-98860989D01*
X182092792Y-98808185D01*
X182159831Y-98788500D01*
X182188523Y-98788500D01*
X182323856Y-98748763D01*
X182326461Y-98747088D01*
X182389073Y-98727483D01*
X182452926Y-98742572D01*
X182500142Y-98788130D01*
X182517500Y-98851404D01*
X182517500Y-99414953D01*
X182513155Y-99440522D01*
X182516720Y-99472158D01*
X182517500Y-99486042D01*
X182517500Y-99489851D01*
X182518348Y-99493568D01*
X182520675Y-99507264D01*
X182524240Y-99538904D01*
X182528200Y-99548463D01*
X182548057Y-99573364D01*
X182556095Y-99584693D01*
X182558119Y-99587913D01*
X182558120Y-99587914D01*
X182560804Y-99590598D01*
X182570070Y-99600966D01*
X182589924Y-99625863D01*
X182611079Y-99640874D01*
X183923181Y-100952976D01*
X183950061Y-100993204D01*
X183959500Y-101040657D01*
X183959500Y-105150304D01*
X183958046Y-105155999D01*
X183959500Y-105161696D01*
X183959500Y-106659659D01*
X183944332Y-106719086D01*
X183902540Y-106763974D01*
X183825488Y-106813491D01*
X183733121Y-106920089D01*
X183674528Y-107048388D01*
X183654456Y-107187999D01*
X183674528Y-107327611D01*
X183733121Y-107455910D01*
X183825487Y-107562507D01*
X183884816Y-107600635D01*
X183944144Y-107638763D01*
X183978678Y-107648903D01*
X183991041Y-107652533D01*
X184045339Y-107685407D01*
X184076255Y-107740844D01*
X184075689Y-107804315D01*
X184043788Y-107859191D01*
X183589799Y-108313181D01*
X183549571Y-108340061D01*
X183502118Y-108349500D01*
X177333731Y-108349500D01*
X177274304Y-108334332D01*
X177229415Y-108292539D01*
X177210047Y-108234345D01*
X177220937Y-108173988D01*
X177230976Y-108152007D01*
X177259471Y-108089611D01*
X177279544Y-107950000D01*
X177259471Y-107810389D01*
X177258409Y-107808064D01*
X177200878Y-107682089D01*
X177108512Y-107575492D01*
X176989855Y-107499236D01*
X176854523Y-107459500D01*
X176713477Y-107459500D01*
X176578144Y-107499236D01*
X176459487Y-107575492D01*
X176367122Y-107682088D01*
X176364875Y-107687010D01*
X176337651Y-107725242D01*
X176298167Y-107750617D01*
X176252080Y-107759500D01*
X174628270Y-107759500D01*
X174580817Y-107750061D01*
X174540589Y-107723181D01*
X173765318Y-106947910D01*
X173415908Y-106598500D01*
X177812456Y-106598500D01*
X177832528Y-106738111D01*
X177891121Y-106866410D01*
X177983487Y-106973007D01*
X178091482Y-107042411D01*
X178102144Y-107049263D01*
X178237477Y-107089000D01*
X178378523Y-107089000D01*
X178513856Y-107049263D01*
X178632512Y-106973007D01*
X178724878Y-106866411D01*
X178783471Y-106738111D01*
X178803544Y-106598500D01*
X178783471Y-106458889D01*
X178768609Y-106426347D01*
X178724878Y-106330589D01*
X178632512Y-106223992D01*
X178513855Y-106147736D01*
X178378523Y-106108000D01*
X178237477Y-106108000D01*
X178102144Y-106147736D01*
X177983487Y-106223992D01*
X177891121Y-106330589D01*
X177832528Y-106458888D01*
X177812456Y-106598500D01*
X173415908Y-106598500D01*
X172977007Y-106159600D01*
X172947035Y-106111079D01*
X172941951Y-106054273D01*
X172952514Y-105980802D01*
X172961544Y-105918000D01*
X172941471Y-105778389D01*
X172882878Y-105650089D01*
X172845336Y-105606763D01*
X172790512Y-105543492D01*
X172671855Y-105467236D01*
X172536523Y-105427500D01*
X172395477Y-105427500D01*
X172260144Y-105467236D01*
X172141487Y-105543492D01*
X172049121Y-105650089D01*
X171990528Y-105778388D01*
X171970456Y-105918000D01*
X171990528Y-106057611D01*
X172049121Y-106185910D01*
X172141487Y-106292507D01*
X172200744Y-106330589D01*
X172260144Y-106368763D01*
X172395477Y-106408500D01*
X172536522Y-106408500D01*
X172536523Y-106408500D01*
X172582324Y-106395050D01*
X172647924Y-106393880D01*
X172704940Y-106426347D01*
X173679651Y-107401059D01*
X173711552Y-107455934D01*
X173712118Y-107519406D01*
X173681203Y-107574842D01*
X173626905Y-107607717D01*
X173580555Y-107621326D01*
X173461897Y-107697582D01*
X173369532Y-107804179D01*
X173359757Y-107825583D01*
X173314002Y-107878386D01*
X173246963Y-107898070D01*
X173179924Y-107878386D01*
X173103695Y-107829396D01*
X172968363Y-107789660D01*
X172827317Y-107789660D01*
X172691984Y-107829396D01*
X172573327Y-107905652D01*
X172480961Y-108012249D01*
X172422368Y-108140548D01*
X172402296Y-108280160D01*
X172422368Y-108419771D01*
X172480961Y-108548070D01*
X172573327Y-108654667D01*
X172635309Y-108694500D01*
X172691984Y-108730923D01*
X172827317Y-108770660D01*
X172968362Y-108770660D01*
X172968363Y-108770660D01*
X173014164Y-108757210D01*
X173079764Y-108756040D01*
X173136780Y-108788507D01*
X173275191Y-108926918D01*
X173290203Y-108948074D01*
X173294910Y-108951828D01*
X173294911Y-108951829D01*
X173315102Y-108967930D01*
X173325461Y-108977188D01*
X173328153Y-108979880D01*
X173331377Y-108981906D01*
X173342699Y-108989939D01*
X173353923Y-108998889D01*
X173367610Y-109009804D01*
X173377157Y-109013758D01*
X173383143Y-109014432D01*
X173383144Y-109014433D01*
X173408796Y-109017323D01*
X173422494Y-109019650D01*
X173426217Y-109020500D01*
X173430025Y-109020500D01*
X173443909Y-109021280D01*
X173469558Y-109024170D01*
X173469558Y-109024169D01*
X173475544Y-109024844D01*
X173501114Y-109020500D01*
X176000537Y-109020500D01*
X176043463Y-109020500D01*
X178876072Y-109020500D01*
X178943111Y-109040185D01*
X178988866Y-109092989D01*
X178998810Y-109162147D01*
X178969785Y-109225703D01*
X178911007Y-109263477D01*
X178864145Y-109277236D01*
X178745487Y-109353492D01*
X178653121Y-109460089D01*
X178594528Y-109588388D01*
X178574456Y-109728000D01*
X178593257Y-109858772D01*
X178587699Y-109916975D01*
X178556089Y-109966161D01*
X178505454Y-109995395D01*
X178356145Y-110039236D01*
X178237487Y-110115492D01*
X178145121Y-110222089D01*
X178086528Y-110350388D01*
X178066456Y-110489999D01*
X178086528Y-110629611D01*
X178145121Y-110757910D01*
X178237487Y-110864507D01*
X178326799Y-110921904D01*
X178356144Y-110940763D01*
X178491477Y-110980500D01*
X178632523Y-110980500D01*
X178767856Y-110940763D01*
X178886512Y-110864507D01*
X178978878Y-110757911D01*
X179037471Y-110629611D01*
X179057544Y-110490000D01*
X179038741Y-110359228D01*
X179044300Y-110301024D01*
X179075910Y-110251838D01*
X179126545Y-110222604D01*
X179140522Y-110218500D01*
X179140523Y-110218500D01*
X179275856Y-110178763D01*
X179394512Y-110102507D01*
X179486878Y-109995911D01*
X179493231Y-109982000D01*
X180098456Y-109982000D01*
X180118528Y-110121611D01*
X180177121Y-110249910D01*
X180269487Y-110356507D01*
X180388144Y-110432763D01*
X180523477Y-110472500D01*
X180664523Y-110472500D01*
X180799856Y-110432763D01*
X180918512Y-110356507D01*
X181010878Y-110249911D01*
X181069471Y-110121611D01*
X181089544Y-109982000D01*
X182130456Y-109982000D01*
X182150528Y-110121611D01*
X182209121Y-110249910D01*
X182301487Y-110356507D01*
X182420144Y-110432763D01*
X182555477Y-110472500D01*
X182696523Y-110472500D01*
X182831856Y-110432763D01*
X182950512Y-110356507D01*
X183042878Y-110249911D01*
X183101471Y-110121611D01*
X183121544Y-109982000D01*
X183101471Y-109842389D01*
X183042878Y-109714089D01*
X183042877Y-109714088D01*
X182950512Y-109607492D01*
X182831855Y-109531236D01*
X182696523Y-109491500D01*
X182555477Y-109491500D01*
X182420144Y-109531236D01*
X182301487Y-109607492D01*
X182209121Y-109714089D01*
X182150528Y-109842388D01*
X182130456Y-109982000D01*
X181089544Y-109982000D01*
X181069471Y-109842389D01*
X181010878Y-109714089D01*
X181010877Y-109714088D01*
X180918512Y-109607492D01*
X180799855Y-109531236D01*
X180664523Y-109491500D01*
X180523477Y-109491500D01*
X180388144Y-109531236D01*
X180269487Y-109607492D01*
X180177121Y-109714089D01*
X180118528Y-109842388D01*
X180098456Y-109982000D01*
X179493231Y-109982000D01*
X179545471Y-109867611D01*
X179565544Y-109728000D01*
X179545471Y-109588389D01*
X179519370Y-109531237D01*
X179486878Y-109460089D01*
X179394512Y-109353492D01*
X179275854Y-109277236D01*
X179228993Y-109263477D01*
X179170215Y-109225703D01*
X179141190Y-109162147D01*
X179151134Y-109092989D01*
X179196889Y-109040185D01*
X179263928Y-109020500D01*
X183699075Y-109020500D01*
X183724644Y-109024844D01*
X183730629Y-109024169D01*
X183730631Y-109024170D01*
X183756279Y-109021280D01*
X183770164Y-109020500D01*
X183773971Y-109020500D01*
X183773972Y-109020500D01*
X183777689Y-109019651D01*
X183791376Y-109017325D01*
X183817045Y-109014433D01*
X183817048Y-109014430D01*
X183823038Y-109013756D01*
X183832576Y-109009805D01*
X183837286Y-109006048D01*
X183837289Y-109006048D01*
X183857480Y-108989945D01*
X183868819Y-108981901D01*
X183868824Y-108981898D01*
X183872036Y-108979880D01*
X183874728Y-108977187D01*
X183885086Y-108967930D01*
X183905278Y-108951829D01*
X183905278Y-108951827D01*
X183909987Y-108948073D01*
X183924997Y-108926917D01*
X184647915Y-108203999D01*
X185432456Y-108203999D01*
X185452528Y-108343611D01*
X185511121Y-108471910D01*
X185603487Y-108578507D01*
X185698394Y-108639500D01*
X185722144Y-108654763D01*
X185857477Y-108694500D01*
X185998523Y-108694500D01*
X186133856Y-108654763D01*
X186252512Y-108578507D01*
X186344878Y-108471911D01*
X186403471Y-108343611D01*
X186423544Y-108204000D01*
X186405822Y-108080738D01*
X186403471Y-108064388D01*
X186344878Y-107936089D01*
X186252512Y-107829492D01*
X186133855Y-107753236D01*
X185998523Y-107713500D01*
X185857477Y-107713500D01*
X185722144Y-107753236D01*
X185603487Y-107829492D01*
X185511121Y-107936089D01*
X185452528Y-108064388D01*
X185432456Y-108203999D01*
X184647915Y-108203999D01*
X188203915Y-104648000D01*
X189750456Y-104648000D01*
X189770528Y-104787611D01*
X189829121Y-104915910D01*
X189921487Y-105022507D01*
X190040143Y-105098762D01*
X190040144Y-105098763D01*
X190175477Y-105138500D01*
X190316523Y-105138500D01*
X190451856Y-105098763D01*
X190570512Y-105022507D01*
X190662878Y-104915911D01*
X190721471Y-104787611D01*
X190741544Y-104648000D01*
X190721471Y-104508389D01*
X190662878Y-104380089D01*
X190636686Y-104349862D01*
X190570512Y-104273492D01*
X190451855Y-104197236D01*
X190316523Y-104157500D01*
X190175477Y-104157500D01*
X190040144Y-104197236D01*
X189921487Y-104273492D01*
X189829121Y-104380089D01*
X189770528Y-104508388D01*
X189750456Y-104648000D01*
X188203915Y-104648000D01*
X190678419Y-102173496D01*
X190699571Y-102158489D01*
X190703326Y-102153778D01*
X190703329Y-102153778D01*
X190719426Y-102133591D01*
X190728683Y-102123233D01*
X190731381Y-102120536D01*
X190733408Y-102117309D01*
X190741446Y-102105978D01*
X190757548Y-102085789D01*
X190757548Y-102085785D01*
X190761303Y-102081078D01*
X190765258Y-102071531D01*
X190765932Y-102065546D01*
X190765933Y-102065545D01*
X190768823Y-102039891D01*
X190771152Y-102026186D01*
X190772000Y-102022471D01*
X190772000Y-102018664D01*
X190772780Y-102004780D01*
X190774419Y-101990234D01*
X190775670Y-101979131D01*
X190775669Y-101979129D01*
X190776344Y-101973144D01*
X190772000Y-101947575D01*
X190772000Y-100838000D01*
X194830456Y-100838000D01*
X194850528Y-100977611D01*
X194909121Y-101105910D01*
X195001487Y-101212507D01*
X195084130Y-101265618D01*
X195120144Y-101288763D01*
X195255477Y-101328500D01*
X195396523Y-101328500D01*
X195531856Y-101288763D01*
X195650512Y-101212507D01*
X195742878Y-101105911D01*
X195801471Y-100977611D01*
X195821544Y-100838000D01*
X195801471Y-100698389D01*
X195800973Y-100697299D01*
X195742878Y-100570089D01*
X195650512Y-100463492D01*
X195531855Y-100387236D01*
X195396523Y-100347500D01*
X195255477Y-100347500D01*
X195120144Y-100387236D01*
X195001487Y-100463492D01*
X194909121Y-100570089D01*
X194850528Y-100698388D01*
X194830456Y-100838000D01*
X190772000Y-100838000D01*
X190772000Y-95778341D01*
X190787168Y-95718914D01*
X190828960Y-95674026D01*
X190906011Y-95624508D01*
X190911314Y-95618388D01*
X190998378Y-95517911D01*
X191056971Y-95389611D01*
X191077044Y-95250000D01*
X191057309Y-95112737D01*
X191056971Y-95110388D01*
X191004731Y-94995999D01*
X193306456Y-94995999D01*
X193326528Y-95135611D01*
X193385121Y-95263910D01*
X193477487Y-95370507D01*
X193583184Y-95438434D01*
X193596144Y-95446763D01*
X193731477Y-95486500D01*
X193872523Y-95486500D01*
X194007856Y-95446763D01*
X194126512Y-95370507D01*
X194218878Y-95263911D01*
X194277471Y-95135611D01*
X194297544Y-94996000D01*
X194277471Y-94856389D01*
X194271026Y-94842277D01*
X194218878Y-94728089D01*
X194126512Y-94621492D01*
X194007855Y-94545236D01*
X193872523Y-94505500D01*
X193731477Y-94505500D01*
X193596144Y-94545236D01*
X193477487Y-94621492D01*
X193385121Y-94728089D01*
X193326528Y-94856388D01*
X193306456Y-94995999D01*
X191004731Y-94995999D01*
X190998378Y-94982089D01*
X190906012Y-94875492D01*
X190787354Y-94799236D01*
X190667877Y-94764155D01*
X190615131Y-94732859D01*
X190583835Y-94680113D01*
X190581646Y-94618820D01*
X190609099Y-94563975D01*
X190662878Y-94501911D01*
X190721471Y-94373611D01*
X190741544Y-94234000D01*
X190721471Y-94094389D01*
X190662878Y-93966089D01*
X190625336Y-93922763D01*
X190570512Y-93859492D01*
X190451855Y-93783236D01*
X190316523Y-93743500D01*
X190175477Y-93743500D01*
X190040144Y-93783236D01*
X189921487Y-93859492D01*
X189829121Y-93966089D01*
X189770528Y-94094388D01*
X189750456Y-94234000D01*
X189770528Y-94373610D01*
X189790295Y-94416893D01*
X189801500Y-94468404D01*
X189801500Y-94470345D01*
X189800720Y-94484229D01*
X189797155Y-94515864D01*
X189801500Y-94541434D01*
X189801500Y-95590075D01*
X189787170Y-95647942D01*
X189747491Y-95692434D01*
X189691635Y-95713267D01*
X189632512Y-95705626D01*
X189583787Y-95671278D01*
X189554512Y-95637492D01*
X189435855Y-95561236D01*
X189300523Y-95521500D01*
X189159477Y-95521500D01*
X189024144Y-95561236D01*
X188905487Y-95637492D01*
X188813121Y-95744089D01*
X188754528Y-95872388D01*
X188734456Y-96011999D01*
X188754528Y-96151611D01*
X188813121Y-96279910D01*
X188905487Y-96386507D01*
X188954711Y-96418141D01*
X189024144Y-96462763D01*
X189159477Y-96502500D01*
X189300523Y-96502500D01*
X189435856Y-96462763D01*
X189554512Y-96386507D01*
X189583786Y-96352722D01*
X189632512Y-96318374D01*
X189691635Y-96310733D01*
X189747491Y-96331566D01*
X189787170Y-96376058D01*
X189801500Y-96433925D01*
X189801500Y-100263105D01*
X189783687Y-100327138D01*
X189735367Y-100372774D01*
X189670422Y-100386903D01*
X189607510Y-100365464D01*
X189577188Y-100329445D01*
X189577053Y-100329563D01*
X189473012Y-100209492D01*
X189354355Y-100133236D01*
X189219023Y-100093500D01*
X189077977Y-100093500D01*
X188942644Y-100133236D01*
X188823987Y-100209492D01*
X188731621Y-100316089D01*
X188673028Y-100444388D01*
X188652956Y-100584000D01*
X188673028Y-100723611D01*
X188731621Y-100851910D01*
X188823987Y-100958507D01*
X188877977Y-100993204D01*
X188942644Y-101034763D01*
X189077977Y-101074500D01*
X189219023Y-101074500D01*
X189354356Y-101034763D01*
X189473012Y-100958507D01*
X189565378Y-100851911D01*
X189565378Y-100851910D01*
X189577053Y-100838437D01*
X189577188Y-100838554D01*
X189607510Y-100802536D01*
X189670422Y-100781097D01*
X189735367Y-100795226D01*
X189783687Y-100840862D01*
X189801500Y-100904895D01*
X189801500Y-102050117D01*
X189792061Y-102097570D01*
X189765181Y-102137798D01*
X184823587Y-107079391D01*
X184772959Y-107110045D01*
X184713890Y-107113740D01*
X184659836Y-107089635D01*
X184623112Y-107043222D01*
X184566878Y-106920089D01*
X184474511Y-106813491D01*
X184397460Y-106763974D01*
X184355668Y-106719086D01*
X184340500Y-106659659D01*
X184340500Y-100963821D01*
X184344844Y-100938251D01*
X184341280Y-100906616D01*
X184340500Y-100892732D01*
X184340500Y-100888924D01*
X184339653Y-100885213D01*
X184337323Y-100871500D01*
X184333759Y-100839869D01*
X184329802Y-100830315D01*
X184321975Y-100820500D01*
X184309945Y-100805414D01*
X184301913Y-100794094D01*
X184299881Y-100790860D01*
X184297191Y-100788170D01*
X184287925Y-100777801D01*
X184268076Y-100752911D01*
X184246920Y-100737899D01*
X183874485Y-100365464D01*
X183494210Y-99985190D01*
X183462310Y-99930315D01*
X183461744Y-99866844D01*
X183492660Y-99811407D01*
X183546956Y-99778533D01*
X183593856Y-99764763D01*
X183624267Y-99745218D01*
X183685831Y-99725655D01*
X183748881Y-99739711D01*
X183796306Y-99783573D01*
X183801309Y-99791537D01*
X183811233Y-99815496D01*
X183831090Y-99840397D01*
X183839131Y-99851729D01*
X183841153Y-99854947D01*
X183843837Y-99857631D01*
X183853103Y-99867999D01*
X183872957Y-99892896D01*
X183894112Y-99907907D01*
X185447181Y-101460976D01*
X185474061Y-101501204D01*
X185483500Y-101548657D01*
X185483500Y-101833659D01*
X185468332Y-101893086D01*
X185426540Y-101937974D01*
X185349488Y-101987491D01*
X185257121Y-102094089D01*
X185198528Y-102222388D01*
X185178456Y-102361999D01*
X185198528Y-102501611D01*
X185257121Y-102629910D01*
X185349487Y-102736507D01*
X185468143Y-102812762D01*
X185468144Y-102812763D01*
X185603477Y-102852500D01*
X185744523Y-102852500D01*
X185879856Y-102812763D01*
X185998512Y-102736507D01*
X186090878Y-102629911D01*
X186149471Y-102501611D01*
X186169544Y-102362000D01*
X186149471Y-102222389D01*
X186123370Y-102165237D01*
X186090878Y-102094089D01*
X185998511Y-101987491D01*
X185921460Y-101937974D01*
X185879668Y-101893086D01*
X185864500Y-101833659D01*
X185864500Y-101471821D01*
X185868844Y-101446251D01*
X185865280Y-101414616D01*
X185864500Y-101400732D01*
X185864500Y-101396924D01*
X185863653Y-101393213D01*
X185861323Y-101379500D01*
X185857759Y-101347869D01*
X185853802Y-101338315D01*
X185845893Y-101328397D01*
X185833945Y-101313414D01*
X185825913Y-101302094D01*
X185823881Y-101298860D01*
X185821191Y-101296170D01*
X185811925Y-101285801D01*
X185792076Y-101260911D01*
X185770920Y-101245899D01*
X185229528Y-100704507D01*
X184687243Y-100162223D01*
X184655343Y-100107348D01*
X184654777Y-100043877D01*
X184685693Y-99988440D01*
X184739989Y-99955566D01*
X184786889Y-99941796D01*
X184905545Y-99865540D01*
X184997911Y-99758944D01*
X185056504Y-99630644D01*
X185076577Y-99491033D01*
X185056504Y-99351422D01*
X185050601Y-99338497D01*
X184997911Y-99223122D01*
X184905544Y-99116524D01*
X184828493Y-99067007D01*
X184786701Y-99022119D01*
X184771533Y-98962692D01*
X184771533Y-96565726D01*
X184788891Y-96502453D01*
X184836105Y-96456894D01*
X184899957Y-96441805D01*
X184962569Y-96461408D01*
X184964677Y-96462763D01*
X185100010Y-96502500D01*
X185241056Y-96502500D01*
X185376389Y-96462763D01*
X185495045Y-96386507D01*
X185587411Y-96279911D01*
X185646004Y-96151611D01*
X185666077Y-96012000D01*
X185646004Y-95872389D01*
X185636360Y-95851272D01*
X185587411Y-95744089D01*
X185495045Y-95637492D01*
X185376388Y-95561236D01*
X185241056Y-95521500D01*
X185100010Y-95521500D01*
X184964678Y-95561236D01*
X184963846Y-95561770D01*
X184962569Y-95562591D01*
X184899957Y-95582195D01*
X184836105Y-95567106D01*
X184788891Y-95521547D01*
X184771533Y-95458274D01*
X184771533Y-93472000D01*
X186194456Y-93472000D01*
X186214528Y-93611611D01*
X186273121Y-93739910D01*
X186365487Y-93846507D01*
X186484144Y-93922763D01*
X186619477Y-93962500D01*
X186760523Y-93962500D01*
X186895856Y-93922763D01*
X187014512Y-93846507D01*
X187106878Y-93739911D01*
X187165471Y-93611611D01*
X187185544Y-93472000D01*
X187165471Y-93332389D01*
X187145703Y-93289104D01*
X187106878Y-93204089D01*
X187014512Y-93097492D01*
X186895855Y-93021236D01*
X186760523Y-92981500D01*
X186619477Y-92981500D01*
X186484144Y-93021236D01*
X186365487Y-93097492D01*
X186273121Y-93204089D01*
X186214528Y-93332388D01*
X186194456Y-93472000D01*
X184771533Y-93472000D01*
X184771533Y-89992821D01*
X184789345Y-89928789D01*
X184837664Y-89883152D01*
X184902609Y-89869023D01*
X184965521Y-89890460D01*
X184989101Y-89918469D01*
X184991447Y-89916437D01*
X185003121Y-89929910D01*
X185003122Y-89929911D01*
X185006232Y-89933500D01*
X185095487Y-90036507D01*
X185115694Y-90049493D01*
X185214144Y-90112763D01*
X185349477Y-90152500D01*
X185490523Y-90152500D01*
X185625856Y-90112763D01*
X185744512Y-90036507D01*
X185836878Y-89929911D01*
X185895471Y-89801611D01*
X185915544Y-89662000D01*
X185895471Y-89522389D01*
X185894710Y-89520723D01*
X185836878Y-89394089D01*
X185744512Y-89287492D01*
X185625855Y-89211236D01*
X185490523Y-89171500D01*
X185349477Y-89171500D01*
X185214144Y-89211236D01*
X185095487Y-89287492D01*
X184991447Y-89407563D01*
X184989101Y-89405530D01*
X184965521Y-89433540D01*
X184902609Y-89454977D01*
X184837664Y-89440848D01*
X184789345Y-89395211D01*
X184771533Y-89331179D01*
X184771533Y-85214000D01*
X184788146Y-85152000D01*
X184833533Y-85106613D01*
X184895533Y-85090000D01*
X184934439Y-85090000D01*
X184985951Y-85101206D01*
X185028152Y-85132797D01*
X185095487Y-85210507D01*
X185214144Y-85286763D01*
X185349477Y-85326500D01*
X185490523Y-85326500D01*
X185625856Y-85286763D01*
X185744512Y-85210507D01*
X185811848Y-85132796D01*
X185854049Y-85101206D01*
X185905561Y-85090000D01*
X186629500Y-85090000D01*
X186691500Y-85106613D01*
X186736887Y-85152000D01*
X186753500Y-85214000D01*
X186753500Y-90624566D01*
X186749155Y-90650135D01*
X186752720Y-90681771D01*
X186753500Y-90695655D01*
X186753500Y-90699464D01*
X186754348Y-90703181D01*
X186756675Y-90716877D01*
X186760240Y-90748517D01*
X186764200Y-90758076D01*
X186784057Y-90782977D01*
X186792098Y-90794309D01*
X186794120Y-90797527D01*
X186796804Y-90800211D01*
X186806070Y-90810579D01*
X186825926Y-90835478D01*
X186847082Y-90850489D01*
X188718992Y-92722399D01*
X188748965Y-92770921D01*
X188754049Y-92827727D01*
X188734456Y-92964000D01*
X188754528Y-93103611D01*
X188813121Y-93231910D01*
X188905487Y-93338507D01*
X188954969Y-93370307D01*
X189024144Y-93414763D01*
X189159477Y-93454500D01*
X189300523Y-93454500D01*
X189435856Y-93414763D01*
X189554512Y-93338507D01*
X189646878Y-93231911D01*
X189705471Y-93103611D01*
X189725544Y-92964000D01*
X189705471Y-92824389D01*
X189697259Y-92806408D01*
X189646878Y-92696089D01*
X189554512Y-92589492D01*
X189435855Y-92513236D01*
X189300523Y-92473500D01*
X189159477Y-92473500D01*
X189113673Y-92486949D01*
X189048073Y-92488119D01*
X188991059Y-92455652D01*
X187170819Y-90635412D01*
X187143939Y-90595184D01*
X187134500Y-90547731D01*
X187134500Y-90342500D01*
X192544456Y-90342500D01*
X192564528Y-90482111D01*
X192623121Y-90610410D01*
X192715487Y-90717007D01*
X192818139Y-90782977D01*
X192834144Y-90793263D01*
X192969477Y-90833000D01*
X193110523Y-90833000D01*
X193245856Y-90793263D01*
X193364512Y-90717007D01*
X193456878Y-90610411D01*
X193515471Y-90482111D01*
X193535544Y-90342500D01*
X193515471Y-90202889D01*
X193476706Y-90118007D01*
X193456878Y-90074589D01*
X193364512Y-89967992D01*
X193245855Y-89891736D01*
X193110523Y-89852000D01*
X192969477Y-89852000D01*
X192834144Y-89891736D01*
X192715487Y-89967992D01*
X192623121Y-90074589D01*
X192564528Y-90202888D01*
X192544456Y-90342500D01*
X187134500Y-90342500D01*
X187134500Y-89321925D01*
X187148830Y-89264058D01*
X187188509Y-89219566D01*
X187244365Y-89198733D01*
X187303488Y-89206374D01*
X187352213Y-89240722D01*
X187381487Y-89274507D01*
X187500144Y-89350763D01*
X187635477Y-89390500D01*
X187776523Y-89390500D01*
X187911856Y-89350763D01*
X188030512Y-89274507D01*
X188122878Y-89167911D01*
X188181471Y-89039611D01*
X188201544Y-88900000D01*
X188181471Y-88760389D01*
X188155370Y-88703237D01*
X188122878Y-88632089D01*
X188030512Y-88525492D01*
X187911855Y-88449236D01*
X187776523Y-88409500D01*
X187635477Y-88409500D01*
X187500144Y-88449236D01*
X187381487Y-88525492D01*
X187352213Y-88559278D01*
X187303488Y-88593626D01*
X187244365Y-88601267D01*
X187188509Y-88580434D01*
X187148830Y-88535942D01*
X187134500Y-88478075D01*
X187134500Y-85214000D01*
X187151113Y-85152000D01*
X187196500Y-85106613D01*
X187258500Y-85090000D01*
X204587282Y-85090000D01*
X204651031Y-85107642D01*
X204696640Y-85155547D01*
X204711133Y-85220084D01*
X204692566Y-85597999D01*
X204712288Y-85999425D01*
X204771260Y-86396980D01*
X204868916Y-86786846D01*
X205004309Y-87165245D01*
X205004312Y-87165251D01*
X205004313Y-87165254D01*
X205064375Y-87292245D01*
X205176153Y-87528579D01*
X205382768Y-87873296D01*
X205408168Y-87907544D01*
X205622187Y-88196115D01*
X205892092Y-88493908D01*
X206189885Y-88763813D01*
X206479822Y-88978845D01*
X206512703Y-89003231D01*
X206857420Y-89209846D01*
X206857424Y-89209848D01*
X206857426Y-89209849D01*
X207220746Y-89381687D01*
X207220752Y-89381689D01*
X207220754Y-89381690D01*
X207585285Y-89512121D01*
X207599159Y-89517085D01*
X207989021Y-89614740D01*
X208386577Y-89673712D01*
X208788000Y-89693433D01*
X209189423Y-89673712D01*
X209586979Y-89614740D01*
X209972261Y-89518232D01*
X210041129Y-89520723D01*
X210098032Y-89559595D01*
X210125395Y-89622843D01*
X210114767Y-89690932D01*
X210069430Y-89742831D01*
X209987488Y-89795491D01*
X209895121Y-89902089D01*
X209836528Y-90030388D01*
X209816456Y-90170000D01*
X209836528Y-90309611D01*
X209895121Y-90437910D01*
X209987487Y-90544507D01*
X210090036Y-90610411D01*
X210106144Y-90620763D01*
X210241477Y-90660500D01*
X210382523Y-90660500D01*
X210517856Y-90620763D01*
X210636512Y-90544507D01*
X210728878Y-90437911D01*
X210787471Y-90309611D01*
X210807544Y-90170000D01*
X210787950Y-90033727D01*
X210793035Y-89976921D01*
X210823005Y-89928401D01*
X210969880Y-89781528D01*
X210969881Y-89781525D01*
X211859031Y-88892375D01*
X211890489Y-88873962D01*
X211910171Y-88841234D01*
X213511818Y-87239589D01*
X213561182Y-87209339D01*
X213618898Y-87204797D01*
X213672385Y-87226952D01*
X213709985Y-87270975D01*
X213723500Y-87327270D01*
X213723500Y-87752727D01*
X213714061Y-87800180D01*
X213687181Y-87840408D01*
X212627936Y-88899651D01*
X212570922Y-88932118D01*
X212505322Y-88930948D01*
X212483802Y-88924629D01*
X212459520Y-88917500D01*
X212318474Y-88917500D01*
X212183141Y-88957237D01*
X212064893Y-89033230D01*
X212052105Y-89037570D01*
X212040424Y-89061259D01*
X211972119Y-89140087D01*
X211913525Y-89268388D01*
X211893453Y-89408000D01*
X211913525Y-89547611D01*
X211972118Y-89675910D01*
X212064484Y-89782507D01*
X212171377Y-89851203D01*
X212183141Y-89858763D01*
X212318474Y-89898500D01*
X212459520Y-89898500D01*
X212594853Y-89858763D01*
X212713509Y-89782507D01*
X212740035Y-89751894D01*
X212782235Y-89720302D01*
X212833747Y-89709096D01*
X212885259Y-89720302D01*
X212927461Y-89751894D01*
X212953986Y-89782506D01*
X213060880Y-89851203D01*
X213072644Y-89858763D01*
X213207977Y-89898500D01*
X213349023Y-89898500D01*
X213484356Y-89858763D01*
X213603012Y-89782507D01*
X213695378Y-89675911D01*
X213753971Y-89547611D01*
X213774044Y-89408000D01*
X213754450Y-89271722D01*
X213759534Y-89214920D01*
X213789503Y-89166402D01*
X214117820Y-88838085D01*
X214167182Y-88807838D01*
X214224898Y-88803296D01*
X214278385Y-88825451D01*
X214315985Y-88869474D01*
X214329500Y-88925769D01*
X214329500Y-95180294D01*
X214313391Y-95241413D01*
X214269249Y-95286652D01*
X214208544Y-95304257D01*
X214147048Y-95289653D01*
X214068471Y-95247653D01*
X214060003Y-95243648D01*
X214037551Y-95234347D01*
X214028723Y-95231188D01*
X213864491Y-95181369D01*
X213864461Y-95181361D01*
X213855393Y-95179089D01*
X213831566Y-95174351D01*
X213824774Y-95173344D01*
X213822302Y-95172978D01*
X213763341Y-95167170D01*
X213645424Y-95155557D01*
X213640748Y-95155212D01*
X213638403Y-95155096D01*
X213628592Y-95154615D01*
X213623907Y-95154500D01*
X208340500Y-95154500D01*
X208278500Y-95137887D01*
X208233113Y-95092500D01*
X208216500Y-95030500D01*
X208216500Y-93017434D01*
X208220844Y-92991864D01*
X208219676Y-92981500D01*
X208217280Y-92960229D01*
X208216500Y-92946345D01*
X208216500Y-92942539D01*
X208216500Y-92942537D01*
X208215650Y-92938814D01*
X208213323Y-92925114D01*
X208209758Y-92893477D01*
X208205804Y-92883930D01*
X208202048Y-92879220D01*
X208185939Y-92859019D01*
X208177906Y-92847697D01*
X208175880Y-92844473D01*
X208173188Y-92841781D01*
X208163927Y-92831418D01*
X208154022Y-92818997D01*
X208147829Y-92811231D01*
X208147828Y-92811230D01*
X208144074Y-92806523D01*
X208122918Y-92791511D01*
X207521008Y-92189601D01*
X207491035Y-92141079D01*
X207485951Y-92084273D01*
X207489097Y-92062389D01*
X207505544Y-91948000D01*
X207485471Y-91808389D01*
X207481711Y-91800156D01*
X207426878Y-91680089D01*
X207334512Y-91573492D01*
X207215855Y-91497236D01*
X207080523Y-91457500D01*
X206939477Y-91457500D01*
X206804144Y-91497236D01*
X206685487Y-91573492D01*
X206593121Y-91680089D01*
X206534528Y-91808388D01*
X206514456Y-91947999D01*
X206534528Y-92087611D01*
X206593121Y-92215910D01*
X206685487Y-92322507D01*
X206774030Y-92379410D01*
X206804144Y-92398763D01*
X206939477Y-92438500D01*
X207080522Y-92438500D01*
X207080523Y-92438500D01*
X207126324Y-92425050D01*
X207191924Y-92423880D01*
X207248940Y-92456347D01*
X207799181Y-93006588D01*
X207826061Y-93046816D01*
X207835500Y-93094269D01*
X207835500Y-95030500D01*
X207818887Y-95092500D01*
X207773500Y-95137887D01*
X207711500Y-95154500D01*
X204358500Y-95154500D01*
X204296500Y-95137887D01*
X204251113Y-95092500D01*
X204234500Y-95030500D01*
X204234500Y-87765434D01*
X204238844Y-87739864D01*
X204235280Y-87708229D01*
X204234500Y-87694345D01*
X204234500Y-87690537D01*
X204233651Y-87686818D01*
X204231322Y-87673107D01*
X204228433Y-87647463D01*
X204228432Y-87647462D01*
X204227758Y-87641475D01*
X204223806Y-87631933D01*
X204220048Y-87627220D01*
X204203940Y-87607021D01*
X204195912Y-87595706D01*
X204193880Y-87592472D01*
X204191190Y-87589782D01*
X204181925Y-87579414D01*
X204162076Y-87554524D01*
X204140920Y-87539512D01*
X203804908Y-87203500D01*
X203457007Y-86855600D01*
X203427035Y-86807079D01*
X203421951Y-86750273D01*
X203425192Y-86727730D01*
X203441544Y-86614000D01*
X203424356Y-86494461D01*
X203421471Y-86474388D01*
X203362878Y-86346089D01*
X203270512Y-86239492D01*
X203151855Y-86163236D01*
X203016523Y-86123500D01*
X202875477Y-86123500D01*
X202740144Y-86163236D01*
X202621487Y-86239492D01*
X202529121Y-86346089D01*
X202470528Y-86474388D01*
X202452353Y-86600807D01*
X202450456Y-86614000D01*
X202451467Y-86621032D01*
X202470528Y-86753611D01*
X202529121Y-86881910D01*
X202621487Y-86988507D01*
X202738782Y-87063888D01*
X202740144Y-87064763D01*
X202875477Y-87104500D01*
X203016521Y-87104500D01*
X203016523Y-87104500D01*
X203062326Y-87091050D01*
X203127923Y-87089880D01*
X203184939Y-87122347D01*
X203817181Y-87754589D01*
X203844061Y-87794817D01*
X203853500Y-87842270D01*
X203853500Y-95030500D01*
X203836887Y-95092500D01*
X203791500Y-95137887D01*
X203729500Y-95154500D01*
X197856093Y-95154500D01*
X197851408Y-95154615D01*
X197840704Y-95155140D01*
X197839252Y-95155212D01*
X197834572Y-95155557D01*
X197657696Y-95172977D01*
X197648429Y-95174351D01*
X197624593Y-95179093D01*
X197615509Y-95181369D01*
X197451270Y-95231189D01*
X197442457Y-95234343D01*
X197442450Y-95234345D01*
X197442444Y-95234348D01*
X197419999Y-95243646D01*
X197419992Y-95243649D01*
X197411544Y-95247644D01*
X197260164Y-95328557D01*
X197252137Y-95333369D01*
X197231943Y-95346862D01*
X197224410Y-95352450D01*
X197091747Y-95461323D01*
X197084791Y-95467627D01*
X197067627Y-95484791D01*
X197061323Y-95491747D01*
X196952450Y-95624410D01*
X196946862Y-95631943D01*
X196933369Y-95652137D01*
X196928557Y-95660164D01*
X196847644Y-95811544D01*
X196843649Y-95819992D01*
X196843646Y-95819999D01*
X196838919Y-95831411D01*
X196834343Y-95842457D01*
X196831189Y-95851270D01*
X196781369Y-96015509D01*
X196779093Y-96024593D01*
X196774351Y-96048429D01*
X196772977Y-96057696D01*
X196755557Y-96234571D01*
X196755211Y-96239257D01*
X196754949Y-96244603D01*
X196754615Y-96251408D01*
X196754500Y-96256093D01*
X196754500Y-96256114D01*
X196754500Y-106460500D01*
X196737887Y-106522500D01*
X196692500Y-106567887D01*
X196630500Y-106584500D01*
X191506093Y-106584500D01*
X191501408Y-106584615D01*
X191490704Y-106585140D01*
X191489252Y-106585212D01*
X191484572Y-106585557D01*
X191307696Y-106602977D01*
X191298429Y-106604351D01*
X191274593Y-106609093D01*
X191265509Y-106611369D01*
X191101270Y-106661189D01*
X191092457Y-106664343D01*
X191092450Y-106664345D01*
X191092444Y-106664348D01*
X191069999Y-106673646D01*
X191069992Y-106673649D01*
X191061544Y-106677644D01*
X190910164Y-106758557D01*
X190902137Y-106763369D01*
X190881943Y-106776862D01*
X190874410Y-106782450D01*
X190741747Y-106891323D01*
X190734791Y-106897627D01*
X190717627Y-106914791D01*
X190711323Y-106921747D01*
X190602450Y-107054410D01*
X190596862Y-107061943D01*
X190583369Y-107082137D01*
X190578557Y-107090164D01*
X190497644Y-107241544D01*
X190493649Y-107249992D01*
X190493646Y-107249999D01*
X190485736Y-107269095D01*
X190484343Y-107272457D01*
X190481188Y-107281270D01*
X190440843Y-107414277D01*
X190440843Y-107414278D01*
X190432434Y-107441999D01*
X190432433Y-107442002D01*
X190431366Y-107445519D01*
X190429093Y-107454594D01*
X190424353Y-107478425D01*
X190422977Y-107487702D01*
X190414973Y-107568978D01*
X190415648Y-107593023D01*
X190425179Y-107654261D01*
X190444074Y-107698096D01*
X190479572Y-107743875D01*
X190482051Y-107747072D01*
X190519797Y-107776285D01*
X190576732Y-107800766D01*
X190623902Y-107808065D01*
X190678767Y-107802611D01*
X190685574Y-107801935D01*
X190700509Y-107796454D01*
X190730382Y-107785494D01*
X190781384Y-107750285D01*
X190799304Y-107734233D01*
X190861994Y-107661882D01*
X190888666Y-107638769D01*
X190954225Y-107596637D01*
X190986331Y-107581976D01*
X191061105Y-107560022D01*
X191096037Y-107555000D01*
X191173962Y-107555000D01*
X191208895Y-107560022D01*
X191283668Y-107581976D01*
X191315772Y-107596637D01*
X191379962Y-107637889D01*
X191381330Y-107638768D01*
X191408005Y-107661882D01*
X191452731Y-107713500D01*
X191459037Y-107720777D01*
X191478116Y-107750464D01*
X191510491Y-107821354D01*
X191520434Y-107855217D01*
X191531524Y-107932352D01*
X191531524Y-107967646D01*
X191520434Y-108044781D01*
X191510490Y-108078647D01*
X191478116Y-108149534D01*
X191459035Y-108179223D01*
X191408006Y-108238114D01*
X191381332Y-108261228D01*
X191315773Y-108303360D01*
X191283671Y-108318021D01*
X191261583Y-108324507D01*
X191208895Y-108339977D01*
X191173963Y-108345000D01*
X191096037Y-108345000D01*
X191061103Y-108339977D01*
X190986330Y-108318022D01*
X190954224Y-108303360D01*
X190888666Y-108261228D01*
X190861993Y-108238115D01*
X190789890Y-108154903D01*
X190772735Y-108139382D01*
X190724011Y-108105035D01*
X190681229Y-108088378D01*
X190622107Y-108080737D01*
X190576490Y-108085970D01*
X190520635Y-108106803D01*
X190482733Y-108132720D01*
X190443056Y-108177210D01*
X190421630Y-108217819D01*
X190417538Y-108234345D01*
X190407300Y-108275686D01*
X190404500Y-108298642D01*
X190404500Y-110608856D01*
X190404615Y-110613541D01*
X190404616Y-110613553D01*
X190405212Y-110625697D01*
X190405557Y-110630373D01*
X190422978Y-110807250D01*
X190424351Y-110816515D01*
X190429089Y-110840342D01*
X190431369Y-110849442D01*
X190481189Y-111013676D01*
X190484346Y-111022497D01*
X190493646Y-111044948D01*
X190497655Y-111053426D01*
X190539652Y-111131996D01*
X190554257Y-111193492D01*
X190536652Y-111254198D01*
X190491413Y-111298340D01*
X190430294Y-111314449D01*
X97973173Y-111314449D01*
X97158751Y-111314449D01*
X97151264Y-111314223D01*
X96892541Y-111298573D01*
X96877677Y-111296768D01*
X96626427Y-111250725D01*
X96611888Y-111247142D01*
X96439716Y-111193492D01*
X96368010Y-111171147D01*
X96354016Y-111165840D01*
X96278816Y-111131996D01*
X96121075Y-111061003D01*
X96107817Y-111054044D01*
X95889228Y-110921904D01*
X95876905Y-110913399D01*
X95675824Y-110755866D01*
X95664615Y-110745936D01*
X95483989Y-110565313D01*
X95474060Y-110554105D01*
X95423835Y-110489999D01*
X99580456Y-110489999D01*
X99600528Y-110629611D01*
X99659121Y-110757910D01*
X99751487Y-110864507D01*
X99840799Y-110921904D01*
X99870144Y-110940763D01*
X100005477Y-110980500D01*
X100146523Y-110980500D01*
X100281856Y-110940763D01*
X100400512Y-110864507D01*
X100492878Y-110757911D01*
X100551471Y-110629611D01*
X100571544Y-110490000D01*
X100551471Y-110350389D01*
X100549983Y-110347131D01*
X100492878Y-110222089D01*
X100400511Y-110115491D01*
X100323460Y-110065974D01*
X100281668Y-110021086D01*
X100266500Y-109961659D01*
X100266500Y-96880500D01*
X100283113Y-96818500D01*
X100328500Y-96773113D01*
X100390500Y-96756500D01*
X100400523Y-96756500D01*
X100535856Y-96716763D01*
X100654512Y-96640507D01*
X100746878Y-96533911D01*
X100805471Y-96405611D01*
X100825544Y-96266000D01*
X100805471Y-96126389D01*
X100803493Y-96122058D01*
X100746878Y-95998089D01*
X100654512Y-95891492D01*
X100535855Y-95815236D01*
X100400523Y-95775500D01*
X100259477Y-95775500D01*
X100124144Y-95815236D01*
X100005487Y-95891492D01*
X99913121Y-95998089D01*
X99854528Y-96126388D01*
X99834456Y-96266000D01*
X99854528Y-96405610D01*
X99874295Y-96448893D01*
X99885500Y-96500404D01*
X99885500Y-96502345D01*
X99884720Y-96516229D01*
X99881155Y-96547864D01*
X99885500Y-96573434D01*
X99885500Y-109961659D01*
X99870332Y-110021086D01*
X99828540Y-110065974D01*
X99751488Y-110115491D01*
X99659121Y-110222089D01*
X99600528Y-110350388D01*
X99580456Y-110489999D01*
X95423835Y-110489999D01*
X95316527Y-110353034D01*
X95308021Y-110340711D01*
X95175874Y-110122118D01*
X95168915Y-110108860D01*
X95064075Y-109875925D01*
X95058765Y-109861924D01*
X94982769Y-109618057D01*
X94979186Y-109603519D01*
X94933137Y-109352264D01*
X94931332Y-109337413D01*
X94915725Y-109079487D01*
X94915500Y-109071999D01*
X94915500Y-85214000D01*
X94932113Y-85152000D01*
X94977500Y-85106613D01*
X95039500Y-85090000D01*
X95062500Y-85090000D01*
X95124500Y-85106613D01*
G37*
%TD.AperFunction*%
%TA.AperFunction,Conductor*%
G36*
X213179895Y-97654022D02*
G01*
X213254668Y-97675976D01*
X213286774Y-97690638D01*
X213352330Y-97732768D01*
X213379005Y-97755882D01*
X213423731Y-97807500D01*
X213430037Y-97814777D01*
X213449116Y-97844464D01*
X213481490Y-97915352D01*
X213491434Y-97949217D01*
X213502524Y-98026352D01*
X213502524Y-98061646D01*
X213491434Y-98138781D01*
X213481490Y-98172647D01*
X213449116Y-98243534D01*
X213430035Y-98273223D01*
X213379006Y-98332114D01*
X213352332Y-98355228D01*
X213286773Y-98397360D01*
X213254671Y-98412021D01*
X213235553Y-98417635D01*
X213179895Y-98433977D01*
X213144963Y-98439000D01*
X213067037Y-98439000D01*
X213032103Y-98433977D01*
X212957330Y-98412022D01*
X212925224Y-98397360D01*
X212916846Y-98391976D01*
X212895535Y-98378280D01*
X212859666Y-98355228D01*
X212832992Y-98332115D01*
X212823130Y-98320733D01*
X212781960Y-98273219D01*
X212762883Y-98243536D01*
X212730504Y-98172638D01*
X212720564Y-98138780D01*
X212709474Y-98061643D01*
X212709474Y-98026353D01*
X212716186Y-97979667D01*
X212720564Y-97949215D01*
X212730504Y-97915361D01*
X212762885Y-97844458D01*
X212781957Y-97814781D01*
X212832995Y-97755878D01*
X212859663Y-97732771D01*
X212925227Y-97690635D01*
X212957328Y-97675976D01*
X212984346Y-97668043D01*
X213032105Y-97654022D01*
X213067037Y-97649000D01*
X213144962Y-97649000D01*
X213179895Y-97654022D01*
G37*
%TD.AperFunction*%
%TD*%
%TA.AperFunction,Conductor*%
%TO.N,VBUS*%
G36*
X124398000Y-40656613D02*
G01*
X124443387Y-40702000D01*
X124460000Y-40764000D01*
X124460000Y-49406000D01*
X124443387Y-49468000D01*
X124398000Y-49513387D01*
X124336000Y-49530000D01*
X102994000Y-49530000D01*
X102932000Y-49513387D01*
X102886613Y-49468000D01*
X102870000Y-49406000D01*
X102870000Y-40764000D01*
X102886613Y-40702000D01*
X102932000Y-40656613D01*
X102994000Y-40640000D01*
X124336000Y-40640000D01*
X124398000Y-40656613D01*
G37*
%TD.AperFunction*%
%TD*%
%TA.AperFunction,Conductor*%
%TO.N,VBUS*%
G36*
X163768000Y-40656613D02*
G01*
X163813387Y-40702000D01*
X163830000Y-40764000D01*
X163830000Y-49406000D01*
X163813387Y-49468000D01*
X163768000Y-49513387D01*
X163706000Y-49530000D01*
X142364000Y-49530000D01*
X142302000Y-49513387D01*
X142256613Y-49468000D01*
X142240000Y-49406000D01*
X142240000Y-40764000D01*
X142256613Y-40702000D01*
X142302000Y-40656613D01*
X142364000Y-40640000D01*
X163706000Y-40640000D01*
X163768000Y-40656613D01*
G37*
%TD.AperFunction*%
%TD*%
%TA.AperFunction,Conductor*%
%TO.N,VBUS*%
G36*
X204408000Y-40656613D02*
G01*
X204453387Y-40702000D01*
X204470000Y-40764000D01*
X204470000Y-49406000D01*
X204453387Y-49468000D01*
X204408000Y-49513387D01*
X204346000Y-49530000D01*
X183004000Y-49530000D01*
X182942000Y-49513387D01*
X182896613Y-49468000D01*
X182880000Y-49406000D01*
X182880000Y-40764000D01*
X182896613Y-40702000D01*
X182942000Y-40656613D01*
X183004000Y-40640000D01*
X204346000Y-40640000D01*
X204408000Y-40656613D01*
G37*
%TD.AperFunction*%
%TD*%
M02*
