%TF.GenerationSoftware,KiCad,Pcbnew,7.0.1*%
%TF.CreationDate,2023-07-16T00:00:57-05:00*%
%TF.ProjectId,Knockoff Inverter,4b6e6f63-6b6f-4666-9620-496e76657274,rev?*%
%TF.SameCoordinates,Original*%
%TF.FileFunction,Soldermask,Top*%
%TF.FilePolarity,Negative*%
%FSLAX46Y46*%
G04 Gerber Fmt 4.6, Leading zero omitted, Abs format (unit mm)*
G04 Created by KiCad (PCBNEW 7.0.1) date 2023-07-16 00:00:57*
%MOMM*%
%LPD*%
G01*
G04 APERTURE LIST*
G04 Aperture macros list*
%AMRoundRect*
0 Rectangle with rounded corners*
0 $1 Rounding radius*
0 $2 $3 $4 $5 $6 $7 $8 $9 X,Y pos of 4 corners*
0 Add a 4 corners polygon primitive as box body*
4,1,4,$2,$3,$4,$5,$6,$7,$8,$9,$2,$3,0*
0 Add four circle primitives for the rounded corners*
1,1,$1+$1,$2,$3*
1,1,$1+$1,$4,$5*
1,1,$1+$1,$6,$7*
1,1,$1+$1,$8,$9*
0 Add four rect primitives between the rounded corners*
20,1,$1+$1,$2,$3,$4,$5,0*
20,1,$1+$1,$4,$5,$6,$7,0*
20,1,$1+$1,$6,$7,$8,$9,0*
20,1,$1+$1,$8,$9,$2,$3,0*%
%AMFreePoly0*
4,1,30,0.400000,-4.000000,-0.400000,-4.000000,-2.400000,-4.000000,-2.400000,-3.200000,-0.400000,-3.200000,-0.400000,-2.800000,-2.400000,-2.800000,-2.400000,-2.000000,-0.400000,-2.000000,-0.400000,-1.600000,-2.400000,-1.600000,-2.400000,-0.800000,-0.400000,-0.800000,-0.400000,-0.400000,-2.400000,-0.400000,-2.400000,0.400000,-0.400000,0.400000,-0.400000,0.800000,-2.400000,0.800000,-2.400000,1.600000,
-0.400000,1.600000,-0.400000,2.000000,-2.400000,2.000000,-2.400000,2.800000,-0.400000,2.800000,-0.400000,3.200000,-2.400000,3.200000,-2.400000,4.000000,0.400000,4.000000,0.400000,-4.000000,0.400000,-4.000000,$1*%
%AMFreePoly1*
4,1,13,2.850000,-5.050000,1.450000,-5.050000,1.450000,-4.350000,-1.450000,-4.350000,-1.450000,-4.850000,-5.150000,-4.850000,-5.150000,4.850000,-1.450000,4.850000,-1.450000,4.350000,1.450000,4.350000,1.450000,5.050000,2.850000,5.050000,2.850000,-5.050000,2.850000,-5.050000,$1*%
%AMFreePoly2*
4,1,19,0.550000,-0.750000,0.000000,-0.750000,0.000000,-0.744911,-0.071157,-0.744911,-0.207708,-0.704816,-0.327430,-0.627875,-0.420627,-0.520320,-0.479746,-0.390866,-0.500000,-0.250000,-0.500000,0.250000,-0.479746,0.390866,-0.420627,0.520320,-0.327430,0.627875,-0.207708,0.704816,-0.071157,0.744911,0.000000,0.744911,0.000000,0.750000,0.550000,0.750000,0.550000,-0.750000,0.550000,-0.750000,
$1*%
%AMFreePoly3*
4,1,19,0.000000,0.744911,0.071157,0.744911,0.207708,0.704816,0.327430,0.627875,0.420627,0.520320,0.479746,0.390866,0.500000,0.250000,0.500000,-0.250000,0.479746,-0.390866,0.420627,-0.520320,0.327430,-0.627875,0.207708,-0.704816,0.071157,-0.744911,0.000000,-0.744911,0.000000,-0.750000,-0.550000,-0.750000,-0.550000,0.750000,0.000000,0.750000,0.000000,0.744911,0.000000,0.744911,
$1*%
%AMFreePoly4*
4,1,19,0.500000,-0.750000,0.000000,-0.750000,0.000000,-0.744911,-0.071157,-0.744911,-0.207708,-0.704816,-0.327430,-0.627875,-0.420627,-0.520320,-0.479746,-0.390866,-0.500000,-0.250000,-0.500000,0.250000,-0.479746,0.390866,-0.420627,0.520320,-0.327430,0.627875,-0.207708,0.704816,-0.071157,0.744911,0.000000,0.744911,0.000000,0.750000,0.500000,0.750000,0.500000,-0.750000,0.500000,-0.750000,
$1*%
%AMFreePoly5*
4,1,19,0.000000,0.744911,0.071157,0.744911,0.207708,0.704816,0.327430,0.627875,0.420627,0.520320,0.479746,0.390866,0.500000,0.250000,0.500000,-0.250000,0.479746,-0.390866,0.420627,-0.520320,0.327430,-0.627875,0.207708,-0.704816,0.071157,-0.744911,0.000000,-0.744911,0.000000,-0.750000,-0.500000,-0.750000,-0.500000,0.750000,0.000000,0.750000,0.000000,0.744911,0.000000,0.744911,
$1*%
G04 Aperture macros list end*
%ADD10RoundRect,0.250000X-0.475000X0.250000X-0.475000X-0.250000X0.475000X-0.250000X0.475000X0.250000X0*%
%ADD11C,8.000000*%
%ADD12R,2.400000X2.400000*%
%ADD13C,2.400000*%
%ADD14RoundRect,0.250000X0.262500X0.450000X-0.262500X0.450000X-0.262500X-0.450000X0.262500X-0.450000X0*%
%ADD15R,2.800000X0.800000*%
%ADD16FreePoly0,180.000000*%
%ADD17FreePoly1,180.000000*%
%ADD18RoundRect,0.250000X-0.262500X-0.450000X0.262500X-0.450000X0.262500X0.450000X-0.262500X0.450000X0*%
%ADD19R,1.400000X0.300000*%
%ADD20RoundRect,0.250000X-2.450000X0.650000X-2.450000X-0.650000X2.450000X-0.650000X2.450000X0.650000X0*%
%ADD21RoundRect,0.250000X-0.250000X-0.475000X0.250000X-0.475000X0.250000X0.475000X-0.250000X0.475000X0*%
%ADD22R,0.300000X0.450000*%
%ADD23RoundRect,0.100000X-0.637500X-0.100000X0.637500X-0.100000X0.637500X0.100000X-0.637500X0.100000X0*%
%ADD24RoundRect,0.150000X0.150000X-0.825000X0.150000X0.825000X-0.150000X0.825000X-0.150000X-0.825000X0*%
%ADD25R,1.500000X2.000000*%
%ADD26R,3.800000X2.000000*%
%ADD27RoundRect,0.250000X2.050000X0.300000X-2.050000X0.300000X-2.050000X-0.300000X2.050000X-0.300000X0*%
%ADD28RoundRect,0.250002X4.449998X5.149998X-4.449998X5.149998X-4.449998X-5.149998X4.449998X-5.149998X0*%
%ADD29RoundRect,0.150000X0.875000X0.150000X-0.875000X0.150000X-0.875000X-0.150000X0.875000X-0.150000X0*%
%ADD30RoundRect,0.150000X-0.150000X0.825000X-0.150000X-0.825000X0.150000X-0.825000X0.150000X0.825000X0*%
%ADD31RoundRect,0.162500X0.162500X-1.012500X0.162500X1.012500X-0.162500X1.012500X-0.162500X-1.012500X0*%
%ADD32RoundRect,0.062500X0.375000X0.062500X-0.375000X0.062500X-0.375000X-0.062500X0.375000X-0.062500X0*%
%ADD33RoundRect,0.062500X0.062500X0.375000X-0.062500X0.375000X-0.062500X-0.375000X0.062500X-0.375000X0*%
%ADD34R,5.600000X5.600000*%
%ADD35RoundRect,0.150000X-0.587500X-0.150000X0.587500X-0.150000X0.587500X0.150000X-0.587500X0.150000X0*%
%ADD36R,1.000000X0.750000*%
%ADD37R,2.900000X5.600000*%
%ADD38R,2.900000X0.900000*%
%ADD39RoundRect,0.250000X0.450000X-0.262500X0.450000X0.262500X-0.450000X0.262500X-0.450000X-0.262500X0*%
%ADD40RoundRect,0.200000X-0.200000X-0.275000X0.200000X-0.275000X0.200000X0.275000X-0.200000X0.275000X0*%
%ADD41RoundRect,0.200000X0.275000X-0.200000X0.275000X0.200000X-0.275000X0.200000X-0.275000X-0.200000X0*%
%ADD42RoundRect,0.200000X-0.275000X0.200000X-0.275000X-0.200000X0.275000X-0.200000X0.275000X0.200000X0*%
%ADD43RoundRect,0.200000X0.200000X0.275000X-0.200000X0.275000X-0.200000X-0.275000X0.200000X-0.275000X0*%
%ADD44R,0.800000X2.800000*%
%ADD45FreePoly0,90.000000*%
%ADD46FreePoly1,90.000000*%
%ADD47R,2.200000X7.500000*%
%ADD48FreePoly2,180.000000*%
%ADD49R,1.000000X1.500000*%
%ADD50FreePoly3,180.000000*%
%ADD51FreePoly4,180.000000*%
%ADD52FreePoly5,180.000000*%
%ADD53FreePoly4,0.000000*%
%ADD54FreePoly5,0.000000*%
%ADD55R,0.740000X2.400000*%
%ADD56R,5.000000X0.760000*%
%ADD57R,4.500000X8.800000*%
%ADD58C,0.650000*%
%ADD59R,0.300000X0.943000*%
%ADD60R,0.300000X1.150000*%
%ADD61O,1.000000X2.100000*%
%ADD62O,1.000000X1.600000*%
%ADD63C,1.400000*%
%ADD64R,0.280000X2.400000*%
%ADD65O,1.400000X2.800000*%
%ADD66O,1.200000X2.400000*%
%ADD67C,3.200000*%
%ADD68RoundRect,0.218750X-0.218750X-0.256250X0.218750X-0.256250X0.218750X0.256250X-0.218750X0.256250X0*%
%ADD69RoundRect,0.250000X0.650000X-1.000000X0.650000X1.000000X-0.650000X1.000000X-0.650000X-1.000000X0*%
%ADD70RoundRect,0.250000X-1.000000X1.400000X-1.000000X-1.400000X1.000000X-1.400000X1.000000X1.400000X0*%
%ADD71RoundRect,0.243750X-0.243750X-0.456250X0.243750X-0.456250X0.243750X0.456250X-0.243750X0.456250X0*%
%ADD72RoundRect,0.225000X0.250000X-0.225000X0.250000X0.225000X-0.250000X0.225000X-0.250000X-0.225000X0*%
%ADD73RoundRect,0.225000X-0.250000X0.225000X-0.250000X-0.225000X0.250000X-0.225000X0.250000X0.225000X0*%
%ADD74RoundRect,0.250000X0.250000X0.475000X-0.250000X0.475000X-0.250000X-0.475000X0.250000X-0.475000X0*%
%ADD75RoundRect,0.225000X-0.225000X-0.250000X0.225000X-0.250000X0.225000X0.250000X-0.225000X0.250000X0*%
%ADD76RoundRect,0.250000X0.475000X-0.250000X0.475000X0.250000X-0.475000X0.250000X-0.475000X-0.250000X0*%
%ADD77RoundRect,0.250000X-0.650000X0.325000X-0.650000X-0.325000X0.650000X-0.325000X0.650000X0.325000X0*%
%ADD78RoundRect,0.225000X0.225000X0.250000X-0.225000X0.250000X-0.225000X-0.250000X0.225000X-0.250000X0*%
%ADD79RoundRect,0.250000X-1.025000X0.787500X-1.025000X-0.787500X1.025000X-0.787500X1.025000X0.787500X0*%
%ADD80RoundRect,0.250000X1.025000X-0.787500X1.025000X0.787500X-1.025000X0.787500X-1.025000X-0.787500X0*%
%ADD81RoundRect,0.250000X-0.787500X-1.025000X0.787500X-1.025000X0.787500X1.025000X-0.787500X1.025000X0*%
%ADD82RoundRect,0.250000X2.450000X-0.650000X2.450000X0.650000X-2.450000X0.650000X-2.450000X-0.650000X0*%
G04 APERTURE END LIST*
D10*
%TO.C,C3*%
X171602400Y-90606800D03*
X171602400Y-92506800D03*
%TD*%
D11*
%TO.C,J7*%
X208788000Y-85598000D03*
%TD*%
D12*
%TO.C,C20*%
X122555000Y-36532755D03*
D13*
X122555000Y-29032755D03*
%TD*%
D11*
%TO.C,J8*%
X100965000Y-85725000D03*
%TD*%
D14*
%TO.C,R54*%
X112061000Y-89662000D03*
X110236000Y-89662000D03*
%TD*%
D15*
%TO.C,Q7*%
X118372000Y-87420000D03*
D16*
X117372000Y-82620000D03*
D17*
X109322000Y-83220000D03*
%TD*%
D18*
%TO.C,R38*%
X130175000Y-89789000D03*
X132000000Y-89789000D03*
%TD*%
%TO.C,R39*%
X133604000Y-89789000D03*
X135429000Y-89789000D03*
%TD*%
D12*
%TO.C,C24*%
X201930000Y-36532755D03*
D13*
X201930000Y-29032755D03*
%TD*%
D18*
%TO.C,R40*%
X137033000Y-89789000D03*
X138858000Y-89789000D03*
%TD*%
%TO.C,R41*%
X113792000Y-89662000D03*
X115617000Y-89662000D03*
%TD*%
D19*
%TO.C,U17*%
X127844000Y-89916000D03*
X127844000Y-89416000D03*
X127844000Y-88916000D03*
X127844000Y-88416000D03*
X127844000Y-87916000D03*
X123444000Y-87916000D03*
X123444000Y-88416000D03*
X123444000Y-88916000D03*
X123444000Y-89416000D03*
X123444000Y-89916000D03*
%TD*%
D12*
%TO.C,C23*%
X184380000Y-36532755D03*
D13*
X184380000Y-29032755D03*
%TD*%
D12*
%TO.C,C21*%
X144780000Y-36532755D03*
D13*
X144780000Y-29032755D03*
%TD*%
D12*
%TO.C,C19*%
X105005000Y-36532755D03*
D13*
X105005000Y-29032755D03*
%TD*%
D12*
%TO.C,C22*%
X162330000Y-36532755D03*
D13*
X162330000Y-29032755D03*
%TD*%
D20*
%TO.C,C25*%
X98679000Y-74275000D03*
X98679000Y-79375000D03*
%TD*%
D21*
%TO.C,C57*%
X129672000Y-86614000D03*
X131572000Y-86614000D03*
%TD*%
D22*
%TO.C,U16*%
X206129000Y-99695000D03*
X206629000Y-99695000D03*
X207129000Y-99695000D03*
X207129000Y-98295000D03*
X206129000Y-98295000D03*
%TD*%
D23*
%TO.C,U15*%
X206096950Y-44851800D03*
X206096950Y-45501800D03*
X206096950Y-46151800D03*
X206096950Y-46801800D03*
X211821950Y-46801800D03*
X211821950Y-46151800D03*
X211821950Y-45501800D03*
X211821950Y-44851800D03*
%TD*%
D24*
%TO.C,U14*%
X177565050Y-61976000D03*
X178835050Y-61976000D03*
X180105050Y-61976000D03*
X181375050Y-61976000D03*
X181375050Y-57026000D03*
X180105050Y-57026000D03*
X178835050Y-57026000D03*
X177565050Y-57026000D03*
%TD*%
D23*
%TO.C,U13*%
X166511050Y-44902600D03*
X166511050Y-45552600D03*
X166511050Y-46202600D03*
X166511050Y-46852600D03*
X172236050Y-46852600D03*
X172236050Y-46202600D03*
X172236050Y-45552600D03*
X172236050Y-44902600D03*
%TD*%
D24*
%TO.C,U12*%
X137979150Y-62026801D03*
X139249150Y-62026801D03*
X140519150Y-62026801D03*
X141789150Y-62026801D03*
X141789150Y-57076801D03*
X140519150Y-57076801D03*
X139249150Y-57076801D03*
X137979150Y-57076801D03*
%TD*%
D25*
%TO.C,U11*%
X192546000Y-84505000D03*
D26*
X190246000Y-90805000D03*
D25*
X190246000Y-84505000D03*
X187946000Y-84505000D03*
%TD*%
D27*
%TO.C,U10*%
X146806000Y-86477000D03*
X146806000Y-84777000D03*
X146806000Y-83077000D03*
X146806000Y-81377000D03*
X146806000Y-79677000D03*
D28*
X137656000Y-83077000D03*
%TD*%
D25*
%TO.C,U9*%
X164705000Y-93930000D03*
D26*
X167005000Y-87630000D03*
D25*
X167005000Y-93930000D03*
X169305000Y-93930000D03*
%TD*%
D23*
%TO.C,U8*%
X126848950Y-44851800D03*
X126848950Y-45501800D03*
X126848950Y-46151800D03*
X126848950Y-46801800D03*
X132573950Y-46801800D03*
X132573950Y-46151800D03*
X132573950Y-45501800D03*
X132573950Y-44851800D03*
%TD*%
D29*
%TO.C,U7*%
X201168000Y-105791000D03*
X201168000Y-104521000D03*
X201168000Y-103251000D03*
X201168000Y-101981000D03*
X201168000Y-100711000D03*
X201168000Y-99441000D03*
X201168000Y-98171000D03*
X201168000Y-96901000D03*
X191868000Y-96901000D03*
X191868000Y-98171000D03*
X191868000Y-99441000D03*
X191868000Y-100711000D03*
X191868000Y-101981000D03*
X191868000Y-103251000D03*
X191868000Y-104521000D03*
X191868000Y-105791000D03*
%TD*%
D24*
%TO.C,U6*%
X146812000Y-101978000D03*
X148082000Y-101978000D03*
X149352000Y-101978000D03*
X150622000Y-101978000D03*
X151892000Y-101978000D03*
X153162000Y-101978000D03*
X154432000Y-101978000D03*
X155702000Y-101978000D03*
X155702000Y-97028000D03*
X154432000Y-97028000D03*
X153162000Y-97028000D03*
X151892000Y-97028000D03*
X150622000Y-97028000D03*
X149352000Y-97028000D03*
X148082000Y-97028000D03*
X146812000Y-97028000D03*
%TD*%
D30*
%TO.C,U5*%
X155702000Y-105286000D03*
X154432000Y-105286000D03*
X153162000Y-105286000D03*
X151892000Y-105286000D03*
X150622000Y-105286000D03*
X149352000Y-105286000D03*
X148082000Y-105286000D03*
X146812000Y-105286000D03*
X146812000Y-110236000D03*
X148082000Y-110236000D03*
X149352000Y-110236000D03*
X150622000Y-110236000D03*
X151892000Y-110236000D03*
X153162000Y-110236000D03*
X154432000Y-110236000D03*
X155702000Y-110236000D03*
%TD*%
D31*
%TO.C,U4*%
X118618000Y-104902000D03*
X121158000Y-104902000D03*
X123698000Y-104902000D03*
X126238000Y-104902000D03*
X126238000Y-95852000D03*
X123698000Y-95852000D03*
X121158000Y-95852000D03*
X118618000Y-95852000D03*
%TD*%
D24*
%TO.C,U3*%
X98317050Y-61976001D03*
X99587050Y-61976001D03*
X100857050Y-61976001D03*
X102127050Y-61976001D03*
X102127050Y-57026001D03*
X100857050Y-57026001D03*
X99587050Y-57026001D03*
X98317050Y-57026001D03*
%TD*%
D32*
%TO.C,U2*%
X180661500Y-104282000D03*
X180661500Y-103782000D03*
X180661500Y-103282000D03*
X180661500Y-102782000D03*
X180661500Y-102282000D03*
X180661500Y-101782000D03*
X180661500Y-101282000D03*
X180661500Y-100782000D03*
X180661500Y-100282000D03*
X180661500Y-99782000D03*
X180661500Y-99282000D03*
X180661500Y-98782000D03*
D33*
X179974000Y-98094500D03*
X179474000Y-98094500D03*
X178974000Y-98094500D03*
X178474000Y-98094500D03*
X177974000Y-98094500D03*
X177474000Y-98094500D03*
X176974000Y-98094500D03*
X176474000Y-98094500D03*
X175974000Y-98094500D03*
X175474000Y-98094500D03*
X174974000Y-98094500D03*
X174474000Y-98094500D03*
D32*
X173786500Y-98782000D03*
X173786500Y-99282000D03*
X173786500Y-99782000D03*
X173786500Y-100282000D03*
X173786500Y-100782000D03*
X173786500Y-101282000D03*
X173786500Y-101782000D03*
X173786500Y-102282000D03*
X173786500Y-102782000D03*
X173786500Y-103282000D03*
X173786500Y-103782000D03*
X173786500Y-104282000D03*
D33*
X174474000Y-104969500D03*
X174974000Y-104969500D03*
X175474000Y-104969500D03*
X175974000Y-104969500D03*
X176474000Y-104969500D03*
X176974000Y-104969500D03*
X177474000Y-104969500D03*
X177974000Y-104969500D03*
X178474000Y-104969500D03*
X178974000Y-104969500D03*
X179474000Y-104969500D03*
X179974000Y-104969500D03*
D34*
X177224000Y-101532000D03*
%TD*%
D35*
%TO.C,U1*%
X183438800Y-96418400D03*
X183438800Y-98318400D03*
X185313800Y-97368400D03*
%TD*%
D36*
%TO.C,SW2*%
X212502000Y-78680000D03*
X206502000Y-78680000D03*
X212502000Y-74930000D03*
X206502000Y-74930000D03*
%TD*%
%TO.C,SW1*%
X206502000Y-69275000D03*
X212502000Y-69275000D03*
X206502000Y-73025000D03*
X212502000Y-73025000D03*
%TD*%
D37*
%TO.C,R63*%
X211243250Y-54088000D03*
D38*
X211243250Y-50038000D03*
X206343250Y-50038000D03*
D37*
X206343250Y-54088000D03*
%TD*%
%TO.C,R62*%
X171657350Y-54138800D03*
D38*
X171657350Y-50088800D03*
X166757350Y-50088800D03*
D37*
X166757350Y-54138800D03*
%TD*%
%TO.C,R61*%
X131995250Y-54088000D03*
D38*
X131995250Y-50038000D03*
X127095250Y-50038000D03*
D37*
X127095250Y-54088000D03*
%TD*%
D18*
%TO.C,R60*%
X179698650Y-67259200D03*
X181523650Y-67259200D03*
%TD*%
%TO.C,R59*%
X140112750Y-67310000D03*
X141937750Y-67310000D03*
%TD*%
%TO.C,R58*%
X100450650Y-67259200D03*
X102275650Y-67259200D03*
%TD*%
D39*
%TO.C,R57*%
X180155850Y-50190400D03*
X180155850Y-48365400D03*
%TD*%
%TO.C,R56*%
X140569950Y-50241200D03*
X140569950Y-48416200D03*
%TD*%
%TO.C,R55*%
X100907850Y-50190400D03*
X100907850Y-48365400D03*
%TD*%
D40*
%TO.C,R53*%
X180003450Y-65481200D03*
X181653450Y-65481200D03*
%TD*%
%TO.C,R52*%
X140417550Y-65532000D03*
X142067550Y-65532000D03*
%TD*%
%TO.C,R51*%
X100755450Y-65481200D03*
X102405450Y-65481200D03*
%TD*%
D41*
%TO.C,R50*%
X180003450Y-53949600D03*
X180003450Y-52299600D03*
%TD*%
%TO.C,R49*%
X140417550Y-54000400D03*
X140417550Y-52350400D03*
%TD*%
%TO.C,R48*%
X100755450Y-53949600D03*
X100755450Y-52299600D03*
%TD*%
%TO.C,R47*%
X181578250Y-53949600D03*
X181578250Y-52299600D03*
%TD*%
%TO.C,R46*%
X141992350Y-54000400D03*
X141992350Y-52350400D03*
%TD*%
%TO.C,R45*%
X102330250Y-53949600D03*
X102330250Y-52299600D03*
%TD*%
D40*
%TO.C,R44*%
X180003450Y-63957200D03*
X181653450Y-63957200D03*
%TD*%
%TO.C,R43*%
X140417550Y-64008000D03*
X142067550Y-64008000D03*
%TD*%
%TO.C,R42*%
X100755450Y-63957200D03*
X102405450Y-63957200D03*
%TD*%
%TO.C,R37*%
X200250000Y-110304000D03*
X201900000Y-110304000D03*
%TD*%
%TO.C,R36*%
X200250000Y-108810000D03*
X201900000Y-108810000D03*
%TD*%
D42*
%TO.C,R35*%
X210791000Y-101006500D03*
X210791000Y-102656500D03*
%TD*%
%TO.C,R34*%
X212315000Y-101006500D03*
X212315000Y-102656500D03*
%TD*%
D14*
%TO.C,R31*%
X185762600Y-94589600D03*
X183937600Y-94589600D03*
%TD*%
%TO.C,R30*%
X189166200Y-94589600D03*
X187341200Y-94589600D03*
%TD*%
D39*
%TO.C,R27*%
X187325000Y-98829500D03*
X187325000Y-97004500D03*
%TD*%
%TO.C,R26*%
X187325000Y-102233100D03*
X187325000Y-100408100D03*
%TD*%
D40*
%TO.C,R25*%
X179832000Y-92913200D03*
X181482000Y-92913200D03*
%TD*%
%TO.C,R24*%
X176821500Y-92884000D03*
X178471500Y-92884000D03*
%TD*%
%TO.C,R23*%
X172809400Y-96418400D03*
X174459400Y-96418400D03*
%TD*%
D42*
%TO.C,R22*%
X171368400Y-94627100D03*
X171368400Y-96277100D03*
%TD*%
D41*
%TO.C,R21*%
X162153600Y-98424000D03*
X162153600Y-96774000D03*
%TD*%
D42*
%TO.C,R20*%
X160629600Y-96749600D03*
X160629600Y-98399600D03*
%TD*%
%TO.C,R19*%
X163677600Y-96801500D03*
X163677600Y-98451500D03*
%TD*%
D41*
%TO.C,R18*%
X165233200Y-98450400D03*
X165233200Y-96800400D03*
%TD*%
D18*
%TO.C,R17*%
X173380400Y-87376000D03*
X175205400Y-87376000D03*
%TD*%
D39*
%TO.C,R16*%
X171598600Y-89048600D03*
X171598600Y-87223600D03*
%TD*%
D43*
%TO.C,R14*%
X213153500Y-96266000D03*
X211503500Y-96266000D03*
%TD*%
%TO.C,R13*%
X213153500Y-91948000D03*
X211503500Y-91948000D03*
%TD*%
%TO.C,R12*%
X213153500Y-93980000D03*
X211503500Y-93980000D03*
%TD*%
D40*
%TO.C,R11*%
X184786000Y-105283000D03*
X186436000Y-105283000D03*
%TD*%
D43*
%TO.C,R10*%
X186436000Y-103759000D03*
X184786000Y-103759000D03*
%TD*%
D42*
%TO.C,R9*%
X207171000Y-100943500D03*
X207171000Y-102593500D03*
%TD*%
%TO.C,R7*%
X137414000Y-92457000D03*
X137414000Y-94107000D03*
%TD*%
D41*
%TO.C,R6*%
X208695000Y-102593500D03*
X208695000Y-100943500D03*
%TD*%
D42*
%TO.C,R5*%
X123698000Y-91949000D03*
X123698000Y-93599000D03*
%TD*%
D41*
%TO.C,R4*%
X121158000Y-93599000D03*
X121158000Y-91949000D03*
%TD*%
D40*
%TO.C,R3*%
X180315600Y-94538800D03*
X181965600Y-94538800D03*
%TD*%
D43*
%TO.C,R2*%
X202437000Y-78740000D03*
X200787000Y-78740000D03*
%TD*%
D42*
%TO.C,R1*%
X116967000Y-107569000D03*
X116967000Y-109219000D03*
%TD*%
D44*
%TO.C,Q13*%
X194234250Y-67108000D03*
D45*
X199034250Y-66108000D03*
D46*
X198434250Y-58058000D03*
%TD*%
D44*
%TO.C,Q12*%
X154648350Y-67158800D03*
D45*
X159448350Y-66158800D03*
D46*
X158848350Y-58108800D03*
%TD*%
D44*
%TO.C,Q11*%
X114986250Y-67108000D03*
D45*
X119786250Y-66108000D03*
D46*
X119186250Y-58058000D03*
%TD*%
D44*
%TO.C,Q10*%
X183476250Y-67108000D03*
D45*
X188276250Y-66108000D03*
D46*
X187676250Y-58058000D03*
%TD*%
D44*
%TO.C,Q9*%
X143890350Y-67158800D03*
D45*
X148690350Y-66158800D03*
D46*
X148090350Y-58108800D03*
%TD*%
D44*
%TO.C,Q8*%
X104228250Y-67108000D03*
D45*
X109028250Y-66108000D03*
D46*
X108428250Y-58058000D03*
%TD*%
D44*
%TO.C,Q6*%
X194221250Y-53213000D03*
D45*
X199021250Y-52213000D03*
D46*
X198421250Y-44163000D03*
%TD*%
D44*
%TO.C,Q5*%
X154635350Y-53263800D03*
D45*
X159435350Y-52263800D03*
D46*
X158835350Y-44213800D03*
%TD*%
D44*
%TO.C,Q4*%
X114973250Y-53213000D03*
D45*
X119773250Y-52213000D03*
D46*
X119173250Y-44163000D03*
%TD*%
D44*
%TO.C,Q3*%
X183476250Y-53213000D03*
D45*
X188276250Y-52213000D03*
D46*
X187676250Y-44163000D03*
%TD*%
D44*
%TO.C,Q2*%
X143890350Y-53263800D03*
D45*
X148690350Y-52263800D03*
D46*
X148090350Y-44213800D03*
%TD*%
D44*
%TO.C,Q1*%
X104228250Y-53213000D03*
D45*
X109028250Y-52213000D03*
D46*
X108428250Y-44163000D03*
%TD*%
D47*
%TO.C,L3*%
X168625000Y-81915000D03*
X174625000Y-81915000D03*
%TD*%
%TO.C,L2*%
X159766000Y-81915000D03*
X165766000Y-81915000D03*
%TD*%
%TO.C,L1*%
X150972000Y-81915000D03*
X156972000Y-81915000D03*
%TD*%
D48*
%TO.C,JP4*%
X195834000Y-108458000D03*
D49*
X194534000Y-108458000D03*
D50*
X193234000Y-108458000D03*
%TD*%
D48*
%TO.C,JP3*%
X189514000Y-108077000D03*
D49*
X188214000Y-108077000D03*
D50*
X186914000Y-108077000D03*
%TD*%
D51*
%TO.C,JP2*%
X109250000Y-110490000D03*
D52*
X107950000Y-110490000D03*
%TD*%
D53*
%TO.C,JP1*%
X101600000Y-110490000D03*
D54*
X102900000Y-110490000D03*
%TD*%
D55*
%TO.C,J9*%
X163068000Y-109310000D03*
X163068000Y-105410000D03*
X164338000Y-109310000D03*
X164338000Y-105410000D03*
X165608000Y-109310000D03*
X165608000Y-105410000D03*
X166878000Y-109310000D03*
X166878000Y-105410000D03*
X168148000Y-109310000D03*
X168148000Y-105410000D03*
X169418000Y-109310000D03*
X169418000Y-105410000D03*
X170688000Y-109310000D03*
X170688000Y-105410000D03*
%TD*%
D56*
%TO.C,J6*%
X113538000Y-96520000D03*
X113538000Y-97790000D03*
X113538000Y-99060000D03*
X113538000Y-100330000D03*
X113538000Y-101600000D03*
X113538000Y-102870000D03*
X113538000Y-104140000D03*
X113538000Y-105410000D03*
D57*
X97608000Y-100965000D03*
%TD*%
D11*
%TO.C,J5*%
X208883250Y-62992000D03*
%TD*%
%TO.C,J4*%
X169297350Y-63042799D03*
%TD*%
%TO.C,J3*%
X129635250Y-62991999D03*
%TD*%
D58*
%TO.C,J2*%
X205007000Y-105540000D03*
X210787000Y-105540000D03*
D59*
X204547000Y-104371500D03*
X205347000Y-104371500D03*
D60*
X206647000Y-104475000D03*
X207647000Y-104475000D03*
X208147000Y-104475000D03*
X209147000Y-104475000D03*
D59*
X210447000Y-104371500D03*
X211247000Y-104371500D03*
X210947000Y-104371500D03*
X210147000Y-104371500D03*
D60*
X209647000Y-104475000D03*
X208647000Y-104475000D03*
X207147000Y-104475000D03*
X206147000Y-104475000D03*
D59*
X205647000Y-104371500D03*
X204847000Y-104371500D03*
D61*
X203577000Y-105040000D03*
D62*
X203577000Y-109220000D03*
D61*
X212217000Y-105040000D03*
D62*
X212217000Y-109220000D03*
%TD*%
D63*
%TO.C,J1*%
X136784000Y-108264000D03*
D64*
X142284000Y-97984000D03*
X141784000Y-97984000D03*
X141284000Y-97984000D03*
X140784000Y-97984000D03*
X140284000Y-97984000D03*
X139784000Y-97984000D03*
X139284000Y-97984000D03*
X138784000Y-97984000D03*
X138284000Y-97984000D03*
X137784000Y-97984000D03*
X137284000Y-97984000D03*
X136784000Y-97984000D03*
X136284000Y-97984000D03*
X135784000Y-97984000D03*
X135284000Y-97984000D03*
X134784000Y-97984000D03*
X134284000Y-97984000D03*
X133784000Y-97984000D03*
X133284000Y-97984000D03*
X132784000Y-97984000D03*
D65*
X128534000Y-100584000D03*
X145034000Y-100584000D03*
D66*
X128534000Y-107364000D03*
X145034000Y-107364000D03*
%TD*%
D67*
%TO.C,H6*%
X-150622000Y-113792000D03*
%TD*%
%TO.C,H5*%
X-135890000Y-113030000D03*
%TD*%
%TO.C,H4*%
X173228000Y-27686000D03*
%TD*%
%TO.C,H3*%
X133604000Y-27686000D03*
%TD*%
%TO.C,H2*%
X129794000Y-75438000D03*
%TD*%
%TO.C,H1*%
X98298000Y-43434000D03*
%TD*%
D68*
%TO.C,FB1*%
X160223000Y-100457000D03*
X161798000Y-100457000D03*
%TD*%
D69*
%TO.C,D7*%
X177361850Y-53898800D03*
X177361850Y-49898800D03*
%TD*%
%TO.C,D6*%
X137775950Y-53949600D03*
X137775950Y-49949600D03*
%TD*%
D70*
%TO.C,D5*%
X148024000Y-92202000D03*
X141224000Y-92202000D03*
%TD*%
D71*
%TO.C,D4*%
X208104500Y-96266000D03*
X209979500Y-96266000D03*
%TD*%
%TO.C,D3*%
X208104500Y-93980000D03*
X209979500Y-93980000D03*
%TD*%
%TO.C,D2*%
X208104500Y-91948000D03*
X209979500Y-91948000D03*
%TD*%
D69*
%TO.C,D1*%
X98113850Y-53898800D03*
X98113850Y-49898800D03*
%TD*%
D72*
%TO.C,C66*%
X118618000Y-93624400D03*
X118618000Y-92074400D03*
%TD*%
D73*
%TO.C,C65*%
X118618000Y-107619200D03*
X118618000Y-109169200D03*
%TD*%
D20*
%TO.C,C64*%
X183991250Y-70084000D03*
X183991250Y-75184000D03*
%TD*%
%TO.C,C63*%
X189985650Y-70084000D03*
X189985650Y-75184000D03*
%TD*%
%TO.C,C62*%
X144405351Y-70134800D03*
X144405351Y-75234800D03*
%TD*%
%TO.C,C61*%
X150399750Y-70134800D03*
X150399750Y-75234800D03*
%TD*%
%TO.C,C60*%
X104743251Y-70084000D03*
X104743251Y-75184000D03*
%TD*%
%TO.C,C59*%
X110737650Y-70084000D03*
X110737650Y-75184000D03*
%TD*%
D74*
%TO.C,C55*%
X212058250Y-43002200D03*
X210158250Y-43002200D03*
%TD*%
D75*
%TO.C,C54*%
X183883000Y-92862400D03*
X185433000Y-92862400D03*
%TD*%
D20*
%TO.C,C53*%
X196030850Y-70084000D03*
X196030850Y-75184000D03*
%TD*%
D76*
%TO.C,C52*%
X175685450Y-58420000D03*
X175685450Y-56520000D03*
%TD*%
D20*
%TO.C,C51*%
X202025250Y-70084000D03*
X202025250Y-75184000D03*
%TD*%
D77*
%TO.C,C49*%
X175533050Y-60198000D03*
X175533050Y-63148000D03*
%TD*%
D74*
%TO.C,C47*%
X172472350Y-43053000D03*
X170572350Y-43053000D03*
%TD*%
D73*
%TO.C,C46*%
X189052200Y-96949900D03*
X189052200Y-98499900D03*
%TD*%
D20*
%TO.C,C45*%
X156444950Y-70134800D03*
X156444950Y-75234800D03*
%TD*%
D76*
%TO.C,C44*%
X136099550Y-58470801D03*
X136099550Y-56570801D03*
%TD*%
D20*
%TO.C,C43*%
X162439350Y-70134800D03*
X162439350Y-75234800D03*
%TD*%
D77*
%TO.C,C41*%
X135947150Y-60248801D03*
X135947150Y-63198801D03*
%TD*%
D78*
%TO.C,C40*%
X175260000Y-89103200D03*
X173710000Y-89103200D03*
%TD*%
D79*
%TO.C,C39*%
X160909000Y-87628000D03*
X160909000Y-93853000D03*
%TD*%
D80*
%TO.C,C38*%
X196469000Y-90805000D03*
X196469000Y-84580000D03*
%TD*%
D81*
%TO.C,C37*%
X177417000Y-89662000D03*
X183642000Y-89662000D03*
%TD*%
%TO.C,C36*%
X177417000Y-84836000D03*
X183642000Y-84836000D03*
%TD*%
%TO.C,C35*%
X177417000Y-79994000D03*
X183642000Y-79994000D03*
%TD*%
D76*
%TO.C,C34*%
X167005000Y-98039000D03*
X167005000Y-96139000D03*
%TD*%
%TO.C,C33*%
X169291000Y-98039000D03*
X169291000Y-96139000D03*
%TD*%
D10*
%TO.C,C32*%
X190246000Y-80518000D03*
X190246000Y-82418000D03*
%TD*%
%TO.C,C31*%
X187960000Y-80518000D03*
X187960000Y-82418000D03*
%TD*%
D82*
%TO.C,C30*%
X152654000Y-93365000D03*
X152654000Y-88265000D03*
%TD*%
D74*
%TO.C,C28*%
X132810250Y-43002200D03*
X130910250Y-43002200D03*
%TD*%
D76*
%TO.C,C18*%
X197866000Y-110363000D03*
X197866000Y-108463000D03*
%TD*%
D74*
%TO.C,C17*%
X202311000Y-94869000D03*
X200411000Y-94869000D03*
%TD*%
D21*
%TO.C,C16*%
X195199000Y-94869000D03*
X197099000Y-94869000D03*
%TD*%
%TO.C,C14*%
X174071200Y-94691200D03*
X175971200Y-94691200D03*
%TD*%
D72*
%TO.C,C13*%
X157454000Y-97790000D03*
X157454000Y-96240000D03*
%TD*%
D75*
%TO.C,C12*%
X157454000Y-108458000D03*
X159004000Y-108458000D03*
%TD*%
D74*
%TO.C,C11*%
X185415000Y-100838000D03*
X183515000Y-100838000D03*
%TD*%
D72*
%TO.C,C10*%
X126238000Y-93599000D03*
X126238000Y-92049000D03*
%TD*%
D76*
%TO.C,C9*%
X180594000Y-108834000D03*
X180594000Y-106934000D03*
%TD*%
%TO.C,C8*%
X182626000Y-108834000D03*
X182626000Y-106934000D03*
%TD*%
%TO.C,C7*%
X156845000Y-92451000D03*
X156845000Y-90551000D03*
%TD*%
D21*
%TO.C,C6*%
X158247000Y-104521000D03*
X160147000Y-104521000D03*
%TD*%
D20*
%TO.C,C5*%
X116782850Y-70084000D03*
X116782850Y-75184000D03*
%TD*%
%TO.C,C4*%
X122777250Y-70084000D03*
X122777250Y-75184000D03*
%TD*%
D77*
%TO.C,C2*%
X96285050Y-60198001D03*
X96285050Y-63148001D03*
%TD*%
D76*
%TO.C,C1*%
X96437450Y-58420001D03*
X96437450Y-56520001D03*
%TD*%
M02*
