%TF.GenerationSoftware,KiCad,Pcbnew,7.0.1*%
%TF.CreationDate,2023-07-16T19:11:45-05:00*%
%TF.ProjectId,Knockoff Inverter,4b6e6f63-6b6f-4666-9620-496e76657274,rev?*%
%TF.SameCoordinates,Original*%
%TF.FileFunction,Copper,L1,Top*%
%TF.FilePolarity,Positive*%
%FSLAX46Y46*%
G04 Gerber Fmt 4.6, Leading zero omitted, Abs format (unit mm)*
G04 Created by KiCad (PCBNEW 7.0.1) date 2023-07-16 19:11:45*
%MOMM*%
%LPD*%
G01*
G04 APERTURE LIST*
G04 Aperture macros list*
%AMRoundRect*
0 Rectangle with rounded corners*
0 $1 Rounding radius*
0 $2 $3 $4 $5 $6 $7 $8 $9 X,Y pos of 4 corners*
0 Add a 4 corners polygon primitive as box body*
4,1,4,$2,$3,$4,$5,$6,$7,$8,$9,$2,$3,0*
0 Add four circle primitives for the rounded corners*
1,1,$1+$1,$2,$3*
1,1,$1+$1,$4,$5*
1,1,$1+$1,$6,$7*
1,1,$1+$1,$8,$9*
0 Add four rect primitives between the rounded corners*
20,1,$1+$1,$2,$3,$4,$5,0*
20,1,$1+$1,$4,$5,$6,$7,0*
20,1,$1+$1,$6,$7,$8,$9,0*
20,1,$1+$1,$8,$9,$2,$3,0*%
%AMFreePoly0*
4,1,30,0.400000,-4.000000,-0.400000,-4.000000,-2.400000,-4.000000,-2.400000,-3.200000,-0.400000,-3.200000,-0.400000,-2.800000,-2.400000,-2.800000,-2.400000,-2.000000,-0.400000,-2.000000,-0.400000,-1.600000,-2.400000,-1.600000,-2.400000,-0.800000,-0.400000,-0.800000,-0.400000,-0.400000,-2.400000,-0.400000,-2.400000,0.400000,-0.400000,0.400000,-0.400000,0.800000,-2.400000,0.800000,-2.400000,1.600000,
-0.400000,1.600000,-0.400000,2.000000,-2.400000,2.000000,-2.400000,2.800000,-0.400000,2.800000,-0.400000,3.200000,-2.400000,3.200000,-2.400000,4.000000,0.400000,4.000000,0.400000,-4.000000,0.400000,-4.000000,$1*%
%AMFreePoly1*
4,1,13,2.850000,-5.050000,1.450000,-5.050000,1.450000,-4.350000,-1.450000,-4.350000,-1.450000,-4.850000,-5.150000,-4.850000,-5.150000,4.850000,-1.450000,4.850000,-1.450000,4.350000,1.450000,4.350000,1.450000,5.050000,2.850000,5.050000,2.850000,-5.050000,2.850000,-5.050000,$1*%
%AMFreePoly2*
4,1,19,0.550000,-0.750000,0.000000,-0.750000,0.000000,-0.744911,-0.071157,-0.744911,-0.207708,-0.704816,-0.327430,-0.627875,-0.420627,-0.520320,-0.479746,-0.390866,-0.500000,-0.250000,-0.500000,0.250000,-0.479746,0.390866,-0.420627,0.520320,-0.327430,0.627875,-0.207708,0.704816,-0.071157,0.744911,0.000000,0.744911,0.000000,0.750000,0.550000,0.750000,0.550000,-0.750000,0.550000,-0.750000,
$1*%
%AMFreePoly3*
4,1,19,0.000000,0.744911,0.071157,0.744911,0.207708,0.704816,0.327430,0.627875,0.420627,0.520320,0.479746,0.390866,0.500000,0.250000,0.500000,-0.250000,0.479746,-0.390866,0.420627,-0.520320,0.327430,-0.627875,0.207708,-0.704816,0.071157,-0.744911,0.000000,-0.744911,0.000000,-0.750000,-0.550000,-0.750000,-0.550000,0.750000,0.000000,0.750000,0.000000,0.744911,0.000000,0.744911,
$1*%
%AMFreePoly4*
4,1,19,0.500000,-0.750000,0.000000,-0.750000,0.000000,-0.744911,-0.071157,-0.744911,-0.207708,-0.704816,-0.327430,-0.627875,-0.420627,-0.520320,-0.479746,-0.390866,-0.500000,-0.250000,-0.500000,0.250000,-0.479746,0.390866,-0.420627,0.520320,-0.327430,0.627875,-0.207708,0.704816,-0.071157,0.744911,0.000000,0.744911,0.000000,0.750000,0.500000,0.750000,0.500000,-0.750000,0.500000,-0.750000,
$1*%
%AMFreePoly5*
4,1,19,0.000000,0.744911,0.071157,0.744911,0.207708,0.704816,0.327430,0.627875,0.420627,0.520320,0.479746,0.390866,0.500000,0.250000,0.500000,-0.250000,0.479746,-0.390866,0.420627,-0.520320,0.327430,-0.627875,0.207708,-0.704816,0.071157,-0.744911,0.000000,-0.744911,0.000000,-0.750000,-0.500000,-0.750000,-0.500000,0.750000,0.000000,0.750000,0.000000,0.744911,0.000000,0.744911,
$1*%
G04 Aperture macros list end*
%TA.AperFunction,SMDPad,CuDef*%
%ADD10RoundRect,0.250000X0.250000X0.475000X-0.250000X0.475000X-0.250000X-0.475000X0.250000X-0.475000X0*%
%TD*%
%TA.AperFunction,SMDPad,CuDef*%
%ADD11RoundRect,0.250000X-0.475000X0.250000X-0.475000X-0.250000X0.475000X-0.250000X0.475000X0.250000X0*%
%TD*%
%TA.AperFunction,ComponentPad*%
%ADD12C,8.000000*%
%TD*%
%TA.AperFunction,ComponentPad*%
%ADD13R,2.400000X2.400000*%
%TD*%
%TA.AperFunction,ComponentPad*%
%ADD14C,2.400000*%
%TD*%
%TA.AperFunction,SMDPad,CuDef*%
%ADD15RoundRect,0.250000X0.262500X0.450000X-0.262500X0.450000X-0.262500X-0.450000X0.262500X-0.450000X0*%
%TD*%
%TA.AperFunction,SMDPad,CuDef*%
%ADD16R,2.800000X0.800000*%
%TD*%
%TA.AperFunction,SMDPad,CuDef*%
%ADD17FreePoly0,180.000000*%
%TD*%
%TA.AperFunction,ComponentPad*%
%ADD18C,0.600000*%
%TD*%
%TA.AperFunction,SMDPad,CuDef*%
%ADD19FreePoly1,180.000000*%
%TD*%
%TA.AperFunction,SMDPad,CuDef*%
%ADD20RoundRect,0.250000X-0.262500X-0.450000X0.262500X-0.450000X0.262500X0.450000X-0.262500X0.450000X0*%
%TD*%
%TA.AperFunction,SMDPad,CuDef*%
%ADD21R,1.400000X0.300000*%
%TD*%
%TA.AperFunction,SMDPad,CuDef*%
%ADD22RoundRect,0.250000X-2.450000X0.650000X-2.450000X-0.650000X2.450000X-0.650000X2.450000X0.650000X0*%
%TD*%
%TA.AperFunction,SMDPad,CuDef*%
%ADD23RoundRect,0.250000X-0.250000X-0.475000X0.250000X-0.475000X0.250000X0.475000X-0.250000X0.475000X0*%
%TD*%
%TA.AperFunction,SMDPad,CuDef*%
%ADD24R,0.300000X0.450000*%
%TD*%
%TA.AperFunction,SMDPad,CuDef*%
%ADD25RoundRect,0.100000X-0.637500X-0.100000X0.637500X-0.100000X0.637500X0.100000X-0.637500X0.100000X0*%
%TD*%
%TA.AperFunction,SMDPad,CuDef*%
%ADD26RoundRect,0.150000X0.150000X-0.825000X0.150000X0.825000X-0.150000X0.825000X-0.150000X-0.825000X0*%
%TD*%
%TA.AperFunction,SMDPad,CuDef*%
%ADD27R,1.500000X2.000000*%
%TD*%
%TA.AperFunction,SMDPad,CuDef*%
%ADD28R,3.800000X2.000000*%
%TD*%
%TA.AperFunction,SMDPad,CuDef*%
%ADD29RoundRect,0.250000X2.050000X0.300000X-2.050000X0.300000X-2.050000X-0.300000X2.050000X-0.300000X0*%
%TD*%
%TA.AperFunction,SMDPad,CuDef*%
%ADD30RoundRect,0.250002X4.449998X5.149998X-4.449998X5.149998X-4.449998X-5.149998X4.449998X-5.149998X0*%
%TD*%
%TA.AperFunction,SMDPad,CuDef*%
%ADD31RoundRect,0.250000X2.025000X2.375000X-2.025000X2.375000X-2.025000X-2.375000X2.025000X-2.375000X0*%
%TD*%
%TA.AperFunction,SMDPad,CuDef*%
%ADD32RoundRect,0.150000X0.875000X0.150000X-0.875000X0.150000X-0.875000X-0.150000X0.875000X-0.150000X0*%
%TD*%
%TA.AperFunction,SMDPad,CuDef*%
%ADD33RoundRect,0.150000X-0.150000X0.825000X-0.150000X-0.825000X0.150000X-0.825000X0.150000X0.825000X0*%
%TD*%
%TA.AperFunction,SMDPad,CuDef*%
%ADD34RoundRect,0.162500X0.162500X-1.012500X0.162500X1.012500X-0.162500X1.012500X-0.162500X-1.012500X0*%
%TD*%
%TA.AperFunction,SMDPad,CuDef*%
%ADD35RoundRect,0.062500X0.375000X0.062500X-0.375000X0.062500X-0.375000X-0.062500X0.375000X-0.062500X0*%
%TD*%
%TA.AperFunction,SMDPad,CuDef*%
%ADD36RoundRect,0.062500X0.062500X0.375000X-0.062500X0.375000X-0.062500X-0.375000X0.062500X-0.375000X0*%
%TD*%
%TA.AperFunction,SMDPad,CuDef*%
%ADD37R,5.600000X5.600000*%
%TD*%
%TA.AperFunction,SMDPad,CuDef*%
%ADD38RoundRect,0.150000X-0.587500X-0.150000X0.587500X-0.150000X0.587500X0.150000X-0.587500X0.150000X0*%
%TD*%
%TA.AperFunction,SMDPad,CuDef*%
%ADD39R,1.000000X0.750000*%
%TD*%
%TA.AperFunction,SMDPad,CuDef*%
%ADD40R,2.900000X5.600000*%
%TD*%
%TA.AperFunction,SMDPad,CuDef*%
%ADD41R,2.900000X0.900000*%
%TD*%
%TA.AperFunction,SMDPad,CuDef*%
%ADD42RoundRect,0.250000X0.450000X-0.262500X0.450000X0.262500X-0.450000X0.262500X-0.450000X-0.262500X0*%
%TD*%
%TA.AperFunction,SMDPad,CuDef*%
%ADD43RoundRect,0.200000X-0.200000X-0.275000X0.200000X-0.275000X0.200000X0.275000X-0.200000X0.275000X0*%
%TD*%
%TA.AperFunction,SMDPad,CuDef*%
%ADD44RoundRect,0.200000X0.275000X-0.200000X0.275000X0.200000X-0.275000X0.200000X-0.275000X-0.200000X0*%
%TD*%
%TA.AperFunction,SMDPad,CuDef*%
%ADD45RoundRect,0.200000X-0.275000X0.200000X-0.275000X-0.200000X0.275000X-0.200000X0.275000X0.200000X0*%
%TD*%
%TA.AperFunction,SMDPad,CuDef*%
%ADD46RoundRect,0.200000X0.200000X0.275000X-0.200000X0.275000X-0.200000X-0.275000X0.200000X-0.275000X0*%
%TD*%
%TA.AperFunction,SMDPad,CuDef*%
%ADD47R,0.800000X2.800000*%
%TD*%
%TA.AperFunction,SMDPad,CuDef*%
%ADD48FreePoly0,90.000000*%
%TD*%
%TA.AperFunction,SMDPad,CuDef*%
%ADD49FreePoly1,90.000000*%
%TD*%
%TA.AperFunction,SMDPad,CuDef*%
%ADD50R,2.200000X7.500000*%
%TD*%
%TA.AperFunction,SMDPad,CuDef*%
%ADD51FreePoly2,180.000000*%
%TD*%
%TA.AperFunction,SMDPad,CuDef*%
%ADD52R,1.000000X1.500000*%
%TD*%
%TA.AperFunction,SMDPad,CuDef*%
%ADD53FreePoly3,180.000000*%
%TD*%
%TA.AperFunction,SMDPad,CuDef*%
%ADD54FreePoly4,180.000000*%
%TD*%
%TA.AperFunction,SMDPad,CuDef*%
%ADD55FreePoly5,180.000000*%
%TD*%
%TA.AperFunction,SMDPad,CuDef*%
%ADD56FreePoly4,0.000000*%
%TD*%
%TA.AperFunction,SMDPad,CuDef*%
%ADD57FreePoly5,0.000000*%
%TD*%
%TA.AperFunction,SMDPad,CuDef*%
%ADD58R,0.740000X2.400000*%
%TD*%
%TA.AperFunction,SMDPad,CuDef*%
%ADD59R,5.000000X0.760000*%
%TD*%
%TA.AperFunction,SMDPad,CuDef*%
%ADD60R,4.500000X8.800000*%
%TD*%
%TA.AperFunction,SMDPad,CuDef*%
%ADD61R,0.300000X0.943000*%
%TD*%
%TA.AperFunction,SMDPad,CuDef*%
%ADD62R,0.300000X1.150000*%
%TD*%
%TA.AperFunction,ComponentPad*%
%ADD63O,1.000000X2.100000*%
%TD*%
%TA.AperFunction,ComponentPad*%
%ADD64O,1.000000X1.600000*%
%TD*%
%TA.AperFunction,SMDPad,CuDef*%
%ADD65R,0.280000X2.400000*%
%TD*%
%TA.AperFunction,ComponentPad*%
%ADD66O,1.400000X2.800000*%
%TD*%
%TA.AperFunction,ComponentPad*%
%ADD67O,1.200000X2.400000*%
%TD*%
%TA.AperFunction,SMDPad,CuDef*%
%ADD68RoundRect,0.218750X-0.218750X-0.256250X0.218750X-0.256250X0.218750X0.256250X-0.218750X0.256250X0*%
%TD*%
%TA.AperFunction,SMDPad,CuDef*%
%ADD69RoundRect,0.250000X0.650000X-1.000000X0.650000X1.000000X-0.650000X1.000000X-0.650000X-1.000000X0*%
%TD*%
%TA.AperFunction,SMDPad,CuDef*%
%ADD70RoundRect,0.250000X-1.000000X1.400000X-1.000000X-1.400000X1.000000X-1.400000X1.000000X1.400000X0*%
%TD*%
%TA.AperFunction,SMDPad,CuDef*%
%ADD71RoundRect,0.243750X-0.243750X-0.456250X0.243750X-0.456250X0.243750X0.456250X-0.243750X0.456250X0*%
%TD*%
%TA.AperFunction,SMDPad,CuDef*%
%ADD72RoundRect,0.225000X0.250000X-0.225000X0.250000X0.225000X-0.250000X0.225000X-0.250000X-0.225000X0*%
%TD*%
%TA.AperFunction,SMDPad,CuDef*%
%ADD73RoundRect,0.225000X-0.250000X0.225000X-0.250000X-0.225000X0.250000X-0.225000X0.250000X0.225000X0*%
%TD*%
%TA.AperFunction,SMDPad,CuDef*%
%ADD74RoundRect,0.225000X-0.225000X-0.250000X0.225000X-0.250000X0.225000X0.250000X-0.225000X0.250000X0*%
%TD*%
%TA.AperFunction,SMDPad,CuDef*%
%ADD75RoundRect,0.250000X0.475000X-0.250000X0.475000X0.250000X-0.475000X0.250000X-0.475000X-0.250000X0*%
%TD*%
%TA.AperFunction,SMDPad,CuDef*%
%ADD76RoundRect,0.250000X-0.650000X0.325000X-0.650000X-0.325000X0.650000X-0.325000X0.650000X0.325000X0*%
%TD*%
%TA.AperFunction,SMDPad,CuDef*%
%ADD77RoundRect,0.225000X0.225000X0.250000X-0.225000X0.250000X-0.225000X-0.250000X0.225000X-0.250000X0*%
%TD*%
%TA.AperFunction,SMDPad,CuDef*%
%ADD78RoundRect,0.250000X-1.025000X0.787500X-1.025000X-0.787500X1.025000X-0.787500X1.025000X0.787500X0*%
%TD*%
%TA.AperFunction,SMDPad,CuDef*%
%ADD79RoundRect,0.250000X1.025000X-0.787500X1.025000X0.787500X-1.025000X0.787500X-1.025000X-0.787500X0*%
%TD*%
%TA.AperFunction,SMDPad,CuDef*%
%ADD80RoundRect,0.250000X-0.787500X-1.025000X0.787500X-1.025000X0.787500X1.025000X-0.787500X1.025000X0*%
%TD*%
%TA.AperFunction,SMDPad,CuDef*%
%ADD81RoundRect,0.250000X2.450000X-0.650000X2.450000X0.650000X-2.450000X0.650000X-2.450000X-0.650000X0*%
%TD*%
%TA.AperFunction,ViaPad*%
%ADD82C,0.800000*%
%TD*%
%TA.AperFunction,Conductor*%
%ADD83C,0.540000*%
%TD*%
%TA.AperFunction,Conductor*%
%ADD84C,0.500000*%
%TD*%
%TA.AperFunction,Conductor*%
%ADD85C,0.200000*%
%TD*%
G04 APERTURE END LIST*
%TA.AperFunction,EtchedComponent*%
%TO.C,JP4*%
G36*
X195434000Y-108758000D02*
G01*
X194934000Y-108758000D01*
X194934000Y-108158000D01*
X195434000Y-108158000D01*
X195434000Y-108758000D01*
G37*
%TD.AperFunction*%
%TA.AperFunction,EtchedComponent*%
%TO.C,JP3*%
G36*
X189114000Y-108377000D02*
G01*
X188614000Y-108377000D01*
X188614000Y-107777000D01*
X189114000Y-107777000D01*
X189114000Y-108377000D01*
G37*
%TD.AperFunction*%
%TD*%
D10*
%TO.P,C11,1*%
%TO.N,GND*%
X185415000Y-100838000D03*
%TO.P,C11,2*%
%TO.N,NSRST*%
X183515000Y-100838000D03*
%TD*%
D11*
%TO.P,C3,1*%
%TO.N,GND*%
X171602400Y-90606800D03*
%TO.P,C3,2*%
%TO.N,VREF_OUT*%
X171602400Y-92506800D03*
%TD*%
D12*
%TO.P,J7,1,Pin_1*%
%TO.N,GND*%
X208788000Y-85598000D03*
%TD*%
D13*
%TO.P,C20,1*%
%TO.N,VBUS*%
X122555000Y-36532755D03*
D14*
%TO.P,C20,2*%
%TO.N,GND*%
X122555000Y-29032755D03*
%TD*%
D12*
%TO.P,J8,1,Pin_1*%
%TO.N,Net-(J8-Pin_1)*%
X100965000Y-85725000D03*
%TD*%
D15*
%TO.P,R54,1*%
%TO.N,Net-(J8-Pin_1)*%
X112061000Y-89662000D03*
%TO.P,R54,2*%
%TO.N,Net-(U17-SENSE)*%
X110236000Y-89662000D03*
%TD*%
D16*
%TO.P,Q7,1,G*%
%TO.N,Net-(Q7-G)*%
X118372000Y-87420000D03*
D17*
%TO.P,Q7,2,S*%
%TO.N,VBUS*%
X117372000Y-82620000D03*
D18*
%TO.P,Q7,3,D*%
%TO.N,Net-(J8-Pin_1)*%
X110192000Y-86820000D03*
X112592000Y-79620000D03*
X110192000Y-83220000D03*
X113792000Y-86820000D03*
X111392000Y-83220000D03*
X112592000Y-82020000D03*
X112592000Y-86820000D03*
X108992000Y-82020000D03*
X108992000Y-83220000D03*
X113792000Y-82020000D03*
X107792000Y-79620000D03*
X110192000Y-82020000D03*
X111392000Y-80820000D03*
X107792000Y-86820000D03*
D19*
X109322000Y-83220000D03*
D18*
X112592000Y-85620000D03*
X110192000Y-79620000D03*
X112592000Y-84420000D03*
X113792000Y-79620000D03*
X107792000Y-82020000D03*
X113792000Y-83220000D03*
X108992000Y-84420000D03*
X111392000Y-86820000D03*
X110192000Y-85620000D03*
X107792000Y-85620000D03*
X111392000Y-84420000D03*
X111392000Y-85620000D03*
X113792000Y-80820000D03*
X113792000Y-84420000D03*
X107792000Y-80820000D03*
X113792000Y-85620000D03*
X108992000Y-86820000D03*
X110192000Y-80820000D03*
X107792000Y-83220000D03*
X111392000Y-82020000D03*
X111392000Y-79620000D03*
X108992000Y-85620000D03*
X112592000Y-80820000D03*
X112592000Y-83220000D03*
X110192000Y-84420000D03*
X108992000Y-80820000D03*
X108992000Y-79620000D03*
X107792000Y-84420000D03*
%TD*%
D20*
%TO.P,R38,1*%
%TO.N,Net-(J8-Pin_1)*%
X130175000Y-89789000D03*
%TO.P,R38,2*%
%TO.N,Net-(U17-UVLO)*%
X132000000Y-89789000D03*
%TD*%
%TO.P,R39,1*%
%TO.N,Net-(U17-UVLO)*%
X133604000Y-89789000D03*
%TO.P,R39,2*%
%TO.N,Net-(U17-OVP)*%
X135429000Y-89789000D03*
%TD*%
D13*
%TO.P,C24,1*%
%TO.N,VBUS*%
X201930000Y-36532755D03*
D14*
%TO.P,C24,2*%
%TO.N,GND*%
X201930000Y-29032755D03*
%TD*%
D20*
%TO.P,R40,1*%
%TO.N,Net-(U17-OVP)*%
X137033000Y-89789000D03*
%TO.P,R40,2*%
%TO.N,GND*%
X138858000Y-89789000D03*
%TD*%
%TO.P,R41,1*%
%TO.N,Net-(J8-Pin_1)*%
X113792000Y-89662000D03*
%TO.P,R41,2*%
%TO.N,Net-(U17-SENSE)*%
X115617000Y-89662000D03*
%TD*%
D21*
%TO.P,U17,1,SENSE*%
%TO.N,Net-(U17-SENSE)*%
X127844000Y-89916000D03*
%TO.P,U17,2,VIN*%
%TO.N,Net-(J8-Pin_1)*%
X127844000Y-89416000D03*
%TO.P,U17,3,OVP*%
%TO.N,Net-(U17-OVP)*%
X127844000Y-88916000D03*
%TO.P,U17,4,UVLO*%
%TO.N,Net-(U17-UVLO)*%
X127844000Y-88416000D03*
%TO.P,U17,5,EN*%
%TO.N,/DC INPUT/EN*%
X127844000Y-87916000D03*
%TO.P,U17,6,GND*%
%TO.N,GND*%
X123444000Y-87916000D03*
%TO.P,U17,7,TIMER*%
%TO.N,Net-(U17-TIMER)*%
X123444000Y-88416000D03*
%TO.P,U17,8,~{PGD}*%
%TO.N,/DC INPUT/nPGD*%
X123444000Y-88916000D03*
%TO.P,U17,9,OUT*%
%TO.N,VBUS*%
X123444000Y-89416000D03*
%TO.P,U17,10,GATE*%
%TO.N,Net-(Q7-G)*%
X123444000Y-89916000D03*
%TD*%
D13*
%TO.P,C23,1*%
%TO.N,VBUS*%
X184380000Y-36532755D03*
D14*
%TO.P,C23,2*%
%TO.N,GND*%
X184380000Y-29032755D03*
%TD*%
D13*
%TO.P,C21,1*%
%TO.N,VBUS*%
X144780000Y-36532755D03*
D14*
%TO.P,C21,2*%
%TO.N,GND*%
X144780000Y-29032755D03*
%TD*%
D13*
%TO.P,C19,1*%
%TO.N,VBUS*%
X105005000Y-36532755D03*
D14*
%TO.P,C19,2*%
%TO.N,GND*%
X105005000Y-29032755D03*
%TD*%
D13*
%TO.P,C22,1*%
%TO.N,VBUS*%
X162330000Y-36532755D03*
D14*
%TO.P,C22,2*%
%TO.N,GND*%
X162330000Y-29032755D03*
%TD*%
D22*
%TO.P,C25,1*%
%TO.N,GND*%
X98679000Y-74275000D03*
%TO.P,C25,2*%
%TO.N,Net-(J8-Pin_1)*%
X98679000Y-79375000D03*
%TD*%
D23*
%TO.P,C57,1*%
%TO.N,Net-(U17-TIMER)*%
X129672000Y-86614000D03*
%TO.P,C57,2*%
%TO.N,GND*%
X131572000Y-86614000D03*
%TD*%
D24*
%TO.P,U16,1,NC*%
%TO.N,unconnected-(U16-NC-Pad1)*%
X206129000Y-99695000D03*
%TO.P,U16,2,NC*%
%TO.N,unconnected-(U16-NC-Pad2)*%
X206629000Y-99695000D03*
%TO.P,U16,3*%
%TO.N,Net-(U7-UD-)*%
X207129000Y-99695000D03*
%TO.P,U16,4*%
%TO.N,GND1*%
X207129000Y-98295000D03*
%TO.P,U16,5*%
%TO.N,Net-(U7-UD+)*%
X206129000Y-98295000D03*
%TD*%
D25*
%TO.P,U15,1,GND*%
%TO.N,GND*%
X206096950Y-44851800D03*
%TO.P,U15,2,+*%
%TO.N,Net-(U15-+)*%
X206096950Y-45501800D03*
%TO.P,U15,3,-*%
%TO.N,Net-(U15--)*%
X206096950Y-46151800D03*
%TO.P,U15,4,GND*%
%TO.N,GND*%
X206096950Y-46801800D03*
%TO.P,U15,5,V+*%
%TO.N,+5V*%
X211821950Y-46801800D03*
%TO.P,U15,6,REF2*%
%TO.N,GND*%
X211821950Y-46151800D03*
%TO.P,U15,7,REF1*%
%TO.N,VREF_OUT*%
X211821950Y-45501800D03*
%TO.P,U15,8*%
%TO.N,/MCU/ADC1_IN3*%
X211821950Y-44851800D03*
%TD*%
D26*
%TO.P,U14,1,VCC*%
%TO.N,+12V*%
X177565050Y-61976000D03*
%TO.P,U14,2,HIN*%
%TO.N,/MCU/TIM_CH3*%
X178835050Y-61976000D03*
%TO.P,U14,3,LIN*%
%TO.N,/MCU/TIM_CH3N*%
X180105050Y-61976000D03*
%TO.P,U14,4,COM*%
%TO.N,GND*%
X181375050Y-61976000D03*
%TO.P,U14,5,LO*%
%TO.N,Net-(U14-LO)*%
X181375050Y-57026000D03*
%TO.P,U14,6,VS*%
%TO.N,Net-(Q10-D)*%
X180105050Y-57026000D03*
%TO.P,U14,7,HO*%
%TO.N,Net-(U14-HO)*%
X178835050Y-57026000D03*
%TO.P,U14,8,VB*%
%TO.N,Net-(D7-K)*%
X177565050Y-57026000D03*
%TD*%
D25*
%TO.P,U13,1,GND*%
%TO.N,GND*%
X166511050Y-44902600D03*
%TO.P,U13,2,+*%
%TO.N,Net-(U13-+)*%
X166511050Y-45552600D03*
%TO.P,U13,3,-*%
%TO.N,Net-(U13--)*%
X166511050Y-46202600D03*
%TO.P,U13,4,GND*%
%TO.N,GND*%
X166511050Y-46852600D03*
%TO.P,U13,5,V+*%
%TO.N,+5V*%
X172236050Y-46852600D03*
%TO.P,U13,6,REF2*%
%TO.N,GND*%
X172236050Y-46202600D03*
%TO.P,U13,7,REF1*%
%TO.N,VREF_OUT*%
X172236050Y-45552600D03*
%TO.P,U13,8*%
%TO.N,/MCU/ADC1_IN2*%
X172236050Y-44902600D03*
%TD*%
D26*
%TO.P,U12,1,VCC*%
%TO.N,+12V*%
X137979150Y-62026801D03*
%TO.P,U12,2,HIN*%
%TO.N,/MCU/TIM_CH2*%
X139249150Y-62026801D03*
%TO.P,U12,3,LIN*%
%TO.N,/MCU/TIM_CH2N*%
X140519150Y-62026801D03*
%TO.P,U12,4,COM*%
%TO.N,GND*%
X141789150Y-62026801D03*
%TO.P,U12,5,LO*%
%TO.N,Net-(U12-LO)*%
X141789150Y-57076801D03*
%TO.P,U12,6,VS*%
%TO.N,Net-(Q12-D)*%
X140519150Y-57076801D03*
%TO.P,U12,7,HO*%
%TO.N,Net-(U12-HO)*%
X139249150Y-57076801D03*
%TO.P,U12,8,VB*%
%TO.N,Net-(D6-K)*%
X137979150Y-57076801D03*
%TD*%
D27*
%TO.P,U11,1,GND*%
%TO.N,GND*%
X192546000Y-84505000D03*
D28*
%TO.P,U11,2,VO*%
%TO.N,+5V*%
X190246000Y-90805000D03*
D27*
X190246000Y-84505000D03*
%TO.P,U11,3,VI*%
%TO.N,+12V*%
X187946000Y-84505000D03*
%TD*%
D29*
%TO.P,U10,1,VIN*%
%TO.N,VBUS*%
X146806000Y-86477000D03*
%TO.P,U10,2,OUT*%
%TO.N,Net-(D5-K)*%
X146806000Y-84777000D03*
%TO.P,U10,3,GND*%
%TO.N,GND*%
X146806000Y-83077000D03*
%TO.P,U10,4,FB*%
%TO.N,+12V*%
X146806000Y-81377000D03*
%TO.P,U10,5,~{ON}/OFF*%
%TO.N,GND*%
X146806000Y-79677000D03*
D30*
%TO.P,U10,3,GND*%
X137656000Y-83077000D03*
D31*
X135231000Y-80302000D03*
X140081000Y-85852000D03*
X135231000Y-85852000D03*
X140081000Y-80302000D03*
%TD*%
D27*
%TO.P,U9,1,GND*%
%TO.N,GND*%
X164705000Y-93930000D03*
D28*
%TO.P,U9,2,VO*%
%TO.N,+3.3V*%
X167005000Y-87630000D03*
D27*
X167005000Y-93930000D03*
%TO.P,U9,3,VI*%
%TO.N,+12V*%
X169305000Y-93930000D03*
%TD*%
D25*
%TO.P,U8,1,GND*%
%TO.N,GND*%
X126848950Y-44851800D03*
%TO.P,U8,2,+*%
%TO.N,Net-(U8-+)*%
X126848950Y-45501800D03*
%TO.P,U8,3,-*%
%TO.N,Net-(U8--)*%
X126848950Y-46151800D03*
%TO.P,U8,4,GND*%
%TO.N,GND*%
X126848950Y-46801800D03*
%TO.P,U8,5,V+*%
%TO.N,+5V*%
X132573950Y-46801800D03*
%TO.P,U8,6,REF2*%
%TO.N,GND*%
X132573950Y-46151800D03*
%TO.P,U8,7,REF1*%
%TO.N,VREF_OUT*%
X132573950Y-45501800D03*
%TO.P,U8,8*%
%TO.N,/MCU/ADC1_IN1*%
X132573950Y-44851800D03*
%TD*%
D32*
%TO.P,U7,1,VBUS1*%
%TO.N,Net-(U7-VBUS1)*%
X201168000Y-105791000D03*
%TO.P,U7,2,GND1*%
%TO.N,GND1*%
X201168000Y-104521000D03*
%TO.P,U7,3,VDD1*%
%TO.N,Net-(JP4-A)*%
X201168000Y-103251000D03*
%TO.P,U7,4,PDEN*%
X201168000Y-101981000D03*
%TO.P,U7,5,SPU*%
%TO.N,Net-(JP4-C)*%
X201168000Y-100711000D03*
%TO.P,U7,6,UD-*%
%TO.N,Net-(U7-UD-)*%
X201168000Y-99441000D03*
%TO.P,U7,7,UD+*%
%TO.N,Net-(U7-UD+)*%
X201168000Y-98171000D03*
%TO.P,U7,8,GND1*%
%TO.N,GND1*%
X201168000Y-96901000D03*
%TO.P,U7,9,GND2*%
%TO.N,GND*%
X191868000Y-96901000D03*
%TO.P,U7,10,DD+*%
%TO.N,Net-(U7-DD+)*%
X191868000Y-98171000D03*
%TO.P,U7,11,DD-*%
%TO.N,Net-(U7-DD-)*%
X191868000Y-99441000D03*
%TO.P,U7,12,PIN*%
%TO.N,+3.3V*%
X191868000Y-100711000D03*
%TO.P,U7,13,SPD*%
%TO.N,Net-(JP3-C)*%
X191868000Y-101981000D03*
%TO.P,U7,14,VDD2*%
%TO.N,+3.3V*%
X191868000Y-103251000D03*
%TO.P,U7,15,GND2*%
%TO.N,GND*%
X191868000Y-104521000D03*
%TO.P,U7,16,VBUS2*%
%TO.N,+3.3V*%
X191868000Y-105791000D03*
%TD*%
D26*
%TO.P,U6,1,1B*%
%TO.N,SPI_MISO_+*%
X146812000Y-101978000D03*
%TO.P,U6,2,1A*%
%TO.N,SPI_MISO_-*%
X148082000Y-101978000D03*
%TO.P,U6,3,1Y*%
%TO.N,/MCU/SPI1_MISO*%
X149352000Y-101978000D03*
%TO.P,U6,4,G*%
%TO.N,+3.3V*%
X150622000Y-101978000D03*
%TO.P,U6,5,2Y*%
%TO.N,unconnected-(U6-2Y-Pad5)*%
X151892000Y-101978000D03*
%TO.P,U6,6,2A*%
%TO.N,unconnected-(U6-2A-Pad6)*%
X153162000Y-101978000D03*
%TO.P,U6,7,2B*%
%TO.N,unconnected-(U6-2B-Pad7)*%
X154432000Y-101978000D03*
%TO.P,U6,8,GND*%
%TO.N,GND*%
X155702000Y-101978000D03*
%TO.P,U6,9,3B*%
%TO.N,unconnected-(U6-3B-Pad9)*%
X155702000Y-97028000D03*
%TO.P,U6,10,3A*%
%TO.N,unconnected-(U6-3A-Pad10)*%
X154432000Y-97028000D03*
%TO.P,U6,11,3Y*%
%TO.N,unconnected-(U6-3Y-Pad11)*%
X153162000Y-97028000D03*
%TO.P,U6,12,~{G}*%
%TO.N,GND*%
X151892000Y-97028000D03*
%TO.P,U6,13,4Y*%
%TO.N,unconnected-(U6-4Y-Pad13)*%
X150622000Y-97028000D03*
%TO.P,U6,14,4A*%
%TO.N,unconnected-(U6-4A-Pad14)*%
X149352000Y-97028000D03*
%TO.P,U6,15,4B*%
%TO.N,unconnected-(U6-4B-Pad15)*%
X148082000Y-97028000D03*
%TO.P,U6,16,VCC*%
%TO.N,+3.3V*%
X146812000Y-97028000D03*
%TD*%
D33*
%TO.P,U5,1,1A*%
%TO.N,unconnected-(U5-1A-Pad1)*%
X155702000Y-105286000D03*
%TO.P,U5,2,1Y*%
%TO.N,unconnected-(U5-1Y-Pad2)*%
X154432000Y-105286000D03*
%TO.P,U5,3,1Z*%
%TO.N,unconnected-(U5-1Z-Pad3)*%
X153162000Y-105286000D03*
%TO.P,U5,4,G*%
%TO.N,+3.3V*%
X151892000Y-105286000D03*
%TO.P,U5,5,2Z*%
%TO.N,SPI_MOSI_-*%
X150622000Y-105286000D03*
%TO.P,U5,6,2Y*%
%TO.N,SPI_MOSI_+*%
X149352000Y-105286000D03*
%TO.P,U5,7,2A*%
%TO.N,/MCU/SPI1_MOSI*%
X148082000Y-105286000D03*
%TO.P,U5,8,GND*%
%TO.N,GND*%
X146812000Y-105286000D03*
%TO.P,U5,9,3A*%
%TO.N,/MCU/SPI1_SCK*%
X146812000Y-110236000D03*
%TO.P,U5,10,3Y*%
%TO.N,SPI_SCK_+*%
X148082000Y-110236000D03*
%TO.P,U5,11,3Z*%
%TO.N,SPI_SCK_-*%
X149352000Y-110236000D03*
%TO.P,U5,12,~{G}*%
%TO.N,GND*%
X150622000Y-110236000D03*
%TO.P,U5,13,4Z*%
%TO.N,SPI_nSS_-*%
X151892000Y-110236000D03*
%TO.P,U5,14,4Y*%
%TO.N,SPI_nSS_+*%
X153162000Y-110236000D03*
%TO.P,U5,15,4A*%
%TO.N,/MCU/SPI1_NSS*%
X154432000Y-110236000D03*
%TO.P,U5,16,VCC*%
%TO.N,+3.3V*%
X155702000Y-110236000D03*
%TD*%
D34*
%TO.P,U4,1,VCC1*%
%TO.N,+3.3V*%
X118618000Y-104902000D03*
%TO.P,U4,2,RXD*%
%TO.N,CAN_RX*%
X121158000Y-104902000D03*
%TO.P,U4,3,TXD*%
%TO.N,/CAN/CAN_TX*%
X123698000Y-104902000D03*
%TO.P,U4,4,GND1*%
%TO.N,GND*%
X126238000Y-104902000D03*
%TO.P,U4,5,GND2*%
%TO.N,GND_ISO*%
X126238000Y-95852000D03*
%TO.P,U4,6,CANL*%
%TO.N,CAN_IN-*%
X123698000Y-95852000D03*
%TO.P,U4,7,CANH*%
%TO.N,CAN_IN+*%
X121158000Y-95852000D03*
%TO.P,U4,8,VCC2*%
%TO.N,5V_ISO*%
X118618000Y-95852000D03*
%TD*%
D26*
%TO.P,U3,1,VCC*%
%TO.N,+12V*%
X98317050Y-61976001D03*
%TO.P,U3,2,HIN*%
%TO.N,/MCU/TIM_CH1*%
X99587050Y-61976001D03*
%TO.P,U3,3,LIN*%
%TO.N,/MCU/TIM_CH1N*%
X100857050Y-61976001D03*
%TO.P,U3,4,COM*%
%TO.N,GND*%
X102127050Y-61976001D03*
%TO.P,U3,5,LO*%
%TO.N,Net-(U3-LO)*%
X102127050Y-57026001D03*
%TO.P,U3,6,VS*%
%TO.N,Net-(Q1-S)*%
X100857050Y-57026001D03*
%TO.P,U3,7,HO*%
%TO.N,Net-(U3-HO)*%
X99587050Y-57026001D03*
%TO.P,U3,8,VB*%
%TO.N,Net-(D1-K)*%
X98317050Y-57026001D03*
%TD*%
D35*
%TO.P,U2,1,VBAT*%
%TO.N,+3.3V*%
X180661500Y-104282000D03*
%TO.P,U2,2,PC13*%
%TO.N,/MCU/TIM_CH1N*%
X180661500Y-103782000D03*
%TO.P,U2,3,PC14*%
%TO.N,unconnected-(U2-PC14-Pad3)*%
X180661500Y-103282000D03*
%TO.P,U2,4,PC15*%
%TO.N,unconnected-(U2-PC15-Pad4)*%
X180661500Y-102782000D03*
%TO.P,U2,5,PF0*%
%TO.N,unconnected-(U2-PF0-Pad5)*%
X180661500Y-102282000D03*
%TO.P,U2,6,PF1*%
%TO.N,/MCU/ADC2_IN10*%
X180661500Y-101782000D03*
%TO.P,U2,7,PG10*%
%TO.N,NSRST*%
X180661500Y-101282000D03*
%TO.P,U2,8,PA0*%
%TO.N,/MCU/ADC1_IN1*%
X180661500Y-100782000D03*
%TO.P,U2,9,PA1*%
%TO.N,/MCU/ADC1_IN2*%
X180661500Y-100282000D03*
%TO.P,U2,10,PA2*%
%TO.N,/MCU/ADC1_IN3*%
X180661500Y-99782000D03*
%TO.P,U2,11,PA3*%
%TO.N,unconnected-(U2-PA3-Pad11)*%
X180661500Y-99282000D03*
%TO.P,U2,12,PA4*%
%TO.N,/MCU/SPI1_NSS*%
X180661500Y-98782000D03*
D36*
%TO.P,U2,13,PA5*%
%TO.N,/MCU/SPI1_SCK*%
X179974000Y-98094500D03*
%TO.P,U2,14,PA6*%
%TO.N,/MCU/SPI1_MISO*%
X179474000Y-98094500D03*
%TO.P,U2,15,PA7*%
%TO.N,/MCU/ADC2_IN4*%
X178974000Y-98094500D03*
%TO.P,U2,16,PC4*%
%TO.N,/MCU/ADC2_IN5*%
X178474000Y-98094500D03*
%TO.P,U2,17,PB0*%
%TO.N,/MCU/TIM_CH2N*%
X177974000Y-98094500D03*
%TO.P,U2,18,PB1*%
%TO.N,/MCU/TIM_CH3N*%
X177474000Y-98094500D03*
%TO.P,U2,19,PB2*%
%TO.N,/MCU/ADC2_IN12*%
X176974000Y-98094500D03*
%TO.P,U2,20,VREF+*%
%TO.N,VREF_OUT*%
X176474000Y-98094500D03*
%TO.P,U2,21,VDDA*%
%TO.N,Net-(U2-VDDA)*%
X175974000Y-98094500D03*
%TO.P,U2,22,PB10*%
%TO.N,unconnected-(U2-PB10-Pad22)*%
X175474000Y-98094500D03*
%TO.P,U2,23,VDD*%
%TO.N,+3.3V*%
X174974000Y-98094500D03*
%TO.P,U2,24,PB11*%
%TO.N,/MCU/ADC2_IN14*%
X174474000Y-98094500D03*
D35*
%TO.P,U2,25,PB12*%
%TO.N,/DC INPUT/EN*%
X173786500Y-98782000D03*
%TO.P,U2,26,PB13*%
%TO.N,/DC INPUT/nPGD*%
X173786500Y-99282000D03*
%TO.P,U2,27,PB14*%
%TO.N,/MCU/OPAMP2_VINP*%
X173786500Y-99782000D03*
%TO.P,U2,28,PB15*%
%TO.N,/MCU/ADC2_IN15*%
X173786500Y-100282000D03*
%TO.P,U2,29,PC6*%
%TO.N,Net-(D2-K)*%
X173786500Y-100782000D03*
%TO.P,U2,30,PA8*%
%TO.N,/MCU/TIM_CH1*%
X173786500Y-101282000D03*
%TO.P,U2,31,PA9*%
%TO.N,/MCU/TIM_CH2*%
X173786500Y-101782000D03*
%TO.P,U2,32,PA10*%
%TO.N,/MCU/TIM_CH3*%
X173786500Y-102282000D03*
%TO.P,U2,33,PA11*%
%TO.N,/MCU/USB_DM*%
X173786500Y-102782000D03*
%TO.P,U2,34,PA12*%
%TO.N,/MCU/USB_DP*%
X173786500Y-103282000D03*
%TO.P,U2,35,VDD*%
%TO.N,+3.3V*%
X173786500Y-103782000D03*
%TO.P,U2,36,PA13*%
%TO.N,SWDIO*%
X173786500Y-104282000D03*
D36*
%TO.P,U2,37,PA14*%
%TO.N,SWCLK*%
X174474000Y-104969500D03*
%TO.P,U2,38,PA15*%
%TO.N,JTDI*%
X174974000Y-104969500D03*
%TO.P,U2,39,PC10*%
%TO.N,Net-(D3-K)*%
X175474000Y-104969500D03*
%TO.P,U2,40,PC11*%
%TO.N,Net-(D4-K)*%
X175974000Y-104969500D03*
%TO.P,U2,41,PB3*%
%TO.N,SWO*%
X176474000Y-104969500D03*
%TO.P,U2,42,PB4*%
%TO.N,JTRST*%
X176974000Y-104969500D03*
%TO.P,U2,43,PB5*%
%TO.N,/MCU/SPI1_MOSI*%
X177474000Y-104969500D03*
%TO.P,U2,44,PB6*%
%TO.N,unconnected-(U2-PB6-Pad44)*%
X177974000Y-104969500D03*
%TO.P,U2,45,PB7*%
%TO.N,unconnected-(U2-PB7-Pad45)*%
X178474000Y-104969500D03*
%TO.P,U2,46,PB8*%
%TO.N,CAN_RX*%
X178974000Y-104969500D03*
%TO.P,U2,47,PB9*%
%TO.N,/CAN/CAN_TX*%
X179474000Y-104969500D03*
%TO.P,U2,48,VDD*%
%TO.N,+3.3V*%
X179974000Y-104969500D03*
D37*
%TO.P,U2,49,VSS*%
%TO.N,GND*%
X177224000Y-101532000D03*
%TD*%
D38*
%TO.P,U1,1,K*%
%TO.N,VREF_OUT*%
X183438800Y-96418400D03*
%TO.P,U1,2,A*%
%TO.N,GND*%
X183438800Y-98318400D03*
%TO.P,U1,3*%
%TO.N,N/C*%
X185313800Y-97368400D03*
%TD*%
D39*
%TO.P,SW2,1*%
%TO.N,NSRST*%
X212502000Y-78680000D03*
X206502000Y-78680000D03*
%TO.P,SW2,2*%
%TO.N,GND*%
X212502000Y-74930000D03*
X206502000Y-74930000D03*
%TD*%
%TO.P,SW1,1*%
%TO.N,CAN_RX*%
X206502000Y-69275000D03*
X212502000Y-69275000D03*
%TO.P,SW1,2*%
%TO.N,+3.3V*%
X206502000Y-73025000D03*
X212502000Y-73025000D03*
%TD*%
D40*
%TO.P,R63,1,1*%
%TO.N,Net-(J5-Pin_1)*%
X211243250Y-54088000D03*
D41*
%TO.P,R63,2,2*%
%TO.N,Net-(U15-+)*%
X211243250Y-50038000D03*
%TO.P,R63,3,3*%
%TO.N,Net-(U15--)*%
X206343250Y-50038000D03*
D40*
%TO.P,R63,4,4*%
%TO.N,Net-(Q10-D)*%
X206343250Y-54088000D03*
%TD*%
%TO.P,R62,1,1*%
%TO.N,Net-(J4-Pin_1)*%
X171657350Y-54138800D03*
D41*
%TO.P,R62,2,2*%
%TO.N,Net-(U13-+)*%
X171657350Y-50088800D03*
%TO.P,R62,3,3*%
%TO.N,Net-(U13--)*%
X166757350Y-50088800D03*
D40*
%TO.P,R62,4,4*%
%TO.N,Net-(Q12-D)*%
X166757350Y-54138800D03*
%TD*%
%TO.P,R61,1,1*%
%TO.N,Net-(J3-Pin_1)*%
X131995250Y-54088000D03*
D41*
%TO.P,R61,2,2*%
%TO.N,Net-(U8-+)*%
X131995250Y-50038000D03*
%TO.P,R61,3,3*%
%TO.N,Net-(U8--)*%
X127095250Y-50038000D03*
D40*
%TO.P,R61,4,4*%
%TO.N,Net-(Q1-S)*%
X127095250Y-54088000D03*
%TD*%
D20*
%TO.P,R60,1*%
%TO.N,Net-(U14-LO)*%
X179698650Y-67259200D03*
%TO.P,R60,2*%
%TO.N,GND*%
X181523650Y-67259200D03*
%TD*%
%TO.P,R59,1*%
%TO.N,Net-(U12-LO)*%
X140112750Y-67310000D03*
%TO.P,R59,2*%
%TO.N,GND*%
X141937750Y-67310000D03*
%TD*%
%TO.P,R58,1*%
%TO.N,Net-(U3-LO)*%
X100450650Y-67259200D03*
%TO.P,R58,2*%
%TO.N,GND*%
X102275650Y-67259200D03*
%TD*%
D42*
%TO.P,R57,1*%
%TO.N,Net-(U14-HO)*%
X180155850Y-50190400D03*
%TO.P,R57,2*%
%TO.N,Net-(Q10-D)*%
X180155850Y-48365400D03*
%TD*%
%TO.P,R56,1*%
%TO.N,Net-(U12-HO)*%
X140569950Y-50241200D03*
%TO.P,R56,2*%
%TO.N,Net-(Q12-D)*%
X140569950Y-48416200D03*
%TD*%
%TO.P,R55,1*%
%TO.N,Net-(U3-HO)*%
X100907850Y-50190400D03*
%TO.P,R55,2*%
%TO.N,Net-(Q1-S)*%
X100907850Y-48365400D03*
%TD*%
D43*
%TO.P,R53,1*%
%TO.N,Net-(U14-LO)*%
X180003450Y-65481200D03*
%TO.P,R53,2*%
%TO.N,Net-(Q10-G)*%
X181653450Y-65481200D03*
%TD*%
%TO.P,R52,1*%
%TO.N,Net-(U12-LO)*%
X140417550Y-65532000D03*
%TO.P,R52,2*%
%TO.N,Net-(Q9-G)*%
X142067550Y-65532000D03*
%TD*%
%TO.P,R51,1*%
%TO.N,Net-(U3-LO)*%
X100755450Y-65481200D03*
%TO.P,R51,2*%
%TO.N,Net-(Q8-G)*%
X102405450Y-65481200D03*
%TD*%
D44*
%TO.P,R50,1*%
%TO.N,Net-(U14-HO)*%
X180003450Y-53949600D03*
%TO.P,R50,2*%
%TO.N,Net-(Q6-G)*%
X180003450Y-52299600D03*
%TD*%
%TO.P,R49,1*%
%TO.N,Net-(U12-HO)*%
X140417550Y-54000400D03*
%TO.P,R49,2*%
%TO.N,Net-(Q5-G)*%
X140417550Y-52350400D03*
%TD*%
%TO.P,R48,1*%
%TO.N,Net-(U3-HO)*%
X100755450Y-53949600D03*
%TO.P,R48,2*%
%TO.N,Net-(Q4-G)*%
X100755450Y-52299600D03*
%TD*%
%TO.P,R47,1*%
%TO.N,Net-(U14-HO)*%
X181578250Y-53949600D03*
%TO.P,R47,2*%
%TO.N,Net-(Q3-G)*%
X181578250Y-52299600D03*
%TD*%
%TO.P,R46,1*%
%TO.N,Net-(U12-HO)*%
X141992350Y-54000400D03*
%TO.P,R46,2*%
%TO.N,Net-(Q2-G)*%
X141992350Y-52350400D03*
%TD*%
%TO.P,R45,1*%
%TO.N,Net-(U3-HO)*%
X102330250Y-53949600D03*
%TO.P,R45,2*%
%TO.N,Net-(Q1-G)*%
X102330250Y-52299600D03*
%TD*%
D43*
%TO.P,R44,1*%
%TO.N,Net-(U14-LO)*%
X180003450Y-63957200D03*
%TO.P,R44,2*%
%TO.N,Net-(Q13-G)*%
X181653450Y-63957200D03*
%TD*%
%TO.P,R43,1*%
%TO.N,Net-(U12-LO)*%
X140417550Y-64008000D03*
%TO.P,R43,2*%
%TO.N,Net-(Q12-G)*%
X142067550Y-64008000D03*
%TD*%
%TO.P,R42,1*%
%TO.N,Net-(U3-LO)*%
X100755450Y-63957200D03*
%TO.P,R42,2*%
%TO.N,Net-(Q11-G)*%
X102405450Y-63957200D03*
%TD*%
%TO.P,R37,1*%
%TO.N,GND1*%
X200250000Y-110304000D03*
%TO.P,R37,2*%
%TO.N,Net-(J2-CC1)*%
X201900000Y-110304000D03*
%TD*%
%TO.P,R36,1*%
%TO.N,GND1*%
X200250000Y-108810000D03*
%TO.P,R36,2*%
%TO.N,Net-(J2-CC1)*%
X201900000Y-108810000D03*
%TD*%
D45*
%TO.P,R35,1*%
%TO.N,GND1*%
X210791000Y-101006500D03*
%TO.P,R35,2*%
%TO.N,Net-(J2-CC2)*%
X210791000Y-102656500D03*
%TD*%
%TO.P,R34,1*%
%TO.N,GND1*%
X212315000Y-101006500D03*
%TO.P,R34,2*%
%TO.N,Net-(J2-CC2)*%
X212315000Y-102656500D03*
%TD*%
D15*
%TO.P,R31,1*%
%TO.N,/MCU/ADC2_IN12*%
X185762600Y-94589600D03*
%TO.P,R31,2*%
%TO.N,GND*%
X183937600Y-94589600D03*
%TD*%
%TO.P,R30,1*%
%TO.N,Net-(Q10-D)*%
X189166200Y-94589600D03*
%TO.P,R30,2*%
%TO.N,/MCU/ADC2_IN12*%
X187341200Y-94589600D03*
%TD*%
D42*
%TO.P,R27,1*%
%TO.N,/MCU/ADC2_IN10*%
X187325000Y-98829500D03*
%TO.P,R27,2*%
%TO.N,GND*%
X187325000Y-97004500D03*
%TD*%
%TO.P,R26,1*%
%TO.N,Net-(Q12-D)*%
X187325000Y-102233100D03*
%TO.P,R26,2*%
%TO.N,/MCU/ADC2_IN10*%
X187325000Y-100408100D03*
%TD*%
D43*
%TO.P,R25,1*%
%TO.N,/MCU/ADC2_IN4*%
X179832000Y-92913200D03*
%TO.P,R25,2*%
%TO.N,GND*%
X181482000Y-92913200D03*
%TD*%
%TO.P,R24,1*%
%TO.N,VBUS*%
X176821500Y-92884000D03*
%TO.P,R24,2*%
%TO.N,/MCU/ADC2_IN4*%
X178471500Y-92884000D03*
%TD*%
%TO.P,R23,1*%
%TO.N,/MCU/ADC2_IN14*%
X172809400Y-96418400D03*
%TO.P,R23,2*%
%TO.N,GND*%
X174459400Y-96418400D03*
%TD*%
D45*
%TO.P,R22,1*%
%TO.N,+12V*%
X171368400Y-94627100D03*
%TO.P,R22,2*%
%TO.N,/MCU/ADC2_IN14*%
X171368400Y-96277100D03*
%TD*%
D44*
%TO.P,R21,1*%
%TO.N,/MCU/ADC2_IN15*%
X162153600Y-98424000D03*
%TO.P,R21,2*%
%TO.N,GND*%
X162153600Y-96774000D03*
%TD*%
D45*
%TO.P,R20,1*%
%TO.N,+5V*%
X160629600Y-96749600D03*
%TO.P,R20,2*%
%TO.N,/MCU/ADC2_IN15*%
X160629600Y-98399600D03*
%TD*%
%TO.P,R19,1*%
%TO.N,+3.3V*%
X163677600Y-96801500D03*
%TO.P,R19,2*%
%TO.N,/MCU/OPAMP2_VINP*%
X163677600Y-98451500D03*
%TD*%
D44*
%TO.P,R18,1*%
%TO.N,/MCU/OPAMP2_VINP*%
X165233200Y-98450400D03*
%TO.P,R18,2*%
%TO.N,GND*%
X165233200Y-96800400D03*
%TD*%
D20*
%TO.P,R17,1*%
%TO.N,/MCU/ADC2_IN5*%
X173380400Y-87376000D03*
%TO.P,R17,2*%
%TO.N,GND*%
X175205400Y-87376000D03*
%TD*%
D42*
%TO.P,R16,1*%
%TO.N,Net-(Q1-S)*%
X171598600Y-89048600D03*
%TO.P,R16,2*%
%TO.N,/MCU/ADC2_IN5*%
X171598600Y-87223600D03*
%TD*%
D46*
%TO.P,R14,1*%
%TO.N,+3.3V*%
X213153500Y-96266000D03*
%TO.P,R14,2*%
%TO.N,Net-(D4-A)*%
X211503500Y-96266000D03*
%TD*%
%TO.P,R13,1*%
%TO.N,+3.3V*%
X213153500Y-91948000D03*
%TO.P,R13,2*%
%TO.N,Net-(D2-A)*%
X211503500Y-91948000D03*
%TD*%
%TO.P,R12,1*%
%TO.N,+3.3V*%
X213153500Y-93980000D03*
%TO.P,R12,2*%
%TO.N,Net-(D3-A)*%
X211503500Y-93980000D03*
%TD*%
D43*
%TO.P,R11,1*%
%TO.N,/MCU/USB_DM*%
X184786000Y-105283000D03*
%TO.P,R11,2*%
%TO.N,Net-(U7-DD-)*%
X186436000Y-105283000D03*
%TD*%
D46*
%TO.P,R10,1*%
%TO.N,Net-(U7-DD+)*%
X186436000Y-103759000D03*
%TO.P,R10,2*%
%TO.N,/MCU/USB_DP*%
X184786000Y-103759000D03*
%TD*%
D45*
%TO.P,R9,1*%
%TO.N,Net-(U7-UD-)*%
X207171000Y-100943500D03*
%TO.P,R9,2*%
%TO.N,Net-(J2-D+-PadA6)*%
X207171000Y-102593500D03*
%TD*%
D44*
%TO.P,R7,1*%
%TO.N,SPI_MISO_+*%
X158496000Y-102108000D03*
%TO.P,R7,2*%
%TO.N,SPI_MISO_-*%
X158496000Y-100458000D03*
%TD*%
%TO.P,R6,1*%
%TO.N,Net-(J2-D--PadA7)*%
X208695000Y-102593500D03*
%TO.P,R6,2*%
%TO.N,Net-(U7-UD+)*%
X208695000Y-100943500D03*
%TD*%
D45*
%TO.P,R5,1*%
%TO.N,Net-(C10-Pad2)*%
X123698000Y-91949000D03*
%TO.P,R5,2*%
%TO.N,CAN_IN-*%
X123698000Y-93599000D03*
%TD*%
D44*
%TO.P,R4,1*%
%TO.N,CAN_IN+*%
X121158000Y-93599000D03*
%TO.P,R4,2*%
%TO.N,Net-(C10-Pad2)*%
X121158000Y-91949000D03*
%TD*%
D43*
%TO.P,R3,1*%
%TO.N,+3.3V*%
X180315600Y-94538800D03*
%TO.P,R3,2*%
%TO.N,VREF_OUT*%
X181965600Y-94538800D03*
%TD*%
D46*
%TO.P,R2,1*%
%TO.N,NSRST*%
X201422000Y-86106000D03*
%TO.P,R2,2*%
%TO.N,+3.3V*%
X199772000Y-86106000D03*
%TD*%
D45*
%TO.P,R1,1*%
%TO.N,CAN_RX*%
X116967000Y-107569000D03*
%TO.P,R1,2*%
%TO.N,GND*%
X116967000Y-109219000D03*
%TD*%
D47*
%TO.P,Q13,1,G*%
%TO.N,Net-(Q13-G)*%
X194234250Y-67108000D03*
D48*
%TO.P,Q13,2,S*%
%TO.N,GND*%
X199034250Y-66108000D03*
D18*
%TO.P,Q13,3,D*%
%TO.N,Net-(Q10-D)*%
X193862250Y-62528000D03*
X194624250Y-62528000D03*
X195386250Y-62528000D03*
X201482250Y-62528000D03*
X202244250Y-62528000D03*
X203006250Y-62528000D03*
X193862250Y-61328000D03*
X194624250Y-61328000D03*
X195386250Y-61328000D03*
X201482250Y-61328000D03*
X202244250Y-61328000D03*
X203006250Y-61328000D03*
X193862250Y-60128000D03*
X194624250Y-60128000D03*
X195386250Y-60128000D03*
X201482250Y-60128000D03*
X202244250Y-60128000D03*
X203006250Y-60128000D03*
X193862250Y-58928000D03*
X194624250Y-58928000D03*
X195386250Y-58928000D03*
X201482250Y-58928000D03*
X202244250Y-58928000D03*
X203006250Y-58928000D03*
D49*
X198434250Y-58058000D03*
D18*
X193862250Y-57728000D03*
X194624250Y-57728000D03*
X195386250Y-57728000D03*
X201482250Y-57728000D03*
X202244250Y-57728000D03*
X203006250Y-57728000D03*
X193862250Y-56528000D03*
X194624250Y-56528000D03*
X195386250Y-56528000D03*
X201482250Y-56528000D03*
X202244250Y-56528000D03*
X203006250Y-56528000D03*
%TD*%
D47*
%TO.P,Q12,1,G*%
%TO.N,Net-(Q12-G)*%
X154648350Y-67158800D03*
D48*
%TO.P,Q12,2,S*%
%TO.N,GND*%
X159448350Y-66158800D03*
D18*
%TO.P,Q12,3,D*%
%TO.N,Net-(Q12-D)*%
X154276350Y-62578800D03*
X155038350Y-62578800D03*
X155800350Y-62578800D03*
X161896350Y-62578800D03*
X162658350Y-62578800D03*
X163420350Y-62578800D03*
X154276350Y-61378800D03*
X155038350Y-61378800D03*
X155800350Y-61378800D03*
X161896350Y-61378800D03*
X162658350Y-61378800D03*
X163420350Y-61378800D03*
X154276350Y-60178800D03*
X155038350Y-60178800D03*
X155800350Y-60178800D03*
X161896350Y-60178800D03*
X162658350Y-60178800D03*
X163420350Y-60178800D03*
X154276350Y-58978800D03*
X155038350Y-58978800D03*
X155800350Y-58978800D03*
X161896350Y-58978800D03*
X162658350Y-58978800D03*
X163420350Y-58978800D03*
D49*
X158848350Y-58108800D03*
D18*
X154276350Y-57778800D03*
X155038350Y-57778800D03*
X155800350Y-57778800D03*
X161896350Y-57778800D03*
X162658350Y-57778800D03*
X163420350Y-57778800D03*
X154276350Y-56578800D03*
X155038350Y-56578800D03*
X155800350Y-56578800D03*
X161896350Y-56578800D03*
X162658350Y-56578800D03*
X163420350Y-56578800D03*
%TD*%
D47*
%TO.P,Q11,1,G*%
%TO.N,Net-(Q11-G)*%
X114986250Y-67108000D03*
D48*
%TO.P,Q11,2,S*%
%TO.N,GND*%
X119786250Y-66108000D03*
D18*
%TO.P,Q11,3,D*%
%TO.N,Net-(Q1-S)*%
X114614250Y-62528000D03*
X115376250Y-62528000D03*
X116138250Y-62528000D03*
X122234250Y-62528000D03*
X122996250Y-62528000D03*
X123758250Y-62528000D03*
X114614250Y-61328000D03*
X115376250Y-61328000D03*
X116138250Y-61328000D03*
X122234250Y-61328000D03*
X122996250Y-61328000D03*
X123758250Y-61328000D03*
X114614250Y-60128000D03*
X115376250Y-60128000D03*
X116138250Y-60128000D03*
X122234250Y-60128000D03*
X122996250Y-60128000D03*
X123758250Y-60128000D03*
X114614250Y-58928000D03*
X115376250Y-58928000D03*
X116138250Y-58928000D03*
X122234250Y-58928000D03*
X122996250Y-58928000D03*
X123758250Y-58928000D03*
D49*
X119186250Y-58058000D03*
D18*
X114614250Y-57728000D03*
X115376250Y-57728000D03*
X116138250Y-57728000D03*
X122234250Y-57728000D03*
X122996250Y-57728000D03*
X123758250Y-57728000D03*
X114614250Y-56528000D03*
X115376250Y-56528000D03*
X116138250Y-56528000D03*
X122234250Y-56528000D03*
X122996250Y-56528000D03*
X123758250Y-56528000D03*
%TD*%
D47*
%TO.P,Q10,1,G*%
%TO.N,Net-(Q10-G)*%
X183476250Y-67108000D03*
D48*
%TO.P,Q10,2,S*%
%TO.N,GND*%
X188276250Y-66108000D03*
D18*
%TO.P,Q10,3,D*%
%TO.N,Net-(Q10-D)*%
X183104250Y-62528000D03*
X183866250Y-62528000D03*
X184628250Y-62528000D03*
X190724250Y-62528000D03*
X191486250Y-62528000D03*
X192248250Y-62528000D03*
X183104250Y-61328000D03*
X183866250Y-61328000D03*
X184628250Y-61328000D03*
X190724250Y-61328000D03*
X191486250Y-61328000D03*
X192248250Y-61328000D03*
X183104250Y-60128000D03*
X183866250Y-60128000D03*
X184628250Y-60128000D03*
X190724250Y-60128000D03*
X191486250Y-60128000D03*
X192248250Y-60128000D03*
X183104250Y-58928000D03*
X183866250Y-58928000D03*
X184628250Y-58928000D03*
X190724250Y-58928000D03*
X191486250Y-58928000D03*
X192248250Y-58928000D03*
D49*
X187676250Y-58058000D03*
D18*
X183104250Y-57728000D03*
X183866250Y-57728000D03*
X184628250Y-57728000D03*
X190724250Y-57728000D03*
X191486250Y-57728000D03*
X192248250Y-57728000D03*
X183104250Y-56528000D03*
X183866250Y-56528000D03*
X184628250Y-56528000D03*
X190724250Y-56528000D03*
X191486250Y-56528000D03*
X192248250Y-56528000D03*
%TD*%
D47*
%TO.P,Q9,1,G*%
%TO.N,Net-(Q9-G)*%
X143890350Y-67158800D03*
D48*
%TO.P,Q9,2,S*%
%TO.N,GND*%
X148690350Y-66158800D03*
D18*
%TO.P,Q9,3,D*%
%TO.N,Net-(Q12-D)*%
X143518350Y-62578800D03*
X144280350Y-62578800D03*
X145042350Y-62578800D03*
X151138350Y-62578800D03*
X151900350Y-62578800D03*
X152662350Y-62578800D03*
X143518350Y-61378800D03*
X144280350Y-61378800D03*
X145042350Y-61378800D03*
X151138350Y-61378800D03*
X151900350Y-61378800D03*
X152662350Y-61378800D03*
X143518350Y-60178800D03*
X144280350Y-60178800D03*
X145042350Y-60178800D03*
X151138350Y-60178800D03*
X151900350Y-60178800D03*
X152662350Y-60178800D03*
X143518350Y-58978800D03*
X144280350Y-58978800D03*
X145042350Y-58978800D03*
X151138350Y-58978800D03*
X151900350Y-58978800D03*
X152662350Y-58978800D03*
D49*
X148090350Y-58108800D03*
D18*
X143518350Y-57778800D03*
X144280350Y-57778800D03*
X145042350Y-57778800D03*
X151138350Y-57778800D03*
X151900350Y-57778800D03*
X152662350Y-57778800D03*
X143518350Y-56578800D03*
X144280350Y-56578800D03*
X145042350Y-56578800D03*
X151138350Y-56578800D03*
X151900350Y-56578800D03*
X152662350Y-56578800D03*
%TD*%
D47*
%TO.P,Q8,1,G*%
%TO.N,Net-(Q8-G)*%
X104228250Y-67108000D03*
D48*
%TO.P,Q8,2,S*%
%TO.N,GND*%
X109028250Y-66108000D03*
D18*
%TO.P,Q8,3,D*%
%TO.N,Net-(Q1-S)*%
X103856250Y-62528000D03*
X104618250Y-62528000D03*
X105380250Y-62528000D03*
X111476250Y-62528000D03*
X112238250Y-62528000D03*
X113000250Y-62528000D03*
X103856250Y-61328000D03*
X104618250Y-61328000D03*
X105380250Y-61328000D03*
X111476250Y-61328000D03*
X112238250Y-61328000D03*
X113000250Y-61328000D03*
X103856250Y-60128000D03*
X104618250Y-60128000D03*
X105380250Y-60128000D03*
X111476250Y-60128000D03*
X112238250Y-60128000D03*
X113000250Y-60128000D03*
X103856250Y-58928000D03*
X104618250Y-58928000D03*
X105380250Y-58928000D03*
X111476250Y-58928000D03*
X112238250Y-58928000D03*
X113000250Y-58928000D03*
D49*
X108428250Y-58058000D03*
D18*
X103856250Y-57728000D03*
X104618250Y-57728000D03*
X105380250Y-57728000D03*
X111476250Y-57728000D03*
X112238250Y-57728000D03*
X113000250Y-57728000D03*
X103856250Y-56528000D03*
X104618250Y-56528000D03*
X105380250Y-56528000D03*
X111476250Y-56528000D03*
X112238250Y-56528000D03*
X113000250Y-56528000D03*
%TD*%
D47*
%TO.P,Q6,1,G*%
%TO.N,Net-(Q6-G)*%
X194221250Y-53213000D03*
D48*
%TO.P,Q6,2,S*%
%TO.N,Net-(Q10-D)*%
X199021250Y-52213000D03*
D18*
%TO.P,Q6,3,D*%
%TO.N,VBUS*%
X194821250Y-45033000D03*
X202021250Y-47433000D03*
X198421250Y-45033000D03*
X194821250Y-48633000D03*
X198421250Y-46233000D03*
X199621250Y-47433000D03*
X194821250Y-47433000D03*
X199621250Y-43833000D03*
X198421250Y-43833000D03*
X199621250Y-48633000D03*
X202021250Y-42633000D03*
X199621250Y-45033000D03*
X200821250Y-46233000D03*
X194821250Y-42633000D03*
D49*
X198421250Y-44163000D03*
D18*
X196021250Y-47433000D03*
X202021250Y-45033000D03*
X197221250Y-47433000D03*
X202021250Y-48633000D03*
X199621250Y-42633000D03*
X198421250Y-48633000D03*
X197221250Y-43833000D03*
X194821250Y-46233000D03*
X196021250Y-45033000D03*
X196021250Y-42633000D03*
X197221250Y-46233000D03*
X196021250Y-46233000D03*
X200821250Y-48633000D03*
X197221250Y-48633000D03*
X200821250Y-42633000D03*
X196021250Y-48633000D03*
X194821250Y-43833000D03*
X200821250Y-45033000D03*
X198421250Y-42633000D03*
X199621250Y-46233000D03*
X202021250Y-46233000D03*
X196021250Y-43833000D03*
X200821250Y-47433000D03*
X198421250Y-47433000D03*
X197221250Y-45033000D03*
X200821250Y-43833000D03*
X202021250Y-43833000D03*
X197221250Y-42633000D03*
%TD*%
D47*
%TO.P,Q5,1,G*%
%TO.N,Net-(Q5-G)*%
X154635350Y-53263800D03*
D48*
%TO.P,Q5,2,S*%
%TO.N,Net-(Q12-D)*%
X159435350Y-52263800D03*
D18*
%TO.P,Q5,3,D*%
%TO.N,VBUS*%
X155235350Y-45083800D03*
X162435350Y-47483800D03*
X158835350Y-45083800D03*
X155235350Y-48683800D03*
X158835350Y-46283800D03*
X160035350Y-47483800D03*
X155235350Y-47483800D03*
X160035350Y-43883800D03*
X158835350Y-43883800D03*
X160035350Y-48683800D03*
X162435350Y-42683800D03*
X160035350Y-45083800D03*
X161235350Y-46283800D03*
X155235350Y-42683800D03*
D49*
X158835350Y-44213800D03*
D18*
X156435350Y-47483800D03*
X162435350Y-45083800D03*
X157635350Y-47483800D03*
X162435350Y-48683800D03*
X160035350Y-42683800D03*
X158835350Y-48683800D03*
X157635350Y-43883800D03*
X155235350Y-46283800D03*
X156435350Y-45083800D03*
X156435350Y-42683800D03*
X157635350Y-46283800D03*
X156435350Y-46283800D03*
X161235350Y-48683800D03*
X157635350Y-48683800D03*
X161235350Y-42683800D03*
X156435350Y-48683800D03*
X155235350Y-43883800D03*
X161235350Y-45083800D03*
X158835350Y-42683800D03*
X160035350Y-46283800D03*
X162435350Y-46283800D03*
X156435350Y-43883800D03*
X161235350Y-47483800D03*
X158835350Y-47483800D03*
X157635350Y-45083800D03*
X161235350Y-43883800D03*
X162435350Y-43883800D03*
X157635350Y-42683800D03*
%TD*%
D47*
%TO.P,Q4,1,G*%
%TO.N,Net-(Q4-G)*%
X114973250Y-53213000D03*
D48*
%TO.P,Q4,2,S*%
%TO.N,Net-(Q1-S)*%
X119773250Y-52213000D03*
D18*
%TO.P,Q4,3,D*%
%TO.N,VBUS*%
X115573250Y-45033000D03*
X122773250Y-47433000D03*
X119173250Y-45033000D03*
X115573250Y-48633000D03*
X119173250Y-46233000D03*
X120373250Y-47433000D03*
X115573250Y-47433000D03*
X120373250Y-43833000D03*
X119173250Y-43833000D03*
X120373250Y-48633000D03*
X122773250Y-42633000D03*
X120373250Y-45033000D03*
X121573250Y-46233000D03*
X115573250Y-42633000D03*
D49*
X119173250Y-44163000D03*
D18*
X116773250Y-47433000D03*
X122773250Y-45033000D03*
X117973250Y-47433000D03*
X122773250Y-48633000D03*
X120373250Y-42633000D03*
X119173250Y-48633000D03*
X117973250Y-43833000D03*
X115573250Y-46233000D03*
X116773250Y-45033000D03*
X116773250Y-42633000D03*
X117973250Y-46233000D03*
X116773250Y-46233000D03*
X121573250Y-48633000D03*
X117973250Y-48633000D03*
X121573250Y-42633000D03*
X116773250Y-48633000D03*
X115573250Y-43833000D03*
X121573250Y-45033000D03*
X119173250Y-42633000D03*
X120373250Y-46233000D03*
X122773250Y-46233000D03*
X116773250Y-43833000D03*
X121573250Y-47433000D03*
X119173250Y-47433000D03*
X117973250Y-45033000D03*
X121573250Y-43833000D03*
X122773250Y-43833000D03*
X117973250Y-42633000D03*
%TD*%
D47*
%TO.P,Q3,1,G*%
%TO.N,Net-(Q3-G)*%
X183476250Y-53213000D03*
D48*
%TO.P,Q3,2,S*%
%TO.N,Net-(Q10-D)*%
X188276250Y-52213000D03*
D18*
%TO.P,Q3,3,D*%
%TO.N,VBUS*%
X184076250Y-45033000D03*
X191276250Y-47433000D03*
X187676250Y-45033000D03*
X184076250Y-48633000D03*
X187676250Y-46233000D03*
X188876250Y-47433000D03*
X184076250Y-47433000D03*
X188876250Y-43833000D03*
X187676250Y-43833000D03*
X188876250Y-48633000D03*
X191276250Y-42633000D03*
X188876250Y-45033000D03*
X190076250Y-46233000D03*
X184076250Y-42633000D03*
D49*
X187676250Y-44163000D03*
D18*
X185276250Y-47433000D03*
X191276250Y-45033000D03*
X186476250Y-47433000D03*
X191276250Y-48633000D03*
X188876250Y-42633000D03*
X187676250Y-48633000D03*
X186476250Y-43833000D03*
X184076250Y-46233000D03*
X185276250Y-45033000D03*
X185276250Y-42633000D03*
X186476250Y-46233000D03*
X185276250Y-46233000D03*
X190076250Y-48633000D03*
X186476250Y-48633000D03*
X190076250Y-42633000D03*
X185276250Y-48633000D03*
X184076250Y-43833000D03*
X190076250Y-45033000D03*
X187676250Y-42633000D03*
X188876250Y-46233000D03*
X191276250Y-46233000D03*
X185276250Y-43833000D03*
X190076250Y-47433000D03*
X187676250Y-47433000D03*
X186476250Y-45033000D03*
X190076250Y-43833000D03*
X191276250Y-43833000D03*
X186476250Y-42633000D03*
%TD*%
D47*
%TO.P,Q2,1,G*%
%TO.N,Net-(Q2-G)*%
X143890350Y-53263800D03*
D48*
%TO.P,Q2,2,S*%
%TO.N,Net-(Q12-D)*%
X148690350Y-52263800D03*
D18*
%TO.P,Q2,3,D*%
%TO.N,VBUS*%
X144490350Y-45083800D03*
X151690350Y-47483800D03*
X148090350Y-45083800D03*
X144490350Y-48683800D03*
X148090350Y-46283800D03*
X149290350Y-47483800D03*
X144490350Y-47483800D03*
X149290350Y-43883800D03*
X148090350Y-43883800D03*
X149290350Y-48683800D03*
X151690350Y-42683800D03*
X149290350Y-45083800D03*
X150490350Y-46283800D03*
X144490350Y-42683800D03*
D49*
X148090350Y-44213800D03*
D18*
X145690350Y-47483800D03*
X151690350Y-45083800D03*
X146890350Y-47483800D03*
X151690350Y-48683800D03*
X149290350Y-42683800D03*
X148090350Y-48683800D03*
X146890350Y-43883800D03*
X144490350Y-46283800D03*
X145690350Y-45083800D03*
X145690350Y-42683800D03*
X146890350Y-46283800D03*
X145690350Y-46283800D03*
X150490350Y-48683800D03*
X146890350Y-48683800D03*
X150490350Y-42683800D03*
X145690350Y-48683800D03*
X144490350Y-43883800D03*
X150490350Y-45083800D03*
X148090350Y-42683800D03*
X149290350Y-46283800D03*
X151690350Y-46283800D03*
X145690350Y-43883800D03*
X150490350Y-47483800D03*
X148090350Y-47483800D03*
X146890350Y-45083800D03*
X150490350Y-43883800D03*
X151690350Y-43883800D03*
X146890350Y-42683800D03*
%TD*%
D47*
%TO.P,Q1,1,G*%
%TO.N,Net-(Q1-G)*%
X104228250Y-53213000D03*
D48*
%TO.P,Q1,2,S*%
%TO.N,Net-(Q1-S)*%
X109028250Y-52213000D03*
D18*
%TO.P,Q1,3,D*%
%TO.N,VBUS*%
X104828250Y-45033000D03*
X112028250Y-47433000D03*
X108428250Y-45033000D03*
X104828250Y-48633000D03*
X108428250Y-46233000D03*
X109628250Y-47433000D03*
X104828250Y-47433000D03*
X109628250Y-43833000D03*
X108428250Y-43833000D03*
X109628250Y-48633000D03*
X112028250Y-42633000D03*
X109628250Y-45033000D03*
X110828250Y-46233000D03*
X104828250Y-42633000D03*
D49*
X108428250Y-44163000D03*
D18*
X106028250Y-47433000D03*
X112028250Y-45033000D03*
X107228250Y-47433000D03*
X112028250Y-48633000D03*
X109628250Y-42633000D03*
X108428250Y-48633000D03*
X107228250Y-43833000D03*
X104828250Y-46233000D03*
X106028250Y-45033000D03*
X106028250Y-42633000D03*
X107228250Y-46233000D03*
X106028250Y-46233000D03*
X110828250Y-48633000D03*
X107228250Y-48633000D03*
X110828250Y-42633000D03*
X106028250Y-48633000D03*
X104828250Y-43833000D03*
X110828250Y-45033000D03*
X108428250Y-42633000D03*
X109628250Y-46233000D03*
X112028250Y-46233000D03*
X106028250Y-43833000D03*
X110828250Y-47433000D03*
X108428250Y-47433000D03*
X107228250Y-45033000D03*
X110828250Y-43833000D03*
X112028250Y-43833000D03*
X107228250Y-42633000D03*
%TD*%
D50*
%TO.P,L3,1,1*%
%TO.N,Net-(L2-Pad2)*%
X168625000Y-81915000D03*
%TO.P,L3,2,2*%
%TO.N,+12V*%
X174625000Y-81915000D03*
%TD*%
%TO.P,L2,1,1*%
%TO.N,Net-(L1-Pad2)*%
X159766000Y-81915000D03*
%TO.P,L2,2,2*%
%TO.N,Net-(L2-Pad2)*%
X165766000Y-81915000D03*
%TD*%
%TO.P,L1,1,1*%
%TO.N,Net-(D5-K)*%
X150972000Y-81915000D03*
%TO.P,L1,2,2*%
%TO.N,Net-(L1-Pad2)*%
X156972000Y-81915000D03*
%TD*%
D51*
%TO.P,JP4,1,A*%
%TO.N,Net-(JP4-A)*%
X195834000Y-108458000D03*
D52*
%TO.P,JP4,2,C*%
%TO.N,Net-(JP4-C)*%
X194534000Y-108458000D03*
D53*
%TO.P,JP4,3,B*%
%TO.N,GND1*%
X193234000Y-108458000D03*
%TD*%
D51*
%TO.P,JP3,1,A*%
%TO.N,+3.3V*%
X189514000Y-108077000D03*
D52*
%TO.P,JP3,2,C*%
%TO.N,Net-(JP3-C)*%
X188214000Y-108077000D03*
D53*
%TO.P,JP3,3,B*%
%TO.N,GND*%
X186914000Y-108077000D03*
%TD*%
D54*
%TO.P,JP2,1,A*%
%TO.N,GND*%
X109250000Y-110490000D03*
D55*
%TO.P,JP2,2,B*%
%TO.N,GND_ISO*%
X107950000Y-110490000D03*
%TD*%
D56*
%TO.P,JP1,1,A*%
%TO.N,+5V*%
X101600000Y-110490000D03*
D57*
%TO.P,JP1,2,B*%
%TO.N,5V_ISO*%
X102900000Y-110490000D03*
%TD*%
D58*
%TO.P,J9,1,Pin_1*%
%TO.N,unconnected-(J9-Pin_1-Pad1)*%
X163068000Y-109310000D03*
%TO.P,J9,2,Pin_2*%
%TO.N,unconnected-(J9-Pin_2-Pad2)*%
X163068000Y-105410000D03*
%TO.P,J9,3,Pin_3*%
%TO.N,+3.3V*%
X164338000Y-109310000D03*
%TO.P,J9,4,Pin_4*%
%TO.N,SWDIO*%
X164338000Y-105410000D03*
%TO.P,J9,5,Pin_5*%
%TO.N,GND*%
X165608000Y-109310000D03*
%TO.P,J9,6,Pin_6*%
%TO.N,SWCLK*%
X165608000Y-105410000D03*
%TO.P,J9,7,Pin_7*%
%TO.N,GND*%
X166878000Y-109310000D03*
%TO.P,J9,8,Pin_8*%
%TO.N,SWO*%
X166878000Y-105410000D03*
%TO.P,J9,9,Pin_9*%
%TO.N,SWCLK*%
X168148000Y-109310000D03*
%TO.P,J9,10,Pin_10*%
%TO.N,JTDI*%
X168148000Y-105410000D03*
%TO.P,J9,11,Pin_11*%
%TO.N,GND*%
X169418000Y-109310000D03*
%TO.P,J9,12,Pin_12*%
%TO.N,JTRST*%
X169418000Y-105410000D03*
%TO.P,J9,13,Pin_13*%
%TO.N,unconnected-(J9-Pin_13-Pad13)*%
X170688000Y-109310000D03*
%TO.P,J9,14,Pin_14*%
%TO.N,unconnected-(J9-Pin_14-Pad14)*%
X170688000Y-105410000D03*
%TD*%
D59*
%TO.P,J6,1,Pin_1*%
%TO.N,unconnected-(J6-Pin_1-Pad1)*%
X113538000Y-96520000D03*
%TO.P,J6,2,Pin_2*%
%TO.N,unconnected-(J6-Pin_2-Pad2)*%
X113538000Y-97790000D03*
%TO.P,J6,3,Pin_3*%
%TO.N,5V_ISO*%
X113538000Y-99060000D03*
%TO.P,J6,4,Pin_4*%
%TO.N,CAN_IN+*%
X113538000Y-100330000D03*
%TO.P,J6,5,Pin_5*%
%TO.N,CAN_IN-*%
X113538000Y-101600000D03*
%TO.P,J6,6,Pin_6*%
%TO.N,GND_ISO*%
X113538000Y-102870000D03*
%TO.P,J6,7,Pin_7*%
%TO.N,unconnected-(J6-Pin_7-Pad7)*%
X113538000Y-104140000D03*
%TO.P,J6,8,Pin_8*%
%TO.N,unconnected-(J6-Pin_8-Pad8)*%
X113538000Y-105410000D03*
D60*
%TO.P,J6,9,Pin_9*%
%TO.N,GND_ISO*%
X97608000Y-100965000D03*
%TD*%
D12*
%TO.P,J5,1,Pin_1*%
%TO.N,Net-(J5-Pin_1)*%
X208883250Y-62992000D03*
%TD*%
%TO.P,J4,1,Pin_1*%
%TO.N,Net-(J4-Pin_1)*%
X169297350Y-63042799D03*
%TD*%
%TO.P,J3,1,Pin_1*%
%TO.N,Net-(J3-Pin_1)*%
X129635250Y-62991999D03*
%TD*%
D61*
%TO.P,J2,A1,GND*%
%TO.N,GND1*%
X204547000Y-104371500D03*
%TO.P,J2,A4,VBUS*%
%TO.N,Net-(U7-VBUS1)*%
X205347000Y-104371500D03*
D62*
%TO.P,J2,A5,CC1*%
%TO.N,Net-(J2-CC1)*%
X206647000Y-104475000D03*
%TO.P,J2,A6,D+*%
%TO.N,Net-(J2-D+-PadA6)*%
X207647000Y-104475000D03*
%TO.P,J2,A7,D-*%
%TO.N,Net-(J2-D--PadA7)*%
X208147000Y-104475000D03*
%TO.P,J2,A8,SBU1*%
%TO.N,unconnected-(J2-SBU1-PadA8)*%
X209147000Y-104475000D03*
D61*
%TO.P,J2,A9,VBUS*%
%TO.N,Net-(U7-VBUS1)*%
X210447000Y-104371500D03*
%TO.P,J2,A12,GND*%
%TO.N,GND1*%
X211247000Y-104371500D03*
%TO.P,J2,B1,GND*%
X210947000Y-104371500D03*
%TO.P,J2,B4,VBUS*%
%TO.N,Net-(U7-VBUS1)*%
X210147000Y-104371500D03*
D62*
%TO.P,J2,B5,CC2*%
%TO.N,Net-(J2-CC2)*%
X209647000Y-104475000D03*
%TO.P,J2,B6,D+*%
%TO.N,Net-(J2-D+-PadA6)*%
X208647000Y-104475000D03*
%TO.P,J2,B7,D-*%
%TO.N,Net-(J2-D--PadA7)*%
X207147000Y-104475000D03*
%TO.P,J2,B8,SBU2*%
%TO.N,unconnected-(J2-SBU2-PadB8)*%
X206147000Y-104475000D03*
D61*
%TO.P,J2,B9,VBUS*%
%TO.N,Net-(U7-VBUS1)*%
X205647000Y-104371500D03*
%TO.P,J2,B12,GND*%
%TO.N,GND1*%
X204847000Y-104371500D03*
D63*
%TO.P,J2,S1,SHIELD*%
X203577000Y-105040000D03*
D64*
X203577000Y-109220000D03*
D63*
X212217000Y-105040000D03*
D64*
X212217000Y-109220000D03*
%TD*%
D65*
%TO.P,J1,1,1*%
%TO.N,SPI_MISO_+*%
X142284000Y-97984000D03*
%TO.P,J1,2,2*%
%TO.N,GND*%
X141784000Y-97984000D03*
%TO.P,J1,3,3*%
%TO.N,SPI_MISO_-*%
X141284000Y-97984000D03*
%TO.P,J1,4,4*%
%TO.N,SPI_MOSI_+*%
X140784000Y-97984000D03*
%TO.P,J1,5,5*%
%TO.N,GND*%
X140284000Y-97984000D03*
%TO.P,J1,6,6*%
%TO.N,SPI_MOSI_-*%
X139784000Y-97984000D03*
%TO.P,J1,7,7*%
%TO.N,SPI_SCK_+*%
X139284000Y-97984000D03*
%TO.P,J1,8,8*%
%TO.N,GND*%
X138784000Y-97984000D03*
%TO.P,J1,9,9*%
%TO.N,SPI_SCK_-*%
X138284000Y-97984000D03*
%TO.P,J1,10,10*%
%TO.N,SPI_nSS_+*%
X137784000Y-97984000D03*
%TO.P,J1,11,11*%
%TO.N,GND*%
X137284000Y-97984000D03*
%TO.P,J1,12,12*%
%TO.N,SPI_nSS_-*%
X136784000Y-97984000D03*
%TO.P,J1,13,13*%
%TO.N,+3.3V*%
X136284000Y-97984000D03*
%TO.P,J1,14,14*%
X135784000Y-97984000D03*
%TO.P,J1,15,15*%
X135284000Y-97984000D03*
%TO.P,J1,16,16*%
X134784000Y-97984000D03*
%TO.P,J1,17,17*%
%TO.N,unconnected-(J1-Pad17)*%
X134284000Y-97984000D03*
%TO.P,J1,18,18*%
%TO.N,unconnected-(J1-Pad18)*%
X133784000Y-97984000D03*
%TO.P,J1,19,19*%
%TO.N,GND*%
X133284000Y-97984000D03*
%TO.P,J1,20,20*%
%TO.N,+3.3V*%
X132784000Y-97984000D03*
D66*
%TO.P,J1,S1,SHIELD*%
%TO.N,GND*%
X128534000Y-100584000D03*
%TO.P,J1,S2,SHIELD*%
X145034000Y-100584000D03*
D67*
%TO.P,J1,S3,SHIELD*%
X128534000Y-107364000D03*
%TO.P,J1,S4,SHIELD*%
X145034000Y-107364000D03*
%TD*%
D68*
%TO.P,FB1,1*%
%TO.N,+3.3V*%
X160223000Y-100457000D03*
%TO.P,FB1,2*%
%TO.N,Net-(U2-VDDA)*%
X161798000Y-100457000D03*
%TD*%
D69*
%TO.P,D7,1,K*%
%TO.N,Net-(D7-K)*%
X177361850Y-53898800D03*
%TO.P,D7,2,A*%
%TO.N,+12V*%
X177361850Y-49898800D03*
%TD*%
%TO.P,D6,1,K*%
%TO.N,Net-(D6-K)*%
X137775950Y-53949600D03*
%TO.P,D6,2,A*%
%TO.N,+12V*%
X137775950Y-49949600D03*
%TD*%
D70*
%TO.P,D5,1,K*%
%TO.N,Net-(D5-K)*%
X148024000Y-92202000D03*
%TO.P,D5,2,A*%
%TO.N,GND*%
X141224000Y-92202000D03*
%TD*%
D71*
%TO.P,D4,1,K*%
%TO.N,Net-(D4-K)*%
X208104500Y-96266000D03*
%TO.P,D4,2,A*%
%TO.N,Net-(D4-A)*%
X209979500Y-96266000D03*
%TD*%
%TO.P,D3,1,K*%
%TO.N,Net-(D3-K)*%
X208104500Y-93980000D03*
%TO.P,D3,2,A*%
%TO.N,Net-(D3-A)*%
X209979500Y-93980000D03*
%TD*%
%TO.P,D2,1,K*%
%TO.N,Net-(D2-K)*%
X208104500Y-91948000D03*
%TO.P,D2,2,A*%
%TO.N,Net-(D2-A)*%
X209979500Y-91948000D03*
%TD*%
D69*
%TO.P,D1,1,K*%
%TO.N,Net-(D1-K)*%
X98113850Y-53898800D03*
%TO.P,D1,2,A*%
%TO.N,+12V*%
X98113850Y-49898800D03*
%TD*%
D72*
%TO.P,C66,1*%
%TO.N,5V_ISO*%
X118618000Y-93624400D03*
%TO.P,C66,2*%
%TO.N,GND_ISO*%
X118618000Y-92074400D03*
%TD*%
D73*
%TO.P,C65,1*%
%TO.N,+3.3V*%
X118618000Y-107619200D03*
%TO.P,C65,2*%
%TO.N,GND*%
X118618000Y-109169200D03*
%TD*%
D22*
%TO.P,C64,1*%
%TO.N,GND*%
X183991250Y-70084000D03*
%TO.P,C64,2*%
%TO.N,VBUS*%
X183991250Y-75184000D03*
%TD*%
%TO.P,C63,1*%
%TO.N,GND*%
X189985650Y-70084000D03*
%TO.P,C63,2*%
%TO.N,VBUS*%
X189985650Y-75184000D03*
%TD*%
%TO.P,C62,1*%
%TO.N,GND*%
X144405351Y-70134800D03*
%TO.P,C62,2*%
%TO.N,VBUS*%
X144405351Y-75234800D03*
%TD*%
%TO.P,C61,1*%
%TO.N,GND*%
X150399750Y-70134800D03*
%TO.P,C61,2*%
%TO.N,VBUS*%
X150399750Y-75234800D03*
%TD*%
%TO.P,C60,1*%
%TO.N,GND*%
X104743251Y-70084000D03*
%TO.P,C60,2*%
%TO.N,VBUS*%
X104743251Y-75184000D03*
%TD*%
%TO.P,C59,1*%
%TO.N,GND*%
X110737650Y-70084000D03*
%TO.P,C59,2*%
%TO.N,VBUS*%
X110737650Y-75184000D03*
%TD*%
D10*
%TO.P,C55,1*%
%TO.N,GND*%
X212058250Y-43002200D03*
%TO.P,C55,2*%
%TO.N,+5V*%
X210158250Y-43002200D03*
%TD*%
D74*
%TO.P,C54,1*%
%TO.N,GND*%
X183883000Y-92862400D03*
%TO.P,C54,2*%
%TO.N,/MCU/ADC2_IN12*%
X185433000Y-92862400D03*
%TD*%
D22*
%TO.P,C53,1*%
%TO.N,GND*%
X196030850Y-70084000D03*
%TO.P,C53,2*%
%TO.N,VBUS*%
X196030850Y-75184000D03*
%TD*%
D75*
%TO.P,C52,1*%
%TO.N,Net-(Q10-D)*%
X175685450Y-58420000D03*
%TO.P,C52,2*%
%TO.N,Net-(D7-K)*%
X175685450Y-56520000D03*
%TD*%
D22*
%TO.P,C51,1*%
%TO.N,GND*%
X202025250Y-70084000D03*
%TO.P,C51,2*%
%TO.N,VBUS*%
X202025250Y-75184000D03*
%TD*%
D76*
%TO.P,C49,1*%
%TO.N,GND*%
X175533050Y-60198000D03*
%TO.P,C49,2*%
%TO.N,+12V*%
X175533050Y-63148000D03*
%TD*%
D10*
%TO.P,C47,1*%
%TO.N,GND*%
X172472350Y-43053000D03*
%TO.P,C47,2*%
%TO.N,+5V*%
X170572350Y-43053000D03*
%TD*%
D73*
%TO.P,C46,1*%
%TO.N,GND*%
X189052200Y-96949900D03*
%TO.P,C46,2*%
%TO.N,/MCU/ADC2_IN10*%
X189052200Y-98499900D03*
%TD*%
D22*
%TO.P,C45,1*%
%TO.N,GND*%
X156444950Y-70134800D03*
%TO.P,C45,2*%
%TO.N,VBUS*%
X156444950Y-75234800D03*
%TD*%
D75*
%TO.P,C44,1*%
%TO.N,Net-(Q12-D)*%
X136099550Y-58470801D03*
%TO.P,C44,2*%
%TO.N,Net-(D6-K)*%
X136099550Y-56570801D03*
%TD*%
D22*
%TO.P,C43,1*%
%TO.N,GND*%
X162439350Y-70134800D03*
%TO.P,C43,2*%
%TO.N,VBUS*%
X162439350Y-75234800D03*
%TD*%
D76*
%TO.P,C41,1*%
%TO.N,GND*%
X135947150Y-60248801D03*
%TO.P,C41,2*%
%TO.N,+12V*%
X135947150Y-63198801D03*
%TD*%
D77*
%TO.P,C40,1*%
%TO.N,GND*%
X175260000Y-89103200D03*
%TO.P,C40,2*%
%TO.N,/MCU/ADC2_IN5*%
X173710000Y-89103200D03*
%TD*%
D78*
%TO.P,C39,1*%
%TO.N,+3.3V*%
X160909000Y-87628000D03*
%TO.P,C39,2*%
%TO.N,GND*%
X160909000Y-93853000D03*
%TD*%
D79*
%TO.P,C38,1*%
%TO.N,+5V*%
X196469000Y-90805000D03*
%TO.P,C38,2*%
%TO.N,GND*%
X196469000Y-84580000D03*
%TD*%
D80*
%TO.P,C37,1*%
%TO.N,+12V*%
X177417000Y-89662000D03*
%TO.P,C37,2*%
%TO.N,GND*%
X183642000Y-89662000D03*
%TD*%
%TO.P,C36,1*%
%TO.N,+12V*%
X177417000Y-84836000D03*
%TO.P,C36,2*%
%TO.N,GND*%
X183642000Y-84836000D03*
%TD*%
%TO.P,C35,1*%
%TO.N,+12V*%
X177417000Y-79994000D03*
%TO.P,C35,2*%
%TO.N,GND*%
X183642000Y-79994000D03*
%TD*%
D75*
%TO.P,C34,1*%
%TO.N,GND*%
X167005000Y-98039000D03*
%TO.P,C34,2*%
%TO.N,+3.3V*%
X167005000Y-96139000D03*
%TD*%
%TO.P,C33,1*%
%TO.N,GND*%
X169291000Y-98039000D03*
%TO.P,C33,2*%
%TO.N,+12V*%
X169291000Y-96139000D03*
%TD*%
D11*
%TO.P,C32,1*%
%TO.N,GND*%
X190246000Y-80518000D03*
%TO.P,C32,2*%
%TO.N,+5V*%
X190246000Y-82418000D03*
%TD*%
%TO.P,C31,1*%
%TO.N,GND*%
X187960000Y-80518000D03*
%TO.P,C31,2*%
%TO.N,+12V*%
X187960000Y-82418000D03*
%TD*%
D81*
%TO.P,C30,1*%
%TO.N,GND*%
X152654000Y-93365000D03*
%TO.P,C30,2*%
%TO.N,VBUS*%
X152654000Y-88265000D03*
%TD*%
D10*
%TO.P,C28,1*%
%TO.N,GND*%
X132810250Y-43002200D03*
%TO.P,C28,2*%
%TO.N,+5V*%
X130910250Y-43002200D03*
%TD*%
D75*
%TO.P,C18,1*%
%TO.N,GND1*%
X197866000Y-110363000D03*
%TO.P,C18,2*%
%TO.N,Net-(JP4-A)*%
X197866000Y-108463000D03*
%TD*%
D10*
%TO.P,C17,1*%
%TO.N,GND1*%
X202311000Y-94869000D03*
%TO.P,C17,2*%
%TO.N,Net-(U7-VBUS1)*%
X200411000Y-94869000D03*
%TD*%
D23*
%TO.P,C16,1*%
%TO.N,GND*%
X195199000Y-94869000D03*
%TO.P,C16,2*%
%TO.N,+3.3V*%
X197099000Y-94869000D03*
%TD*%
%TO.P,C14,1*%
%TO.N,GND*%
X174071200Y-94691200D03*
%TO.P,C14,2*%
%TO.N,Net-(U2-VDDA)*%
X175971200Y-94691200D03*
%TD*%
D72*
%TO.P,C13,1*%
%TO.N,+3.3V*%
X157454000Y-97790000D03*
%TO.P,C13,2*%
%TO.N,GND*%
X157454000Y-96240000D03*
%TD*%
D74*
%TO.P,C12,1*%
%TO.N,+3.3V*%
X157454000Y-108458000D03*
%TO.P,C12,2*%
%TO.N,GND*%
X159004000Y-108458000D03*
%TD*%
D72*
%TO.P,C10,1*%
%TO.N,GND_ISO*%
X126238000Y-93599000D03*
%TO.P,C10,2*%
%TO.N,Net-(C10-Pad2)*%
X126238000Y-92049000D03*
%TD*%
D75*
%TO.P,C9,1*%
%TO.N,GND*%
X180594000Y-108834000D03*
%TO.P,C9,2*%
%TO.N,+3.3V*%
X180594000Y-106934000D03*
%TD*%
%TO.P,C8,1*%
%TO.N,GND*%
X182626000Y-108834000D03*
%TO.P,C8,2*%
%TO.N,+3.3V*%
X182626000Y-106934000D03*
%TD*%
%TO.P,C7,1*%
%TO.N,GND*%
X156845000Y-92451000D03*
%TO.P,C7,2*%
%TO.N,+3.3V*%
X156845000Y-90551000D03*
%TD*%
D23*
%TO.P,C6,1*%
%TO.N,GND*%
X158247000Y-104521000D03*
%TO.P,C6,2*%
%TO.N,+3.3V*%
X160147000Y-104521000D03*
%TD*%
D22*
%TO.P,C5,1*%
%TO.N,GND*%
X116782850Y-70084000D03*
%TO.P,C5,2*%
%TO.N,VBUS*%
X116782850Y-75184000D03*
%TD*%
%TO.P,C4,1*%
%TO.N,GND*%
X122777250Y-70084000D03*
%TO.P,C4,2*%
%TO.N,VBUS*%
X122777250Y-75184000D03*
%TD*%
D76*
%TO.P,C2,1*%
%TO.N,GND*%
X96285050Y-60198001D03*
%TO.P,C2,2*%
%TO.N,+12V*%
X96285050Y-63148001D03*
%TD*%
D75*
%TO.P,C1,1*%
%TO.N,Net-(Q1-S)*%
X96437450Y-58420001D03*
%TO.P,C1,2*%
%TO.N,Net-(D1-K)*%
X96437450Y-56520001D03*
%TD*%
D82*
%TO.N,+12V*%
X169418000Y-92111500D03*
X95885000Y-91059000D03*
%TO.N,+3.3V*%
X191135000Y-107950000D03*
%TO.N,GND*%
X100584000Y-72644000D03*
X98679000Y-72644000D03*
X99568000Y-72644000D03*
X97790000Y-72644000D03*
X96774000Y-72644000D03*
%TO.N,+12V*%
X177546000Y-47752000D03*
X137668000Y-47752000D03*
%TO.N,VBUS*%
X150114000Y-86477000D03*
%TO.N,GND*%
X133604000Y-82296000D03*
X133604000Y-83312000D03*
X133604000Y-84328000D03*
X134620000Y-84328000D03*
X134620000Y-83312000D03*
X134620000Y-82296000D03*
X135890000Y-82296000D03*
X135890000Y-83312000D03*
X135890000Y-84328000D03*
X136906000Y-84328000D03*
X136906000Y-83312000D03*
X136906000Y-82296000D03*
X137922000Y-82296000D03*
X137922000Y-83312000D03*
X137922000Y-84328000D03*
X139954000Y-84328000D03*
X139954000Y-83312000D03*
X139954000Y-82296000D03*
X140970000Y-82296000D03*
X140970000Y-83312000D03*
X140970000Y-84328000D03*
X169672000Y-99402500D03*
%TO.N,Net-(U17-OVP)*%
X136144000Y-92202000D03*
%TO.N,+12V*%
X136652000Y-76708000D03*
X136398000Y-64516000D03*
%TO.N,+5V*%
X210312000Y-90170000D03*
X209042000Y-43688000D03*
%TO.N,/MCU/ADC1_IN2*%
X175514000Y-44958000D03*
%TO.N,/MCU/ADC1_IN1*%
X133858000Y-44912300D03*
%TO.N,+5V*%
X169164000Y-43434000D03*
X129635250Y-43434000D03*
%TO.N,Net-(Q10-D)*%
X189230000Y-92964000D03*
%TO.N,GND1*%
X212344000Y-99822000D03*
X210820000Y-99822000D03*
%TO.N,Net-(U7-VBUS1)*%
X204724000Y-106934000D03*
X210058000Y-106426000D03*
%TO.N,GND*%
X185928000Y-108204000D03*
%TO.N,VREF_OUT*%
X185170533Y-96012000D03*
%TO.N,+5V*%
X193040000Y-90342500D03*
X160528000Y-90424000D03*
%TO.N,VBUS*%
X172212000Y-83820000D03*
X173228000Y-92328497D03*
%TO.N,Net-(U2-VDDA)*%
X163068000Y-93980000D03*
X174969632Y-93860676D03*
%TO.N,GND*%
X179324000Y-100584000D03*
X175260000Y-100584000D03*
X175260000Y-102616000D03*
X179324000Y-102616000D03*
X176276000Y-100584000D03*
X178308000Y-100584000D03*
X177292000Y-100584000D03*
X178308000Y-102616000D03*
X176276000Y-102616000D03*
X177292000Y-102616000D03*
%TO.N,+3.3V*%
X156972000Y-88138000D03*
%TO.N,GND*%
X151892000Y-99395500D03*
X152654000Y-90678000D03*
X156972000Y-93726000D03*
%TO.N,/DC INPUT/nPGD*%
X127508000Y-91440000D03*
%TO.N,/DC INPUT/EN*%
X171958000Y-98044000D03*
%TO.N,NSRST*%
X202946000Y-86614000D03*
X203962000Y-101600000D03*
X182118000Y-101600000D03*
%TO.N,GND*%
X189148500Y-100584000D03*
%TO.N,/MCU/SPI1_MISO*%
X150622000Y-95563500D03*
X149352000Y-103632000D03*
%TO.N,/MCU/SPI1_NSS*%
X154432000Y-108458000D03*
X154432000Y-100076000D03*
%TO.N,/MCU/ADC1_IN1*%
X180086000Y-91522000D03*
X135382000Y-91186000D03*
%TO.N,VREF_OUT*%
X135890000Y-45466000D03*
%TO.N,/MCU/ADC1_IN3*%
X183401533Y-91521500D03*
%TO.N,VREF_OUT*%
X180848000Y-90932000D03*
X212388997Y-89408000D03*
%TO.N,+3.3V*%
X213106000Y-98044000D03*
%TO.N,/MCU/ADC1_IN3*%
X213278500Y-89408000D03*
%TO.N,VREF_OUT*%
X173736000Y-45720000D03*
%TO.N,/MCU/ADC1_IN3*%
X213868000Y-45212000D03*
%TO.N,VREF_OUT*%
X213106000Y-45720000D03*
%TO.N,Net-(Q1-S)*%
X128524000Y-87203500D03*
X169418000Y-87884000D03*
%TO.N,Net-(Q12-D)*%
X163830000Y-86360000D03*
X183896000Y-86614000D03*
X185674000Y-102362000D03*
%TO.N,+3.3V*%
X198628000Y-86106000D03*
%TO.N,GND*%
X209550000Y-74930000D03*
%TO.N,CAN_RX*%
X213614000Y-69342000D03*
%TO.N,Net-(D4-K)*%
X190581500Y-95250000D03*
%TO.N,Net-(D3-K)*%
X190246000Y-94234000D03*
X173786410Y-108072090D03*
%TO.N,Net-(D4-K)*%
X172897840Y-108280160D03*
%TO.N,JTRST*%
X172466000Y-105918000D03*
X176784000Y-107950000D03*
%TO.N,/MCU/USB_DP*%
X183143254Y-103009877D03*
%TO.N,/MCU/USB_DM*%
X183120901Y-103899099D03*
%TO.N,/MCU/USB_DP*%
X164846000Y-101161500D03*
%TO.N,/MCU/USB_DM*%
X165831154Y-101161500D03*
%TO.N,/MCU/TIM_CH3*%
X176530000Y-65532000D03*
X166720657Y-101161500D03*
%TO.N,/MCU/TIM_CH2*%
X141003595Y-89264202D03*
X167640000Y-89408000D03*
X167610160Y-101161500D03*
%TO.N,/MCU/TIM_CH1*%
X160020000Y-102108000D03*
X105692500Y-101539471D03*
%TO.N,Net-(D2-K)*%
X207010000Y-91948000D03*
X207990160Y-100111840D03*
X171196000Y-100871500D03*
%TO.N,+3.3V*%
X118618000Y-106680000D03*
%TO.N,GND*%
X140208000Y-89662000D03*
X139192000Y-92456000D03*
X141986000Y-100076000D03*
X140208000Y-95676500D03*
X138684000Y-95676500D03*
X137160000Y-95676500D03*
X118618000Y-110490000D03*
X116840000Y-110490000D03*
%TO.N,+5V*%
X100330000Y-96266000D03*
%TO.N,+12V*%
X177196750Y-78232000D03*
%TO.N,/MCU/TIM_CH3N*%
X179070000Y-65532000D03*
%TO.N,/MCU/TIM_CH2*%
X138556497Y-65532000D03*
%TO.N,/MCU/TIM_CH2N*%
X139446000Y-65532000D03*
X140462000Y-76962000D03*
X178944000Y-80264000D03*
%TO.N,/MCU/TIM_CH3N*%
X177594500Y-95531713D03*
%TO.N,/MCU/TIM_CH2N*%
X177884500Y-94646498D03*
%TO.N,GND*%
X126238000Y-106934000D03*
%TO.N,+3.3V*%
X134620000Y-95504000D03*
%TO.N,SPI_MISO_+*%
X157226000Y-102108000D03*
%TO.N,SPI_MISO_-*%
X157226000Y-100584000D03*
X146816128Y-99478109D03*
%TO.N,SPI_MISO_+*%
X146775325Y-100366675D03*
%TO.N,+12V*%
X172720000Y-81280000D03*
X143510000Y-81280000D03*
%TO.N,GND*%
X185420000Y-80010000D03*
X185420000Y-84836000D03*
X185420000Y-89662000D03*
%TO.N,+12V*%
X187706000Y-88900000D03*
X169418000Y-89662000D03*
X179578000Y-89154000D03*
%TO.N,GND*%
X171704000Y-109138500D03*
%TO.N,+3.3V*%
X161798000Y-107777500D03*
%TO.N,/MCU/SPI1_MOSI*%
X148082000Y-106774500D03*
X178308000Y-106598500D03*
%TO.N,GND1*%
X207010000Y-97282000D03*
X203454000Y-96266000D03*
%TO.N,Net-(J2-D--PadA7)*%
X208026000Y-106172000D03*
X208534000Y-103378000D03*
%TO.N,GND1*%
X199136000Y-109220000D03*
%TO.N,Net-(JP4-A)*%
X202946000Y-107442000D03*
X203200000Y-102870000D03*
%TO.N,Net-(JP4-C)*%
X203200000Y-100838000D03*
X195326000Y-100838000D03*
%TO.N,+3.3V*%
X198628000Y-94742000D03*
%TO.N,GND*%
X193802000Y-94996000D03*
X189230000Y-96012000D03*
X190246000Y-104648000D03*
%TO.N,+3.3V*%
X193802000Y-100838000D03*
%TO.N,5V_ISO*%
X104648000Y-99060000D03*
X104394000Y-110490000D03*
%TO.N,+5V*%
X100076000Y-110490000D03*
%TO.N,GND*%
X110998000Y-110490000D03*
%TO.N,+12V*%
X98044000Y-47752000D03*
X97536000Y-64516000D03*
%TO.N,/MCU/TIM_CH1*%
X98552000Y-67564000D03*
%TO.N,/MCU/TIM_CH1N*%
X99448650Y-67564000D03*
X108204000Y-103632000D03*
X183215500Y-105156000D03*
%TO.N,+3.3V*%
X182626000Y-105918000D03*
%TO.N,GND*%
X182626000Y-109982000D03*
X180594000Y-109982000D03*
%TO.N,/CAN/CAN_TX*%
X123698000Y-109728000D03*
%TO.N,CAN_RX*%
X121158000Y-110490000D03*
X178562000Y-110490000D03*
%TO.N,/CAN/CAN_TX*%
X179070000Y-109728000D03*
%TO.N,/MCU/SPI1_SCK*%
X184150000Y-107188000D03*
X146812000Y-107953500D03*
%TO.N,SPI_MOSI_+*%
X149352000Y-106680000D03*
%TO.N,SPI_MOSI_-*%
X150622000Y-106680000D03*
X140194500Y-104394000D03*
%TO.N,SPI_MOSI_+*%
X140970000Y-105156000D03*
%TO.N,SPI_nSS_-*%
X134492497Y-107950000D03*
%TO.N,SPI_nSS_+*%
X135382000Y-107950000D03*
%TO.N,SPI_SCK_-*%
X138556497Y-107950000D03*
%TO.N,SPI_SCK_+*%
X139446000Y-107950000D03*
X148082000Y-108204000D03*
%TO.N,SPI_SCK_-*%
X149352000Y-108712000D03*
%TO.N,SPI_nSS_-*%
X151892000Y-108712000D03*
%TO.N,SPI_nSS_+*%
X152908000Y-107777500D03*
%TO.N,GND*%
X160020000Y-108458000D03*
%TO.N,+3.3V*%
X155956000Y-108458000D03*
%TO.N,Net-(U2-VDDA)*%
X162814000Y-100330000D03*
%TO.N,+3.3V*%
X161290000Y-104394000D03*
%TO.N,GND*%
X157226000Y-104394000D03*
X155702000Y-103378000D03*
%TO.N,+3.3V*%
X146812000Y-95504000D03*
X150622000Y-100330000D03*
X157480000Y-99395500D03*
%TO.N,GND*%
X157480000Y-94996000D03*
%TO.N,+5V*%
X160492160Y-95793840D03*
%TO.N,GND*%
X162052000Y-95758000D03*
%TO.N,+3.3V*%
X163576000Y-95758000D03*
%TO.N,GND*%
X165100000Y-95504000D03*
X170434000Y-89743500D03*
X176784000Y-87376000D03*
X196342000Y-82804000D03*
X187960000Y-79248000D03*
X190246000Y-79248000D03*
X192532000Y-82550000D03*
%TO.N,VBUS*%
X199898000Y-76708000D03*
X200914000Y-76708000D03*
X201930000Y-76708000D03*
X203962000Y-76708000D03*
X202946000Y-76708000D03*
X194056000Y-76708000D03*
X195072000Y-76708000D03*
X196088000Y-76708000D03*
X198120000Y-76708000D03*
X197104000Y-76708000D03*
X187960000Y-76708000D03*
X188976000Y-76708000D03*
X189992000Y-76708000D03*
X192024000Y-76708000D03*
X191008000Y-76708000D03*
X182118000Y-76708000D03*
X183134000Y-76708000D03*
X184150000Y-76708000D03*
X186182000Y-76708000D03*
X185166000Y-76708000D03*
X160274000Y-76708000D03*
X161290000Y-76708000D03*
X162306000Y-76708000D03*
X164338000Y-76708000D03*
X163322000Y-76708000D03*
X154432000Y-76708000D03*
X155448000Y-76708000D03*
X156464000Y-76708000D03*
X158496000Y-76708000D03*
X157480000Y-76708000D03*
X148336000Y-76708000D03*
X149352000Y-76708000D03*
X150368000Y-76708000D03*
X152400000Y-76708000D03*
X151384000Y-76708000D03*
X142494000Y-76708000D03*
X143510000Y-76708000D03*
X144526000Y-76708000D03*
X146558000Y-76708000D03*
X145542000Y-76708000D03*
X120650000Y-76708000D03*
X121666000Y-76708000D03*
X122682000Y-76708000D03*
X124714000Y-76708000D03*
X123698000Y-76708000D03*
X114808000Y-76708000D03*
X115824000Y-76708000D03*
X116840000Y-76708000D03*
X118872000Y-76708000D03*
X117856000Y-76708000D03*
X108712000Y-76708000D03*
X109728000Y-76708000D03*
X110744000Y-76708000D03*
X112776000Y-76708000D03*
X111760000Y-76708000D03*
X106680000Y-76708000D03*
X105664000Y-76708000D03*
X103632000Y-76708000D03*
X102616000Y-76708000D03*
X104648000Y-76708000D03*
X126492000Y-78486000D03*
X125476000Y-78486000D03*
X127508000Y-78486000D03*
X124460000Y-78486000D03*
X123444000Y-78486000D03*
X121412000Y-78486000D03*
X120396000Y-78486000D03*
X122428000Y-78486000D03*
X126492000Y-79502000D03*
X125476000Y-79502000D03*
X127508000Y-79502000D03*
X124460000Y-79502000D03*
X123444000Y-79502000D03*
X121412000Y-79502000D03*
X120396000Y-79502000D03*
X122428000Y-79502000D03*
X126492000Y-80518000D03*
X125476000Y-80518000D03*
X127508000Y-80518000D03*
X124460000Y-80518000D03*
X123444000Y-80518000D03*
X121412000Y-80518000D03*
X120396000Y-80518000D03*
X122428000Y-80518000D03*
X126492000Y-81534000D03*
X125476000Y-81534000D03*
X127508000Y-81534000D03*
X124460000Y-81534000D03*
X123444000Y-81534000D03*
X121412000Y-81534000D03*
X120396000Y-81534000D03*
X122428000Y-81534000D03*
X126492000Y-82550000D03*
X125476000Y-82550000D03*
X127508000Y-82550000D03*
X124460000Y-82550000D03*
X123444000Y-82550000D03*
X121412000Y-82550000D03*
X120396000Y-82550000D03*
X122428000Y-82550000D03*
X126492000Y-83566000D03*
X125476000Y-83566000D03*
X127508000Y-83566000D03*
X124460000Y-83566000D03*
X123444000Y-83566000D03*
X121412000Y-83566000D03*
X120396000Y-83566000D03*
X122428000Y-83566000D03*
X127508000Y-84582000D03*
X126492000Y-84582000D03*
X125476000Y-84582000D03*
X124460000Y-84582000D03*
X123444000Y-84582000D03*
X122428000Y-84582000D03*
X121412000Y-84582000D03*
X120396000Y-84582000D03*
%TO.N,Net-(J8-Pin_1)*%
X116586000Y-88900000D03*
X125984000Y-89326500D03*
%TO.N,/DC INPUT/nPGD*%
X124968000Y-88900000D03*
%TO.N,GND*%
X122001500Y-87639633D03*
%TO.N,Net-(U17-OVP)*%
X129252471Y-89005500D03*
%TO.N,/DC INPUT/EN*%
X131572000Y-87884000D03*
X131572000Y-98806000D03*
%TO.N,+3.3V*%
X175384500Y-96938820D03*
X179563500Y-95504000D03*
%TO.N,/MCU/ADC2_IN12*%
X177152946Y-93846693D03*
X186690000Y-93472000D03*
%TO.N,VREF_OUT*%
X175935315Y-93226531D03*
X176563500Y-96520000D03*
%TO.N,GND*%
X172720000Y-94742000D03*
%TO.N,/MCU/SPI1_MISO*%
X180848000Y-96438500D03*
%TO.N,/MCU/SPI1_SCK*%
X181610000Y-97028000D03*
%TO.N,/MCU/SPI1_NSS*%
X181548957Y-98981669D03*
%TO.N,GND*%
X182118000Y-98298000D03*
X182626000Y-92964000D03*
%TO.N,/MCU/ADC1_IN3*%
X183388000Y-99314000D03*
%TO.N,/MCU/ADC1_IN2*%
X184581033Y-99491033D03*
%TO.N,/MCU/ADC1_IN1*%
X182525500Y-100692500D03*
%TO.N,GND*%
X213360000Y-43053000D03*
X173736000Y-43053000D03*
X134112000Y-42926000D03*
X179070000Y-68580000D03*
X179070000Y-69850000D03*
X179070000Y-71120000D03*
X176530000Y-67310000D03*
X176530000Y-68580000D03*
X176530000Y-69850000D03*
X176530000Y-71120000D03*
X173990000Y-67310000D03*
X173990000Y-68580000D03*
X173990000Y-69850000D03*
X173990000Y-71120000D03*
X171450000Y-68580000D03*
X171450000Y-69850000D03*
X171450000Y-71120000D03*
X168910000Y-68580000D03*
X168910000Y-69850000D03*
X168910000Y-71120000D03*
X166370000Y-68580000D03*
X166370000Y-69850000D03*
X166370000Y-71120000D03*
X139700000Y-68580000D03*
X139700000Y-69850000D03*
X139700000Y-71120000D03*
X137160000Y-67310000D03*
X137160000Y-68580000D03*
X137160000Y-69850000D03*
X137160000Y-71120000D03*
X134620000Y-67310000D03*
X134620000Y-68580000D03*
X134620000Y-69850000D03*
X134620000Y-71120000D03*
X132080000Y-68580000D03*
X132080000Y-69850000D03*
X132080000Y-71120000D03*
X129540000Y-68580000D03*
X129540000Y-69850000D03*
X129540000Y-71120000D03*
X127000000Y-68580000D03*
X127000000Y-69850000D03*
X127000000Y-71120000D03*
X135896350Y-62026800D03*
X141865350Y-60502800D03*
X142754350Y-68503800D03*
X145040350Y-65328800D03*
X155962350Y-65328800D03*
%TO.N,Net-(Q12-D)*%
X140722350Y-55549800D03*
%TO.N,GND*%
X144468850Y-71678800D03*
X143421100Y-71678800D03*
X142373350Y-71678800D03*
X145516600Y-71678800D03*
X146564350Y-71678800D03*
X151485600Y-71678800D03*
X149390100Y-71678800D03*
X152533350Y-71678800D03*
X148342350Y-71678800D03*
X150437850Y-71678800D03*
X157581600Y-71678800D03*
X155486100Y-71678800D03*
X158629350Y-71678800D03*
X154438350Y-71678800D03*
X156533850Y-71678800D03*
X163550600Y-71678800D03*
X161455100Y-71678800D03*
X164598350Y-71678800D03*
X160407350Y-71678800D03*
X162502850Y-71678800D03*
X165487350Y-43611800D03*
X96234250Y-61976000D03*
X102203250Y-60452000D03*
X103092250Y-68453000D03*
X105378250Y-65278000D03*
X116300250Y-65278000D03*
%TO.N,Net-(Q1-S)*%
X101060250Y-55499000D03*
%TO.N,GND*%
X104806750Y-71628000D03*
X103759000Y-71628000D03*
X102711250Y-71628000D03*
X105854500Y-71628000D03*
X106902250Y-71628000D03*
X111823500Y-71628000D03*
X109728000Y-71628000D03*
X112871250Y-71628000D03*
X108680250Y-71628000D03*
X110775750Y-71628000D03*
X117919500Y-71628000D03*
X115824000Y-71628000D03*
X118967250Y-71628000D03*
X114776250Y-71628000D03*
X116871750Y-71628000D03*
X123888500Y-71628000D03*
X121793000Y-71628000D03*
X124936250Y-71628000D03*
X120745250Y-71628000D03*
X122840750Y-71628000D03*
X125825250Y-43561000D03*
%TO.N,+12V*%
X177196750Y-63817500D03*
%TO.N,GND*%
X205073250Y-43561000D03*
X202088750Y-71628000D03*
X199993250Y-71628000D03*
X204184250Y-71628000D03*
X201041000Y-71628000D03*
X203136500Y-71628000D03*
X196119750Y-71628000D03*
X194024250Y-71628000D03*
X198215250Y-71628000D03*
X195072000Y-71628000D03*
X197167500Y-71628000D03*
X190023750Y-71628000D03*
X187928250Y-71628000D03*
X192119250Y-71628000D03*
X188976000Y-71628000D03*
X191071500Y-71628000D03*
X186150250Y-71628000D03*
X185102500Y-71628000D03*
X181959250Y-71628000D03*
X183007000Y-71628000D03*
X184054750Y-71628000D03*
%TO.N,Net-(Q10-D)*%
X180308250Y-55499000D03*
%TO.N,GND*%
X195548250Y-65278000D03*
X184626250Y-65278000D03*
X182340250Y-68453000D03*
X181451250Y-60452000D03*
X175482250Y-61976000D03*
%TD*%
D83*
%TO.N,+3.3V*%
X167005000Y-93930000D02*
X167005000Y-92583000D01*
D84*
X166878000Y-87630000D02*
X166497000Y-88011000D01*
X166497000Y-88011000D02*
X166497000Y-92075000D01*
X167005000Y-87630000D02*
X166878000Y-87630000D01*
X166497000Y-92075000D02*
X167005000Y-92583000D01*
D85*
X191008000Y-108077000D02*
X191135000Y-107950000D01*
X189514000Y-108077000D02*
X191008000Y-108077000D01*
%TO.N,+12V*%
X177361850Y-47936150D02*
X177546000Y-47752000D01*
X177361850Y-49898800D02*
X177361850Y-47936150D01*
X137668000Y-49841650D02*
X137668000Y-47752000D01*
X137775950Y-49949600D02*
X137668000Y-49841650D01*
D84*
%TO.N,VBUS*%
X150114000Y-86477000D02*
X146806000Y-86477000D01*
X152009000Y-86477000D02*
X150114000Y-86477000D01*
%TO.N,GND*%
X137687000Y-83077000D02*
X137656000Y-83077000D01*
X137922000Y-83312000D02*
X137687000Y-83077000D01*
X138157000Y-83077000D02*
X137922000Y-83312000D01*
X139719000Y-83077000D02*
X138157000Y-83077000D01*
X139954000Y-83312000D02*
X139719000Y-83077000D01*
X140189000Y-83077000D02*
X139954000Y-83312000D01*
X140735000Y-83077000D02*
X140189000Y-83077000D01*
X140970000Y-83312000D02*
X140735000Y-83077000D01*
X141205000Y-83077000D02*
X140970000Y-83312000D01*
D85*
X169252500Y-99402500D02*
X169672000Y-99402500D01*
X168910000Y-99060000D02*
X169252500Y-99402500D01*
%TO.N,/MCU/OPAMP2_VINP*%
X171196000Y-99782000D02*
X171196000Y-99822000D01*
X171026000Y-99992000D02*
X165778000Y-99992000D01*
X173786500Y-99782000D02*
X171196000Y-99782000D01*
X171196000Y-99822000D02*
X171026000Y-99992000D01*
X165778000Y-99992000D02*
X165568000Y-99782000D01*
%TO.N,GND*%
X169164000Y-98806000D02*
X169164000Y-98166000D01*
X168910000Y-99060000D02*
X169164000Y-98806000D01*
X167132000Y-99060000D02*
X168910000Y-99060000D01*
X169164000Y-98166000D02*
X169291000Y-98039000D01*
X167005000Y-98039000D02*
X167005000Y-98933000D01*
X167005000Y-98933000D02*
X167132000Y-99060000D01*
%TO.N,Net-(U17-OVP)*%
X136144000Y-89789000D02*
X136144000Y-92202000D01*
X136144000Y-89789000D02*
X135429000Y-89789000D01*
X137033000Y-89789000D02*
X136144000Y-89789000D01*
%TO.N,Net-(U17-UVLO)*%
X132842000Y-88900000D02*
X132842000Y-89789000D01*
X132588000Y-88646000D02*
X132842000Y-88900000D01*
X130810000Y-88505500D02*
X130950500Y-88646000D01*
X130950500Y-88646000D02*
X132588000Y-88646000D01*
X132842000Y-89789000D02*
X132000000Y-89789000D01*
X133604000Y-89789000D02*
X132842000Y-89789000D01*
%TO.N,+12V*%
X135947150Y-64065150D02*
X135947150Y-63198801D01*
X136398000Y-64516000D02*
X135947150Y-64065150D01*
X137668000Y-64516000D02*
X136398000Y-64516000D01*
X137979150Y-64204850D02*
X137668000Y-64516000D01*
X137979150Y-62026801D02*
X137979150Y-64204850D01*
%TO.N,/MCU/ADC1_IN2*%
X175458600Y-44902600D02*
X175514000Y-44958000D01*
X174442600Y-44902600D02*
X175458600Y-44902600D01*
%TO.N,/MCU/ADC1_IN1*%
X133797500Y-44851800D02*
X133858000Y-44912300D01*
X132573950Y-44851800D02*
X133797500Y-44851800D01*
%TO.N,+5V*%
X132573950Y-46801800D02*
X130971050Y-46801800D01*
X129635250Y-43434000D02*
X130067050Y-43002200D01*
X130971050Y-46801800D02*
X129635250Y-45466000D01*
X129635250Y-45466000D02*
X129635250Y-43434000D01*
X130067050Y-43002200D02*
X130910250Y-43002200D01*
X209042000Y-45466000D02*
X209042000Y-43688000D01*
X210377800Y-46801800D02*
X209042000Y-45466000D01*
X209727800Y-43002200D02*
X210158250Y-43002200D01*
X211821950Y-46801800D02*
X210377800Y-46801800D01*
X209042000Y-43688000D02*
X209727800Y-43002200D01*
X169545000Y-43053000D02*
X170572350Y-43053000D01*
X170408272Y-46852600D02*
X169164000Y-45608328D01*
X169164000Y-43434000D02*
X169545000Y-43053000D01*
X169164000Y-45608328D02*
X169164000Y-43434000D01*
X172236050Y-46852600D02*
X170408272Y-46852600D01*
%TO.N,Net-(Q10-D)*%
X189166200Y-93027800D02*
X189230000Y-92964000D01*
X189166200Y-94589600D02*
X189166200Y-93027800D01*
%TO.N,Net-(D2-A)*%
X211503500Y-91948000D02*
X209979500Y-91948000D01*
%TO.N,Net-(D3-A)*%
X211503500Y-93980000D02*
X209979500Y-93980000D01*
%TO.N,Net-(D4-A)*%
X211503500Y-96266000D02*
X209979500Y-96266000D01*
%TO.N,GND1*%
X212315000Y-99851000D02*
X212344000Y-99822000D01*
X212315000Y-101006500D02*
X212315000Y-99851000D01*
X210791000Y-99851000D02*
X210820000Y-99822000D01*
X210791000Y-101006500D02*
X210791000Y-99851000D01*
%TO.N,Net-(U7-VBUS1)*%
X204724000Y-106934000D02*
X203708000Y-106934000D01*
X203708000Y-106934000D02*
X203200000Y-106426000D01*
X210108000Y-106376000D02*
X210058000Y-106426000D01*
X210108000Y-104410500D02*
X210108000Y-106376000D01*
X210147000Y-104371500D02*
X210108000Y-104410500D01*
X205686000Y-104410500D02*
X205647000Y-104371500D01*
X205232000Y-106426000D02*
X205686000Y-105972000D01*
X205686000Y-105972000D02*
X205686000Y-104410500D01*
X202565000Y-105791000D02*
X203200000Y-106426000D01*
X203200000Y-106426000D02*
X205232000Y-106426000D01*
X201168000Y-105791000D02*
X202565000Y-105791000D01*
%TO.N,Net-(J2-CC1)*%
X202946000Y-108204000D02*
X202692000Y-108458000D01*
X206647000Y-106281000D02*
X204724000Y-108204000D01*
X202692000Y-108458000D02*
X202692000Y-108712000D01*
X206647000Y-104475000D02*
X206647000Y-106281000D01*
X204724000Y-108204000D02*
X202946000Y-108204000D01*
%TO.N,Net-(U7-VBUS1)*%
X198882000Y-103632000D02*
X198882000Y-95504000D01*
X198882000Y-105410000D02*
X198882000Y-103632000D01*
%TO.N,GND*%
X186055000Y-108077000D02*
X185928000Y-108204000D01*
X186914000Y-108077000D02*
X186055000Y-108077000D01*
%TO.N,VREF_OUT*%
X184764133Y-96418400D02*
X185170533Y-96012000D01*
X183438800Y-96418400D02*
X184764133Y-96418400D01*
%TO.N,+12V*%
X171146000Y-93930000D02*
X169305000Y-93930000D01*
X171368400Y-94152400D02*
X171146000Y-93930000D01*
X171368400Y-94627100D02*
X171368400Y-94152400D01*
%TO.N,+5V*%
X196342000Y-92456000D02*
X193040000Y-92456000D01*
X193040000Y-92456000D02*
X190500000Y-92456000D01*
X193040000Y-90342500D02*
X193040000Y-92456000D01*
%TO.N,VBUS*%
X173536034Y-92636531D02*
X173228000Y-92328497D01*
X176574031Y-92636531D02*
X173536034Y-92636531D01*
X176821500Y-92884000D02*
X176574031Y-92636531D01*
%TO.N,Net-(U2-VDDA)*%
X175800156Y-94691200D02*
X174969632Y-93860676D01*
X175971200Y-94691200D02*
X175800156Y-94691200D01*
D84*
%TO.N,GND*%
X140970000Y-92456000D02*
X141224000Y-92202000D01*
X139192000Y-92456000D02*
X140970000Y-92456000D01*
%TO.N,Net-(D5-K)*%
X144077000Y-84777000D02*
X146806000Y-84777000D01*
X143510000Y-85344000D02*
X144077000Y-84777000D01*
X148024000Y-92202000D02*
X145288000Y-92202000D01*
X145288000Y-92202000D02*
X143510000Y-90424000D01*
X143510000Y-90424000D02*
X143510000Y-85344000D01*
%TO.N,+3.3V*%
X160911000Y-87630000D02*
X167005000Y-87630000D01*
X160909000Y-87628000D02*
X160911000Y-87630000D01*
X160399000Y-88138000D02*
X160909000Y-87628000D01*
X156972000Y-88138000D02*
X160399000Y-88138000D01*
D85*
X156845000Y-88265000D02*
X156972000Y-88138000D01*
X156845000Y-90551000D02*
X156845000Y-88265000D01*
%TO.N,GND*%
X151892000Y-97028000D02*
X151892000Y-99395500D01*
X152654000Y-93365000D02*
X152654000Y-90678000D01*
X156845000Y-93599000D02*
X156972000Y-93726000D01*
X156845000Y-92451000D02*
X156845000Y-93599000D01*
%TO.N,/DC INPUT/nPGD*%
X127762000Y-91694000D02*
X127508000Y-91440000D01*
X130556000Y-94488000D02*
X127762000Y-91694000D01*
X144780000Y-94488000D02*
X130556000Y-94488000D01*
X154640101Y-94488000D02*
X144780000Y-94488000D01*
X157180101Y-97028000D02*
X154640101Y-94488000D01*
X157753899Y-97028000D02*
X157180101Y-97028000D01*
X158261899Y-97536000D02*
X157753899Y-97028000D01*
X166347746Y-97349000D02*
X166160746Y-97536000D01*
X170501000Y-97349000D02*
X166347746Y-97349000D01*
X171196000Y-98116387D02*
X171196000Y-98044000D01*
X166160746Y-97536000D02*
X158261899Y-97536000D01*
X172361613Y-99282000D02*
X171196000Y-98116387D01*
X171196000Y-98044000D02*
X170501000Y-97349000D01*
X173786500Y-99282000D02*
X172361613Y-99282000D01*
%TO.N,/DC INPUT/EN*%
X172696000Y-98782000D02*
X171958000Y-98044000D01*
X173786500Y-98782000D02*
X172696000Y-98782000D01*
%TO.N,/MCU/OPAMP2_VINP*%
X163830000Y-98603900D02*
X163677600Y-98451500D01*
X163830000Y-99568000D02*
X163830000Y-98603900D01*
X164044000Y-99782000D02*
X163830000Y-99568000D01*
X165568000Y-99782000D02*
X164044000Y-99782000D01*
X165233200Y-99447200D02*
X165233200Y-98450400D01*
X165568000Y-99782000D02*
X165233200Y-99447200D01*
%TO.N,/MCU/ADC2_IN15*%
X163830000Y-100282000D02*
X162862000Y-99314000D01*
X162862000Y-99314000D02*
X162052000Y-99314000D01*
X173786500Y-100282000D02*
X163830000Y-100282000D01*
%TO.N,NSRST*%
X201422000Y-86106000D02*
X202438000Y-86106000D01*
X202438000Y-85852000D02*
X202438000Y-86106000D01*
X202438000Y-86106000D02*
X202946000Y-86614000D01*
X182372000Y-101346000D02*
X182118000Y-101600000D01*
X182880000Y-101346000D02*
X182372000Y-101346000D01*
X183388000Y-100838000D02*
X182880000Y-101346000D01*
X183515000Y-100838000D02*
X183388000Y-100838000D01*
X181800000Y-101282000D02*
X182118000Y-101600000D01*
X180661500Y-101282000D02*
X181800000Y-101282000D01*
%TO.N,/MCU/ADC2_IN10*%
X184467254Y-100438492D02*
X185337746Y-99568000D01*
X184467254Y-101753000D02*
X184467254Y-100438492D01*
X183858254Y-102362000D02*
X184467254Y-101753000D01*
X181610000Y-102362000D02*
X183858254Y-102362000D01*
X181030000Y-101782000D02*
X181610000Y-102362000D01*
X180661500Y-101782000D02*
X181030000Y-101782000D01*
X185337746Y-99568000D02*
X187325000Y-99568000D01*
%TO.N,/MCU/ADC1_IN1*%
X181610000Y-100584000D02*
X182417000Y-100584000D01*
X181412000Y-100782000D02*
X181610000Y-100584000D01*
X182417000Y-100584000D02*
X182525500Y-100692500D01*
X180661500Y-100782000D02*
X181412000Y-100782000D01*
%TO.N,GND*%
X185687600Y-101110600D02*
X188621900Y-101110600D01*
X188621900Y-101110600D02*
X189148500Y-100584000D01*
X185415000Y-100838000D02*
X185687600Y-101110600D01*
%TO.N,/MCU/SPI1_MISO*%
X149352000Y-101978000D02*
X149352000Y-103632000D01*
%TO.N,/MCU/SPI1_NSS*%
X154432000Y-108458000D02*
X154432000Y-110236000D01*
%TO.N,VREF_OUT*%
X132573950Y-45501800D02*
X135854200Y-45501800D01*
X135854200Y-45501800D02*
X135890000Y-45466000D01*
X180848000Y-94044657D02*
X181342143Y-94538800D01*
X180848000Y-90932000D02*
X180848000Y-94044657D01*
X181342143Y-94538800D02*
X181965600Y-94538800D01*
%TO.N,+3.3V*%
X213153500Y-97996500D02*
X213106000Y-98044000D01*
X213153500Y-96266000D02*
X213153500Y-97996500D01*
X213153500Y-93980000D02*
X213153500Y-96266000D01*
X213153500Y-91948000D02*
X213153500Y-93980000D01*
%TO.N,/MCU/ADC1_IN2*%
X172236050Y-44902600D02*
X174442600Y-44902600D01*
%TO.N,VREF_OUT*%
X173568600Y-45552600D02*
X173736000Y-45720000D01*
X172236050Y-45552600D02*
X173568600Y-45552600D01*
%TO.N,/MCU/ADC1_IN3*%
X213507800Y-44851800D02*
X213868000Y-45212000D01*
X211821950Y-44851800D02*
X213507800Y-44851800D01*
%TO.N,VREF_OUT*%
X212887800Y-45501800D02*
X213106000Y-45720000D01*
X211821950Y-45501800D02*
X212887800Y-45501800D01*
%TO.N,Net-(Q1-S)*%
X169418000Y-88646000D02*
X169418000Y-87884000D01*
X169672000Y-88900000D02*
X169418000Y-88646000D01*
X171575200Y-89072000D02*
X169844000Y-89072000D01*
X169844000Y-89072000D02*
X169672000Y-88900000D01*
X171598600Y-89048600D02*
X171575200Y-89072000D01*
%TO.N,Net-(Q12-D)*%
X185802900Y-102233100D02*
X185674000Y-102362000D01*
X187325000Y-102233100D02*
X185802900Y-102233100D01*
%TO.N,NSRST*%
X205800000Y-78680000D02*
X206502000Y-78680000D01*
X202438000Y-85852000D02*
X202438000Y-82042000D01*
X202438000Y-82042000D02*
X205800000Y-78680000D01*
%TO.N,+3.3V*%
X198628000Y-85344000D02*
X198628000Y-86106000D01*
X205486000Y-73406000D02*
X205486000Y-78486000D01*
X205867000Y-73025000D02*
X205486000Y-73406000D01*
X206502000Y-73025000D02*
X205867000Y-73025000D01*
X205486000Y-78486000D02*
X198628000Y-85344000D01*
X199772000Y-86106000D02*
X198628000Y-86106000D01*
%TO.N,NSRST*%
X212502000Y-78680000D02*
X206502000Y-78680000D01*
%TO.N,GND*%
X206502000Y-74930000D02*
X212502000Y-74930000D01*
%TO.N,+3.3V*%
X212502000Y-73025000D02*
X206502000Y-73025000D01*
%TO.N,CAN_RX*%
X213614000Y-69342000D02*
X212569000Y-69342000D01*
X212569000Y-69342000D02*
X212502000Y-69275000D01*
%TO.N,Net-(D4-K)*%
X204179613Y-93254000D02*
X207191613Y-96266000D01*
X192242000Y-93254000D02*
X204179613Y-93254000D01*
X190581500Y-94914500D02*
X192242000Y-93254000D01*
X190581500Y-95250000D02*
X190581500Y-94914500D01*
%TO.N,Net-(D3-K)*%
X205486000Y-92964000D02*
X191516000Y-92964000D01*
X206502000Y-93980000D02*
X205486000Y-92964000D01*
X208104500Y-93980000D02*
X206502000Y-93980000D01*
X191516000Y-92964000D02*
X190246000Y-94234000D01*
X175474000Y-106384500D02*
X173786410Y-108072090D01*
X175474000Y-104969500D02*
X175474000Y-106384500D01*
%TO.N,JTDI*%
X174974000Y-105884000D02*
X173228000Y-107630000D01*
X174974000Y-104969500D02*
X174974000Y-105884000D01*
X173228000Y-107630000D02*
X168590000Y-107630000D01*
%TO.N,Net-(D4-K)*%
X173293680Y-108676000D02*
X172897840Y-108280160D01*
X173482000Y-108676000D02*
X173293680Y-108676000D01*
X174673939Y-108633939D02*
X174631878Y-108676000D01*
X174631878Y-108676000D02*
X173482000Y-108676000D01*
X176184000Y-107123878D02*
X174673939Y-108633939D01*
X176184000Y-107096000D02*
X176184000Y-107123878D01*
X175974000Y-105708000D02*
X176184000Y-105918000D01*
X175974000Y-104969500D02*
X175974000Y-105708000D01*
X176184000Y-105918000D02*
X176184000Y-107096000D01*
%TO.N,SWO*%
X166878000Y-107122000D02*
X166878000Y-105410000D01*
X167386000Y-107630000D02*
X166878000Y-107122000D01*
X168402000Y-107920000D02*
X168112000Y-107630000D01*
X168112000Y-107630000D02*
X167386000Y-107630000D01*
X171704000Y-107920000D02*
X168402000Y-107920000D01*
X172750000Y-108966000D02*
X171704000Y-107920000D01*
X174752000Y-108966000D02*
X172750000Y-108966000D01*
X176474000Y-104969500D02*
X176474000Y-107244000D01*
X176474000Y-107244000D02*
X174752000Y-108966000D01*
%TO.N,JTRST*%
X172466000Y-106426000D02*
X172466000Y-105918000D01*
X171704000Y-107188000D02*
X172466000Y-106426000D01*
X169672000Y-107188000D02*
X171704000Y-107188000D01*
X169418000Y-105410000D02*
X169418000Y-106934000D01*
X169418000Y-106934000D02*
X169672000Y-107188000D01*
X176974000Y-107760000D02*
X176784000Y-107950000D01*
X176974000Y-104969500D02*
X176974000Y-107760000D01*
%TO.N,JTDI*%
X168590000Y-107630000D02*
X168148000Y-107188000D01*
X168148000Y-107188000D02*
X168148000Y-105410000D01*
%TO.N,SWCLK*%
X165862000Y-107920000D02*
X165608000Y-107666000D01*
X168148000Y-108204000D02*
X167864000Y-107920000D01*
X168148000Y-109310000D02*
X168148000Y-108204000D01*
X167864000Y-107920000D02*
X165862000Y-107920000D01*
X165608000Y-107666000D02*
X165608000Y-105410000D01*
X165826000Y-103922000D02*
X165608000Y-104140000D01*
X174244000Y-105918000D02*
X173700000Y-105918000D01*
X173700000Y-105918000D02*
X171704000Y-103922000D01*
X165608000Y-104140000D02*
X165608000Y-105410000D01*
X171704000Y-103922000D02*
X165826000Y-103922000D01*
X174474000Y-105688000D02*
X174244000Y-105918000D01*
X174474000Y-104969500D02*
X174474000Y-105688000D01*
%TO.N,/MCU/USB_DM*%
X183120901Y-104126901D02*
X183120901Y-103899099D01*
X184277000Y-105283000D02*
X183120901Y-104126901D01*
X184786000Y-105283000D02*
X184277000Y-105283000D01*
%TO.N,/MCU/USB_DP*%
X183892377Y-103759000D02*
X183143254Y-103009877D01*
X184786000Y-103759000D02*
X183892377Y-103759000D01*
X164846000Y-101415500D02*
X164846000Y-101161500D01*
X172409939Y-102926061D02*
X166356561Y-102926061D01*
X172765878Y-103282000D02*
X172409939Y-102926061D01*
X166356561Y-102926061D02*
X164846000Y-101415500D01*
X173786500Y-103282000D02*
X172765878Y-103282000D01*
%TO.N,/MCU/USB_DM*%
X167241654Y-102572000D02*
X165831154Y-101161500D01*
X172676000Y-102782000D02*
X172466000Y-102572000D01*
X172466000Y-102572000D02*
X167241654Y-102572000D01*
X173786500Y-102782000D02*
X172676000Y-102782000D01*
%TO.N,/MCU/TIM_CH3*%
X176530000Y-65532000D02*
X178180497Y-65532000D01*
X167841157Y-102282000D02*
X166720657Y-101161500D01*
X173786500Y-102282000D02*
X167841157Y-102282000D01*
%TO.N,/MCU/TIM_CH2*%
X173786500Y-101782000D02*
X168230660Y-101782000D01*
X168230660Y-101782000D02*
X167610160Y-101161500D01*
%TO.N,/MCU/TIM_CH1*%
X171768000Y-101282000D02*
X171704000Y-101346000D01*
X173786500Y-101282000D02*
X171768000Y-101282000D01*
X171588500Y-101461500D02*
X171704000Y-101346000D01*
X168783500Y-101461500D02*
X171588500Y-101461500D01*
X167894000Y-100572000D02*
X168783500Y-101461500D01*
X164096000Y-100572000D02*
X167894000Y-100572000D01*
X163830000Y-100838000D02*
X164096000Y-100572000D01*
X163546000Y-101122000D02*
X163830000Y-100838000D01*
X160752000Y-101122000D02*
X161748560Y-101122000D01*
X160020000Y-101854000D02*
X160752000Y-101122000D01*
X160020000Y-102108000D02*
X160020000Y-101854000D01*
X161748560Y-101122000D02*
X163546000Y-101122000D01*
%TO.N,Net-(D2-K)*%
X207010000Y-91948000D02*
X208104500Y-91948000D01*
X171285500Y-100782000D02*
X171196000Y-100871500D01*
X173786500Y-100782000D02*
X171285500Y-100782000D01*
%TO.N,+3.3V*%
X118618000Y-107619200D02*
X118618000Y-104902000D01*
%TO.N,GND*%
X131572000Y-86614000D02*
X134469000Y-86614000D01*
X134469000Y-86614000D02*
X135231000Y-85852000D01*
X140081000Y-89789000D02*
X140208000Y-89662000D01*
X138858000Y-89789000D02*
X140081000Y-89789000D01*
X141784000Y-99874000D02*
X141986000Y-100076000D01*
X141784000Y-97984000D02*
X141784000Y-99874000D01*
X140284000Y-95752500D02*
X140208000Y-95676500D01*
X140284000Y-97984000D02*
X140284000Y-95752500D01*
X138784000Y-95776500D02*
X138684000Y-95676500D01*
X138784000Y-97984000D02*
X138784000Y-95776500D01*
X137284000Y-95800500D02*
X137160000Y-95676500D01*
X137284000Y-97984000D02*
X137284000Y-95800500D01*
%TO.N,CAN_RX*%
X121158000Y-103632000D02*
X121158000Y-104902000D01*
X120904000Y-103378000D02*
X121158000Y-103632000D01*
X117348000Y-103378000D02*
X120904000Y-103378000D01*
X116967000Y-103759000D02*
X117348000Y-103378000D01*
X116967000Y-107569000D02*
X116967000Y-103759000D01*
%TO.N,GND*%
X118618000Y-109169200D02*
X118618000Y-110490000D01*
X116967000Y-110363000D02*
X116840000Y-110490000D01*
X116967000Y-109219000D02*
X116967000Y-110363000D01*
%TO.N,+12V*%
X177196750Y-78232000D02*
X177196750Y-79773750D01*
X177196750Y-79773750D02*
X177417000Y-79994000D01*
%TO.N,/MCU/TIM_CH3N*%
X180105050Y-61976000D02*
X180105050Y-62972950D01*
X179688106Y-63246000D02*
X179832000Y-63246000D01*
X180105050Y-62972950D02*
X179832000Y-63246000D01*
X179506053Y-63428053D02*
X179688106Y-63246000D01*
X179506053Y-63428053D02*
X179324000Y-63610107D01*
%TO.N,/MCU/TIM_CH3*%
X178835050Y-64877447D02*
X178180497Y-65532000D01*
X178835050Y-61976000D02*
X178835050Y-64877447D01*
%TO.N,/MCU/TIM_CH3N*%
X179324000Y-65278000D02*
X179070000Y-65532000D01*
X179324000Y-63610107D02*
X179324000Y-65278000D01*
%TO.N,/MCU/TIM_CH2*%
X138938000Y-65150497D02*
X138556497Y-65532000D01*
X138938000Y-64008000D02*
X138938000Y-65150497D01*
X139249150Y-63696850D02*
X138938000Y-64008000D01*
X139249150Y-62026801D02*
X139249150Y-63696850D01*
%TO.N,/MCU/TIM_CH2N*%
X140056007Y-63343000D02*
X139446000Y-63953007D01*
X139446000Y-63953007D02*
X139446000Y-65532000D01*
X140365000Y-63343000D02*
X140056007Y-63343000D01*
X140519150Y-63188850D02*
X140365000Y-63343000D01*
X140519150Y-62026801D02*
X140519150Y-63188850D01*
%TO.N,/MCU/TIM_CH3N*%
X177474000Y-95652213D02*
X177594500Y-95531713D01*
X177474000Y-98094500D02*
X177474000Y-95652213D01*
%TO.N,/MCU/TIM_CH2N*%
X178184000Y-94945998D02*
X177884500Y-94646498D01*
X178184000Y-97282000D02*
X178184000Y-94945998D01*
X177974000Y-98094500D02*
X177974000Y-97492000D01*
X177974000Y-97492000D02*
X178184000Y-97282000D01*
%TO.N,/MCU/ADC2_IN12*%
X176784000Y-94215639D02*
X177152946Y-93846693D01*
X177153000Y-96127000D02*
X176784000Y-95758000D01*
X177153000Y-96764887D02*
X177153000Y-96127000D01*
X176784000Y-95758000D02*
X176784000Y-94215639D01*
X176974000Y-96943887D02*
X177153000Y-96764887D01*
X176974000Y-98094500D02*
X176974000Y-96943887D01*
%TO.N,GND*%
X126238000Y-104902000D02*
X126238000Y-106934000D01*
X133284000Y-99634000D02*
X132334000Y-100584000D01*
X133284000Y-97984000D02*
X133284000Y-99634000D01*
X132334000Y-100584000D02*
X128534000Y-100584000D01*
%TO.N,+3.3V*%
X132842000Y-95504000D02*
X134620000Y-95504000D01*
X132784000Y-97984000D02*
X132784000Y-95562000D01*
X132784000Y-95562000D02*
X132842000Y-95504000D01*
X134620000Y-95504000D02*
X134874000Y-95504000D01*
X135784000Y-95652000D02*
X135636000Y-95504000D01*
X135784000Y-97984000D02*
X135784000Y-95652000D01*
X135636000Y-95504000D02*
X136144000Y-95504000D01*
X135128000Y-95504000D02*
X135636000Y-95504000D01*
X135284000Y-97984000D02*
X135284000Y-95660000D01*
X134874000Y-95504000D02*
X135128000Y-95504000D01*
X135284000Y-95660000D02*
X135128000Y-95504000D01*
X134784000Y-95594000D02*
X134874000Y-95504000D01*
X134784000Y-97984000D02*
X134784000Y-95594000D01*
X136284000Y-95644000D02*
X136284000Y-97984000D01*
X136144000Y-95504000D02*
X136284000Y-95644000D01*
%TO.N,SPI_MISO_+*%
X158496000Y-102108000D02*
X157226000Y-102108000D01*
%TO.N,SPI_MISO_-*%
X157352000Y-100458000D02*
X157226000Y-100584000D01*
X158496000Y-100458000D02*
X157352000Y-100458000D01*
%TO.N,+3.3V*%
X157652500Y-99568000D02*
X157480000Y-99395500D01*
X160223000Y-99771000D02*
X160020000Y-99568000D01*
X160223000Y-100457000D02*
X160223000Y-99771000D01*
X160020000Y-99568000D02*
X157652500Y-99568000D01*
%TO.N,SPI_MISO_-*%
X148082000Y-100743981D02*
X148082000Y-101978000D01*
X146816128Y-99478109D02*
X148082000Y-100743981D01*
X143314019Y-95976000D02*
X146816128Y-99478109D01*
X142072000Y-95976000D02*
X143314019Y-95976000D01*
X141284000Y-96764000D02*
X142072000Y-95976000D01*
X141284000Y-97984000D02*
X141284000Y-96764000D01*
%TO.N,SPI_MISO_+*%
X146812000Y-100403350D02*
X146812000Y-101978000D01*
X142674650Y-96266000D02*
X146812000Y-100403350D01*
X142494000Y-96266000D02*
X142674650Y-96266000D01*
X142284000Y-96476000D02*
X142494000Y-96266000D01*
X142284000Y-97984000D02*
X142284000Y-96476000D01*
%TO.N,+12V*%
X172720000Y-81280000D02*
X173990000Y-81280000D01*
X173990000Y-81280000D02*
X174625000Y-81915000D01*
X146709000Y-81280000D02*
X143510000Y-81280000D01*
X146806000Y-81377000D02*
X146709000Y-81280000D01*
D84*
%TO.N,GND*%
X140706000Y-79677000D02*
X140081000Y-80302000D01*
X146806000Y-79677000D02*
X140706000Y-79677000D01*
X146806000Y-83077000D02*
X141205000Y-83077000D01*
%TO.N,VBUS*%
X152654000Y-87122000D02*
X152009000Y-86477000D01*
X152654000Y-88265000D02*
X152654000Y-87122000D01*
%TO.N,GND*%
X185404000Y-79994000D02*
X185420000Y-80010000D01*
X183642000Y-79994000D02*
X185404000Y-79994000D01*
X183642000Y-84836000D02*
X185420000Y-84836000D01*
X183642000Y-89662000D02*
X185420000Y-89662000D01*
%TO.N,+12V*%
X187706000Y-84745000D02*
X187946000Y-84505000D01*
X187706000Y-88900000D02*
X187706000Y-84745000D01*
X169418000Y-93817000D02*
X169305000Y-93930000D01*
X169418000Y-89662000D02*
X169418000Y-93817000D01*
X179578000Y-89154000D02*
X179070000Y-89662000D01*
X179070000Y-89662000D02*
X177417000Y-89662000D01*
X179578000Y-85090000D02*
X179578000Y-89154000D01*
X179324000Y-84836000D02*
X179578000Y-85090000D01*
X177417000Y-84836000D02*
X179324000Y-84836000D01*
%TO.N,Net-(L2-Pad2)*%
X165766000Y-81915000D02*
X168625000Y-81915000D01*
%TO.N,Net-(L1-Pad2)*%
X159766000Y-81915000D02*
X156972000Y-81915000D01*
%TO.N,Net-(D5-K)*%
X150427000Y-84777000D02*
X146806000Y-84777000D01*
X150972000Y-84232000D02*
X150427000Y-84777000D01*
X150972000Y-81915000D02*
X150972000Y-84232000D01*
D85*
%TO.N,+3.3V*%
X172078122Y-103342000D02*
X162342000Y-103342000D01*
X172518122Y-103782000D02*
X172078122Y-103342000D01*
X173786500Y-103782000D02*
X172518122Y-103782000D01*
X162342000Y-103342000D02*
X161290000Y-104394000D01*
%TO.N,SWDIO*%
X171958000Y-103632000D02*
X172608000Y-104282000D01*
X172608000Y-104282000D02*
X173786500Y-104282000D01*
X164592000Y-103632000D02*
X171958000Y-103632000D01*
X164338000Y-103886000D02*
X164592000Y-103632000D01*
X164338000Y-104648000D02*
X164338000Y-103886000D01*
X164338000Y-105410000D02*
X164338000Y-104648000D01*
%TO.N,GND*%
X166878000Y-109310000D02*
X166878000Y-110998000D01*
X166878000Y-110998000D02*
X169418000Y-110998000D01*
X165862000Y-110998000D02*
X166878000Y-110998000D01*
X169418000Y-109310000D02*
X169418000Y-110998000D01*
X169418000Y-110998000D02*
X170950000Y-110998000D01*
X171704000Y-110244000D02*
X171704000Y-109138500D01*
X170950000Y-110998000D02*
X171704000Y-110244000D01*
X165608000Y-110744000D02*
X165862000Y-110998000D01*
X165608000Y-109310000D02*
X165608000Y-110744000D01*
%TO.N,+3.3V*%
X162133500Y-107442000D02*
X161798000Y-107777500D01*
X163830000Y-107442000D02*
X162133500Y-107442000D01*
X164338000Y-107950000D02*
X163830000Y-107442000D01*
X164338000Y-108480000D02*
X164338000Y-107950000D01*
X164338000Y-109310000D02*
X164338000Y-108480000D01*
%TO.N,/MCU/SPI1_MOSI*%
X148082000Y-106774500D02*
X148082000Y-105286000D01*
X177474000Y-105764500D02*
X178308000Y-106598500D01*
X177474000Y-104969500D02*
X177474000Y-105764500D01*
%TO.N,Net-(D4-K)*%
X208104500Y-96266000D02*
X207191613Y-96266000D01*
%TO.N,GND1*%
X207129000Y-97401000D02*
X207010000Y-97282000D01*
X207129000Y-98295000D02*
X207129000Y-97401000D01*
X203454000Y-96774000D02*
X203327000Y-96901000D01*
X203327000Y-96901000D02*
X201168000Y-96901000D01*
X203327000Y-94869000D02*
X203454000Y-94996000D01*
X203454000Y-94996000D02*
X203454000Y-96774000D01*
X202311000Y-94869000D02*
X203327000Y-94869000D01*
%TO.N,Net-(J2-D--PadA7)*%
X207147000Y-105293000D02*
X208026000Y-106172000D01*
X207147000Y-104475000D02*
X207147000Y-105293000D01*
%TO.N,Net-(J2-D+-PadA6)*%
X207772000Y-105410000D02*
X208534000Y-105410000D01*
X207647000Y-105285000D02*
X207772000Y-105410000D01*
X207647000Y-104475000D02*
X207647000Y-105285000D01*
X208647000Y-105297000D02*
X208534000Y-105410000D01*
X208647000Y-104475000D02*
X208647000Y-105297000D01*
%TO.N,Net-(J2-CC1)*%
X201900000Y-108810000D02*
X202594000Y-108810000D01*
X202594000Y-108810000D02*
X202692000Y-108712000D01*
X202692000Y-109982000D02*
X202692000Y-108712000D01*
X202370000Y-110304000D02*
X202692000Y-109982000D01*
X201900000Y-110304000D02*
X202370000Y-110304000D01*
%TO.N,GND1*%
X199136000Y-110363000D02*
X199136000Y-109220000D01*
X199136000Y-108966000D02*
X199136000Y-109220000D01*
X193234000Y-109922000D02*
X193234000Y-108458000D01*
X193675000Y-110363000D02*
X193234000Y-109922000D01*
X197866000Y-110363000D02*
X193675000Y-110363000D01*
X199136000Y-110363000D02*
X200191000Y-110363000D01*
X199292000Y-108810000D02*
X199136000Y-108966000D01*
X200250000Y-108810000D02*
X199292000Y-108810000D01*
X197866000Y-110363000D02*
X199136000Y-110363000D01*
X200191000Y-110363000D02*
X200250000Y-110304000D01*
%TO.N,Net-(JP4-A)*%
X196088000Y-108458000D02*
X195834000Y-108458000D01*
X197104000Y-107442000D02*
X196088000Y-108458000D01*
X198374000Y-107442000D02*
X197104000Y-107442000D01*
X202946000Y-107442000D02*
X198374000Y-107442000D01*
X198374000Y-107442000D02*
X198120000Y-107442000D01*
X198120000Y-107442000D02*
X197866000Y-107696000D01*
X197866000Y-107696000D02*
X197866000Y-108463000D01*
X203200000Y-102870000D02*
X203200000Y-102362000D01*
X202819000Y-103251000D02*
X203200000Y-102870000D01*
X201168000Y-103251000D02*
X202819000Y-103251000D01*
X202819000Y-101981000D02*
X203200000Y-102362000D01*
X201168000Y-101981000D02*
X202819000Y-101981000D01*
%TO.N,Net-(JP4-C)*%
X203200000Y-100838000D02*
X201295000Y-100838000D01*
X201295000Y-100838000D02*
X201168000Y-100711000D01*
X194534000Y-101630000D02*
X195326000Y-100838000D01*
X194534000Y-108458000D02*
X194534000Y-101630000D01*
%TO.N,Net-(U7-UD-)*%
X203073000Y-99441000D02*
X201168000Y-99441000D01*
X203234000Y-99280000D02*
X203073000Y-99441000D01*
X206969000Y-99280000D02*
X203234000Y-99280000D01*
X207129000Y-99440000D02*
X206969000Y-99280000D01*
X207129000Y-99695000D02*
X207129000Y-99440000D01*
%TO.N,Net-(U7-UD+)*%
X201292000Y-98295000D02*
X206129000Y-98295000D01*
X201168000Y-98171000D02*
X201292000Y-98295000D01*
X208695000Y-99983000D02*
X208695000Y-100943500D01*
X207518000Y-98806000D02*
X208695000Y-99983000D01*
X206129000Y-98433000D02*
X206502000Y-98806000D01*
X206502000Y-98806000D02*
X207518000Y-98806000D01*
X206129000Y-98295000D02*
X206129000Y-98433000D01*
%TO.N,Net-(U7-UD-)*%
X207171000Y-99737000D02*
X207129000Y-99695000D01*
X207171000Y-100943500D02*
X207171000Y-99737000D01*
%TO.N,Net-(J2-D+-PadA6)*%
X207264000Y-102686500D02*
X207171000Y-102593500D01*
X207264000Y-103378000D02*
X207264000Y-102686500D01*
X207647000Y-103761000D02*
X207264000Y-103378000D01*
X207647000Y-104475000D02*
X207647000Y-103761000D01*
%TO.N,Net-(J2-D--PadA7)*%
X208534000Y-102754500D02*
X208695000Y-102593500D01*
X208534000Y-103378000D02*
X208534000Y-102754500D01*
X208147000Y-103765000D02*
X208534000Y-103378000D01*
X208147000Y-104475000D02*
X208147000Y-103765000D01*
%TO.N,Net-(J2-CC2)*%
X212090000Y-103378000D02*
X210566000Y-103378000D01*
X212315000Y-103153000D02*
X212090000Y-103378000D01*
X212315000Y-102656500D02*
X212315000Y-103153000D01*
X209647000Y-103535000D02*
X209647000Y-104475000D01*
X209804000Y-103378000D02*
X209647000Y-103535000D01*
X210566000Y-103378000D02*
X209804000Y-103378000D01*
X210791000Y-103153000D02*
X210566000Y-103378000D01*
X210791000Y-102656500D02*
X210791000Y-103153000D01*
%TO.N,GND1*%
X211548500Y-104371500D02*
X212217000Y-105040000D01*
X211247000Y-104371500D02*
X211548500Y-104371500D01*
X204245500Y-104371500D02*
X203577000Y-105040000D01*
X204547000Y-104371500D02*
X204245500Y-104371500D01*
X202565000Y-104521000D02*
X201168000Y-104521000D01*
X203084000Y-105040000D02*
X202565000Y-104521000D01*
X203577000Y-105040000D02*
X203084000Y-105040000D01*
%TO.N,Net-(U7-VBUS1)*%
X199517000Y-94869000D02*
X200411000Y-94869000D01*
X198882000Y-95504000D02*
X199517000Y-94869000D01*
X201168000Y-105791000D02*
X199263000Y-105791000D01*
X199263000Y-105791000D02*
X198882000Y-105410000D01*
%TO.N,+3.3V*%
X198501000Y-94869000D02*
X198628000Y-94742000D01*
X197099000Y-94869000D02*
X198501000Y-94869000D01*
%TO.N,GND*%
X193929000Y-94869000D02*
X193802000Y-94996000D01*
X195199000Y-94869000D02*
X193929000Y-94869000D01*
X187706000Y-96012000D02*
X189230000Y-96012000D01*
X187325000Y-96393000D02*
X187706000Y-96012000D01*
X187325000Y-97004500D02*
X187325000Y-96393000D01*
X190373000Y-96901000D02*
X189484000Y-96012000D01*
X191868000Y-96901000D02*
X190373000Y-96901000D01*
X189484000Y-96012000D02*
X189230000Y-96012000D01*
X189052200Y-96189800D02*
X189230000Y-96012000D01*
X189052200Y-96949900D02*
X189052200Y-96189800D01*
%TO.N,Net-(JP3-C)*%
X190627000Y-101981000D02*
X191868000Y-101981000D01*
X190318000Y-102942000D02*
X190318000Y-102290000D01*
X190324061Y-102948061D02*
X190318000Y-102942000D01*
X188214000Y-108077000D02*
X188214000Y-105058122D01*
X188214000Y-105058122D02*
X190324061Y-102948061D01*
X190318000Y-102290000D02*
X190627000Y-101981000D01*
%TO.N,GND*%
X190373000Y-104521000D02*
X190246000Y-104648000D01*
X191868000Y-104521000D02*
X190373000Y-104521000D01*
%TO.N,+3.3V*%
X193421000Y-103251000D02*
X193548000Y-103124000D01*
X191868000Y-103251000D02*
X193421000Y-103251000D01*
X193548000Y-105664000D02*
X193548000Y-103124000D01*
X193421000Y-105791000D02*
X193548000Y-105664000D01*
X191868000Y-105791000D02*
X193421000Y-105791000D01*
X193548000Y-103124000D02*
X193548000Y-101092000D01*
X193548000Y-101092000D02*
X193802000Y-100838000D01*
X193675000Y-100711000D02*
X193802000Y-100838000D01*
X191868000Y-100711000D02*
X193675000Y-100711000D01*
%TO.N,Net-(U7-DD-)*%
X190373000Y-99441000D02*
X191868000Y-99441000D01*
X190028000Y-99786000D02*
X190373000Y-99441000D01*
X190028000Y-102834000D02*
X190028000Y-99786000D01*
X187579000Y-105283000D02*
X190028000Y-102834000D01*
X186436000Y-105283000D02*
X187579000Y-105283000D01*
%TO.N,Net-(U7-DD+)*%
X189738000Y-101854000D02*
X187833000Y-103759000D01*
X190119000Y-98171000D02*
X189738000Y-98552000D01*
X191868000Y-98171000D02*
X190119000Y-98171000D01*
X189738000Y-98552000D02*
X189738000Y-101854000D01*
X187833000Y-103759000D02*
X186436000Y-103759000D01*
%TO.N,5V_ISO*%
X104648000Y-99060000D02*
X113538000Y-99060000D01*
X102900000Y-110490000D02*
X104394000Y-110490000D01*
%TO.N,+5V*%
X101600000Y-110490000D02*
X100076000Y-110490000D01*
%TO.N,GND*%
X109250000Y-110490000D02*
X110998000Y-110490000D01*
%TO.N,GND_ISO*%
X107950000Y-110490000D02*
X106680000Y-110490000D01*
X106680000Y-110490000D02*
X105156000Y-108966000D01*
X113538000Y-102870000D02*
X105156000Y-102870000D01*
X105156000Y-102870000D02*
X99513000Y-102870000D01*
X105156000Y-108966000D02*
X105156000Y-102870000D01*
X99513000Y-102870000D02*
X97608000Y-100965000D01*
X125222000Y-102870000D02*
X126238000Y-101854000D01*
X126238000Y-101854000D02*
X126238000Y-95852000D01*
X113538000Y-102870000D02*
X125222000Y-102870000D01*
%TO.N,CAN_IN-*%
X123698000Y-99822000D02*
X123698000Y-95852000D01*
X113538000Y-101600000D02*
X121920000Y-101600000D01*
X121920000Y-101600000D02*
X123698000Y-99822000D01*
%TO.N,CAN_IN+*%
X119380000Y-100330000D02*
X121158000Y-98552000D01*
X121158000Y-98552000D02*
X121158000Y-95852000D01*
X113538000Y-100330000D02*
X119380000Y-100330000D01*
%TO.N,5V_ISO*%
X118618000Y-98044000D02*
X117602000Y-99060000D01*
X117602000Y-99060000D02*
X113538000Y-99060000D01*
X118618000Y-95852000D02*
X118618000Y-98044000D01*
%TO.N,Net-(C10-Pad2)*%
X123698000Y-91949000D02*
X123698000Y-90932000D01*
X123698000Y-90932000D02*
X125984000Y-90932000D01*
X123444000Y-90932000D02*
X123698000Y-90932000D01*
X126238000Y-91186000D02*
X126238000Y-92049000D01*
X125984000Y-90932000D02*
X126238000Y-91186000D01*
X121412000Y-90932000D02*
X123444000Y-90932000D01*
X121158000Y-91949000D02*
X121158000Y-91186000D01*
X121158000Y-91186000D02*
X121412000Y-90932000D01*
%TO.N,GND_ISO*%
X120142000Y-92710000D02*
X123952000Y-92710000D01*
X119380000Y-90932000D02*
X119634000Y-91186000D01*
X118618000Y-91186000D02*
X118872000Y-90932000D01*
X119634000Y-92202000D02*
X120142000Y-92710000D01*
X125476000Y-94234000D02*
X126238000Y-94234000D01*
X123952000Y-92710000D02*
X125476000Y-94234000D01*
X118618000Y-92074400D02*
X118618000Y-91186000D01*
X118872000Y-90932000D02*
X119380000Y-90932000D01*
X119634000Y-91186000D02*
X119634000Y-92202000D01*
X126238000Y-94234000D02*
X126238000Y-93599000D01*
X126238000Y-95852000D02*
X126238000Y-94234000D01*
%TO.N,5V_ISO*%
X118618000Y-95852000D02*
X118618000Y-93624400D01*
%TO.N,CAN_IN+*%
X121158000Y-95852000D02*
X121158000Y-93599000D01*
%TO.N,CAN_IN-*%
X123698000Y-95852000D02*
X123698000Y-93599000D01*
%TO.N,+12V*%
X98044000Y-49828950D02*
X98113850Y-49898800D01*
X98044000Y-47752000D02*
X98044000Y-49828950D01*
X96266000Y-64262000D02*
X96266000Y-63167051D01*
X96266000Y-63167051D02*
X96285050Y-63148001D01*
X98317050Y-63734950D02*
X97536000Y-64516000D01*
X96520000Y-64516000D02*
X96266000Y-64262000D01*
X98317050Y-61976001D02*
X98317050Y-63734950D01*
X97536000Y-64516000D02*
X96520000Y-64516000D01*
%TO.N,/MCU/TIM_CH1*%
X99314000Y-63754000D02*
X98552000Y-64516000D01*
X98552000Y-64516000D02*
X98552000Y-67564000D01*
X99587050Y-63480950D02*
X99314000Y-63754000D01*
X99587050Y-61976001D02*
X99587050Y-63480950D01*
%TO.N,/MCU/TIM_CH1N*%
X100440107Y-63246000D02*
X99448650Y-64237457D01*
X99448650Y-64237457D02*
X99448650Y-67564000D01*
X100584000Y-63246000D02*
X100440107Y-63246000D01*
X100857050Y-62972950D02*
X100584000Y-63246000D01*
X100857050Y-61976001D02*
X100857050Y-62972950D01*
X182170122Y-103782000D02*
X183215500Y-104827378D01*
X183215500Y-104827378D02*
X183215500Y-105156000D01*
X180661500Y-103782000D02*
X182170122Y-103782000D01*
%TO.N,+3.3V*%
X180340000Y-105918000D02*
X182626000Y-105918000D01*
X180340000Y-105918000D02*
X180594000Y-106172000D01*
X179974000Y-105552000D02*
X180340000Y-105918000D01*
X182626000Y-104648000D02*
X182626000Y-105918000D01*
X182260000Y-104282000D02*
X182626000Y-104648000D01*
X180661500Y-104282000D02*
X182260000Y-104282000D01*
X180594000Y-106172000D02*
X180594000Y-106934000D01*
X179974000Y-104969500D02*
X179974000Y-105552000D01*
X182626000Y-106934000D02*
X182626000Y-105918000D01*
%TO.N,GND*%
X182626000Y-108834000D02*
X182626000Y-109982000D01*
X180594000Y-108834000D02*
X180594000Y-109982000D01*
%TO.N,/CAN/CAN_TX*%
X123698000Y-109728000D02*
X123698000Y-104902000D01*
%TO.N,CAN_RX*%
X121158000Y-110490000D02*
X121158000Y-104902000D01*
X178480000Y-110408000D02*
X178562000Y-110490000D01*
X178480000Y-109483613D02*
X178480000Y-110408000D01*
X178974000Y-108989613D02*
X178480000Y-109483613D01*
X178974000Y-104969500D02*
X178974000Y-108989613D01*
%TO.N,/CAN/CAN_TX*%
X179474000Y-109324000D02*
X179070000Y-109728000D01*
X179474000Y-104969500D02*
X179474000Y-109324000D01*
%TO.N,/MCU/SPI1_SCK*%
X146812000Y-110236000D02*
X146812000Y-107953500D01*
%TO.N,GND*%
X146812000Y-107364000D02*
X145034000Y-107364000D01*
X149782000Y-107364000D02*
X146812000Y-107364000D01*
X146812000Y-105286000D02*
X146812000Y-107364000D01*
X150622000Y-108204000D02*
X149782000Y-107364000D01*
X150622000Y-110236000D02*
X150622000Y-108204000D01*
%TO.N,SPI_MOSI_+*%
X149352000Y-106680000D02*
X149352000Y-105286000D01*
%TO.N,SPI_MOSI_-*%
X150622000Y-106680000D02*
X150622000Y-105286000D01*
X139784000Y-103983500D02*
X140194500Y-104394000D01*
X139784000Y-97984000D02*
X139784000Y-103983500D01*
%TO.N,SPI_MOSI_+*%
X140784000Y-104970000D02*
X140970000Y-105156000D01*
X140784000Y-97984000D02*
X140784000Y-104970000D01*
%TO.N,SPI_nSS_-*%
X136784000Y-105658497D02*
X134492497Y-107950000D01*
X136784000Y-97984000D02*
X136784000Y-105658497D01*
%TO.N,SPI_nSS_+*%
X137784000Y-105548000D02*
X135382000Y-107950000D01*
X137784000Y-97984000D02*
X137784000Y-105548000D01*
%TO.N,SPI_SCK_+*%
X139284000Y-107788000D02*
X139446000Y-107950000D01*
X139284000Y-97984000D02*
X139284000Y-107788000D01*
%TO.N,SPI_SCK_-*%
X138284000Y-107677503D02*
X138556497Y-107950000D01*
X138284000Y-97984000D02*
X138284000Y-107677503D01*
%TO.N,SPI_SCK_+*%
X148082000Y-110236000D02*
X148082000Y-108204000D01*
%TO.N,SPI_SCK_-*%
X149352000Y-110236000D02*
X149352000Y-108712000D01*
%TO.N,SPI_nSS_-*%
X151892000Y-110236000D02*
X151892000Y-108712000D01*
%TO.N,SPI_nSS_+*%
X153162000Y-108031500D02*
X152908000Y-107777500D01*
X153162000Y-110236000D02*
X153162000Y-108031500D01*
%TO.N,+3.3V*%
X152146000Y-107188000D02*
X154686000Y-107188000D01*
X151892000Y-106934000D02*
X152146000Y-107188000D01*
X151892000Y-105286000D02*
X151892000Y-106934000D01*
X154686000Y-107188000D02*
X155956000Y-108458000D01*
%TO.N,GND*%
X159004000Y-108458000D02*
X160020000Y-108458000D01*
%TO.N,+3.3V*%
X155956000Y-108458000D02*
X157454000Y-108458000D01*
X155702000Y-108712000D02*
X155956000Y-108458000D01*
X155702000Y-110236000D02*
X155702000Y-108712000D01*
%TO.N,Net-(U2-VDDA)*%
X162687000Y-100457000D02*
X162814000Y-100330000D01*
X161798000Y-100457000D02*
X162687000Y-100457000D01*
%TO.N,+3.3V*%
X161163000Y-104521000D02*
X161290000Y-104394000D01*
X160147000Y-104521000D02*
X161163000Y-104521000D01*
%TO.N,GND*%
X157353000Y-104521000D02*
X157226000Y-104394000D01*
X158247000Y-104521000D02*
X157353000Y-104521000D01*
X155702000Y-101978000D02*
X155702000Y-103378000D01*
%TO.N,+3.3V*%
X146812000Y-97028000D02*
X146812000Y-95504000D01*
X150622000Y-101978000D02*
X150622000Y-100330000D01*
X157454000Y-99369500D02*
X157480000Y-99395500D01*
X157454000Y-97790000D02*
X157454000Y-99369500D01*
%TO.N,GND*%
X157454000Y-95022000D02*
X157480000Y-94996000D01*
X157454000Y-96240000D02*
X157454000Y-95022000D01*
%TO.N,/MCU/ADC2_IN15*%
X160629600Y-99161600D02*
X160629600Y-98399600D01*
X162052000Y-99314000D02*
X160782000Y-99314000D01*
X162153600Y-99212400D02*
X162052000Y-99314000D01*
X160782000Y-99314000D02*
X160629600Y-99161600D01*
X162153600Y-98424000D02*
X162153600Y-99212400D01*
%TO.N,+5V*%
X160629600Y-95931280D02*
X160492160Y-95793840D01*
X160629600Y-96749600D02*
X160629600Y-95931280D01*
%TO.N,GND*%
X160909000Y-95377000D02*
X161290000Y-95758000D01*
X160909000Y-93853000D02*
X160909000Y-95377000D01*
X161290000Y-95758000D02*
X162052000Y-95758000D01*
X162153600Y-95859600D02*
X162052000Y-95758000D01*
X162153600Y-96774000D02*
X162153600Y-95859600D01*
%TO.N,+3.3V*%
X163677600Y-95859600D02*
X163576000Y-95758000D01*
X163677600Y-96801500D02*
X163677600Y-95859600D01*
%TO.N,GND*%
X164705000Y-95109000D02*
X165100000Y-95504000D01*
X164705000Y-93930000D02*
X164705000Y-95109000D01*
X165233200Y-95637200D02*
X165100000Y-95504000D01*
X165233200Y-96800400D02*
X165233200Y-95637200D01*
%TO.N,+3.3V*%
X167005000Y-93930000D02*
X167005000Y-96139000D01*
%TO.N,+12V*%
X169305000Y-93930000D02*
X169305000Y-96125000D01*
X169305000Y-96125000D02*
X169291000Y-96139000D01*
%TO.N,GND*%
X170441600Y-89751100D02*
X170434000Y-89743500D01*
X171196000Y-89751100D02*
X170441600Y-89751100D01*
X171285100Y-89751100D02*
X171196000Y-89751100D01*
X171602400Y-90068400D02*
X171285100Y-89751100D01*
X171602400Y-90606800D02*
X171602400Y-90068400D01*
X176022000Y-88900000D02*
X176022000Y-87376000D01*
X176022000Y-87376000D02*
X176784000Y-87376000D01*
X175205400Y-87376000D02*
X176022000Y-87376000D01*
X175818800Y-89103200D02*
X176022000Y-88900000D01*
X175260000Y-89103200D02*
X175818800Y-89103200D01*
D84*
%TO.N,+12V*%
X174752000Y-84836000D02*
X177417000Y-84836000D01*
X174752000Y-82042000D02*
X174752000Y-84836000D01*
X174625000Y-81915000D02*
X174752000Y-82042000D01*
X177401000Y-80010000D02*
X177417000Y-79994000D01*
X174752000Y-81788000D02*
X174752000Y-80010000D01*
X174752000Y-80010000D02*
X177401000Y-80010000D01*
X174625000Y-81915000D02*
X174752000Y-81788000D01*
D85*
%TO.N,+5V*%
X190246000Y-92202000D02*
X190246000Y-90805000D01*
X190500000Y-92456000D02*
X190246000Y-92202000D01*
X196469000Y-92329000D02*
X196342000Y-92456000D01*
X196469000Y-90805000D02*
X196469000Y-92329000D01*
%TO.N,GND*%
X196469000Y-82931000D02*
X196342000Y-82804000D01*
X196469000Y-84580000D02*
X196469000Y-82931000D01*
X187960000Y-80518000D02*
X187960000Y-79248000D01*
X190246000Y-80518000D02*
X190246000Y-79248000D01*
X192546000Y-82564000D02*
X192532000Y-82550000D01*
X192546000Y-84505000D02*
X192546000Y-82564000D01*
%TO.N,+5V*%
X190246000Y-90805000D02*
X190246000Y-84505000D01*
X190246000Y-84505000D02*
X190246000Y-82418000D01*
%TO.N,+12V*%
X187946000Y-82432000D02*
X187960000Y-82418000D01*
X187946000Y-84505000D02*
X187946000Y-82432000D01*
%TO.N,Net-(J8-Pin_1)*%
X116586000Y-88900000D02*
X114506000Y-86820000D01*
X114506000Y-86820000D02*
X113792000Y-86820000D01*
X126073500Y-89416000D02*
X125984000Y-89326500D01*
X127844000Y-89416000D02*
X126073500Y-89416000D01*
%TO.N,Net-(U17-SENSE)*%
X117602000Y-89662000D02*
X115617000Y-89662000D01*
X109220000Y-90932000D02*
X116332000Y-90932000D01*
X108966000Y-90678000D02*
X109220000Y-90932000D01*
X108966000Y-89916000D02*
X108966000Y-90424000D01*
X116332000Y-90932000D02*
X116586000Y-90678000D01*
X120650000Y-89662000D02*
X117602000Y-89662000D01*
X108966000Y-90424000D02*
X108966000Y-90678000D01*
X109220000Y-89662000D02*
X108966000Y-89916000D01*
X116586000Y-90678000D02*
X116586000Y-89662000D01*
X110236000Y-89662000D02*
X109220000Y-89662000D01*
%TO.N,Net-(J8-Pin_1)*%
X113792000Y-89662000D02*
X113792000Y-87690000D01*
X113792000Y-87690000D02*
X109322000Y-83220000D01*
X113792000Y-89662000D02*
X112061000Y-89662000D01*
%TO.N,Net-(U17-SENSE)*%
X121244000Y-90256000D02*
X120650000Y-89662000D01*
X125644000Y-90256000D02*
X121244000Y-90256000D01*
X125984000Y-89916000D02*
X125644000Y-90256000D01*
X127844000Y-89916000D02*
X125984000Y-89916000D01*
%TO.N,/DC INPUT/nPGD*%
X124952000Y-88916000D02*
X124968000Y-88900000D01*
X123444000Y-88916000D02*
X124952000Y-88916000D01*
%TO.N,Net-(U17-TIMER)*%
X126238000Y-86614000D02*
X129672000Y-86614000D01*
X124436000Y-88416000D02*
X126238000Y-86614000D01*
X123444000Y-88416000D02*
X124436000Y-88416000D01*
%TO.N,GND*%
X122277867Y-87916000D02*
X122001500Y-87639633D01*
X123444000Y-87916000D02*
X122277867Y-87916000D01*
%TO.N,VBUS*%
X121412000Y-87376000D02*
X117372000Y-83336000D01*
X121412000Y-89154000D02*
X121412000Y-87376000D01*
X121674000Y-89416000D02*
X121412000Y-89154000D01*
X123444000Y-89416000D02*
X121674000Y-89416000D01*
X117372000Y-83336000D02*
X117372000Y-82620000D01*
%TO.N,Net-(Q7-G)*%
X120650000Y-89154000D02*
X120650000Y-88138000D01*
X121412000Y-89916000D02*
X120650000Y-89154000D01*
X120650000Y-88138000D02*
X119932000Y-87420000D01*
X119932000Y-87420000D02*
X118372000Y-87420000D01*
X123444000Y-89916000D02*
X121412000Y-89916000D01*
%TO.N,Net-(J8-Pin_1)*%
X129201584Y-89789000D02*
X130175000Y-89789000D01*
X128828584Y-89416000D02*
X129201584Y-89789000D01*
X127844000Y-89416000D02*
X128828584Y-89416000D01*
%TO.N,Net-(U17-OVP)*%
X129162971Y-88916000D02*
X129252471Y-89005500D01*
X127844000Y-88916000D02*
X129162971Y-88916000D01*
%TO.N,Net-(U17-UVLO)*%
X130720500Y-88416000D02*
X130810000Y-88505500D01*
X127844000Y-88416000D02*
X130720500Y-88416000D01*
%TO.N,/DC INPUT/EN*%
X131540000Y-87916000D02*
X127844000Y-87916000D01*
X131572000Y-87884000D02*
X131540000Y-87916000D01*
%TO.N,/MCU/ADC2_IN14*%
X171704000Y-97028000D02*
X171704000Y-97282000D01*
X172313600Y-96418400D02*
X171704000Y-97028000D01*
X172809400Y-96418400D02*
X172313600Y-96418400D01*
X171704000Y-97282000D02*
X171450000Y-97028000D01*
X174244000Y-97282000D02*
X171704000Y-97282000D01*
X171450000Y-96358700D02*
X171368400Y-96277100D01*
X174474000Y-97512000D02*
X174244000Y-97282000D01*
X171450000Y-97028000D02*
X171450000Y-96358700D01*
X174474000Y-98094500D02*
X174474000Y-97512000D01*
%TO.N,+3.3V*%
X174974000Y-97349320D02*
X175384500Y-96938820D01*
X174974000Y-98094500D02*
X174974000Y-97349320D01*
X179563500Y-94756500D02*
X179563500Y-95504000D01*
X179578000Y-94742000D02*
X179563500Y-94756500D01*
X179781200Y-94538800D02*
X179578000Y-94742000D01*
X180315600Y-94538800D02*
X179781200Y-94538800D01*
%TO.N,/MCU/ADC2_IN12*%
X186690000Y-93218000D02*
X186690000Y-94589600D01*
X186334400Y-92862400D02*
X186690000Y-93218000D01*
X185433000Y-92862400D02*
X186334400Y-92862400D01*
%TO.N,VREF_OUT*%
X173236531Y-93226531D02*
X173228000Y-93218000D01*
X175935315Y-93226531D02*
X173236531Y-93226531D01*
X176474000Y-96609500D02*
X176563500Y-96520000D01*
X176474000Y-98094500D02*
X176474000Y-96609500D01*
%TO.N,Net-(U2-VDDA)*%
X175974000Y-94694000D02*
X175971200Y-94691200D01*
X175974000Y-98094500D02*
X175974000Y-94694000D01*
%TO.N,GND*%
X175260000Y-96266000D02*
X175260000Y-94996000D01*
X175260000Y-94996000D02*
X174955200Y-94691200D01*
X174955200Y-94691200D02*
X174071200Y-94691200D01*
X175107600Y-96418400D02*
X175260000Y-96266000D01*
X174459400Y-96418400D02*
X175107600Y-96418400D01*
X172770800Y-94691200D02*
X172720000Y-94742000D01*
X174071200Y-94691200D02*
X172770800Y-94691200D01*
%TO.N,VREF_OUT*%
X172974000Y-93472000D02*
X173228000Y-93218000D01*
X171704000Y-93472000D02*
X172974000Y-93472000D01*
X171602400Y-93370400D02*
X171704000Y-93472000D01*
X171602400Y-92506800D02*
X171602400Y-93370400D01*
%TO.N,/MCU/ADC2_IN5*%
X173710000Y-89103200D02*
X172770800Y-89103200D01*
X172720000Y-89154000D02*
X172720000Y-88900000D01*
X172720000Y-90932000D02*
X172720000Y-89154000D01*
X172770800Y-89103200D02*
X172720000Y-89154000D01*
X173990000Y-92202000D02*
X172720000Y-90932000D01*
X177411500Y-92447457D02*
X177166043Y-92202000D01*
X177166043Y-92202000D02*
X173990000Y-92202000D01*
X177411500Y-93083500D02*
X177411500Y-92447457D01*
X178474000Y-94146000D02*
X177411500Y-93083500D01*
X178474000Y-98094500D02*
X178474000Y-94146000D01*
X173380400Y-87376000D02*
X172720000Y-87376000D01*
X172720000Y-87376000D02*
X171751000Y-87376000D01*
X172720000Y-88900000D02*
X172720000Y-87376000D01*
X171751000Y-87376000D02*
X171598600Y-87223600D01*
%TO.N,/MCU/ADC2_IN4*%
X179070000Y-93726000D02*
X179070000Y-92884000D01*
X179070000Y-92884000D02*
X179802800Y-92884000D01*
X178471500Y-92884000D02*
X179070000Y-92884000D01*
X178974000Y-93822000D02*
X179070000Y-93726000D01*
X178974000Y-98094500D02*
X178974000Y-93822000D01*
X179802800Y-92884000D02*
X179832000Y-92913200D01*
%TO.N,/MCU/SPI1_MISO*%
X180265378Y-96438500D02*
X180848000Y-96438500D01*
X179474000Y-97229878D02*
X180265378Y-96438500D01*
X179474000Y-98094500D02*
X179474000Y-97229878D01*
%TO.N,/MCU/SPI1_SCK*%
X180086000Y-97028000D02*
X181610000Y-97028000D01*
X179974000Y-97140000D02*
X180086000Y-97028000D01*
X179974000Y-98094500D02*
X179974000Y-97140000D01*
%TO.N,/MCU/SPI1_NSS*%
X181349288Y-98782000D02*
X181548957Y-98981669D01*
X180661500Y-98782000D02*
X181349288Y-98782000D01*
%TO.N,GND*%
X182138400Y-98318400D02*
X182118000Y-98298000D01*
X183438800Y-98318400D02*
X182138400Y-98318400D01*
%TO.N,/MCU/ADC2_IN12*%
X186690000Y-94589600D02*
X187341200Y-94589600D01*
X185762600Y-94589600D02*
X186690000Y-94589600D01*
%TO.N,GND*%
X182727600Y-92862400D02*
X182626000Y-92964000D01*
X183883000Y-92862400D02*
X182727600Y-92862400D01*
X182575200Y-92913200D02*
X182626000Y-92964000D01*
X181482000Y-92913200D02*
X182575200Y-92913200D01*
X182626000Y-93980000D02*
X182626000Y-92964000D01*
X183235600Y-94589600D02*
X182880000Y-94234000D01*
X182880000Y-94234000D02*
X182626000Y-93980000D01*
X183937600Y-94589600D02*
X183235600Y-94589600D01*
%TO.N,VREF_OUT*%
X182372000Y-95504000D02*
X182372000Y-96266000D01*
X182626000Y-95250000D02*
X182372000Y-95504000D01*
X182626000Y-94742000D02*
X182626000Y-95250000D01*
X182422800Y-94538800D02*
X182626000Y-94742000D01*
X181965600Y-94538800D02*
X182422800Y-94538800D01*
X182524400Y-96418400D02*
X182372000Y-96266000D01*
X183438800Y-96418400D02*
X182524400Y-96418400D01*
%TO.N,/MCU/ADC1_IN3*%
X183134000Y-99568000D02*
X183388000Y-99314000D01*
X181610000Y-99568000D02*
X183134000Y-99568000D01*
X181396000Y-99782000D02*
X181610000Y-99568000D01*
X180661500Y-99782000D02*
X181396000Y-99782000D01*
%TO.N,/MCU/ADC1_IN2*%
X184149066Y-99923000D02*
X184581033Y-99491033D01*
X183642000Y-99923000D02*
X184149066Y-99923000D01*
X182271000Y-99923000D02*
X183642000Y-99923000D01*
X181912000Y-100282000D02*
X182118000Y-100076000D01*
X182118000Y-100076000D02*
X182271000Y-99923000D01*
X180661500Y-100282000D02*
X181912000Y-100282000D01*
%TO.N,/MCU/ADC2_IN10*%
X188976000Y-99568000D02*
X187325000Y-99568000D01*
X189052200Y-99491800D02*
X188976000Y-99568000D01*
X189052200Y-98499900D02*
X189052200Y-99491800D01*
X187325000Y-99568000D02*
X187325000Y-100408100D01*
X187325000Y-98829500D02*
X187325000Y-99568000D01*
%TO.N,+12V*%
X174625000Y-64008000D02*
X175736250Y-64008000D01*
X174443050Y-63826050D02*
X174625000Y-64008000D01*
X174443050Y-52817600D02*
X174443050Y-63826050D01*
X177361850Y-49898800D02*
X174443050Y-52817600D01*
%TO.N,CAN_RX*%
X206502000Y-69275000D02*
X212502000Y-69275000D01*
%TO.N,GND*%
X213309200Y-43002200D02*
X213360000Y-43053000D01*
X212058250Y-43002200D02*
X213309200Y-43002200D01*
X172472350Y-43053000D02*
X173736000Y-43053000D01*
X134035800Y-43002200D02*
X134112000Y-42926000D01*
X132810250Y-43002200D02*
X134035800Y-43002200D01*
%TO.N,Net-(Q10-D)*%
X181080400Y-48365400D02*
X180155850Y-48365400D01*
X181737000Y-50419000D02*
X181737000Y-49022000D01*
X181737000Y-49022000D02*
X181080400Y-48365400D01*
X182173000Y-50855000D02*
X181737000Y-50419000D01*
X197663250Y-50855000D02*
X182173000Y-50855000D01*
X199021250Y-52213000D02*
X197663250Y-50855000D01*
%TO.N,Net-(Q12-D)*%
X141507200Y-48416200D02*
X140569950Y-48416200D01*
X142240000Y-50419000D02*
X142240000Y-49149000D01*
X142240000Y-49149000D02*
X141507200Y-48416200D01*
X158077350Y-50905800D02*
X142726800Y-50905800D01*
X142726800Y-50905800D02*
X142240000Y-50419000D01*
X159435350Y-52263800D02*
X158077350Y-50905800D01*
%TO.N,Net-(Q1-S)*%
X101959400Y-48365400D02*
X100907850Y-48365400D01*
X102362000Y-48768000D02*
X101959400Y-48365400D01*
X102362000Y-50165000D02*
X102362000Y-48768000D01*
X118415250Y-50855000D02*
X103052000Y-50855000D01*
X103052000Y-50855000D02*
X102362000Y-50165000D01*
X119773250Y-52213000D02*
X118415250Y-50855000D01*
%TO.N,Net-(Q10-D)*%
X200896250Y-54088000D02*
X199021250Y-52213000D01*
X206343250Y-54088000D02*
X200896250Y-54088000D01*
%TO.N,Net-(Q9-G)*%
X143890350Y-65702800D02*
X143890350Y-67158800D01*
X142067550Y-65532000D02*
X143719550Y-65532000D01*
X143719550Y-65532000D02*
X143890350Y-65702800D01*
%TO.N,Net-(Q12-G)*%
X142067550Y-64008000D02*
X153752550Y-64008000D01*
X154648350Y-64903800D02*
X154565350Y-64820800D01*
X154648350Y-67158800D02*
X154648350Y-64903800D01*
X153752550Y-64008000D02*
X154565350Y-64820800D01*
%TO.N,Net-(Q2-G)*%
X141992350Y-52350400D02*
X141992350Y-51739800D01*
X141992350Y-51739800D02*
X142246350Y-51485800D01*
X142246350Y-51485800D02*
X143643350Y-51485800D01*
X143643350Y-51485800D02*
X143897350Y-51739800D01*
X143890350Y-51746800D02*
X143890350Y-53263800D01*
X143897350Y-51739800D02*
X143890350Y-51746800D01*
%TO.N,Net-(Q5-G)*%
X140417550Y-52350400D02*
X140417550Y-51663600D01*
X140417550Y-51663600D02*
X140885350Y-51195800D01*
X154148350Y-51195800D02*
X154565350Y-51612800D01*
X140885350Y-51195800D02*
X154148350Y-51195800D01*
X154565350Y-53193800D02*
X154635350Y-53263800D01*
X154565350Y-51612800D02*
X154565350Y-53193800D01*
%TO.N,Net-(U12-HO)*%
X140569950Y-50241200D02*
X140569950Y-51101078D01*
X140569950Y-51101078D02*
X139249150Y-52421878D01*
X139249150Y-52421878D02*
X139249150Y-57076800D01*
X139249150Y-57076800D02*
X139249150Y-55880000D01*
X140417550Y-54711600D02*
X140417550Y-54000400D01*
X139249150Y-55880000D02*
X139325350Y-55803800D01*
X139325350Y-55803800D02*
X140417550Y-54711600D01*
X139325350Y-55803800D02*
X140341350Y-54787800D01*
X140341350Y-54787800D02*
X141611350Y-54787800D01*
X141992350Y-54000400D02*
X141992350Y-54406800D01*
X141992350Y-54406800D02*
X141611350Y-54787800D01*
%TO.N,GND*%
X135947150Y-60248800D02*
X135947150Y-61976000D01*
X135947150Y-61976000D02*
X135896350Y-62026800D01*
X141789150Y-62026800D02*
X141789150Y-60579000D01*
X141789150Y-60579000D02*
X141865350Y-60502800D01*
%TO.N,Net-(U12-LO)*%
X140417550Y-65532000D02*
X141027150Y-65532000D01*
X141738350Y-57127600D02*
X141789150Y-57076800D01*
X141027150Y-65532000D02*
X141230350Y-65328800D01*
X141230350Y-59232800D02*
X141738350Y-58724800D01*
X141738350Y-58724800D02*
X141738350Y-57127600D01*
X141230350Y-65328800D02*
X141230350Y-63804800D01*
X141230350Y-63804800D02*
X141230350Y-59232800D01*
X140417550Y-64008000D02*
X141027150Y-64008000D01*
X141027150Y-64008000D02*
X141230350Y-63804800D01*
X140112750Y-67310000D02*
X140519150Y-67310000D01*
X140519150Y-67310000D02*
X141230350Y-66598800D01*
X141230350Y-66598800D02*
X141230350Y-65328800D01*
%TO.N,GND*%
X141937750Y-67310000D02*
X142576550Y-67310000D01*
X142576550Y-67310000D02*
X142754350Y-67487800D01*
X142754350Y-67487800D02*
X142754350Y-68503800D01*
X142754350Y-68503800D02*
X144385350Y-70134800D01*
X144385350Y-70134800D02*
X144405350Y-70134800D01*
X159448350Y-66158800D02*
X156157350Y-66158800D01*
X156157350Y-66158800D02*
X155962350Y-65963800D01*
X155962350Y-65963800D02*
X155962350Y-65328800D01*
X148690350Y-66158800D02*
X145235350Y-66158800D01*
X145235350Y-66158800D02*
X145040350Y-65963800D01*
X145040350Y-65963800D02*
X145040350Y-65328800D01*
%TO.N,Net-(D6-K)*%
X137979150Y-54152800D02*
X137775950Y-53949600D01*
X137979150Y-57076800D02*
X137979150Y-55676800D01*
X136099550Y-55981600D02*
X136404350Y-55676800D01*
X137979150Y-55676800D02*
X137979150Y-54152800D01*
X136099550Y-56570800D02*
X136099550Y-55981600D01*
X136404350Y-55676800D02*
X137979150Y-55676800D01*
%TO.N,Net-(Q12-D)*%
X136099550Y-58470800D02*
X136099550Y-59055000D01*
X136099550Y-59055000D02*
X136404350Y-59359800D01*
X136404350Y-59359800D02*
X139706350Y-59359800D01*
X140595350Y-58470800D02*
X140595350Y-57153000D01*
X139706350Y-59359800D02*
X140595350Y-58470800D01*
X140595350Y-57153000D02*
X140519150Y-57076800D01*
X140519150Y-57076800D02*
X140519150Y-55753000D01*
X140519150Y-55753000D02*
X140722350Y-55549800D01*
%TO.N,Net-(U13--)*%
X166511050Y-46202600D02*
X168931150Y-46202600D01*
X168931150Y-46202600D02*
X169134350Y-46405800D01*
X169134350Y-49743800D02*
X168789350Y-50088800D01*
X169134350Y-46405800D02*
X169134350Y-49743800D01*
X168789350Y-50088800D02*
X166757350Y-50088800D01*
%TO.N,Net-(U13-+)*%
X171657350Y-50088800D02*
X169678350Y-50088800D01*
X169424350Y-49834800D02*
X169424350Y-46278800D01*
X169678350Y-50088800D02*
X169424350Y-49834800D01*
X168698150Y-45552600D02*
X166511050Y-45552600D01*
X169424350Y-46278800D02*
X168698150Y-45552600D01*
%TO.N,GND*%
X166511050Y-46852600D02*
X165553150Y-46852600D01*
X165553150Y-46852600D02*
X165360350Y-46659800D01*
X165360350Y-46659800D02*
X165360350Y-45008800D01*
X165360350Y-43738800D02*
X165487350Y-43611800D01*
X165360350Y-45008800D02*
X165360350Y-44881800D01*
X165360350Y-44881800D02*
X165360350Y-43738800D01*
X166511050Y-44902600D02*
X166490250Y-44881800D01*
X166490250Y-44881800D02*
X165360350Y-44881800D01*
X172236050Y-46202600D02*
X171456350Y-46202600D01*
X171262350Y-43551800D02*
X171262350Y-46008600D01*
X171761150Y-43053000D02*
X171262350Y-43551800D01*
X172472350Y-43053000D02*
X171761150Y-43053000D01*
X171262350Y-46008600D02*
X171456350Y-46202600D01*
%TO.N,Net-(Q8-G)*%
X104228250Y-65652000D02*
X104228250Y-67108000D01*
X102405450Y-65481200D02*
X104057450Y-65481200D01*
X104057450Y-65481200D02*
X104228250Y-65652000D01*
%TO.N,Net-(Q11-G)*%
X102405450Y-63957200D02*
X114090450Y-63957200D01*
X114986250Y-64853000D02*
X114903250Y-64770000D01*
X114986250Y-67108000D02*
X114986250Y-64853000D01*
X114090450Y-63957200D02*
X114903250Y-64770000D01*
%TO.N,Net-(Q1-G)*%
X102330250Y-52299600D02*
X102330250Y-51689000D01*
X102330250Y-51689000D02*
X102584250Y-51435000D01*
X102584250Y-51435000D02*
X103981250Y-51435000D01*
X103981250Y-51435000D02*
X104235250Y-51689000D01*
X104228250Y-51696000D02*
X104228250Y-53213000D01*
X104235250Y-51689000D02*
X104228250Y-51696000D01*
%TO.N,Net-(Q4-G)*%
X100755450Y-52299600D02*
X100755450Y-51612800D01*
X100755450Y-51612800D02*
X101223250Y-51145000D01*
X114486250Y-51145000D02*
X114903250Y-51562000D01*
X101223250Y-51145000D02*
X114486250Y-51145000D01*
X114903250Y-53143000D02*
X114973250Y-53213000D01*
X114903250Y-51562000D02*
X114903250Y-53143000D01*
%TO.N,Net-(U3-HO)*%
X100907850Y-50190400D02*
X100907850Y-51050278D01*
X100907850Y-51050278D02*
X99587050Y-52371078D01*
X99587050Y-52371078D02*
X99587050Y-57026000D01*
X99587050Y-57026000D02*
X99587050Y-55829200D01*
X100755450Y-54660800D02*
X100755450Y-53949600D01*
X99587050Y-55829200D02*
X99663250Y-55753000D01*
X99663250Y-55753000D02*
X100755450Y-54660800D01*
X99663250Y-55753000D02*
X100679250Y-54737000D01*
X100679250Y-54737000D02*
X101949250Y-54737000D01*
X102330250Y-53949600D02*
X102330250Y-54356000D01*
X102330250Y-54356000D02*
X101949250Y-54737000D01*
%TO.N,GND*%
X96285050Y-60198000D02*
X96285050Y-61925200D01*
X96285050Y-61925200D02*
X96234250Y-61976000D01*
X102127050Y-61976000D02*
X102127050Y-60528200D01*
X102127050Y-60528200D02*
X102203250Y-60452000D01*
%TO.N,Net-(U3-LO)*%
X100755450Y-65481200D02*
X101365050Y-65481200D01*
X102076250Y-57076800D02*
X102127050Y-57026000D01*
X101365050Y-65481200D02*
X101568250Y-65278000D01*
X101568250Y-59182000D02*
X102076250Y-58674000D01*
X102076250Y-58674000D02*
X102076250Y-57076800D01*
X101568250Y-65278000D02*
X101568250Y-63754000D01*
X101568250Y-63754000D02*
X101568250Y-59182000D01*
X100755450Y-63957200D02*
X101365050Y-63957200D01*
X101365050Y-63957200D02*
X101568250Y-63754000D01*
X100450650Y-67259200D02*
X100857050Y-67259200D01*
X100857050Y-67259200D02*
X101568250Y-66548000D01*
X101568250Y-66548000D02*
X101568250Y-65278000D01*
%TO.N,GND*%
X102275650Y-67259200D02*
X102914450Y-67259200D01*
X102914450Y-67259200D02*
X103092250Y-67437000D01*
X103092250Y-67437000D02*
X103092250Y-68453000D01*
X103092250Y-68453000D02*
X104723250Y-70084000D01*
X104723250Y-70084000D02*
X104743250Y-70084000D01*
X119786250Y-66108000D02*
X116495250Y-66108000D01*
X116495250Y-66108000D02*
X116300250Y-65913000D01*
X116300250Y-65913000D02*
X116300250Y-65278000D01*
X109028250Y-66108000D02*
X105573250Y-66108000D01*
X105573250Y-66108000D02*
X105378250Y-65913000D01*
X105378250Y-65913000D02*
X105378250Y-65278000D01*
%TO.N,Net-(D1-K)*%
X98317050Y-54102000D02*
X98113850Y-53898800D01*
X98317050Y-57026000D02*
X98317050Y-55626000D01*
X96437450Y-55930800D02*
X96742250Y-55626000D01*
X98317050Y-55626000D02*
X98317050Y-54102000D01*
X96437450Y-56520000D02*
X96437450Y-55930800D01*
X96742250Y-55626000D02*
X98317050Y-55626000D01*
%TO.N,Net-(Q1-S)*%
X96437450Y-58420000D02*
X96437450Y-59004200D01*
X96437450Y-59004200D02*
X96742250Y-59309000D01*
X96742250Y-59309000D02*
X100044250Y-59309000D01*
X100933250Y-58420000D02*
X100933250Y-57102200D01*
X100044250Y-59309000D02*
X100933250Y-58420000D01*
X100933250Y-57102200D02*
X100857050Y-57026000D01*
X100857050Y-57026000D02*
X100857050Y-55702200D01*
X100857050Y-55702200D02*
X101060250Y-55499000D01*
%TO.N,Net-(U8--)*%
X126848950Y-46151800D02*
X129269050Y-46151800D01*
X129269050Y-46151800D02*
X129472250Y-46355000D01*
X129472250Y-49693000D02*
X129127250Y-50038000D01*
X129472250Y-46355000D02*
X129472250Y-49693000D01*
X129127250Y-50038000D02*
X127095250Y-50038000D01*
%TO.N,Net-(U8-+)*%
X131995250Y-50038000D02*
X130016250Y-50038000D01*
X129762250Y-49784000D02*
X129762250Y-46228000D01*
X130016250Y-50038000D02*
X129762250Y-49784000D01*
X129036050Y-45501800D02*
X126848950Y-45501800D01*
X129762250Y-46228000D02*
X129036050Y-45501800D01*
%TO.N,GND*%
X126848950Y-46801800D02*
X125891050Y-46801800D01*
X125891050Y-46801800D02*
X125698250Y-46609000D01*
X125698250Y-46609000D02*
X125698250Y-44958000D01*
X125698250Y-43688000D02*
X125825250Y-43561000D01*
X125698250Y-44958000D02*
X125698250Y-44831000D01*
X125698250Y-44831000D02*
X125698250Y-43688000D01*
X126848950Y-44851800D02*
X126828150Y-44831000D01*
X126828150Y-44831000D02*
X125698250Y-44831000D01*
X132573950Y-46151800D02*
X131794250Y-46151800D01*
X131600250Y-43501000D02*
X131600250Y-45957800D01*
X132099050Y-43002200D02*
X131600250Y-43501000D01*
X132810250Y-43002200D02*
X132099050Y-43002200D01*
X131600250Y-45957800D02*
X131794250Y-46151800D01*
%TO.N,+12V*%
X177196750Y-63817500D02*
X177006250Y-64008000D01*
X177565050Y-63449200D02*
X177196750Y-63817500D01*
%TO.N,GND*%
X210848250Y-45957800D02*
X211042250Y-46151800D01*
X212058250Y-43002200D02*
X211347050Y-43002200D01*
X211347050Y-43002200D02*
X210848250Y-43501000D01*
X210848250Y-43501000D02*
X210848250Y-45957800D01*
X211821950Y-46151800D02*
X211042250Y-46151800D01*
X206076150Y-44831000D02*
X204946250Y-44831000D01*
X206096950Y-44851800D02*
X206076150Y-44831000D01*
X204946250Y-44831000D02*
X204946250Y-43688000D01*
X204946250Y-44958000D02*
X204946250Y-44831000D01*
X204946250Y-43688000D02*
X205073250Y-43561000D01*
X204946250Y-46609000D02*
X204946250Y-44958000D01*
X205139050Y-46801800D02*
X204946250Y-46609000D01*
X206096950Y-46801800D02*
X205139050Y-46801800D01*
%TO.N,Net-(U15-+)*%
X209010250Y-46228000D02*
X208284050Y-45501800D01*
X208284050Y-45501800D02*
X206096950Y-45501800D01*
X209264250Y-50038000D02*
X209010250Y-49784000D01*
X209010250Y-49784000D02*
X209010250Y-46228000D01*
X211243250Y-50038000D02*
X209264250Y-50038000D01*
%TO.N,Net-(U15--)*%
X208375250Y-50038000D02*
X206343250Y-50038000D01*
X208720250Y-46355000D02*
X208720250Y-49693000D01*
X208720250Y-49693000D02*
X208375250Y-50038000D01*
X208517050Y-46151800D02*
X208720250Y-46355000D01*
X206096950Y-46151800D02*
X208517050Y-46151800D01*
%TO.N,Net-(Q10-D)*%
X180105050Y-55702200D02*
X180308250Y-55499000D01*
X180105050Y-57026000D02*
X180105050Y-55702200D01*
X180181250Y-57102200D02*
X180105050Y-57026000D01*
X179292250Y-59309000D02*
X180181250Y-58420000D01*
X180181250Y-58420000D02*
X180181250Y-57102200D01*
X175990250Y-59309000D02*
X179292250Y-59309000D01*
X175685450Y-59004200D02*
X175990250Y-59309000D01*
X175685450Y-58420000D02*
X175685450Y-59004200D01*
%TO.N,Net-(D7-K)*%
X175990250Y-55626000D02*
X177565050Y-55626000D01*
X175685450Y-56520000D02*
X175685450Y-55930800D01*
X177565050Y-55626000D02*
X177565050Y-54102000D01*
X175685450Y-55930800D02*
X175990250Y-55626000D01*
X177565050Y-57026000D02*
X177565050Y-55626000D01*
X177565050Y-54102000D02*
X177361850Y-53898800D01*
%TO.N,GND*%
X184626250Y-65913000D02*
X184626250Y-65278000D01*
X184821250Y-66108000D02*
X184626250Y-65913000D01*
X188276250Y-66108000D02*
X184821250Y-66108000D01*
X195548250Y-65913000D02*
X195548250Y-65278000D01*
X195743250Y-66108000D02*
X195548250Y-65913000D01*
X199034250Y-66108000D02*
X195743250Y-66108000D01*
X183971250Y-70084000D02*
X183991250Y-70084000D01*
X182340250Y-68453000D02*
X183971250Y-70084000D01*
X182340250Y-67437000D02*
X182340250Y-68453000D01*
X182162450Y-67259200D02*
X182340250Y-67437000D01*
X181523650Y-67259200D02*
X182162450Y-67259200D01*
%TO.N,Net-(U14-LO)*%
X180816250Y-66548000D02*
X180816250Y-65278000D01*
X180105050Y-67259200D02*
X180816250Y-66548000D01*
X179698650Y-67259200D02*
X180105050Y-67259200D01*
X180613050Y-63957200D02*
X180816250Y-63754000D01*
X180003450Y-63957200D02*
X180613050Y-63957200D01*
X180816250Y-63754000D02*
X180816250Y-59182000D01*
X180816250Y-65278000D02*
X180816250Y-63754000D01*
X181324250Y-58674000D02*
X181324250Y-57076800D01*
X180816250Y-59182000D02*
X181324250Y-58674000D01*
X180613050Y-65481200D02*
X180816250Y-65278000D01*
X181324250Y-57076800D02*
X181375050Y-57026000D01*
X180003450Y-65481200D02*
X180613050Y-65481200D01*
%TO.N,GND*%
X181375050Y-60528200D02*
X181451250Y-60452000D01*
X181375050Y-61976000D02*
X181375050Y-60528200D01*
%TO.N,+12V*%
X175533050Y-63804800D02*
X175533050Y-63148000D01*
X175736250Y-64008000D02*
X175533050Y-63804800D01*
X177006250Y-64008000D02*
X175736250Y-64008000D01*
X177565050Y-61976000D02*
X177565050Y-63449200D01*
%TO.N,GND*%
X175533050Y-61925200D02*
X175482250Y-61976000D01*
X175533050Y-60198000D02*
X175533050Y-61925200D01*
%TO.N,Net-(U14-HO)*%
X181578250Y-54356000D02*
X181197250Y-54737000D01*
X181578250Y-53949600D02*
X181578250Y-54356000D01*
X179927250Y-54737000D02*
X181197250Y-54737000D01*
X178911250Y-55753000D02*
X179927250Y-54737000D01*
X178911250Y-55753000D02*
X180003450Y-54660800D01*
X178835050Y-55829200D02*
X178911250Y-55753000D01*
X180003450Y-54660800D02*
X180003450Y-53949600D01*
X178835050Y-57026000D02*
X178835050Y-55829200D01*
X178835050Y-52371078D02*
X178835050Y-57026000D01*
X180155850Y-51050278D02*
X178835050Y-52371078D01*
X180155850Y-50190400D02*
X180155850Y-51050278D01*
%TO.N,Net-(Q6-G)*%
X194151250Y-51562000D02*
X194151250Y-53143000D01*
X194151250Y-53143000D02*
X194221250Y-53213000D01*
X180471250Y-51145000D02*
X193734250Y-51145000D01*
X193734250Y-51145000D02*
X194151250Y-51562000D01*
X180003450Y-51612800D02*
X180471250Y-51145000D01*
X180003450Y-52299600D02*
X180003450Y-51612800D01*
%TO.N,Net-(Q3-G)*%
X183483250Y-51689000D02*
X183476250Y-51696000D01*
X183476250Y-51696000D02*
X183476250Y-53213000D01*
X183229250Y-51435000D02*
X183483250Y-51689000D01*
X181832250Y-51435000D02*
X183229250Y-51435000D01*
X181578250Y-51689000D02*
X181832250Y-51435000D01*
X181578250Y-52299600D02*
X181578250Y-51689000D01*
%TO.N,Net-(Q13-G)*%
X193338450Y-63957200D02*
X194151250Y-64770000D01*
X194234250Y-67108000D02*
X194234250Y-64853000D01*
X194234250Y-64853000D02*
X194151250Y-64770000D01*
X181653450Y-63957200D02*
X193338450Y-63957200D01*
%TO.N,Net-(Q10-G)*%
X183305450Y-65481200D02*
X183476250Y-65652000D01*
X181653450Y-65481200D02*
X183305450Y-65481200D01*
X183476250Y-65652000D02*
X183476250Y-67108000D01*
%TD*%
%TA.AperFunction,Conductor*%
%TO.N,VBUS*%
G36*
X203444311Y-30734597D02*
G01*
X203621191Y-30752018D01*
X203645019Y-30756757D01*
X203809251Y-30806576D01*
X203831703Y-30815877D01*
X203983048Y-30896772D01*
X204003260Y-30910277D01*
X204135916Y-31019145D01*
X204153104Y-31036333D01*
X204261972Y-31168989D01*
X204275477Y-31189201D01*
X204356371Y-31340543D01*
X204365674Y-31363001D01*
X204415490Y-31527224D01*
X204420232Y-31551065D01*
X204437653Y-31727939D01*
X204438250Y-31740093D01*
X204438250Y-42872864D01*
X204430014Y-42917302D01*
X204406399Y-42955837D01*
X204340716Y-43028783D01*
X204246070Y-43192715D01*
X204187576Y-43372742D01*
X204167790Y-43561000D01*
X204187576Y-43749257D01*
X204246070Y-43929284D01*
X204329137Y-44073160D01*
X204345750Y-44135160D01*
X204345750Y-44783513D01*
X204344689Y-44799699D01*
X204340568Y-44830999D01*
X204344689Y-44862301D01*
X204345750Y-44878487D01*
X204345750Y-46561513D01*
X204344689Y-46577699D01*
X204340567Y-46609000D01*
X204349433Y-46676335D01*
X204349433Y-46676336D01*
X204361206Y-46765762D01*
X204427961Y-46926924D01*
X204427189Y-46927243D01*
X204431672Y-46935632D01*
X204438250Y-46975484D01*
X204438250Y-48015907D01*
X204437653Y-48028061D01*
X204420232Y-48204934D01*
X204415490Y-48228775D01*
X204365674Y-48392998D01*
X204356371Y-48415456D01*
X204275477Y-48566798D01*
X204261972Y-48587010D01*
X204153104Y-48719666D01*
X204135916Y-48736854D01*
X204003260Y-48845722D01*
X203983048Y-48859227D01*
X203831706Y-48940121D01*
X203809248Y-48949424D01*
X203645025Y-48999240D01*
X203621184Y-49003982D01*
X203444311Y-49021403D01*
X203432157Y-49022000D01*
X182451427Y-49022000D01*
X182394170Y-49007989D01*
X182349852Y-48969124D01*
X182328488Y-48914186D01*
X182327394Y-48905875D01*
X182322044Y-48865238D01*
X182261536Y-48719159D01*
X182229883Y-48677908D01*
X182189454Y-48625219D01*
X182189452Y-48625217D01*
X182189450Y-48625215D01*
X182165282Y-48593718D01*
X182140229Y-48574494D01*
X182128035Y-48563800D01*
X181538599Y-47974364D01*
X181527903Y-47962168D01*
X181508681Y-47937116D01*
X181383241Y-47840864D01*
X181343402Y-47824362D01*
X181310460Y-47804208D01*
X181285319Y-47774900D01*
X181198562Y-47634244D01*
X181198561Y-47634242D01*
X181074507Y-47510188D01*
X180925184Y-47418086D01*
X180758647Y-47362900D01*
X180655859Y-47352400D01*
X179655841Y-47352400D01*
X179553053Y-47362900D01*
X179386515Y-47418086D01*
X179237192Y-47510188D01*
X179113138Y-47634242D01*
X179021036Y-47783565D01*
X178965850Y-47950102D01*
X178955350Y-48052892D01*
X178955350Y-48591707D01*
X178936124Y-48658028D01*
X178884407Y-48703782D01*
X178816238Y-48714783D01*
X178752755Y-48687617D01*
X178713645Y-48630711D01*
X178696664Y-48579466D01*
X178604562Y-48430144D01*
X178604561Y-48430142D01*
X178480507Y-48306088D01*
X178423757Y-48271085D01*
X178384727Y-48232880D01*
X178365898Y-48181612D01*
X178370922Y-48127227D01*
X178373176Y-48120288D01*
X178373179Y-48120284D01*
X178431674Y-47940256D01*
X178451460Y-47752000D01*
X178431674Y-47563744D01*
X178387027Y-47426335D01*
X178373179Y-47383715D01*
X178278533Y-47219783D01*
X178151870Y-47079110D01*
X177998730Y-46967848D01*
X177825802Y-46890855D01*
X177640648Y-46851500D01*
X177640646Y-46851500D01*
X177451354Y-46851500D01*
X177451352Y-46851500D01*
X177266197Y-46890855D01*
X177093269Y-46967848D01*
X176940129Y-47079110D01*
X176813466Y-47219783D01*
X176718820Y-47383715D01*
X176660326Y-47563742D01*
X176652916Y-47634244D01*
X176640540Y-47752000D01*
X176660326Y-47940256D01*
X176660327Y-47940259D01*
X176678340Y-47995700D01*
X176683336Y-48050293D01*
X176664305Y-48101705D01*
X176624967Y-48139886D01*
X176573011Y-48157375D01*
X176559053Y-48158800D01*
X176392515Y-48213986D01*
X176243192Y-48306088D01*
X176119138Y-48430142D01*
X176027036Y-48579465D01*
X175971850Y-48746002D01*
X175961350Y-48848791D01*
X175961350Y-48898000D01*
X175944737Y-48960000D01*
X175899350Y-49005387D01*
X175837350Y-49022000D01*
X170148850Y-49022000D01*
X170086850Y-49005387D01*
X170041463Y-48960000D01*
X170024850Y-48898000D01*
X170024850Y-47529337D01*
X170039492Y-47470884D01*
X170079959Y-47426235D01*
X170136696Y-47405934D01*
X170196301Y-47414775D01*
X170251510Y-47437644D01*
X170329891Y-47447963D01*
X170408271Y-47458282D01*
X170408271Y-47458281D01*
X170408272Y-47458282D01*
X170439574Y-47454160D01*
X170455759Y-47453100D01*
X171222292Y-47453100D01*
X171262150Y-47459681D01*
X171291705Y-47475478D01*
X171356458Y-47502299D01*
X171441788Y-47537644D01*
X171559189Y-47553100D01*
X172912910Y-47553099D01*
X172912912Y-47553099D01*
X172971611Y-47545371D01*
X173030312Y-47537644D01*
X173176391Y-47477136D01*
X173301832Y-47380882D01*
X173398086Y-47255441D01*
X173458594Y-47109362D01*
X173474050Y-46991961D01*
X173474049Y-46738064D01*
X173486128Y-46684682D01*
X173520014Y-46641698D01*
X173569103Y-46617491D01*
X173623829Y-46616775D01*
X173641354Y-46620500D01*
X173830646Y-46620500D01*
X173830648Y-46620500D01*
X173954083Y-46594262D01*
X174015803Y-46581144D01*
X174188730Y-46504151D01*
X174226378Y-46476798D01*
X174341870Y-46392889D01*
X174468533Y-46252216D01*
X174563179Y-46088284D01*
X174577158Y-46045262D01*
X174621674Y-45908256D01*
X174641460Y-45720000D01*
X174635505Y-45663344D01*
X174644515Y-45602333D01*
X174681804Y-45553207D01*
X174738147Y-45528121D01*
X174799606Y-45533282D01*
X174850976Y-45567413D01*
X174908129Y-45630889D01*
X175061269Y-45742151D01*
X175234197Y-45819144D01*
X175419352Y-45858500D01*
X175419354Y-45858500D01*
X175608646Y-45858500D01*
X175608648Y-45858500D01*
X175732083Y-45832262D01*
X175793803Y-45819144D01*
X175966730Y-45742151D01*
X176119871Y-45630888D01*
X176246533Y-45490216D01*
X176341179Y-45326284D01*
X176399674Y-45146256D01*
X176419460Y-44958000D01*
X176399674Y-44769744D01*
X176359414Y-44645838D01*
X176341179Y-44589715D01*
X176246533Y-44425783D01*
X176119870Y-44285110D01*
X175966730Y-44173848D01*
X175793802Y-44096855D01*
X175608648Y-44057500D01*
X175608646Y-44057500D01*
X175419354Y-44057500D01*
X175419352Y-44057500D01*
X175234197Y-44096855D01*
X175061269Y-44173848D01*
X174917342Y-44278418D01*
X174882775Y-44296031D01*
X174844457Y-44302100D01*
X174481961Y-44302100D01*
X173308981Y-44302100D01*
X173252686Y-44288585D01*
X173208663Y-44250986D01*
X173186508Y-44197498D01*
X173191050Y-44139782D01*
X173221299Y-44090419D01*
X173241806Y-44069912D01*
X173315062Y-43996656D01*
X173330553Y-43971540D01*
X173365161Y-43934929D01*
X173411484Y-43915106D01*
X173461870Y-43915350D01*
X173641352Y-43953500D01*
X173641354Y-43953500D01*
X173830646Y-43953500D01*
X173830648Y-43953500D01*
X173954083Y-43927262D01*
X174015803Y-43914144D01*
X174188730Y-43837151D01*
X174257559Y-43787144D01*
X174341870Y-43725889D01*
X174468533Y-43585216D01*
X174563179Y-43421284D01*
X174604444Y-43294284D01*
X174621674Y-43241256D01*
X174641460Y-43053000D01*
X174621674Y-42864744D01*
X174571817Y-42711300D01*
X174563179Y-42684715D01*
X174468533Y-42520783D01*
X174341870Y-42380110D01*
X174188730Y-42268848D01*
X174015802Y-42191855D01*
X173830648Y-42152500D01*
X173830646Y-42152500D01*
X173641354Y-42152500D01*
X173641351Y-42152500D01*
X173461870Y-42190649D01*
X173411486Y-42190893D01*
X173365163Y-42171071D01*
X173330551Y-42134456D01*
X173325399Y-42126104D01*
X173315062Y-42109344D01*
X173315061Y-42109343D01*
X173315060Y-42109341D01*
X173191007Y-41985288D01*
X173041684Y-41893186D01*
X172875147Y-41838000D01*
X172781885Y-41828473D01*
X172772358Y-41827500D01*
X172172341Y-41827500D01*
X172069553Y-41838000D01*
X171903015Y-41893186D01*
X171753692Y-41985288D01*
X171629636Y-42109344D01*
X171627887Y-42112181D01*
X171582781Y-42155360D01*
X171522350Y-42171082D01*
X171461919Y-42155360D01*
X171416813Y-42112181D01*
X171415063Y-42109344D01*
X171291007Y-41985288D01*
X171141684Y-41893186D01*
X170975147Y-41838000D01*
X170881885Y-41828473D01*
X170872358Y-41827500D01*
X170272341Y-41827500D01*
X170169553Y-41838000D01*
X170003015Y-41893186D01*
X169853692Y-41985288D01*
X169729638Y-42109342D01*
X169637536Y-42258664D01*
X169600843Y-42369396D01*
X169562149Y-42425958D01*
X169499322Y-42453330D01*
X169374431Y-42469771D01*
X169361524Y-42479021D01*
X169252788Y-42524061D01*
X169205335Y-42533500D01*
X169069352Y-42533500D01*
X168884197Y-42572855D01*
X168711269Y-42649848D01*
X168558129Y-42761110D01*
X168431466Y-42901783D01*
X168336820Y-43065715D01*
X168278326Y-43245742D01*
X168258540Y-43434000D01*
X168278326Y-43622257D01*
X168336820Y-43802284D01*
X168431466Y-43966216D01*
X168531650Y-44077481D01*
X168555264Y-44116015D01*
X168563500Y-44160453D01*
X168563500Y-44828100D01*
X168546887Y-44890100D01*
X168501500Y-44935487D01*
X168439500Y-44952100D01*
X167873049Y-44952100D01*
X167811049Y-44935487D01*
X167765662Y-44890100D01*
X167749049Y-44828100D01*
X167749049Y-44763237D01*
X167733594Y-44645839D01*
X167733594Y-44645838D01*
X167673086Y-44499759D01*
X167616323Y-44425784D01*
X167576832Y-44374317D01*
X167451390Y-44278063D01*
X167305312Y-44217556D01*
X167187912Y-44202100D01*
X167187911Y-44202100D01*
X166401122Y-44202100D01*
X166339122Y-44185487D01*
X166293735Y-44140099D01*
X166277122Y-44078099D01*
X166293734Y-44016101D01*
X166314529Y-43980084D01*
X166373024Y-43800056D01*
X166392810Y-43611800D01*
X166373024Y-43423544D01*
X166315253Y-43245744D01*
X166314529Y-43243515D01*
X166219883Y-43079583D01*
X166093220Y-42938910D01*
X165940080Y-42827648D01*
X165767152Y-42750655D01*
X165581998Y-42711300D01*
X165581996Y-42711300D01*
X165392704Y-42711300D01*
X165392702Y-42711300D01*
X165207547Y-42750655D01*
X165034619Y-42827648D01*
X164881479Y-42938910D01*
X164754816Y-43079583D01*
X164660170Y-43243515D01*
X164601676Y-43423542D01*
X164581890Y-43611799D01*
X164601676Y-43800057D01*
X164660170Y-43980084D01*
X164743237Y-44123960D01*
X164759850Y-44185960D01*
X164759850Y-44834313D01*
X164758789Y-44850499D01*
X164754668Y-44881799D01*
X164758789Y-44913101D01*
X164759850Y-44929287D01*
X164759850Y-46612313D01*
X164758789Y-46628499D01*
X164754667Y-46659800D01*
X164763533Y-46727135D01*
X164763533Y-46727136D01*
X164775306Y-46816562D01*
X164835813Y-46962640D01*
X164932066Y-47088081D01*
X164947557Y-47099967D01*
X164953648Y-47104641D01*
X164957118Y-47107303D01*
X164969314Y-47117999D01*
X165094949Y-47243634D01*
X165105644Y-47255829D01*
X165124867Y-47280882D01*
X165184104Y-47326335D01*
X165218074Y-47352401D01*
X165250309Y-47377136D01*
X165396388Y-47437644D01*
X165511742Y-47452830D01*
X165555584Y-47470989D01*
X165555626Y-47470889D01*
X165631458Y-47502299D01*
X165716788Y-47537644D01*
X165834189Y-47553100D01*
X167187910Y-47553099D01*
X167187912Y-47553099D01*
X167246611Y-47545371D01*
X167305312Y-47537644D01*
X167451391Y-47477136D01*
X167576832Y-47380882D01*
X167673086Y-47255441D01*
X167733594Y-47109362D01*
X167749050Y-46991961D01*
X167749050Y-46927100D01*
X167765663Y-46865100D01*
X167811050Y-46819713D01*
X167873050Y-46803100D01*
X168409850Y-46803100D01*
X168471850Y-46819713D01*
X168517237Y-46865100D01*
X168533850Y-46927100D01*
X168533850Y-48898000D01*
X168517237Y-48960000D01*
X168471850Y-49005387D01*
X168409850Y-49022000D01*
X142920226Y-49022000D01*
X142872773Y-49012561D01*
X142832545Y-48985681D01*
X142805665Y-48945453D01*
X142789211Y-48905729D01*
X142764536Y-48846159D01*
X142714305Y-48780697D01*
X142702708Y-48765583D01*
X142668282Y-48720717D01*
X142643229Y-48701494D01*
X142631034Y-48690799D01*
X141965399Y-48025164D01*
X141954703Y-48012968D01*
X141935481Y-47987916D01*
X141810040Y-47891663D01*
X141753142Y-47868094D01*
X141720202Y-47847940D01*
X141695058Y-47818630D01*
X141612661Y-47685042D01*
X141488607Y-47560988D01*
X141339284Y-47468886D01*
X141172747Y-47413700D01*
X141069959Y-47403200D01*
X140069941Y-47403200D01*
X139967153Y-47413700D01*
X139800615Y-47468886D01*
X139651292Y-47560988D01*
X139527238Y-47685042D01*
X139435136Y-47834365D01*
X139379950Y-48000902D01*
X139369450Y-48103692D01*
X139369450Y-48642507D01*
X139350224Y-48708828D01*
X139298507Y-48754582D01*
X139230338Y-48765583D01*
X139166855Y-48738417D01*
X139127745Y-48681511D01*
X139110764Y-48630266D01*
X139018662Y-48480944D01*
X139018661Y-48480942D01*
X138894607Y-48356888D01*
X138745284Y-48264786D01*
X138594124Y-48214696D01*
X138540656Y-48179603D01*
X138511788Y-48122535D01*
X138515196Y-48058676D01*
X138553674Y-47940256D01*
X138573460Y-47752000D01*
X138553674Y-47563744D01*
X138509027Y-47426335D01*
X138495179Y-47383715D01*
X138400533Y-47219783D01*
X138273870Y-47079110D01*
X138120730Y-46967848D01*
X137947802Y-46890855D01*
X137762648Y-46851500D01*
X137762646Y-46851500D01*
X137573354Y-46851500D01*
X137573352Y-46851500D01*
X137388197Y-46890855D01*
X137215269Y-46967848D01*
X137062129Y-47079110D01*
X136935466Y-47219783D01*
X136840820Y-47383715D01*
X136782326Y-47563742D01*
X136762540Y-47752000D01*
X136782326Y-47940257D01*
X136844105Y-48130394D01*
X136849129Y-48184779D01*
X136830300Y-48236046D01*
X136791270Y-48274251D01*
X136657292Y-48356888D01*
X136533238Y-48480942D01*
X136441136Y-48630265D01*
X136385950Y-48796802D01*
X136374808Y-48905875D01*
X136373378Y-48905729D01*
X136358837Y-48960000D01*
X136313450Y-49005387D01*
X136251450Y-49022000D01*
X130486750Y-49022000D01*
X130424750Y-49005387D01*
X130379363Y-48960000D01*
X130362750Y-48898000D01*
X130362750Y-47343396D01*
X130381449Y-47277915D01*
X130431907Y-47232184D01*
X130498905Y-47219993D01*
X130562237Y-47245021D01*
X130574262Y-47254248D01*
X130574264Y-47254250D01*
X130668209Y-47326336D01*
X130814288Y-47386844D01*
X130939748Y-47403361D01*
X130971049Y-47407482D01*
X130971049Y-47407481D01*
X130971050Y-47407482D01*
X131002352Y-47403360D01*
X131018537Y-47402300D01*
X131560192Y-47402300D01*
X131600050Y-47408881D01*
X131629605Y-47424678D01*
X131697571Y-47452830D01*
X131779688Y-47486844D01*
X131897089Y-47502300D01*
X133250810Y-47502299D01*
X133250812Y-47502299D01*
X133309511Y-47494571D01*
X133368212Y-47486844D01*
X133514291Y-47426336D01*
X133639732Y-47330082D01*
X133735986Y-47204641D01*
X133796494Y-47058562D01*
X133811950Y-46941161D01*
X133811949Y-46662440D01*
X133811601Y-46659800D01*
X133806032Y-46617491D01*
X133796494Y-46545038D01*
X133787884Y-46524252D01*
X133778445Y-46476798D01*
X133787884Y-46429346D01*
X133796494Y-46408562D01*
X133811950Y-46291161D01*
X133811950Y-46226300D01*
X133828563Y-46164300D01*
X133873950Y-46118913D01*
X133935950Y-46102300D01*
X135195977Y-46102300D01*
X135246415Y-46113022D01*
X135272854Y-46132233D01*
X135273585Y-46131228D01*
X135437269Y-46250151D01*
X135610197Y-46327144D01*
X135795352Y-46366500D01*
X135795354Y-46366500D01*
X135984646Y-46366500D01*
X135984648Y-46366500D01*
X136108084Y-46340262D01*
X136169803Y-46327144D01*
X136342730Y-46250151D01*
X136375558Y-46226300D01*
X136495870Y-46138889D01*
X136548846Y-46080054D01*
X136622533Y-45998216D01*
X136717179Y-45834284D01*
X136775674Y-45654256D01*
X136795460Y-45466000D01*
X136775674Y-45277744D01*
X136745332Y-45184363D01*
X136717179Y-45097715D01*
X136622533Y-44933783D01*
X136495870Y-44793110D01*
X136342730Y-44681848D01*
X136169802Y-44604855D01*
X135984648Y-44565500D01*
X135984646Y-44565500D01*
X135795354Y-44565500D01*
X135795352Y-44565500D01*
X135610197Y-44604855D01*
X135437269Y-44681848D01*
X135284129Y-44793110D01*
X135223658Y-44860272D01*
X135181944Y-44890580D01*
X135131508Y-44901300D01*
X134873954Y-44901300D01*
X134815740Y-44886785D01*
X134771153Y-44846640D01*
X134750633Y-44790263D01*
X134743674Y-44724044D01*
X134704947Y-44604855D01*
X134685179Y-44544015D01*
X134590533Y-44380083D01*
X134463870Y-44239410D01*
X134310730Y-44128148D01*
X134166156Y-44063779D01*
X134114769Y-44021268D01*
X134092837Y-43958286D01*
X134106703Y-43893051D01*
X134152357Y-43844435D01*
X134194625Y-43832633D01*
X134193898Y-43829210D01*
X134320574Y-43802284D01*
X134391803Y-43787144D01*
X134564730Y-43710151D01*
X134700099Y-43611800D01*
X134717870Y-43598889D01*
X134751987Y-43560999D01*
X134844533Y-43458216D01*
X134939179Y-43294284D01*
X134997674Y-43114256D01*
X135017460Y-42926000D01*
X134997674Y-42737744D01*
X134967332Y-42644363D01*
X134939179Y-42557715D01*
X134844533Y-42393783D01*
X134717870Y-42253110D01*
X134564730Y-42141848D01*
X134391802Y-42064855D01*
X134206648Y-42025500D01*
X134206646Y-42025500D01*
X134017354Y-42025500D01*
X134017352Y-42025500D01*
X133832199Y-42064854D01*
X133790400Y-42083465D01*
X133742129Y-42094166D01*
X133693513Y-42085156D01*
X133652285Y-42057867D01*
X133528906Y-41934488D01*
X133528905Y-41934487D01*
X133528904Y-41934486D01*
X133379584Y-41842386D01*
X133213047Y-41787200D01*
X133119785Y-41777673D01*
X133110258Y-41776700D01*
X132510241Y-41776700D01*
X132407453Y-41787200D01*
X132240915Y-41842386D01*
X132091592Y-41934488D01*
X131967536Y-42058544D01*
X131965787Y-42061381D01*
X131920681Y-42104560D01*
X131860250Y-42120282D01*
X131799819Y-42104560D01*
X131754713Y-42061381D01*
X131752963Y-42058544D01*
X131628907Y-41934488D01*
X131479584Y-41842386D01*
X131313047Y-41787200D01*
X131219785Y-41777673D01*
X131210258Y-41776700D01*
X130610241Y-41776700D01*
X130507453Y-41787200D01*
X130340915Y-41842386D01*
X130191592Y-41934488D01*
X130067538Y-42058542D01*
X129975436Y-42207865D01*
X129923259Y-42365325D01*
X129896364Y-42410757D01*
X129853007Y-42440882D01*
X129764207Y-42477664D01*
X129724837Y-42507875D01*
X129689209Y-42526919D01*
X129649350Y-42533500D01*
X129540602Y-42533500D01*
X129355447Y-42572855D01*
X129182519Y-42649848D01*
X129029379Y-42761110D01*
X128902716Y-42901783D01*
X128808070Y-43065715D01*
X128749576Y-43245742D01*
X128729790Y-43433999D01*
X128749576Y-43622257D01*
X128808070Y-43802284D01*
X128902716Y-43966216D01*
X129002900Y-44077481D01*
X129026514Y-44116015D01*
X129034750Y-44160453D01*
X129034750Y-44777300D01*
X129018137Y-44839300D01*
X128972750Y-44884687D01*
X128910750Y-44901300D01*
X128210949Y-44901300D01*
X128148949Y-44884687D01*
X128103562Y-44839300D01*
X128086949Y-44777300D01*
X128086949Y-44712437D01*
X128071494Y-44595039D01*
X128071494Y-44595038D01*
X128010986Y-44448959D01*
X127975336Y-44402499D01*
X127914732Y-44323517D01*
X127789290Y-44227263D01*
X127643212Y-44166756D01*
X127525812Y-44151300D01*
X127525811Y-44151300D01*
X126739022Y-44151300D01*
X126677022Y-44134687D01*
X126631635Y-44089299D01*
X126615022Y-44027299D01*
X126631634Y-43965301D01*
X126652429Y-43929284D01*
X126710924Y-43749256D01*
X126730710Y-43561000D01*
X126710924Y-43372744D01*
X126652429Y-43192716D01*
X126652429Y-43192715D01*
X126557783Y-43028783D01*
X126431120Y-42888110D01*
X126277980Y-42776848D01*
X126105052Y-42699855D01*
X125919898Y-42660500D01*
X125919896Y-42660500D01*
X125730604Y-42660500D01*
X125730602Y-42660500D01*
X125545447Y-42699855D01*
X125372519Y-42776848D01*
X125219379Y-42888110D01*
X125092716Y-43028783D01*
X124998070Y-43192715D01*
X124939576Y-43372742D01*
X124919790Y-43560999D01*
X124939576Y-43749257D01*
X124998070Y-43929284D01*
X125081137Y-44073160D01*
X125097750Y-44135160D01*
X125097750Y-44783513D01*
X125096689Y-44799699D01*
X125092568Y-44830999D01*
X125096689Y-44862301D01*
X125097750Y-44878487D01*
X125097750Y-46561513D01*
X125096689Y-46577699D01*
X125092567Y-46609000D01*
X125101433Y-46676335D01*
X125101433Y-46676336D01*
X125113206Y-46765762D01*
X125173713Y-46911840D01*
X125269966Y-47037281D01*
X125295018Y-47056503D01*
X125307214Y-47067199D01*
X125432849Y-47192834D01*
X125443544Y-47205029D01*
X125462767Y-47230082D01*
X125496322Y-47255829D01*
X125584797Y-47323718D01*
X125588209Y-47326336D01*
X125734288Y-47386844D01*
X125849642Y-47402030D01*
X125893484Y-47420189D01*
X125893526Y-47420089D01*
X125972571Y-47452830D01*
X126054688Y-47486844D01*
X126172089Y-47502300D01*
X127525810Y-47502299D01*
X127525812Y-47502299D01*
X127584511Y-47494571D01*
X127643212Y-47486844D01*
X127789291Y-47426336D01*
X127914732Y-47330082D01*
X128010986Y-47204641D01*
X128071494Y-47058562D01*
X128086950Y-46941161D01*
X128086950Y-46876300D01*
X128103563Y-46814300D01*
X128148950Y-46768913D01*
X128210950Y-46752300D01*
X128747750Y-46752300D01*
X128809750Y-46768913D01*
X128855137Y-46814300D01*
X128871750Y-46876300D01*
X128871750Y-48898000D01*
X128855137Y-48960000D01*
X128809750Y-49005387D01*
X128747750Y-49022000D01*
X104479343Y-49022000D01*
X104467189Y-49021403D01*
X104290315Y-49003982D01*
X104266474Y-48999240D01*
X104102251Y-48949424D01*
X104079793Y-48940121D01*
X103928451Y-48859227D01*
X103908239Y-48845722D01*
X103775583Y-48736854D01*
X103758395Y-48719666D01*
X103685026Y-48630266D01*
X103649526Y-48587008D01*
X103636022Y-48566798D01*
X103555128Y-48415456D01*
X103545825Y-48392998D01*
X103496007Y-48228769D01*
X103491268Y-48204941D01*
X103473847Y-48028061D01*
X103473250Y-48015907D01*
X103473250Y-31740093D01*
X103473847Y-31727939D01*
X103474540Y-31720895D01*
X103491268Y-31551056D01*
X103496007Y-31527232D01*
X103545827Y-31362994D01*
X103555125Y-31340549D01*
X103636025Y-31189195D01*
X103649522Y-31168995D01*
X103758399Y-31036328D01*
X103775578Y-31019149D01*
X103908245Y-30910272D01*
X103928445Y-30896775D01*
X104079799Y-30815875D01*
X104102244Y-30806577D01*
X104266482Y-30756757D01*
X104290306Y-30752018D01*
X104467188Y-30734597D01*
X104479343Y-30734000D01*
X203432157Y-30734000D01*
X203444311Y-30734597D01*
G37*
%TD.AperFunction*%
%TD*%
%TA.AperFunction,Conductor*%
%TO.N,VBUS*%
G36*
X186494650Y-74260813D02*
G01*
X186540037Y-74306200D01*
X186556650Y-74368200D01*
X186556650Y-77295200D01*
X186540037Y-77357200D01*
X186494650Y-77402587D01*
X186432650Y-77419200D01*
X181600650Y-77419200D01*
X181538650Y-77402587D01*
X181493263Y-77357200D01*
X181476650Y-77295200D01*
X181476650Y-74368200D01*
X181493263Y-74306200D01*
X181538650Y-74260813D01*
X181600650Y-74244200D01*
X186432650Y-74244200D01*
X186494650Y-74260813D01*
G37*
%TD.AperFunction*%
%TD*%
%TA.AperFunction,Conductor*%
%TO.N,VBUS*%
G36*
X192431900Y-74260813D02*
G01*
X192477287Y-74306200D01*
X192493900Y-74368200D01*
X192493900Y-77295200D01*
X192477287Y-77357200D01*
X192431900Y-77402587D01*
X192369900Y-77419200D01*
X187537900Y-77419200D01*
X187475900Y-77402587D01*
X187430513Y-77357200D01*
X187413900Y-77295200D01*
X187413900Y-74368200D01*
X187430513Y-74306200D01*
X187475900Y-74260813D01*
X187537900Y-74244200D01*
X192369900Y-74244200D01*
X192431900Y-74260813D01*
G37*
%TD.AperFunction*%
%TD*%
%TA.AperFunction,Conductor*%
%TO.N,VBUS*%
G36*
X198527900Y-74260813D02*
G01*
X198573287Y-74306200D01*
X198589900Y-74368200D01*
X198589900Y-77295200D01*
X198573287Y-77357200D01*
X198527900Y-77402587D01*
X198465900Y-77419200D01*
X193633900Y-77419200D01*
X193571900Y-77402587D01*
X193526513Y-77357200D01*
X193509900Y-77295200D01*
X193509900Y-74368200D01*
X193526513Y-74306200D01*
X193571900Y-74260813D01*
X193633900Y-74244200D01*
X198465900Y-74244200D01*
X198527900Y-74260813D01*
G37*
%TD.AperFunction*%
%TD*%
%TA.AperFunction,Conductor*%
%TO.N,VBUS*%
G36*
X204496900Y-74260813D02*
G01*
X204542287Y-74306200D01*
X204558900Y-74368200D01*
X204558900Y-77295200D01*
X204542287Y-77357200D01*
X204496900Y-77402587D01*
X204434900Y-77419200D01*
X199602900Y-77419200D01*
X199540900Y-77402587D01*
X199495513Y-77357200D01*
X199478900Y-77295200D01*
X199478900Y-74368200D01*
X199495513Y-74306200D01*
X199540900Y-74260813D01*
X199602900Y-74244200D01*
X204434900Y-74244200D01*
X204496900Y-74260813D01*
G37*
%TD.AperFunction*%
%TD*%
%TA.AperFunction,Conductor*%
%TO.N,Net-(Q10-D)*%
G36*
X183007000Y-54687105D02*
G01*
X183007000Y-56642000D01*
X182972250Y-56642000D01*
X182910250Y-56625387D01*
X182864863Y-56580000D01*
X182848250Y-56518000D01*
X182848250Y-54801486D01*
X182865891Y-54737738D01*
X182913795Y-54692128D01*
X182978332Y-54677635D01*
X183007000Y-54687105D01*
G37*
%TD.AperFunction*%
%TD*%
%TA.AperFunction,Conductor*%
%TO.N,Net-(J5-Pin_1)*%
G36*
X213647250Y-51324613D02*
G01*
X213692637Y-51370000D01*
X213709250Y-51432000D01*
X213709250Y-65535000D01*
X213692637Y-65597000D01*
X213647250Y-65642387D01*
X213585250Y-65659000D01*
X204943250Y-65659000D01*
X204881250Y-65642387D01*
X204835863Y-65597000D01*
X204819250Y-65535000D01*
X204819250Y-57782000D01*
X204835863Y-57720000D01*
X204881250Y-57674613D01*
X204943250Y-57658000D01*
X209772250Y-57658000D01*
X209772250Y-51432000D01*
X209788863Y-51370000D01*
X209834250Y-51324613D01*
X209896250Y-51308000D01*
X213585250Y-51308000D01*
X213647250Y-51324613D01*
G37*
%TD.AperFunction*%
%TD*%
%TA.AperFunction,Conductor*%
%TO.N,GND*%
G36*
X202979250Y-65675613D02*
G01*
X203024637Y-65721000D01*
X203041250Y-65783000D01*
X203041250Y-66040000D01*
X194724749Y-66040000D01*
X194724749Y-65782999D01*
X194741362Y-65721000D01*
X194786749Y-65675613D01*
X194848749Y-65659000D01*
X202917250Y-65659000D01*
X202979250Y-65675613D01*
G37*
%TD.AperFunction*%
%TA.AperFunction,Conductor*%
G36*
X193681750Y-65675613D02*
G01*
X193727137Y-65721000D01*
X193743750Y-65783000D01*
X193743750Y-66040000D01*
X183991250Y-66040000D01*
X183991250Y-65783000D01*
X184007863Y-65721000D01*
X184053250Y-65675613D01*
X184115250Y-65659000D01*
X193619750Y-65659000D01*
X193681750Y-65675613D01*
G37*
%TD.AperFunction*%
%TD*%
%TA.AperFunction,Conductor*%
%TO.N,GND*%
G36*
X204528650Y-69231613D02*
G01*
X204574037Y-69277000D01*
X204590650Y-69339000D01*
X204590650Y-72012000D01*
X204574037Y-72074000D01*
X204528650Y-72119387D01*
X204466650Y-72136000D01*
X203200000Y-72136000D01*
X203200000Y-69215000D01*
X204466650Y-69215000D01*
X204528650Y-69231613D01*
G37*
%TD.AperFunction*%
%TD*%
%TA.AperFunction,Conductor*%
%TO.N,VBUS*%
G36*
X107246650Y-74260813D02*
G01*
X107292037Y-74306200D01*
X107308650Y-74368200D01*
X107308650Y-77295200D01*
X107292037Y-77357200D01*
X107246650Y-77402587D01*
X107184650Y-77419200D01*
X102352650Y-77419200D01*
X102290650Y-77402587D01*
X102245263Y-77357200D01*
X102228650Y-77295200D01*
X102228650Y-74368200D01*
X102245263Y-74306200D01*
X102290650Y-74260813D01*
X102352650Y-74244200D01*
X107184650Y-74244200D01*
X107246650Y-74260813D01*
G37*
%TD.AperFunction*%
%TD*%
%TA.AperFunction,Conductor*%
%TO.N,VBUS*%
G36*
X113183900Y-74260813D02*
G01*
X113229287Y-74306200D01*
X113245900Y-74368200D01*
X113245900Y-77295200D01*
X113229287Y-77357200D01*
X113183900Y-77402587D01*
X113121900Y-77419200D01*
X108289900Y-77419200D01*
X108227900Y-77402587D01*
X108182513Y-77357200D01*
X108165900Y-77295200D01*
X108165900Y-74368200D01*
X108182513Y-74306200D01*
X108227900Y-74260813D01*
X108289900Y-74244200D01*
X113121900Y-74244200D01*
X113183900Y-74260813D01*
G37*
%TD.AperFunction*%
%TD*%
%TA.AperFunction,Conductor*%
%TO.N,VBUS*%
G36*
X119279900Y-74260813D02*
G01*
X119325287Y-74306200D01*
X119341900Y-74368200D01*
X119341900Y-76327000D01*
X117094000Y-76327000D01*
X117094000Y-77419200D01*
X114385900Y-77419200D01*
X114323900Y-77402587D01*
X114278513Y-77357200D01*
X114261900Y-77295200D01*
X114261900Y-74368200D01*
X114278513Y-74306200D01*
X114323900Y-74260813D01*
X114385900Y-74244200D01*
X119217900Y-74244200D01*
X119279900Y-74260813D01*
G37*
%TD.AperFunction*%
%TD*%
%TA.AperFunction,Conductor*%
%TO.N,VBUS*%
G36*
X125248900Y-74260813D02*
G01*
X125294287Y-74306200D01*
X125310900Y-74368200D01*
X125310900Y-76327000D01*
X120230900Y-76327000D01*
X120230900Y-74368200D01*
X120247513Y-74306200D01*
X120292900Y-74260813D01*
X120354900Y-74244200D01*
X125186900Y-74244200D01*
X125248900Y-74260813D01*
G37*
%TD.AperFunction*%
%TD*%
%TA.AperFunction,Conductor*%
%TO.N,Net-(J3-Pin_1)*%
G36*
X134399250Y-51324613D02*
G01*
X134444637Y-51370000D01*
X134461250Y-51432000D01*
X134461250Y-65210500D01*
X134444637Y-65272500D01*
X134399250Y-65317887D01*
X134337250Y-65334500D01*
X133272259Y-65334500D01*
X133118681Y-65351418D01*
X133065985Y-65363172D01*
X132919768Y-65413122D01*
X132787938Y-65493697D01*
X132745232Y-65526729D01*
X132644338Y-65624187D01*
X132604647Y-65649968D01*
X132558189Y-65659000D01*
X126712310Y-65659000D01*
X126665851Y-65649968D01*
X126626160Y-65624186D01*
X126525269Y-65526731D01*
X126525266Y-65526729D01*
X126482564Y-65493700D01*
X126482563Y-65493699D01*
X126482560Y-65493697D01*
X126350731Y-65413122D01*
X126350730Y-65413121D01*
X126350729Y-65413121D01*
X126303232Y-65396895D01*
X126204514Y-65363172D01*
X126151818Y-65351418D01*
X125998241Y-65334500D01*
X125998237Y-65334500D01*
X125695250Y-65334500D01*
X125633250Y-65317887D01*
X125587863Y-65272500D01*
X125571250Y-65210500D01*
X125571250Y-57782000D01*
X125587863Y-57720000D01*
X125633250Y-57674613D01*
X125695250Y-57658000D01*
X130524250Y-57658000D01*
X130524250Y-51432000D01*
X130540863Y-51370000D01*
X130586250Y-51324613D01*
X130648250Y-51308000D01*
X134337250Y-51308000D01*
X134399250Y-51324613D01*
G37*
%TD.AperFunction*%
%TD*%
%TA.AperFunction,Conductor*%
%TO.N,GND*%
G36*
X114433750Y-65675613D02*
G01*
X114479137Y-65721000D01*
X114495750Y-65783000D01*
X114495750Y-66040000D01*
X105410000Y-66040000D01*
X105410000Y-70993000D01*
X104743250Y-70993000D01*
X104743250Y-65783000D01*
X104759863Y-65721000D01*
X104805250Y-65675613D01*
X104867250Y-65659000D01*
X114371750Y-65659000D01*
X114433750Y-65675613D01*
G37*
%TD.AperFunction*%
%TA.AperFunction,Conductor*%
G36*
X123731250Y-65675613D02*
G01*
X123776637Y-65721000D01*
X123793250Y-65783000D01*
X123793250Y-66040000D01*
X115476749Y-66040000D01*
X115476749Y-65782999D01*
X115493362Y-65721000D01*
X115538749Y-65675613D01*
X115600749Y-65659000D01*
X123669250Y-65659000D01*
X123731250Y-65675613D01*
G37*
%TD.AperFunction*%
%TD*%
%TA.AperFunction,Conductor*%
%TO.N,GND*%
G36*
X104743250Y-70993000D02*
G01*
X105410000Y-70993000D01*
X105410000Y-72136000D01*
X102352650Y-72136000D01*
X102290650Y-72119387D01*
X102245263Y-72074000D01*
X102228650Y-72012000D01*
X102228650Y-69339000D01*
X102245263Y-69277000D01*
X102290650Y-69231613D01*
X102352650Y-69215000D01*
X104743250Y-69215000D01*
X104743250Y-70993000D01*
G37*
%TD.AperFunction*%
%TD*%
%TA.AperFunction,Conductor*%
%TO.N,VBUS*%
G36*
X146908750Y-74311613D02*
G01*
X146954137Y-74357000D01*
X146970750Y-74419000D01*
X146970750Y-77346000D01*
X146954137Y-77408000D01*
X146908750Y-77453387D01*
X146846750Y-77470000D01*
X142014750Y-77470000D01*
X141952750Y-77453387D01*
X141907363Y-77408000D01*
X141890750Y-77346000D01*
X141890750Y-74419000D01*
X141907363Y-74357000D01*
X141952750Y-74311613D01*
X142014750Y-74295000D01*
X146846750Y-74295000D01*
X146908750Y-74311613D01*
G37*
%TD.AperFunction*%
%TD*%
%TA.AperFunction,Conductor*%
%TO.N,VBUS*%
G36*
X152846000Y-74311613D02*
G01*
X152891387Y-74357000D01*
X152908000Y-74419000D01*
X152908000Y-77346000D01*
X152891387Y-77408000D01*
X152846000Y-77453387D01*
X152784000Y-77470000D01*
X147952000Y-77470000D01*
X147890000Y-77453387D01*
X147844613Y-77408000D01*
X147828000Y-77346000D01*
X147828000Y-74419000D01*
X147844613Y-74357000D01*
X147890000Y-74311613D01*
X147952000Y-74295000D01*
X152784000Y-74295000D01*
X152846000Y-74311613D01*
G37*
%TD.AperFunction*%
%TD*%
%TA.AperFunction,Conductor*%
%TO.N,VBUS*%
G36*
X158942000Y-74311613D02*
G01*
X158987387Y-74357000D01*
X159004000Y-74419000D01*
X159004000Y-77346000D01*
X158987387Y-77408000D01*
X158942000Y-77453387D01*
X158880000Y-77470000D01*
X154048000Y-77470000D01*
X153986000Y-77453387D01*
X153940613Y-77408000D01*
X153924000Y-77346000D01*
X153924000Y-74419000D01*
X153940613Y-74357000D01*
X153986000Y-74311613D01*
X154048000Y-74295000D01*
X158880000Y-74295000D01*
X158942000Y-74311613D01*
G37*
%TD.AperFunction*%
%TD*%
%TA.AperFunction,Conductor*%
%TO.N,VBUS*%
G36*
X164911000Y-74311613D02*
G01*
X164956387Y-74357000D01*
X164973000Y-74419000D01*
X164973000Y-77346000D01*
X164956387Y-77408000D01*
X164911000Y-77453387D01*
X164849000Y-77470000D01*
X160017000Y-77470000D01*
X159955000Y-77453387D01*
X159909613Y-77408000D01*
X159893000Y-77346000D01*
X159893000Y-74419000D01*
X159909613Y-74357000D01*
X159955000Y-74311613D01*
X160017000Y-74295000D01*
X164849000Y-74295000D01*
X164911000Y-74311613D01*
G37*
%TD.AperFunction*%
%TD*%
%TA.AperFunction,Conductor*%
%TO.N,Net-(J4-Pin_1)*%
G36*
X174061350Y-51375413D02*
G01*
X174106737Y-51420800D01*
X174123350Y-51482800D01*
X174123350Y-65210500D01*
X174106737Y-65272500D01*
X174061350Y-65317887D01*
X173999350Y-65334500D01*
X172976543Y-65334500D01*
X172822965Y-65351418D01*
X172770269Y-65363172D01*
X172624052Y-65413122D01*
X172492222Y-65493697D01*
X172449516Y-65526729D01*
X172338384Y-65634076D01*
X172312690Y-65665018D01*
X172269986Y-65698048D01*
X172217294Y-65709800D01*
X166377405Y-65709800D01*
X166324713Y-65698048D01*
X166282008Y-65665018D01*
X166256315Y-65634078D01*
X166256313Y-65634075D01*
X166145184Y-65526730D01*
X166102480Y-65493700D01*
X166102479Y-65493699D01*
X166102476Y-65493697D01*
X165970647Y-65413122D01*
X165970646Y-65413121D01*
X165970645Y-65413121D01*
X165923148Y-65396895D01*
X165824430Y-65363172D01*
X165771734Y-65351418D01*
X165618157Y-65334500D01*
X165618153Y-65334500D01*
X165357350Y-65334500D01*
X165295350Y-65317887D01*
X165249963Y-65272500D01*
X165233350Y-65210500D01*
X165233350Y-57832800D01*
X165249963Y-57770800D01*
X165295350Y-57725413D01*
X165357350Y-57708800D01*
X170186350Y-57708800D01*
X170186350Y-51482800D01*
X170202963Y-51420800D01*
X170248350Y-51375413D01*
X170310350Y-51358800D01*
X173999350Y-51358800D01*
X174061350Y-51375413D01*
G37*
%TD.AperFunction*%
%TD*%
%TA.AperFunction,Conductor*%
%TO.N,GND*%
G36*
X163393350Y-65726413D02*
G01*
X163438737Y-65771800D01*
X163455350Y-65833800D01*
X163455350Y-66040000D01*
X155138849Y-66040000D01*
X155138849Y-65833799D01*
X155155462Y-65771800D01*
X155200849Y-65726413D01*
X155262849Y-65709800D01*
X163331350Y-65709800D01*
X163393350Y-65726413D01*
G37*
%TD.AperFunction*%
%TA.AperFunction,Conductor*%
G36*
X154095850Y-65726413D02*
G01*
X154141237Y-65771800D01*
X154157850Y-65833800D01*
X154157850Y-66040000D01*
X144405350Y-66040000D01*
X144405350Y-65833800D01*
X144421963Y-65771800D01*
X144467350Y-65726413D01*
X144529350Y-65709800D01*
X154033850Y-65709800D01*
X154095850Y-65726413D01*
G37*
%TD.AperFunction*%
%TD*%
%TA.AperFunction,Conductor*%
%TO.N,GND*%
G36*
X113885750Y-68564617D02*
G01*
X113892163Y-68635193D01*
X113892164Y-68635196D01*
X113942772Y-68797606D01*
X113942773Y-68797607D01*
X114030778Y-68943186D01*
X114151063Y-69063471D01*
X114151065Y-69063472D01*
X114296644Y-69151478D01*
X114459054Y-69202086D01*
X114506107Y-69206362D01*
X114529633Y-69208500D01*
X114529634Y-69208500D01*
X115442866Y-69208500D01*
X115442867Y-69208500D01*
X115460511Y-69206896D01*
X115513446Y-69202086D01*
X115675856Y-69151478D01*
X115821435Y-69063472D01*
X115941722Y-68943185D01*
X116029728Y-68797606D01*
X116080336Y-68635196D01*
X116086750Y-68564616D01*
X116086750Y-66040000D01*
X123793250Y-66040000D01*
X125998237Y-66040000D01*
X126050930Y-66051753D01*
X126093634Y-66084783D01*
X126157827Y-66162088D01*
X126465160Y-66469421D01*
X126799534Y-66747082D01*
X126832922Y-66769953D01*
X127158112Y-66992714D01*
X127203249Y-67017855D01*
X127537821Y-67204211D01*
X127935414Y-67379765D01*
X128347526Y-67517891D01*
X128563511Y-67568690D01*
X128770613Y-67617400D01*
X129201079Y-67677447D01*
X129635250Y-67697520D01*
X130069421Y-67677447D01*
X130499887Y-67617400D01*
X130922977Y-67517890D01*
X131335080Y-67379767D01*
X131335085Y-67379765D01*
X131732678Y-67204211D01*
X131844822Y-67141746D01*
X132112388Y-66992714D01*
X132470960Y-66747086D01*
X132479807Y-66739740D01*
X132805339Y-66469421D01*
X133112672Y-66162088D01*
X133176866Y-66084783D01*
X133219570Y-66051753D01*
X133272263Y-66040000D01*
X137503288Y-66040000D01*
X137568567Y-66058574D01*
X137614289Y-66108730D01*
X137616824Y-66113821D01*
X137739733Y-66276580D01*
X137890455Y-66413981D01*
X138063858Y-66521347D01*
X138063860Y-66521348D01*
X138254041Y-66595024D01*
X138454521Y-66632500D01*
X138658470Y-66632500D01*
X138658473Y-66632500D01*
X138758631Y-66613777D01*
X138815234Y-66616368D01*
X138864779Y-66643873D01*
X138896912Y-66690548D01*
X138904925Y-66746645D01*
X138900370Y-66797886D01*
X138899750Y-66804862D01*
X138899750Y-67815138D01*
X138909833Y-67928552D01*
X138933495Y-68011247D01*
X138963012Y-68114405D01*
X138963013Y-68114406D01*
X139052516Y-68285751D01*
X139174679Y-68435571D01*
X139324499Y-68557734D01*
X139495844Y-68647237D01*
X139681698Y-68700417D01*
X139795112Y-68710500D01*
X140430386Y-68710500D01*
X140430388Y-68710500D01*
X140543802Y-68700417D01*
X140729656Y-68647237D01*
X140901001Y-68557734D01*
X141050821Y-68435571D01*
X141172984Y-68285751D01*
X141262487Y-68114406D01*
X141315667Y-67928552D01*
X141325750Y-67815138D01*
X141325750Y-67686840D01*
X141335189Y-67639387D01*
X141362066Y-67599161D01*
X141732609Y-67228617D01*
X141732612Y-67228616D01*
X141860166Y-67101062D01*
X141880537Y-67068639D01*
X141888578Y-67057309D01*
X141912440Y-67027388D01*
X141912442Y-67027386D01*
X141929055Y-66992886D01*
X141935773Y-66980731D01*
X141956139Y-66948322D01*
X141968783Y-66912185D01*
X141974097Y-66899356D01*
X141990710Y-66864861D01*
X141999232Y-66827521D01*
X142003072Y-66814192D01*
X142011349Y-66790539D01*
X142037493Y-66747155D01*
X142078804Y-66717845D01*
X142128389Y-66707499D01*
X142330569Y-66707499D01*
X142330570Y-66707499D01*
X142409195Y-66701312D01*
X142592038Y-66652320D01*
X142609554Y-66643394D01*
X142670717Y-66629975D01*
X142730639Y-66648151D01*
X142774039Y-66693290D01*
X142789850Y-66753879D01*
X142789850Y-68615417D01*
X142796263Y-68685993D01*
X142796264Y-68685996D01*
X142846872Y-68848406D01*
X142846873Y-68848407D01*
X142934878Y-68993986D01*
X143055163Y-69114271D01*
X143055165Y-69114272D01*
X143200744Y-69202278D01*
X143363154Y-69252886D01*
X143410207Y-69257162D01*
X143433733Y-69259300D01*
X143433734Y-69259300D01*
X144346966Y-69259300D01*
X144346967Y-69259300D01*
X144364610Y-69257696D01*
X144417546Y-69252886D01*
X144579956Y-69202278D01*
X144725535Y-69114272D01*
X144845822Y-68993985D01*
X144933828Y-68848406D01*
X144984436Y-68685996D01*
X144990850Y-68615416D01*
X144990850Y-66040000D01*
X153547850Y-66040000D01*
X153547850Y-68615417D01*
X153554263Y-68685993D01*
X153554264Y-68685996D01*
X153604872Y-68848406D01*
X153604873Y-68848407D01*
X153692878Y-68993986D01*
X153813163Y-69114271D01*
X153813165Y-69114272D01*
X153958744Y-69202278D01*
X154121154Y-69252886D01*
X154168207Y-69257162D01*
X154191733Y-69259300D01*
X154191734Y-69259300D01*
X155104966Y-69259300D01*
X155104967Y-69259300D01*
X155122610Y-69257696D01*
X155175546Y-69252886D01*
X155337956Y-69202278D01*
X155483535Y-69114272D01*
X155603822Y-68993985D01*
X155691828Y-68848406D01*
X155742436Y-68685996D01*
X155748850Y-68615416D01*
X155748850Y-66040000D01*
X163455350Y-66040000D01*
X165618153Y-66040000D01*
X165670846Y-66051753D01*
X165713550Y-66084783D01*
X165819927Y-66212887D01*
X166127260Y-66520221D01*
X166461634Y-66797882D01*
X166495022Y-66820753D01*
X166820212Y-67043514D01*
X166865349Y-67068655D01*
X167199921Y-67255011D01*
X167597514Y-67430565D01*
X168009626Y-67568691D01*
X168293588Y-67635478D01*
X168432713Y-67668200D01*
X168863179Y-67728247D01*
X169297350Y-67748320D01*
X169731521Y-67728247D01*
X170161987Y-67668200D01*
X170585077Y-67568690D01*
X170997180Y-67430567D01*
X170997185Y-67430565D01*
X171394778Y-67255011D01*
X171515035Y-67188028D01*
X171774488Y-67043514D01*
X172133060Y-66797886D01*
X172141907Y-66790540D01*
X172467439Y-66520221D01*
X172573679Y-66413981D01*
X172774772Y-66212888D01*
X172826401Y-66150712D01*
X172881150Y-66084783D01*
X172923854Y-66051753D01*
X172976547Y-66040000D01*
X175476791Y-66040000D01*
X175542070Y-66058574D01*
X175587792Y-66108730D01*
X175590327Y-66113821D01*
X175713236Y-66276580D01*
X175863958Y-66413981D01*
X176037361Y-66521347D01*
X176037363Y-66521348D01*
X176227544Y-66595024D01*
X176428024Y-66632500D01*
X176631974Y-66632500D01*
X176631976Y-66632500D01*
X176832456Y-66595024D01*
X177022637Y-66521348D01*
X177196041Y-66413981D01*
X177249923Y-66364860D01*
X177288665Y-66340874D01*
X177333459Y-66332500D01*
X178266541Y-66332500D01*
X178311335Y-66340874D01*
X178350077Y-66364861D01*
X178403959Y-66413981D01*
X178457279Y-66446995D01*
X178495401Y-66483980D01*
X178514552Y-66533522D01*
X178511217Y-66586533D01*
X178503422Y-66613777D01*
X178495733Y-66640648D01*
X178485650Y-66754062D01*
X178485650Y-67764338D01*
X178495733Y-67877752D01*
X178510268Y-67928550D01*
X178548912Y-68063605D01*
X178548913Y-68063606D01*
X178638416Y-68234951D01*
X178760579Y-68384771D01*
X178910399Y-68506934D01*
X179081744Y-68596437D01*
X179267598Y-68649617D01*
X179381012Y-68659700D01*
X180016286Y-68659700D01*
X180016288Y-68659700D01*
X180129702Y-68649617D01*
X180315556Y-68596437D01*
X180486901Y-68506934D01*
X180636721Y-68384771D01*
X180758884Y-68234951D01*
X180848387Y-68063606D01*
X180901567Y-67877752D01*
X180911650Y-67764338D01*
X180911650Y-67636040D01*
X180921089Y-67588587D01*
X180947966Y-67548361D01*
X181318509Y-67177817D01*
X181318512Y-67177816D01*
X181446066Y-67050262D01*
X181466437Y-67017839D01*
X181474478Y-67006509D01*
X181498342Y-66976586D01*
X181514955Y-66942086D01*
X181521673Y-66929931D01*
X181542039Y-66897522D01*
X181554683Y-66861385D01*
X181559997Y-66848556D01*
X181576610Y-66814061D01*
X181585132Y-66776721D01*
X181588972Y-66763392D01*
X181597249Y-66739739D01*
X181623393Y-66696355D01*
X181664704Y-66667045D01*
X181714289Y-66656699D01*
X181916469Y-66656699D01*
X181916470Y-66656699D01*
X181995095Y-66650512D01*
X182177938Y-66601520D01*
X182195454Y-66592594D01*
X182256617Y-66579175D01*
X182316539Y-66597351D01*
X182359939Y-66642490D01*
X182375750Y-66703079D01*
X182375750Y-68564617D01*
X182382163Y-68635193D01*
X182382164Y-68635196D01*
X182432772Y-68797606D01*
X182432773Y-68797607D01*
X182520778Y-68943186D01*
X182641063Y-69063471D01*
X182641065Y-69063472D01*
X182786644Y-69151478D01*
X182949054Y-69202086D01*
X182996107Y-69206362D01*
X183019633Y-69208500D01*
X183019634Y-69208500D01*
X183932866Y-69208500D01*
X183932867Y-69208500D01*
X183950511Y-69206896D01*
X184003446Y-69202086D01*
X184165856Y-69151478D01*
X184311435Y-69063472D01*
X184431722Y-68943185D01*
X184519728Y-68797606D01*
X184570336Y-68635196D01*
X184576750Y-68564616D01*
X184576750Y-66040000D01*
X193133750Y-66040000D01*
X193133750Y-68564617D01*
X193140163Y-68635193D01*
X193140164Y-68635196D01*
X193190772Y-68797606D01*
X193190773Y-68797607D01*
X193278778Y-68943186D01*
X193399063Y-69063471D01*
X193399065Y-69063472D01*
X193544644Y-69151478D01*
X193707054Y-69202086D01*
X193754107Y-69206362D01*
X193777633Y-69208500D01*
X193777634Y-69208500D01*
X194690866Y-69208500D01*
X194690867Y-69208500D01*
X194708511Y-69206896D01*
X194761446Y-69202086D01*
X194923856Y-69151478D01*
X195069435Y-69063472D01*
X195189722Y-68943185D01*
X195277728Y-68797606D01*
X195328336Y-68635196D01*
X195334750Y-68564616D01*
X195334750Y-66040000D01*
X203041250Y-66040000D01*
X203076000Y-66040000D01*
X203138000Y-66056613D01*
X203183387Y-66102000D01*
X203200000Y-66164000D01*
X203200000Y-72136000D01*
X203200000Y-72266000D01*
X203183387Y-72328000D01*
X203138000Y-72373387D01*
X203076000Y-72390000D01*
X105534000Y-72390000D01*
X105472000Y-72373387D01*
X105426613Y-72328000D01*
X105410000Y-72266000D01*
X105410000Y-72136000D01*
X105410000Y-66040000D01*
X113885750Y-66040000D01*
X113885750Y-68564617D01*
G37*
%TD.AperFunction*%
%TD*%
%TA.AperFunction,Conductor*%
%TO.N,GND*%
G36*
X101150650Y-72025613D02*
G01*
X101196037Y-72071000D01*
X101212650Y-72133000D01*
X101212650Y-74933000D01*
X101196037Y-74995000D01*
X101150650Y-75040387D01*
X101088650Y-75057000D01*
X96256650Y-75057000D01*
X96194650Y-75040387D01*
X96149263Y-74995000D01*
X96132650Y-74933000D01*
X96132650Y-72133000D01*
X96149263Y-72071000D01*
X96194650Y-72025613D01*
X96256650Y-72009000D01*
X101088650Y-72009000D01*
X101150650Y-72025613D01*
G37*
%TD.AperFunction*%
%TD*%
%TA.AperFunction,Conductor*%
%TO.N,Net-(J8-Pin_1)*%
G36*
X114238000Y-78756613D02*
G01*
X114283387Y-78802000D01*
X114300000Y-78864000D01*
X114300000Y-87506000D01*
X114283387Y-87568000D01*
X114238000Y-87613387D01*
X114176000Y-87630000D01*
X105410000Y-87630000D01*
X105410000Y-90046000D01*
X105393387Y-90108000D01*
X105348000Y-90153387D01*
X105286000Y-90170000D01*
X95374000Y-90170000D01*
X95312000Y-90153387D01*
X95266613Y-90108000D01*
X95250000Y-90046000D01*
X95250000Y-78864000D01*
X95266613Y-78802000D01*
X95312000Y-78756613D01*
X95374000Y-78740000D01*
X114176000Y-78740000D01*
X114238000Y-78756613D01*
G37*
%TD.AperFunction*%
%TD*%
%TA.AperFunction,Conductor*%
%TO.N,VBUS*%
G36*
X128155063Y-76342866D02*
G01*
X128200221Y-76386404D01*
X128281719Y-76519944D01*
X128455368Y-76728604D01*
X128657546Y-76909757D01*
X128722419Y-76952677D01*
X128763224Y-76997389D01*
X128778000Y-77056092D01*
X128778000Y-86299500D01*
X128761387Y-86361500D01*
X128716000Y-86406887D01*
X128654000Y-86423500D01*
X126291434Y-86423500D01*
X126265864Y-86419155D01*
X126234229Y-86422720D01*
X126220345Y-86423500D01*
X126216534Y-86423500D01*
X126212808Y-86424350D01*
X126199122Y-86426675D01*
X126167489Y-86430240D01*
X126157917Y-86434205D01*
X126133028Y-86454052D01*
X126121705Y-86462087D01*
X126118473Y-86464117D01*
X126115773Y-86466818D01*
X126105418Y-86476070D01*
X126080525Y-86495922D01*
X126065514Y-86517076D01*
X126004908Y-86577682D01*
X125964682Y-86604561D01*
X125917229Y-86614000D01*
X117218000Y-86614000D01*
X117156000Y-86597387D01*
X117110613Y-86552000D01*
X117094000Y-86490000D01*
X117094000Y-77419200D01*
X117094000Y-76327000D01*
X125310900Y-76327000D01*
X128094375Y-76327000D01*
X128155063Y-76342866D01*
G37*
%TD.AperFunction*%
%TD*%
%TA.AperFunction,Conductor*%
%TO.N,Net-(Q1-S)*%
G36*
X114502934Y-51444439D02*
G01*
X114543162Y-51471319D01*
X114592142Y-51520299D01*
X114624745Y-51577850D01*
X114623122Y-51643975D01*
X114587734Y-51699858D01*
X114555101Y-51716283D01*
X114508003Y-51747753D01*
X114488001Y-51777688D01*
X114482750Y-51804086D01*
X114482750Y-54621913D01*
X114488000Y-54648310D01*
X114488001Y-54648311D01*
X114508003Y-54678247D01*
X114537939Y-54698249D01*
X114564337Y-54703500D01*
X115382162Y-54703499D01*
X115382163Y-54703499D01*
X115395361Y-54700873D01*
X115408561Y-54698249D01*
X115438497Y-54678247D01*
X115458499Y-54648311D01*
X115463750Y-54621913D01*
X115463749Y-51804088D01*
X115458499Y-51777689D01*
X115438497Y-51747753D01*
X115408561Y-51727751D01*
X115382164Y-51722500D01*
X115382163Y-51722500D01*
X115223676Y-51722500D01*
X115166783Y-51708678D01*
X115122573Y-51670293D01*
X115100903Y-51615902D01*
X115101292Y-51611924D01*
X115100589Y-51612004D01*
X115097420Y-51583878D01*
X115096181Y-51572883D01*
X115107681Y-51505199D01*
X115153429Y-51454006D01*
X115219401Y-51435000D01*
X128146000Y-51435000D01*
X128208000Y-51451613D01*
X128253387Y-51497000D01*
X128270000Y-51559000D01*
X128270000Y-57026000D01*
X128253387Y-57088000D01*
X128208000Y-57133387D01*
X128146000Y-57150000D01*
X123825000Y-57150000D01*
X123825000Y-62741000D01*
X123808387Y-62803000D01*
X123763000Y-62848387D01*
X123701000Y-62865000D01*
X103629000Y-62865000D01*
X103567000Y-62848387D01*
X103521613Y-62803000D01*
X103505000Y-62741000D01*
X103505000Y-54700890D01*
X103520811Y-54640301D01*
X103564211Y-54595162D01*
X103624133Y-54576986D01*
X103685296Y-54590406D01*
X103732103Y-54632000D01*
X103743000Y-54648309D01*
X103743001Y-54648311D01*
X103763003Y-54678247D01*
X103792939Y-54698249D01*
X103819337Y-54703500D01*
X104637162Y-54703499D01*
X104637163Y-54703499D01*
X104650361Y-54700873D01*
X104663561Y-54698249D01*
X104693497Y-54678247D01*
X104713499Y-54648311D01*
X104718750Y-54621913D01*
X104718749Y-51804088D01*
X104713499Y-51777689D01*
X104693497Y-51747753D01*
X104663561Y-51727751D01*
X104637164Y-51722500D01*
X104637163Y-51722500D01*
X104541542Y-51722500D01*
X104483601Y-51708131D01*
X104439089Y-51668353D01*
X104427305Y-51636596D01*
X104420001Y-51624971D01*
X104401045Y-51562477D01*
X104416469Y-51499018D01*
X104461995Y-51452197D01*
X104524996Y-51435000D01*
X114455481Y-51435000D01*
X114502934Y-51444439D01*
G37*
%TD.AperFunction*%
%TD*%
%TA.AperFunction,Conductor*%
%TO.N,Net-(Q12-D)*%
G36*
X167959000Y-51324613D02*
G01*
X168004387Y-51370000D01*
X168021000Y-51432000D01*
X168021000Y-56899000D01*
X168004387Y-56961000D01*
X167959000Y-57006387D01*
X167897000Y-57023000D01*
X163576000Y-57023000D01*
X163576000Y-62614000D01*
X163559387Y-62676000D01*
X163514000Y-62721387D01*
X163452000Y-62738000D01*
X143380000Y-62738000D01*
X143318000Y-62721387D01*
X143272613Y-62676000D01*
X143256000Y-62614000D01*
X143256000Y-54848043D01*
X143273641Y-54784295D01*
X143321546Y-54738685D01*
X143386083Y-54724192D01*
X143448889Y-54744940D01*
X143455039Y-54749049D01*
X143481437Y-54754300D01*
X144299262Y-54754299D01*
X144299263Y-54754299D01*
X144312461Y-54751674D01*
X144325661Y-54749049D01*
X144355597Y-54729047D01*
X144375599Y-54699111D01*
X144380850Y-54672713D01*
X144380849Y-51854888D01*
X144375599Y-51828489D01*
X144355597Y-51798553D01*
X144325661Y-51778551D01*
X144325660Y-51778550D01*
X144299264Y-51773300D01*
X144299263Y-51773300D01*
X144203642Y-51773300D01*
X144145701Y-51758931D01*
X144101189Y-51719153D01*
X144089405Y-51687396D01*
X144081783Y-51675265D01*
X144081783Y-51675264D01*
X144077499Y-51668446D01*
X144065454Y-51643433D01*
X144062798Y-51635842D01*
X144061462Y-51634506D01*
X144061459Y-51634501D01*
X144024939Y-51597981D01*
X143994689Y-51548618D01*
X143990147Y-51490902D01*
X144012302Y-51437415D01*
X144056325Y-51399815D01*
X144112620Y-51386300D01*
X154018081Y-51386300D01*
X154065534Y-51395739D01*
X154105762Y-51422619D01*
X154254242Y-51571099D01*
X154286845Y-51628650D01*
X154285222Y-51694775D01*
X154249834Y-51750658D01*
X154217201Y-51767083D01*
X154170103Y-51798553D01*
X154150101Y-51828488D01*
X154144850Y-51854886D01*
X154144850Y-54672713D01*
X154150100Y-54699110D01*
X154150101Y-54699111D01*
X154170103Y-54729047D01*
X154200039Y-54749049D01*
X154226437Y-54754300D01*
X155044262Y-54754299D01*
X155044263Y-54754299D01*
X155057461Y-54751674D01*
X155070661Y-54749049D01*
X155100597Y-54729047D01*
X155120599Y-54699111D01*
X155125850Y-54672713D01*
X155125849Y-51854888D01*
X155120599Y-51828489D01*
X155100597Y-51798553D01*
X155070661Y-51778551D01*
X155070660Y-51778550D01*
X155044264Y-51773300D01*
X155044263Y-51773300D01*
X154885776Y-51773300D01*
X154828883Y-51759478D01*
X154784673Y-51721093D01*
X154763003Y-51666702D01*
X154763392Y-51662723D01*
X154762689Y-51662803D01*
X154756630Y-51609029D01*
X154755850Y-51595145D01*
X154755850Y-51591339D01*
X154755850Y-51591337D01*
X154755000Y-51587614D01*
X154752673Y-51573914D01*
X154749108Y-51542277D01*
X154745153Y-51532729D01*
X154726479Y-51509312D01*
X154700207Y-51445883D01*
X154711707Y-51378198D01*
X154757455Y-51327006D01*
X154823427Y-51308000D01*
X167897000Y-51308000D01*
X167959000Y-51324613D01*
G37*
%TD.AperFunction*%
%TD*%
%TA.AperFunction,Conductor*%
%TO.N,Net-(Q10-D)*%
G36*
X207710000Y-51324613D02*
G01*
X207755387Y-51370000D01*
X207772000Y-51432000D01*
X207772000Y-56899000D01*
X207755387Y-56961000D01*
X207710000Y-57006387D01*
X207648000Y-57023000D01*
X203327000Y-57023000D01*
X203327000Y-62614000D01*
X203310387Y-62676000D01*
X203265000Y-62721387D01*
X203203000Y-62738000D01*
X183131000Y-62738000D01*
X183069000Y-62721387D01*
X183023613Y-62676000D01*
X183007000Y-62614000D01*
X183007000Y-56642000D01*
X183007000Y-54687105D01*
X183040426Y-54698147D01*
X183040939Y-54698249D01*
X183067337Y-54703500D01*
X183885162Y-54703499D01*
X183885163Y-54703499D01*
X183898361Y-54700873D01*
X183911561Y-54698249D01*
X183941497Y-54678247D01*
X183961499Y-54648311D01*
X183966750Y-54621913D01*
X183966749Y-51804088D01*
X183961499Y-51777689D01*
X183941497Y-51747753D01*
X183911561Y-51727751D01*
X183885164Y-51722500D01*
X183885163Y-51722500D01*
X183789542Y-51722500D01*
X183731601Y-51708131D01*
X183687089Y-51668353D01*
X183675305Y-51636596D01*
X183667683Y-51624465D01*
X183667683Y-51624464D01*
X183663399Y-51617646D01*
X183651354Y-51592633D01*
X183648698Y-51585042D01*
X183647362Y-51583706D01*
X183647359Y-51583701D01*
X183610839Y-51547181D01*
X183580589Y-51497818D01*
X183576047Y-51440102D01*
X183598202Y-51386615D01*
X183642225Y-51349015D01*
X183698520Y-51335500D01*
X193603981Y-51335500D01*
X193651434Y-51344939D01*
X193691662Y-51371819D01*
X193840142Y-51520299D01*
X193872745Y-51577850D01*
X193871122Y-51643975D01*
X193835734Y-51699858D01*
X193803101Y-51716283D01*
X193756003Y-51747753D01*
X193736001Y-51777688D01*
X193730750Y-51804086D01*
X193730750Y-54621913D01*
X193736000Y-54648310D01*
X193736001Y-54648311D01*
X193756003Y-54678247D01*
X193785939Y-54698249D01*
X193812337Y-54703500D01*
X194630162Y-54703499D01*
X194630163Y-54703499D01*
X194643361Y-54700873D01*
X194656561Y-54698249D01*
X194686497Y-54678247D01*
X194706499Y-54648311D01*
X194711750Y-54621913D01*
X194711749Y-51804088D01*
X194706499Y-51777689D01*
X194686497Y-51747753D01*
X194656561Y-51727751D01*
X194630164Y-51722500D01*
X194630163Y-51722500D01*
X194471676Y-51722500D01*
X194414783Y-51708678D01*
X194370573Y-51670293D01*
X194348903Y-51615902D01*
X194349292Y-51611923D01*
X194348589Y-51612003D01*
X194342530Y-51558229D01*
X194341750Y-51544345D01*
X194341750Y-51540539D01*
X194341750Y-51540537D01*
X194340900Y-51536814D01*
X194338573Y-51523114D01*
X194335008Y-51491476D01*
X194325082Y-51467510D01*
X194323274Y-51459587D01*
X194323276Y-51404403D01*
X194347221Y-51354685D01*
X194390366Y-51320279D01*
X194444166Y-51308000D01*
X207648000Y-51308000D01*
X207710000Y-51324613D01*
G37*
%TD.AperFunction*%
%TD*%
M02*
