M48
; DRILL file {KiCad 7.0.1} date Sun Jul 16 00:00:59 2023
; FORMAT={-:-/ absolute / inch / decimal}
; #@! TF.CreationDate,2023-07-16T00:00:59-05:00
; #@! TF.GenerationSoftware,Kicad,Pcbnew,7.0.1
; #@! TF.FileFunction,Plated,1,4,PTH
FMAT,2
INCH
; #@! TA.AperFunction,Plated,PTH,ComponentDrill
T1C0.0118
; #@! TA.AperFunction,Plated,PTH,ViaDrill
T2C0.0157
; #@! TA.AperFunction,Plated,PTH,ComponentDrill
T3C0.0236
; #@! TA.AperFunction,Plated,PTH,ComponentDrill
T4C0.0472
; #@! TA.AperFunction,Plated,PTH,ComponentDrill
T5C0.2441
%
G90
G05
T1
X4.0888Y-2.2255
X4.0888Y-2.2728
X4.0888Y-2.32
X4.0888Y-2.3672
X4.0888Y-2.4145
X4.0888Y-2.4617
X4.1188Y-2.2255
X4.1188Y-2.2728
X4.1188Y-2.32
X4.1188Y-2.3672
X4.1188Y-2.4145
X4.1188Y-2.4617
X4.1271Y-1.6785
X4.1271Y-1.7257
X4.1271Y-1.773
X4.1271Y-1.8202
X4.1271Y-1.8674
X4.1271Y-1.9147
X4.1488Y-2.2255
X4.1488Y-2.2728
X4.1488Y-2.32
X4.1488Y-2.3672
X4.1488Y-2.4145
X4.1488Y-2.4617
X4.1743Y-1.6785
X4.1743Y-1.7257
X4.1743Y-1.773
X4.1743Y-1.8202
X4.1743Y-1.8674
X4.1743Y-1.9147
X4.2216Y-1.6785
X4.2216Y-1.7257
X4.2216Y-1.773
X4.2216Y-1.8202
X4.2216Y-1.8674
X4.2216Y-1.9147
X4.2438Y-3.1346
X4.2438Y-3.1819
X4.2438Y-3.2291
X4.2438Y-3.2764
X4.2438Y-3.3236
X4.2438Y-3.3709
X4.2438Y-3.4181
X4.2688Y-1.6785
X4.2688Y-1.7257
X4.2688Y-1.773
X4.2688Y-1.8202
X4.2688Y-1.8674
X4.2688Y-1.9147
X4.291Y-3.1346
X4.291Y-3.1819
X4.291Y-3.2291
X4.291Y-3.2764
X4.291Y-3.3236
X4.291Y-3.3709
X4.291Y-3.4181
X4.3161Y-1.6785
X4.3161Y-1.7257
X4.3161Y-1.773
X4.3161Y-1.8202
X4.3161Y-1.8674
X4.3161Y-1.9147
X4.3383Y-3.1346
X4.3383Y-3.1819
X4.3383Y-3.2291
X4.3383Y-3.2764
X4.3383Y-3.3236
X4.3383Y-3.3709
X4.3383Y-3.4181
X4.3633Y-1.6785
X4.3633Y-1.7257
X4.3633Y-1.773
X4.3633Y-1.8202
X4.3633Y-1.8674
X4.3633Y-1.9147
X4.3855Y-3.1346
X4.3855Y-3.1819
X4.3855Y-3.2291
X4.3855Y-3.2764
X4.3855Y-3.3236
X4.3855Y-3.3709
X4.3855Y-3.4181
X4.3888Y-2.2255
X4.3888Y-2.2728
X4.3888Y-2.32
X4.3888Y-2.3672
X4.3888Y-2.4145
X4.3888Y-2.4617
X4.4106Y-1.6785
X4.4106Y-1.7257
X4.4106Y-1.773
X4.4106Y-1.8202
X4.4106Y-1.8674
X4.4106Y-1.9147
X4.4188Y-2.2255
X4.4188Y-2.2728
X4.4188Y-2.32
X4.4188Y-2.3672
X4.4188Y-2.4145
X4.4188Y-2.4617
X4.4328Y-3.1346
X4.4328Y-3.1819
X4.4328Y-3.2291
X4.4328Y-3.2764
X4.4328Y-3.3236
X4.4328Y-3.3709
X4.4328Y-3.4181
X4.4488Y-2.2255
X4.4488Y-2.2728
X4.4488Y-2.32
X4.4488Y-2.3672
X4.4488Y-2.4145
X4.4488Y-2.4617
X4.48Y-3.1346
X4.48Y-3.1819
X4.48Y-3.2291
X4.48Y-3.2764
X4.48Y-3.3236
X4.48Y-3.3709
X4.48Y-3.4181
X4.5124Y-2.2255
X4.5124Y-2.2728
X4.5124Y-2.32
X4.5124Y-2.3672
X4.5124Y-2.4145
X4.5124Y-2.4617
X4.5424Y-2.2255
X4.5424Y-2.2728
X4.5424Y-2.32
X4.5424Y-2.3672
X4.5424Y-2.4145
X4.5424Y-2.4617
X4.5501Y-1.6785
X4.5501Y-1.7257
X4.5501Y-1.773
X4.5501Y-1.8202
X4.5501Y-1.8674
X4.5501Y-1.9147
X4.5724Y-2.2255
X4.5724Y-2.2728
X4.5724Y-2.32
X4.5724Y-2.3672
X4.5724Y-2.4145
X4.5724Y-2.4617
X4.5974Y-1.6785
X4.5974Y-1.7257
X4.5974Y-1.773
X4.5974Y-1.8202
X4.5974Y-1.8674
X4.5974Y-1.9147
X4.6446Y-1.6785
X4.6446Y-1.7257
X4.6446Y-1.773
X4.6446Y-1.8202
X4.6446Y-1.8674
X4.6446Y-1.9147
X4.6919Y-1.6785
X4.6919Y-1.7257
X4.6919Y-1.773
X4.6919Y-1.8202
X4.6919Y-1.8674
X4.6919Y-1.9147
X4.7391Y-1.6785
X4.7391Y-1.7257
X4.7391Y-1.773
X4.7391Y-1.8202
X4.7391Y-1.8674
X4.7391Y-1.9147
X4.7863Y-1.6785
X4.7863Y-1.7257
X4.7863Y-1.773
X4.7863Y-1.8202
X4.7863Y-1.8674
X4.7863Y-1.9147
X4.8124Y-2.2255
X4.8124Y-2.2728
X4.8124Y-2.32
X4.8124Y-2.3672
X4.8124Y-2.4145
X4.8124Y-2.4617
X4.8336Y-1.6785
X4.8336Y-1.7257
X4.8336Y-1.773
X4.8336Y-1.8202
X4.8336Y-1.8674
X4.8336Y-1.9147
X4.8424Y-2.2255
X4.8424Y-2.2728
X4.8424Y-2.32
X4.8424Y-2.3672
X4.8424Y-2.4145
X4.8424Y-2.4617
X4.8724Y-2.2255
X4.8724Y-2.2728
X4.8724Y-2.32
X4.8724Y-2.3672
X4.8724Y-2.4145
X4.8724Y-2.4617
X5.6503Y-2.2275
X5.6503Y-2.2748
X5.6503Y-2.322
X5.6503Y-2.3692
X5.6503Y-2.4165
X5.6503Y-2.4637
X5.6803Y-2.2275
X5.6803Y-2.2748
X5.6803Y-2.322
X5.6803Y-2.3692
X5.6803Y-2.4165
X5.6803Y-2.4637
X5.6886Y-1.6805
X5.6886Y-1.7277
X5.6886Y-1.775
X5.6886Y-1.8222
X5.6886Y-1.8694
X5.6886Y-1.9167
X5.7103Y-2.2275
X5.7103Y-2.2748
X5.7103Y-2.322
X5.7103Y-2.3692
X5.7103Y-2.4165
X5.7103Y-2.4637
X5.7358Y-1.6805
X5.7358Y-1.7277
X5.7358Y-1.775
X5.7358Y-1.8222
X5.7358Y-1.8694
X5.7358Y-1.9167
X5.7831Y-1.6805
X5.7831Y-1.7277
X5.7831Y-1.775
X5.7831Y-1.8222
X5.7831Y-1.8694
X5.7831Y-1.9167
X5.8303Y-1.6805
X5.8303Y-1.7277
X5.8303Y-1.775
X5.8303Y-1.8222
X5.8303Y-1.8694
X5.8303Y-1.9167
X5.8776Y-1.6805
X5.8776Y-1.7277
X5.8776Y-1.775
X5.8776Y-1.8222
X5.8776Y-1.8694
X5.8776Y-1.9167
X5.9248Y-1.6805
X5.9248Y-1.7277
X5.9248Y-1.775
X5.9248Y-1.8222
X5.9248Y-1.8694
X5.9248Y-1.9167
X5.9503Y-2.2275
X5.9503Y-2.2748
X5.9503Y-2.322
X5.9503Y-2.3692
X5.9503Y-2.4165
X5.9503Y-2.4637
X5.9721Y-1.6805
X5.9721Y-1.7277
X5.9721Y-1.775
X5.9721Y-1.8222
X5.9721Y-1.8694
X5.9721Y-1.9167
X5.9803Y-2.2275
X5.9803Y-2.2748
X5.9803Y-2.322
X5.9803Y-2.3692
X5.9803Y-2.4165
X5.9803Y-2.4637
X6.0103Y-2.2275
X6.0103Y-2.2748
X6.0103Y-2.322
X6.0103Y-2.3692
X6.0103Y-2.4165
X6.0103Y-2.4637
X6.0739Y-2.2275
X6.0739Y-2.2748
X6.0739Y-2.322
X6.0739Y-2.3692
X6.0739Y-2.4165
X6.0739Y-2.4637
X6.1039Y-2.2275
X6.1039Y-2.2748
X6.1039Y-2.322
X6.1039Y-2.3692
X6.1039Y-2.4165
X6.1039Y-2.4637
X6.1116Y-1.6805
X6.1116Y-1.7277
X6.1116Y-1.775
X6.1116Y-1.8222
X6.1116Y-1.8694
X6.1116Y-1.9167
X6.1339Y-2.2275
X6.1339Y-2.2748
X6.1339Y-2.322
X6.1339Y-2.3692
X6.1339Y-2.4165
X6.1339Y-2.4637
X6.1589Y-1.6805
X6.1589Y-1.7277
X6.1589Y-1.775
X6.1589Y-1.8222
X6.1589Y-1.8694
X6.1589Y-1.9167
X6.2061Y-1.6805
X6.2061Y-1.7277
X6.2061Y-1.775
X6.2061Y-1.8222
X6.2061Y-1.8694
X6.2061Y-1.9167
X6.2534Y-1.6805
X6.2534Y-1.7277
X6.2534Y-1.775
X6.2534Y-1.8222
X6.2534Y-1.8694
X6.2534Y-1.9167
X6.3006Y-1.6805
X6.3006Y-1.7277
X6.3006Y-1.775
X6.3006Y-1.8222
X6.3006Y-1.8694
X6.3006Y-1.9167
X6.3478Y-1.6805
X6.3478Y-1.7277
X6.3478Y-1.775
X6.3478Y-1.8222
X6.3478Y-1.8694
X6.3478Y-1.9167
X6.3739Y-2.2275
X6.3739Y-2.2748
X6.3739Y-2.322
X6.3739Y-2.3692
X6.3739Y-2.4165
X6.3739Y-2.4637
X6.3951Y-1.6805
X6.3951Y-1.7277
X6.3951Y-1.775
X6.3951Y-1.8222
X6.3951Y-1.8694
X6.3951Y-1.9167
X6.4039Y-2.2275
X6.4039Y-2.2748
X6.4039Y-2.322
X6.4039Y-2.3692
X6.4039Y-2.4165
X6.4039Y-2.4637
X6.4339Y-2.2275
X6.4339Y-2.2748
X6.4339Y-2.322
X6.4339Y-2.3692
X6.4339Y-2.4165
X6.4339Y-2.4637
X7.2088Y-2.2255
X7.2088Y-2.2728
X7.2088Y-2.32
X7.2088Y-2.3672
X7.2088Y-2.4145
X7.2088Y-2.4617
X7.2388Y-2.2255
X7.2388Y-2.2728
X7.2388Y-2.32
X7.2388Y-2.3672
X7.2388Y-2.4145
X7.2388Y-2.4617
X7.2471Y-1.6785
X7.2471Y-1.7257
X7.2471Y-1.773
X7.2471Y-1.8202
X7.2471Y-1.8674
X7.2471Y-1.9147
X7.2688Y-2.2255
X7.2688Y-2.2728
X7.2688Y-2.32
X7.2688Y-2.3672
X7.2688Y-2.4145
X7.2688Y-2.4617
X7.2943Y-1.6785
X7.2943Y-1.7257
X7.2943Y-1.773
X7.2943Y-1.8202
X7.2943Y-1.8674
X7.2943Y-1.9147
X7.3416Y-1.6785
X7.3416Y-1.7257
X7.3416Y-1.773
X7.3416Y-1.8202
X7.3416Y-1.8674
X7.3416Y-1.9147
X7.3888Y-1.6785
X7.3888Y-1.7257
X7.3888Y-1.773
X7.3888Y-1.8202
X7.3888Y-1.8674
X7.3888Y-1.9147
X7.4361Y-1.6785
X7.4361Y-1.7257
X7.4361Y-1.773
X7.4361Y-1.8202
X7.4361Y-1.8674
X7.4361Y-1.9147
X7.4833Y-1.6785
X7.4833Y-1.7257
X7.4833Y-1.773
X7.4833Y-1.8202
X7.4833Y-1.8674
X7.4833Y-1.9147
X7.5088Y-2.2255
X7.5088Y-2.2728
X7.5088Y-2.32
X7.5088Y-2.3672
X7.5088Y-2.4145
X7.5088Y-2.4617
X7.5306Y-1.6785
X7.5306Y-1.7257
X7.5306Y-1.773
X7.5306Y-1.8202
X7.5306Y-1.8674
X7.5306Y-1.9147
X7.5388Y-2.2255
X7.5388Y-2.2728
X7.5388Y-2.32
X7.5388Y-2.3672
X7.5388Y-2.4145
X7.5388Y-2.4617
X7.5688Y-2.2255
X7.5688Y-2.2728
X7.5688Y-2.32
X7.5688Y-2.3672
X7.5688Y-2.4145
X7.5688Y-2.4617
X7.6324Y-2.2255
X7.6324Y-2.2728
X7.6324Y-2.32
X7.6324Y-2.3672
X7.6324Y-2.4145
X7.6324Y-2.4617
X7.6624Y-2.2255
X7.6624Y-2.2728
X7.6624Y-2.32
X7.6624Y-2.3672
X7.6624Y-2.4145
X7.6624Y-2.4617
X7.6701Y-1.6785
X7.6701Y-1.7257
X7.6701Y-1.773
X7.6701Y-1.8202
X7.6701Y-1.8674
X7.6701Y-1.9147
X7.6924Y-2.2255
X7.6924Y-2.2728
X7.6924Y-2.32
X7.6924Y-2.3672
X7.6924Y-2.4145
X7.6924Y-2.4617
X7.7174Y-1.6785
X7.7174Y-1.7257
X7.7174Y-1.773
X7.7174Y-1.8202
X7.7174Y-1.8674
X7.7174Y-1.9147
X7.7646Y-1.6785
X7.7646Y-1.7257
X7.7646Y-1.773
X7.7646Y-1.8202
X7.7646Y-1.8674
X7.7646Y-1.9147
X7.8119Y-1.6785
X7.8119Y-1.7257
X7.8119Y-1.773
X7.8119Y-1.8202
X7.8119Y-1.8674
X7.8119Y-1.9147
X7.8591Y-1.6785
X7.8591Y-1.7257
X7.8591Y-1.773
X7.8591Y-1.8202
X7.8591Y-1.8674
X7.8591Y-1.9147
X7.9063Y-1.6785
X7.9063Y-1.7257
X7.9063Y-1.773
X7.9063Y-1.8202
X7.9063Y-1.8674
X7.9063Y-1.9147
X7.9324Y-2.2255
X7.9324Y-2.2728
X7.9324Y-2.32
X7.9324Y-2.3672
X7.9324Y-2.4145
X7.9324Y-2.4617
X7.9536Y-1.6785
X7.9536Y-1.7257
X7.9536Y-1.773
X7.9536Y-1.8202
X7.9536Y-1.8674
X7.9536Y-1.9147
X7.9624Y-2.2255
X7.9624Y-2.2728
X7.9624Y-2.32
X7.9624Y-2.3672
X7.9624Y-2.4145
X7.9624Y-2.4617
X7.9924Y-2.2255
X7.9924Y-2.2728
X7.9924Y-2.32
X7.9924Y-2.3672
X7.9924Y-2.4145
X7.9924Y-2.4617
T2
X3.7887Y-2.44
X3.805Y-2.86
X3.845Y-2.86
X3.8562Y-2.5125
X3.8638Y-1.885
X3.865Y-2.565
X3.885Y-2.86
X3.91Y-2.645
X3.925Y-2.86
X3.95Y-4.35
X3.965Y-2.86
X3.97Y-3.97
X3.9787Y-2.185
X4.0237Y-2.38
X4.0438Y-2.82
X4.0438Y-3.025
X4.0587Y-2.695
X4.085Y-2.82
X4.085Y-3.025
X4.1262Y-2.82
X4.1262Y-3.025
X4.1487Y-2.57
X4.1675Y-2.82
X4.1675Y-3.025
X4.2088Y-2.82
X4.2088Y-3.025
X4.25Y-4.18
X4.2775Y-3.025
X4.2787Y-2.82
X4.3187Y-3.025
X4.32Y-2.82
X4.36Y-3.025
X4.3613Y-2.82
X4.4013Y-3.025
X4.4025Y-2.82
X4.4425Y-3.025
X4.4437Y-2.82
X4.5175Y-3.025
X4.5187Y-2.82
X4.5587Y-3.025
X4.56Y-2.82
X4.5788Y-2.57
X4.6Y-3.025
X4.6013Y-2.82
X4.6413Y-3.025
X4.6425Y-2.82
X4.67Y-4.198
X4.67Y-4.344
X4.6825Y-3.025
X4.6837Y-2.82
X4.75Y-3.125
X4.75Y-3.175
X4.75Y-3.225
X4.75Y-3.275
X4.75Y-3.325
X4.7525Y-3.025
X4.7538Y-2.82
X4.77Y-4.23
X4.7938Y-3.025
X4.795Y-2.82
X4.8Y-3.15
X4.8Y-3.2
X4.8Y-3.25
X4.8Y-3.3
X4.8Y-3.35
X4.8Y-3.4971
X4.835Y-3.025
X4.8362Y-2.82
X4.85Y-3.125
X4.85Y-3.175
X4.85Y-3.225
X4.85Y-3.275
X4.85Y-3.325
X4.87Y-4.2857
X4.8762Y-3.025
X4.8775Y-2.82
X4.9Y-3.15
X4.9Y-3.2
X4.9Y-3.25
X4.9Y-3.3
X4.9Y-3.35
X4.91Y-3.46
X4.9175Y-3.025
X4.9188Y-2.82
X4.95Y-3.125
X4.95Y-3.175
X4.95Y-3.225
X4.95Y-3.275
X4.95Y-3.325
X4.9538Y-1.715
X4.97Y-2.88
X4.972Y-4.212
X5.0Y-2.7
X5.0Y-2.75
X5.0Y-2.8
X5.0Y-3.15
X5.0Y-3.2
X5.0Y-3.25
X5.0Y-3.3
X5.0Y-3.35
X5.05Y-3.125
X5.05Y-3.175
X5.05Y-3.225
X5.05Y-3.275
X5.05Y-3.325
X5.1Y-2.7
X5.1Y-2.75
X5.1Y-2.8
X5.1037Y-1.76
X5.2Y-2.7
X5.2Y-2.75
X5.2Y-2.8
X5.2Y-3.4577
X5.24Y-3.94
X5.28Y-1.69
X5.28Y-1.765
X5.3Y-2.65
X5.3Y-2.7
X5.3Y-2.75
X5.3Y-2.8
X5.3Y-3.15
X5.3Y-3.25
X5.3Y-3.35
X5.3Y-3.45
X5.31Y-1.79
X5.35Y-3.1
X5.35Y-3.2
X5.35Y-3.3
X5.35Y-3.4
X5.35Y-3.74
X5.3502Y-2.442
X5.3868Y-4.0311
X5.4Y-2.65
X5.4Y-2.7
X5.4Y-2.75
X5.4Y-2.8
X5.4Y-3.15
X5.4Y-3.25
X5.4Y-3.35
X5.4Y-3.45
X5.4Y-3.78
X5.415Y-3.745
X5.4177Y-2.5145
X5.42Y-3.6
X5.42Y-4.02
X5.4253Y-1.887
X5.45Y-3.1
X5.45Y-3.2
X5.45Y-3.3
X5.45Y-3.4
X5.455Y-3.98
X5.46Y-3.78
X5.4718Y-2.52
X5.485Y-3.63
X5.49Y-3.98
X5.495Y-2.555
X5.5Y-2.7
X5.5Y-2.75
X5.5Y-2.8
X5.5Y-3.15
X5.5Y-3.25
X5.5Y-3.35
X5.5Y-3.45
X5.515Y-3.535
X5.52Y-3.78
X5.5402Y-2.187
X5.55Y-3.1
X5.55Y-3.2
X5.55Y-3.3
X5.55Y-3.4
X5.5582Y-2.705
X5.5853Y-2.382
X5.59Y-3.94
X5.6052Y-2.822
X5.6052Y-3.027
X5.6202Y-2.697
X5.6465Y-2.822
X5.6465Y-3.027
X5.665Y-3.205
X5.6878Y-2.822
X5.6878Y-3.027
X5.7103Y-2.572
X5.729Y-2.822
X5.729Y-3.027
X5.74Y-3.755
X5.7702Y-2.822
X5.7702Y-3.027
X5.78Y-3.95
X5.78Y-4.25
X5.83Y-3.95
X5.83Y-4.09
X5.83Y-4.2432
X5.839Y-3.027
X5.8403Y-2.822
X5.88Y-3.9432
X5.88Y-4.27
X5.8803Y-3.027
X5.8815Y-2.822
X5.9068Y-4.2432
X5.9083Y-3.8721
X5.9215Y-3.027
X5.9227Y-2.822
X5.93Y-4.08
X5.9627Y-3.027
X5.964Y-2.822
X5.98Y-4.27
X5.9896Y-3.4046
X6.004Y-3.027
X6.0053Y-2.822
X6.01Y-3.1
X6.01Y-3.74
X6.03Y-4.24
X6.079Y-3.027
X6.08Y-4.27
X6.0802Y-2.822
X6.1202Y-3.027
X6.1215Y-2.822
X6.13Y-4.08
X6.13Y-4.27
X6.1402Y-2.572
X6.1615Y-3.027
X6.1627Y-2.822
X6.175Y-3.51
X6.175Y-3.69
X6.18Y-4.115
X6.195Y-3.74
X6.2027Y-3.027
X6.204Y-2.822
X6.244Y-3.027
X6.2452Y-2.822
X6.255Y-3.85
X6.26Y-3.77
X6.27Y-3.8164
X6.31Y-4.27
X6.314Y-3.027
X6.3152Y-2.822
X6.335Y-3.765
X6.355Y-4.115
X6.3552Y-3.027
X6.3565Y-2.822
X6.395Y-3.18
X6.3965Y-3.027
X6.3978Y-2.822
X6.405Y-3.755
X6.4186Y-3.9614
X6.4377Y-3.027
X6.439Y-2.822
X6.47Y-4.3667
X6.479Y-3.027
X6.4802Y-2.822
X6.485Y-3.77
X6.4964Y-3.9736
X6.5152Y-1.717
X6.52Y-4.3667
X6.535Y-3.9713
X6.5399Y-4.044
X6.55Y-2.7
X6.55Y-2.75
X6.55Y-2.8
X6.57Y-4.3667
X6.5749Y-4.044
X6.575Y-3.575
X6.575Y-3.91
X6.61Y-4.044
X6.615Y-3.91
X6.645Y-4.044
X6.65Y-2.7
X6.65Y-2.75
X6.65Y-2.8
X6.665Y-3.91
X6.67Y-4.3667
X6.68Y-4.044
X6.6975Y-3.897
X6.7Y-3.46
X6.702Y-3.524
X6.71Y-1.5958
X6.715Y-4.044
X6.7178Y-1.8446
X6.75Y-2.7
X6.75Y-2.75
X6.75Y-2.8
X6.756Y-3.682
X6.78Y-4.17
X6.78Y-4.2068
X6.7847Y-2.9457
X6.785Y-3.8732
X6.7868Y-2.9807
X6.79Y-4.2532
X6.81Y-3.22
X6.814Y-3.728
X6.835Y-3.6588
X6.84Y-1.695
X6.85Y-2.65
X6.85Y-2.7
X6.85Y-2.75
X6.85Y-2.8
X6.875Y-4.1984
X6.875Y-1.795
X6.885Y-3.615
X6.9Y-3.925
X6.9Y-3.975
X6.9Y-4.025
X6.9Y-4.075
X6.9049Y-3.8164
X6.9087Y-2.44
X6.91Y-4.1984
X6.915Y-1.8678
X6.915Y-3.65
X6.942Y-3.44
X6.95Y-2.65
X6.95Y-2.7
X6.95Y-2.75
X6.95Y-2.8
X6.95Y-3.925
X6.95Y-3.975
X6.95Y-4.025
X6.95Y-4.075
X6.9612Y-4.2216
X6.967Y-3.728
X6.975Y-2.99
X6.9763Y-2.5125
X6.9849Y-3.425
X7.0Y-3.925
X7.0Y-3.975
X7.0Y-4.025
X7.0Y-4.075
X7.002Y-3.73
X7.0033Y-3.77
X7.0033Y-3.8164
X7.02Y-4.26
X7.0227Y-2.905
X7.0482Y-2.58
X7.05Y-2.7
X7.05Y-2.75
X7.05Y-2.8
X7.05Y-3.925
X7.05Y-3.975
X7.05Y-4.025
X7.05Y-4.075
X7.0652Y-4.2472
X7.07Y-3.78
X7.0755Y-3.0805
X7.085Y-3.0
X7.09Y-3.81
X7.0987Y-2.185
X7.11Y-4.335
X7.1125Y-3.6803
X7.116Y-3.772
X7.135Y-4.165
X7.1437Y-2.38
X7.16Y-3.59
X7.16Y-3.89
X7.1637Y-2.82
X7.1637Y-3.025
X7.1787Y-2.695
X7.1832Y-3.4652
X7.19Y-3.655
X7.19Y-4.075
X7.19Y-4.335
X7.205Y-2.82
X7.205Y-3.025
X7.225Y-3.91
X7.23Y-4.085
X7.23Y-4.14
X7.2462Y-2.82
X7.2462Y-3.025
X7.2608Y-3.97
X7.265Y-3.93
X7.2687Y-2.57
X7.2875Y-2.82
X7.2875Y-3.025
X7.295Y-4.255
X7.2998Y-3.8898
X7.3Y-3.15
X7.3Y-3.34
X7.3Y-3.53
X7.315Y-4.035
X7.3287Y-2.82
X7.3287Y-3.025
X7.344Y-3.766
X7.39Y-3.42
X7.3975Y-3.025
X7.3987Y-2.82
X7.4Y-3.12
X7.4387Y-3.025
X7.44Y-2.82
X7.47Y-4.065
X7.48Y-3.025
X7.4813Y-2.82
X7.4854Y-4.115
X7.49Y-3.12
X7.495Y-3.725
X7.505Y-3.66
X7.5213Y-3.025
X7.5225Y-2.82
X7.545Y-4.27
X7.55Y-3.235
X7.5625Y-3.025
X7.5637Y-2.82
X7.5728Y-3.7628
X7.62Y-3.79
X7.62Y-3.835
X7.6375Y-3.025
X7.6387Y-2.82
X7.665Y-3.25
X7.6787Y-3.025
X7.68Y-2.82
X7.685Y-3.84
X7.6987Y-2.57
X7.72Y-3.025
X7.7212Y-2.82
X7.7612Y-3.025
X7.7625Y-2.82
X7.8025Y-3.025
X7.8037Y-2.82
X7.83Y-3.87
X7.835Y-3.82
X7.84Y-4.34
X7.86Y-3.1
X7.86Y-4.16
X7.8725Y-3.025
X7.8738Y-2.82
X7.9137Y-3.025
X7.915Y-2.82
X7.9314Y-3.3714
X7.955Y-3.025
X7.9562Y-2.82
X7.98Y-3.595
X7.99Y-3.815
X7.9962Y-3.025
X7.9975Y-2.82
X8.0375Y-3.025
X8.0388Y-2.82
X8.045Y-3.1
X8.0738Y-1.715
X8.135Y-3.7
X8.14Y-3.79
X8.155Y-3.83
X8.1563Y-4.1591
X8.2088Y-4.0713
X8.2231Y-1.5977
X8.2237Y-1.76
X8.25Y-2.95
X8.2562Y-4.1562
X8.3Y-3.93
X8.36Y-3.93
X8.4Y-1.695
X8.41Y-1.765
X8.41Y-1.815
X8.41Y-1.86
X8.41Y-3.89
T4
X4.1341Y-1.143
X4.1341Y-1.4383
X4.825Y-1.143
X4.825Y-1.4383
X5.7Y-1.143
X5.7Y-1.4383
X6.3909Y-1.143
X6.3909Y-1.4383
X7.2591Y-1.143
X7.2591Y-1.4383
X7.95Y-1.143
X7.95Y-1.4383
T5
X3.975Y-3.375
X5.1037Y-2.48
X6.6652Y-2.482
X8.22Y-3.37
X8.2237Y-2.48
T3
G00X5.0604Y-3.9285
M15
G01X5.0604Y-3.9915
M16
G05
G00X5.0604Y-4.2053
M15
G01X5.0604Y-4.2486
M16
G05
G00X5.71Y-3.9285
M15
G01X5.71Y-3.9915
M16
G05
G00X5.71Y-4.2053
M15
G01X5.71Y-4.2486
M16
G05
G00X8.0148Y-4.1138
M15
G01X8.0148Y-4.1571
M16
G05
G00X8.0148Y-4.2882
M15
G01X8.0148Y-4.3118
M16
G05
G00X8.355Y-4.1138
M15
G01X8.355Y-4.1571
M16
G05
G00X8.355Y-4.2882
M15
G01X8.355Y-4.3118
M16
G05
T0
M30
