M48
; DRILL file {KiCad 7.0.1} date Sun Jul 16 19:11:47 2023
; FORMAT={-:-/ absolute / inch / decimal}
; #@! TF.CreationDate,2023-07-16T19:11:47-05:00
; #@! TF.GenerationSoftware,Kicad,Pcbnew,7.0.1
; #@! TF.FileFunction,Plated,1,4,PTH
FMAT,2
INCH
; #@! TA.AperFunction,Plated,PTH,ComponentDrill
T1C0.0118
; #@! TA.AperFunction,Plated,PTH,ViaDrill
T2C0.0157
; #@! TA.AperFunction,Plated,PTH,ComponentDrill
T3C0.0236
; #@! TA.AperFunction,Plated,PTH,ComponentDrill
T4C0.0472
; #@! TA.AperFunction,Plated,PTH,ComponentDrill
T5C0.2441
%
G90
G05
T1
X4.0888Y-2.2255
X4.0888Y-2.2728
X4.0888Y-2.32
X4.0888Y-2.3672
X4.0888Y-2.4145
X4.0888Y-2.4617
X4.1188Y-2.2255
X4.1188Y-2.2728
X4.1188Y-2.32
X4.1188Y-2.3672
X4.1188Y-2.4145
X4.1188Y-2.4617
X4.1271Y-1.6785
X4.1271Y-1.7257
X4.1271Y-1.773
X4.1271Y-1.8202
X4.1271Y-1.8674
X4.1271Y-1.9147
X4.1488Y-2.2255
X4.1488Y-2.2728
X4.1488Y-2.32
X4.1488Y-2.3672
X4.1488Y-2.4145
X4.1488Y-2.4617
X4.1743Y-1.6785
X4.1743Y-1.7257
X4.1743Y-1.773
X4.1743Y-1.8202
X4.1743Y-1.8674
X4.1743Y-1.9147
X4.2216Y-1.6785
X4.2216Y-1.7257
X4.2216Y-1.773
X4.2216Y-1.8202
X4.2216Y-1.8674
X4.2216Y-1.9147
X4.2438Y-3.1346
X4.2438Y-3.1819
X4.2438Y-3.2291
X4.2438Y-3.2764
X4.2438Y-3.3236
X4.2438Y-3.3709
X4.2438Y-3.4181
X4.2688Y-1.6785
X4.2688Y-1.7257
X4.2688Y-1.773
X4.2688Y-1.8202
X4.2688Y-1.8674
X4.2688Y-1.9147
X4.291Y-3.1346
X4.291Y-3.1819
X4.291Y-3.2291
X4.291Y-3.2764
X4.291Y-3.3236
X4.291Y-3.3709
X4.291Y-3.4181
X4.3161Y-1.6785
X4.3161Y-1.7257
X4.3161Y-1.773
X4.3161Y-1.8202
X4.3161Y-1.8674
X4.3161Y-1.9147
X4.3383Y-3.1346
X4.3383Y-3.1819
X4.3383Y-3.2291
X4.3383Y-3.2764
X4.3383Y-3.3236
X4.3383Y-3.3709
X4.3383Y-3.4181
X4.3633Y-1.6785
X4.3633Y-1.7257
X4.3633Y-1.773
X4.3633Y-1.8202
X4.3633Y-1.8674
X4.3633Y-1.9147
X4.3855Y-3.1346
X4.3855Y-3.1819
X4.3855Y-3.2291
X4.3855Y-3.2764
X4.3855Y-3.3236
X4.3855Y-3.3709
X4.3855Y-3.4181
X4.3888Y-2.2255
X4.3888Y-2.2728
X4.3888Y-2.32
X4.3888Y-2.3672
X4.3888Y-2.4145
X4.3888Y-2.4617
X4.4106Y-1.6785
X4.4106Y-1.7257
X4.4106Y-1.773
X4.4106Y-1.8202
X4.4106Y-1.8674
X4.4106Y-1.9147
X4.4188Y-2.2255
X4.4188Y-2.2728
X4.4188Y-2.32
X4.4188Y-2.3672
X4.4188Y-2.4145
X4.4188Y-2.4617
X4.4328Y-3.1346
X4.4328Y-3.1819
X4.4328Y-3.2291
X4.4328Y-3.2764
X4.4328Y-3.3236
X4.4328Y-3.3709
X4.4328Y-3.4181
X4.4488Y-2.2255
X4.4488Y-2.2728
X4.4488Y-2.32
X4.4488Y-2.3672
X4.4488Y-2.4145
X4.4488Y-2.4617
X4.48Y-3.1346
X4.48Y-3.1819
X4.48Y-3.2291
X4.48Y-3.2764
X4.48Y-3.3236
X4.48Y-3.3709
X4.48Y-3.4181
X4.5124Y-2.2255
X4.5124Y-2.2728
X4.5124Y-2.32
X4.5124Y-2.3672
X4.5124Y-2.4145
X4.5124Y-2.4617
X4.5424Y-2.2255
X4.5424Y-2.2728
X4.5424Y-2.32
X4.5424Y-2.3672
X4.5424Y-2.4145
X4.5424Y-2.4617
X4.5501Y-1.6785
X4.5501Y-1.7257
X4.5501Y-1.773
X4.5501Y-1.8202
X4.5501Y-1.8674
X4.5501Y-1.9147
X4.5724Y-2.2255
X4.5724Y-2.2728
X4.5724Y-2.32
X4.5724Y-2.3672
X4.5724Y-2.4145
X4.5724Y-2.4617
X4.5974Y-1.6785
X4.5974Y-1.7257
X4.5974Y-1.773
X4.5974Y-1.8202
X4.5974Y-1.8674
X4.5974Y-1.9147
X4.6446Y-1.6785
X4.6446Y-1.7257
X4.6446Y-1.773
X4.6446Y-1.8202
X4.6446Y-1.8674
X4.6446Y-1.9147
X4.6919Y-1.6785
X4.6919Y-1.7257
X4.6919Y-1.773
X4.6919Y-1.8202
X4.6919Y-1.8674
X4.6919Y-1.9147
X4.7391Y-1.6785
X4.7391Y-1.7257
X4.7391Y-1.773
X4.7391Y-1.8202
X4.7391Y-1.8674
X4.7391Y-1.9147
X4.7863Y-1.6785
X4.7863Y-1.7257
X4.7863Y-1.773
X4.7863Y-1.8202
X4.7863Y-1.8674
X4.7863Y-1.9147
X4.8124Y-2.2255
X4.8124Y-2.2728
X4.8124Y-2.32
X4.8124Y-2.3672
X4.8124Y-2.4145
X4.8124Y-2.4617
X4.8336Y-1.6785
X4.8336Y-1.7257
X4.8336Y-1.773
X4.8336Y-1.8202
X4.8336Y-1.8674
X4.8336Y-1.9147
X4.8424Y-2.2255
X4.8424Y-2.2728
X4.8424Y-2.32
X4.8424Y-2.3672
X4.8424Y-2.4145
X4.8424Y-2.4617
X4.8724Y-2.2255
X4.8724Y-2.2728
X4.8724Y-2.32
X4.8724Y-2.3672
X4.8724Y-2.4145
X4.8724Y-2.4617
X5.6503Y-2.2275
X5.6503Y-2.2748
X5.6503Y-2.322
X5.6503Y-2.3692
X5.6503Y-2.4165
X5.6503Y-2.4637
X5.6803Y-2.2275
X5.6803Y-2.2748
X5.6803Y-2.322
X5.6803Y-2.3692
X5.6803Y-2.4165
X5.6803Y-2.4637
X5.6886Y-1.6805
X5.6886Y-1.7277
X5.6886Y-1.775
X5.6886Y-1.8222
X5.6886Y-1.8694
X5.6886Y-1.9167
X5.7103Y-2.2275
X5.7103Y-2.2748
X5.7103Y-2.322
X5.7103Y-2.3692
X5.7103Y-2.4165
X5.7103Y-2.4637
X5.7358Y-1.6805
X5.7358Y-1.7277
X5.7358Y-1.775
X5.7358Y-1.8222
X5.7358Y-1.8694
X5.7358Y-1.9167
X5.7831Y-1.6805
X5.7831Y-1.7277
X5.7831Y-1.775
X5.7831Y-1.8222
X5.7831Y-1.8694
X5.7831Y-1.9167
X5.8303Y-1.6805
X5.8303Y-1.7277
X5.8303Y-1.775
X5.8303Y-1.8222
X5.8303Y-1.8694
X5.8303Y-1.9167
X5.8776Y-1.6805
X5.8776Y-1.7277
X5.8776Y-1.775
X5.8776Y-1.8222
X5.8776Y-1.8694
X5.8776Y-1.9167
X5.9248Y-1.6805
X5.9248Y-1.7277
X5.9248Y-1.775
X5.9248Y-1.8222
X5.9248Y-1.8694
X5.9248Y-1.9167
X5.9503Y-2.2275
X5.9503Y-2.2748
X5.9503Y-2.322
X5.9503Y-2.3692
X5.9503Y-2.4165
X5.9503Y-2.4637
X5.9721Y-1.6805
X5.9721Y-1.7277
X5.9721Y-1.775
X5.9721Y-1.8222
X5.9721Y-1.8694
X5.9721Y-1.9167
X5.9803Y-2.2275
X5.9803Y-2.2748
X5.9803Y-2.322
X5.9803Y-2.3692
X5.9803Y-2.4165
X5.9803Y-2.4637
X6.0103Y-2.2275
X6.0103Y-2.2748
X6.0103Y-2.322
X6.0103Y-2.3692
X6.0103Y-2.4165
X6.0103Y-2.4637
X6.0739Y-2.2275
X6.0739Y-2.2748
X6.0739Y-2.322
X6.0739Y-2.3692
X6.0739Y-2.4165
X6.0739Y-2.4637
X6.1039Y-2.2275
X6.1039Y-2.2748
X6.1039Y-2.322
X6.1039Y-2.3692
X6.1039Y-2.4165
X6.1039Y-2.4637
X6.1116Y-1.6805
X6.1116Y-1.7277
X6.1116Y-1.775
X6.1116Y-1.8222
X6.1116Y-1.8694
X6.1116Y-1.9167
X6.1339Y-2.2275
X6.1339Y-2.2748
X6.1339Y-2.322
X6.1339Y-2.3692
X6.1339Y-2.4165
X6.1339Y-2.4637
X6.1589Y-1.6805
X6.1589Y-1.7277
X6.1589Y-1.775
X6.1589Y-1.8222
X6.1589Y-1.8694
X6.1589Y-1.9167
X6.2061Y-1.6805
X6.2061Y-1.7277
X6.2061Y-1.775
X6.2061Y-1.8222
X6.2061Y-1.8694
X6.2061Y-1.9167
X6.2534Y-1.6805
X6.2534Y-1.7277
X6.2534Y-1.775
X6.2534Y-1.8222
X6.2534Y-1.8694
X6.2534Y-1.9167
X6.3006Y-1.6805
X6.3006Y-1.7277
X6.3006Y-1.775
X6.3006Y-1.8222
X6.3006Y-1.8694
X6.3006Y-1.9167
X6.3478Y-1.6805
X6.3478Y-1.7277
X6.3478Y-1.775
X6.3478Y-1.8222
X6.3478Y-1.8694
X6.3478Y-1.9167
X6.3739Y-2.2275
X6.3739Y-2.2748
X6.3739Y-2.322
X6.3739Y-2.3692
X6.3739Y-2.4165
X6.3739Y-2.4637
X6.3951Y-1.6805
X6.3951Y-1.7277
X6.3951Y-1.775
X6.3951Y-1.8222
X6.3951Y-1.8694
X6.3951Y-1.9167
X6.4039Y-2.2275
X6.4039Y-2.2748
X6.4039Y-2.322
X6.4039Y-2.3692
X6.4039Y-2.4165
X6.4039Y-2.4637
X6.4339Y-2.2275
X6.4339Y-2.2748
X6.4339Y-2.322
X6.4339Y-2.3692
X6.4339Y-2.4165
X6.4339Y-2.4637
X7.2088Y-2.2255
X7.2088Y-2.2728
X7.2088Y-2.32
X7.2088Y-2.3672
X7.2088Y-2.4145
X7.2088Y-2.4617
X7.2388Y-2.2255
X7.2388Y-2.2728
X7.2388Y-2.32
X7.2388Y-2.3672
X7.2388Y-2.4145
X7.2388Y-2.4617
X7.2471Y-1.6785
X7.2471Y-1.7257
X7.2471Y-1.773
X7.2471Y-1.8202
X7.2471Y-1.8674
X7.2471Y-1.9147
X7.2688Y-2.2255
X7.2688Y-2.2728
X7.2688Y-2.32
X7.2688Y-2.3672
X7.2688Y-2.4145
X7.2688Y-2.4617
X7.2943Y-1.6785
X7.2943Y-1.7257
X7.2943Y-1.773
X7.2943Y-1.8202
X7.2943Y-1.8674
X7.2943Y-1.9147
X7.3416Y-1.6785
X7.3416Y-1.7257
X7.3416Y-1.773
X7.3416Y-1.8202
X7.3416Y-1.8674
X7.3416Y-1.9147
X7.3888Y-1.6785
X7.3888Y-1.7257
X7.3888Y-1.773
X7.3888Y-1.8202
X7.3888Y-1.8674
X7.3888Y-1.9147
X7.4361Y-1.6785
X7.4361Y-1.7257
X7.4361Y-1.773
X7.4361Y-1.8202
X7.4361Y-1.8674
X7.4361Y-1.9147
X7.4833Y-1.6785
X7.4833Y-1.7257
X7.4833Y-1.773
X7.4833Y-1.8202
X7.4833Y-1.8674
X7.4833Y-1.9147
X7.5088Y-2.2255
X7.5088Y-2.2728
X7.5088Y-2.32
X7.5088Y-2.3672
X7.5088Y-2.4145
X7.5088Y-2.4617
X7.5306Y-1.6785
X7.5306Y-1.7257
X7.5306Y-1.773
X7.5306Y-1.8202
X7.5306Y-1.8674
X7.5306Y-1.9147
X7.5388Y-2.2255
X7.5388Y-2.2728
X7.5388Y-2.32
X7.5388Y-2.3672
X7.5388Y-2.4145
X7.5388Y-2.4617
X7.5688Y-2.2255
X7.5688Y-2.2728
X7.5688Y-2.32
X7.5688Y-2.3672
X7.5688Y-2.4145
X7.5688Y-2.4617
X7.6324Y-2.2255
X7.6324Y-2.2728
X7.6324Y-2.32
X7.6324Y-2.3672
X7.6324Y-2.4145
X7.6324Y-2.4617
X7.6624Y-2.2255
X7.6624Y-2.2728
X7.6624Y-2.32
X7.6624Y-2.3672
X7.6624Y-2.4145
X7.6624Y-2.4617
X7.6701Y-1.6785
X7.6701Y-1.7257
X7.6701Y-1.773
X7.6701Y-1.8202
X7.6701Y-1.8674
X7.6701Y-1.9147
X7.6924Y-2.2255
X7.6924Y-2.2728
X7.6924Y-2.32
X7.6924Y-2.3672
X7.6924Y-2.4145
X7.6924Y-2.4617
X7.7174Y-1.6785
X7.7174Y-1.7257
X7.7174Y-1.773
X7.7174Y-1.8202
X7.7174Y-1.8674
X7.7174Y-1.9147
X7.7646Y-1.6785
X7.7646Y-1.7257
X7.7646Y-1.773
X7.7646Y-1.8202
X7.7646Y-1.8674
X7.7646Y-1.9147
X7.8119Y-1.6785
X7.8119Y-1.7257
X7.8119Y-1.773
X7.8119Y-1.8202
X7.8119Y-1.8674
X7.8119Y-1.9147
X7.8591Y-1.6785
X7.8591Y-1.7257
X7.8591Y-1.773
X7.8591Y-1.8202
X7.8591Y-1.8674
X7.8591Y-1.9147
X7.9063Y-1.6785
X7.9063Y-1.7257
X7.9063Y-1.773
X7.9063Y-1.8202
X7.9063Y-1.8674
X7.9063Y-1.9147
X7.9324Y-2.2255
X7.9324Y-2.2728
X7.9324Y-2.32
X7.9324Y-2.3672
X7.9324Y-2.4145
X7.9324Y-2.4617
X7.9536Y-1.6785
X7.9536Y-1.7257
X7.9536Y-1.773
X7.9536Y-1.8202
X7.9536Y-1.8674
X7.9536Y-1.9147
X7.9624Y-2.2255
X7.9624Y-2.2728
X7.9624Y-2.32
X7.9624Y-2.3672
X7.9624Y-2.4145
X7.9624Y-2.4617
X7.9924Y-2.2255
X7.9924Y-2.2728
X7.9924Y-2.32
X7.9924Y-2.3672
X7.9924Y-2.4145
X7.9924Y-2.4617
T2
X3.775Y-3.585
X3.7887Y-2.44
X3.81Y-2.86
X3.84Y-2.54
X3.85Y-2.86
X3.86Y-1.88
X3.88Y-2.66
X3.885Y-2.86
X3.9153Y-2.66
X3.92Y-2.86
X3.94Y-4.35
X3.95Y-3.79
X3.96Y-2.86
X3.9787Y-2.185
X4.0237Y-2.38
X4.04Y-3.02
X4.0438Y-2.82
X4.0587Y-2.695
X4.08Y-3.02
X4.085Y-2.82
X4.11Y-4.35
X4.12Y-3.02
X4.12Y-3.9
X4.1262Y-2.82
X4.1487Y-2.57
X4.16Y-3.02
X4.1611Y-3.9976
X4.1675Y-2.82
X4.2Y-3.02
X4.2088Y-2.82
X4.26Y-4.08
X4.2787Y-2.82
X4.28Y-3.02
X4.32Y-2.82
X4.32Y-3.02
X4.36Y-3.02
X4.3613Y-2.82
X4.37Y-4.35
X4.4Y-3.02
X4.4025Y-2.82
X4.44Y-3.02
X4.4437Y-2.82
X4.5187Y-2.82
X4.52Y-3.02
X4.56Y-2.82
X4.56Y-3.02
X4.5788Y-2.57
X4.59Y-3.5
X4.6Y-3.02
X4.6Y-4.35
X4.6013Y-2.82
X4.64Y-3.02
X4.6425Y-2.82
X4.67Y-4.2
X4.67Y-4.35
X4.68Y-3.02
X4.6837Y-2.82
X4.74Y-3.09
X4.74Y-3.13
X4.74Y-3.17
X4.74Y-3.21
X4.74Y-3.25
X4.74Y-3.29
X4.74Y-3.33
X4.75Y-3.02
X4.7538Y-2.82
X4.77Y-4.35
X4.78Y-3.09
X4.78Y-3.13
X4.78Y-3.17
X4.78Y-3.21
X4.78Y-3.25
X4.78Y-3.29
X4.78Y-3.33
X4.79Y-3.02
X4.795Y-2.82
X4.8032Y-3.4504
X4.82Y-3.09
X4.82Y-3.13
X4.82Y-3.17
X4.82Y-3.21
X4.82Y-3.25
X4.82Y-3.29
X4.82Y-3.33
X4.83Y-3.02
X4.8362Y-2.82
X4.86Y-3.09
X4.86Y-3.13
X4.86Y-3.17
X4.86Y-3.21
X4.86Y-3.25
X4.86Y-3.29
X4.86Y-3.33
X4.87Y-3.02
X4.87Y-4.32
X4.8775Y-2.82
X4.9Y-3.09
X4.9Y-3.13
X4.9Y-3.17
X4.9Y-3.21
X4.9Y-3.25
X4.9Y-3.29
X4.9Y-3.33
X4.91Y-3.02
X4.9188Y-2.82
X4.92Y-3.5
X4.94Y-3.09
X4.94Y-3.13
X4.94Y-3.17
X4.94Y-3.21
X4.94Y-3.25
X4.94Y-3.29
X4.94Y-3.33
X4.9538Y-1.715
X4.96Y-3.5168
X4.97Y-4.21
X4.98Y-3.09
X4.98Y-3.13
X4.98Y-3.17
X4.98Y-3.21
X4.98Y-3.25
X4.98Y-3.29
X4.98Y-3.33
X5.0Y-2.7
X5.0Y-2.75
X5.0Y-2.8
X5.02Y-3.09
X5.02Y-3.13
X5.02Y-3.17
X5.02Y-3.21
X5.02Y-3.25
X5.02Y-3.29
X5.02Y-3.33
X5.02Y-3.6
X5.06Y-3.4332
X5.0887Y-3.5042
X5.1Y-2.7
X5.1Y-2.75
X5.1Y-2.8
X5.1037Y-1.71
X5.18Y-3.46
X5.18Y-3.89
X5.2Y-2.7
X5.2Y-2.75
X5.2Y-2.8
X5.26Y-3.24
X5.26Y-3.28
X5.26Y-3.32
X5.27Y-1.7682
X5.28Y-1.69
X5.295Y-4.25
X5.3Y-2.65
X5.3Y-2.7
X5.3Y-2.75
X5.3Y-2.8
X5.3Y-3.24
X5.3Y-3.28
X5.3Y-3.32
X5.3Y-3.76
X5.33Y-3.59
X5.33Y-4.25
X5.35Y-1.79
X5.35Y-3.24
X5.35Y-3.28
X5.35Y-3.32
X5.3502Y-2.442
X5.36Y-3.63
X5.37Y-2.54
X5.38Y-3.02
X5.39Y-3.24
X5.39Y-3.28
X5.39Y-3.32
X5.4Y-2.65
X5.4Y-2.7
X5.4Y-2.75
X5.4Y-2.8
X5.4Y-3.7668
X5.42Y-1.88
X5.43Y-3.24
X5.43Y-3.28
X5.43Y-3.32
X5.455Y-2.58
X5.455Y-4.25
X5.46Y-3.7668
X5.48Y-3.64
X5.49Y-2.58
X5.49Y-4.25
X5.5Y-2.7
X5.5Y-2.75
X5.5Y-2.8
X5.51Y-3.24
X5.51Y-3.28
X5.51Y-3.32
X5.5195Y-4.11
X5.52Y-3.53
X5.52Y-3.7668
X5.53Y-3.03
X5.5402Y-2.187
X5.55Y-3.24
X5.55Y-3.28
X5.55Y-3.32
X5.55Y-4.14
X5.5513Y-3.5143
X5.5853Y-2.382
X5.59Y-3.94
X5.6052Y-2.822
X5.61Y-3.02
X5.6202Y-2.697
X5.6465Y-2.822
X5.65Y-3.02
X5.65Y-3.2
X5.6878Y-2.822
X5.69Y-3.02
X5.7103Y-2.572
X5.729Y-2.822
X5.73Y-3.02
X5.77Y-3.02
X5.7702Y-2.822
X5.7786Y-3.9514
X5.78Y-3.76
X5.78Y-4.2501
X5.7802Y-3.9165
X5.83Y-4.2037
X5.83Y-4.26
X5.84Y-3.02
X5.8403Y-2.822
X5.88Y-3.02
X5.88Y-4.08
X5.88Y-4.2
X5.88Y-4.28
X5.8815Y-2.822
X5.91Y-3.4046
X5.92Y-3.02
X5.9227Y-2.822
X5.93Y-3.7623
X5.93Y-3.95
X5.93Y-4.2
X5.96Y-3.02
X5.964Y-2.822
X5.98Y-3.9132
X5.98Y-4.28
X6.0Y-3.02
X6.0053Y-2.822
X6.01Y-3.57
X6.02Y-4.2432
X6.08Y-3.02
X6.08Y-3.94
X6.08Y-4.27
X6.0802Y-2.822
X6.12Y-3.02
X6.1215Y-2.822
X6.13Y-4.07
X6.14Y-4.27
X6.1402Y-2.572
X6.16Y-3.02
X6.1627Y-2.822
X6.18Y-3.47
X6.18Y-3.69
X6.19Y-3.96
X6.19Y-4.02
X6.19Y-4.11
X6.2Y-3.02
X6.2Y-3.74
X6.2Y-3.9132
X6.204Y-2.822
X6.24Y-3.02
X6.2452Y-2.822
X6.3Y-4.02
X6.3Y-4.27
X6.31Y-3.02
X6.3152Y-2.822
X6.3186Y-3.7714
X6.32Y-3.56
X6.35Y-3.02
X6.35Y-4.11
X6.3565Y-2.822
X6.37Y-4.2432
X6.38Y-3.77
X6.39Y-3.02
X6.3978Y-2.822
X6.41Y-3.95
X6.42Y-3.7
X6.43Y-3.02
X6.439Y-2.822
X6.44Y-3.77
X6.45Y-3.4
X6.47Y-3.02
X6.4802Y-2.822
X6.49Y-3.9827
X6.5Y-3.76
X6.5152Y-1.717
X6.5288Y-3.9827
X6.55Y-2.7
X6.55Y-2.75
X6.55Y-2.8
X6.5638Y-3.9827
X6.5988Y-3.9827
X6.6Y-3.52
X6.65Y-2.7
X6.65Y-2.75
X6.65Y-2.8
X6.66Y-1.71
X6.67Y-3.46
X6.67Y-3.53
X6.67Y-3.6264
X6.68Y-3.9135
X6.71Y-3.5332
X6.74Y-3.9713
X6.75Y-2.7
X6.75Y-2.75
X6.75Y-2.8
X6.76Y-4.2968
X6.77Y-3.86
X6.78Y-3.3
X6.79Y-4.17
X6.8Y-3.2
X6.8Y-3.73
X6.807Y-4.263
X6.82Y-3.635
X6.84Y-1.695
X6.84Y-1.8
X6.842Y-4.2548
X6.85Y-2.65
X6.85Y-2.7
X6.85Y-2.75
X6.85Y-2.8
X6.8886Y-3.6953
X6.9Y-3.96
X6.9Y-4.04
X6.9049Y-3.8165
X6.9087Y-2.44
X6.91Y-1.77
X6.9266Y-3.6703
X6.94Y-3.96
X6.94Y-4.04
X6.95Y-2.58
X6.95Y-2.65
X6.95Y-2.7
X6.95Y-2.75
X6.95Y-2.8
X6.9513Y-3.8
X6.96Y-3.44
X6.96Y-4.25
X6.9745Y-3.6948
X6.9763Y-2.5125
X6.9763Y-3.08
X6.98Y-3.96
X6.98Y-4.04
X6.99Y-1.88
X6.9919Y-3.7611
X7.0033Y-3.7262
X7.02Y-3.96
X7.02Y-4.04
X7.02Y-4.1968
X7.03Y-4.35
X7.045Y-3.16
X7.05Y-2.58
X7.05Y-2.7
X7.05Y-2.75
X7.05Y-2.8
X7.05Y-4.32
X7.06Y-3.96
X7.06Y-4.04
X7.0694Y-3.76
X7.07Y-3.51
X7.09Y-3.6032
X7.0987Y-2.185
X7.11Y-4.33
X7.12Y-3.58
X7.12Y-3.7968
X7.1437Y-2.38
X7.1476Y-3.8969
X7.15Y-3.82
X7.1637Y-2.82
X7.17Y-3.02
X7.17Y-3.87
X7.17Y-4.0
X7.1787Y-2.695
X7.186Y-3.9643
X7.19Y-3.66
X7.19Y-4.17
X7.19Y-4.33
X7.205Y-2.82
X7.2095Y-4.0905
X7.21Y-3.02
X7.2104Y-4.0555
X7.2132Y-4.14
X7.22Y-3.91
X7.2205Y-3.6032
X7.24Y-3.41
X7.2462Y-2.82
X7.25Y-3.02
X7.25Y-4.22
X7.267Y-3.917
X7.2687Y-2.57
X7.2875Y-2.82
X7.29Y-3.02
X7.2902Y-3.78
X7.3Y-3.15
X7.3Y-3.34
X7.3Y-3.53
X7.31Y-4.03
X7.32Y-4.26
X7.3287Y-2.82
X7.33Y-3.02
X7.35Y-3.68
X7.39Y-3.5
X7.3987Y-2.82
X7.4Y-3.02
X7.4Y-3.12
X7.44Y-2.82
X7.44Y-3.02
X7.4468Y-3.96
X7.45Y-3.66
X7.45Y-3.78
X7.48Y-3.02
X7.4813Y-2.82
X7.49Y-3.12
X7.49Y-3.71
X7.49Y-4.12
X7.5032Y-3.75
X7.52Y-3.02
X7.5225Y-2.82
X7.525Y-4.25
X7.56Y-3.02
X7.5637Y-2.82
X7.58Y-3.25
X7.6Y-3.5568
X7.63Y-3.74
X7.63Y-3.97
X7.6387Y-2.82
X7.64Y-3.02
X7.68Y-2.82
X7.68Y-3.02
X7.69Y-3.97
X7.6987Y-2.57
X7.72Y-3.02
X7.7212Y-2.82
X7.73Y-3.26
X7.76Y-3.02
X7.7625Y-2.82
X7.8Y-3.02
X7.8037Y-2.82
X7.82Y-3.39
X7.82Y-3.73
X7.84Y-4.3
X7.87Y-3.02
X7.8738Y-2.82
X7.91Y-3.02
X7.915Y-2.82
X7.95Y-3.02
X7.9562Y-2.82
X7.99Y-3.02
X7.99Y-3.41
X7.99Y-4.23
X7.9975Y-2.82
X8.0Y-3.97
X8.0Y-4.05
X8.01Y-3.79
X8.03Y-3.02
X8.03Y-4.0
X8.0388Y-2.82
X8.06Y-4.21
X8.0738Y-1.715
X8.15Y-3.62
X8.15Y-3.83
X8.1886Y-3.9414
X8.19Y-4.18
X8.21Y-4.07
X8.23Y-1.72
X8.25Y-2.95
X8.27Y-4.19
X8.28Y-3.55
X8.3Y-3.93
X8.36Y-3.93
X8.3618Y-3.52
X8.39Y-1.8
X8.39Y-3.86
X8.3968Y-3.52
X8.4Y-1.695
X8.41Y-2.73
X8.42Y-1.78
T4
X4.1341Y-1.143
X4.1341Y-1.4383
X4.825Y-1.143
X4.825Y-1.4383
X5.7Y-1.143
X5.7Y-1.4383
X6.3909Y-1.143
X6.3909Y-1.4383
X7.2591Y-1.143
X7.2591Y-1.4383
X7.95Y-1.143
X7.95Y-1.4383
T5
X3.975Y-3.375
X5.1037Y-2.48
X6.6652Y-2.482
X8.22Y-3.37
X8.2237Y-2.48
T3
G00X5.0604Y-3.9285
M15
G01X5.0604Y-3.9915
M16
G05
G00X5.0604Y-4.2053
M15
G01X5.0604Y-4.2486
M16
G05
G00X5.71Y-3.9285
M15
G01X5.71Y-3.9915
M16
G05
G00X5.71Y-4.2053
M15
G01X5.71Y-4.2486
M16
G05
G00X8.0148Y-4.1138
M15
G01X8.0148Y-4.1571
M16
G05
G00X8.0148Y-4.2882
M15
G01X8.0148Y-4.3118
M16
G05
G00X8.355Y-4.1138
M15
G01X8.355Y-4.1571
M16
G05
G00X8.355Y-4.2882
M15
G01X8.355Y-4.3118
M16
G05
T0
M30
